<svg width="84" height="80" viewBox="0 0 84 80" fill="none" xmlns="http://www.w3.org/2000/svg">
<g clip-path="url(#clip0)">
<path d="M83.9999 79.5781H27.3154V79.8244H83.9999V79.5781Z" fill="#3F3D56"/>
<path d="M73.4213 37.6908C73.5304 37.82 73.6114 37.9708 73.659 38.1335C73.7065 38.2962 73.7197 38.4672 73.6975 38.6353C73.6754 38.8035 73.6184 38.9651 73.5303 39.1096C73.4422 39.2542 73.325 39.3785 73.1862 39.4745L67.3198 43.5325L64.7366 45.2676C64.5899 45.3662 64.412 45.4062 64.2376 45.3799C64.0632 45.3536 63.9047 45.2629 63.793 45.1254C63.7279 45.0452 63.6809 44.9517 63.6551 44.8515C63.6294 44.7512 63.6256 44.6465 63.6439 44.5445C63.6623 44.4426 63.7024 44.3459 63.7614 44.2611C63.8205 44.1764 63.8972 44.1055 63.9861 44.0535L66.4881 42.5898L70.8547 38.3998L68.0476 35.362L70.1269 33.7908L73.4213 37.6908Z" fill="#A0616A"/>
<path d="M59.6263 75.9003H58.1913L57.339 63.9588L60.9779 63.854L59.6263 75.9003Z" fill="#A0616A"/>
<path d="M59.7303 79.7759C59.3476 79.9518 59.0271 78.5263 58.7044 78.8459C57.8016 79.7398 56.4191 79.9344 55.2141 79.5441L55.6358 79.5394C55.5631 79.5158 55.4959 79.4777 55.4383 79.4272C55.3806 79.3767 55.3338 79.3149 55.3005 79.2457C55.2673 79.1764 55.2483 79.101 55.2448 79.0241C55.2413 78.9473 55.2533 78.8705 55.2801 78.7984C55.3122 78.7122 55.3646 78.6351 55.4328 78.5738C55.501 78.5125 55.583 78.4688 55.6717 78.4465L56.6318 78.2046L58.1393 75.5335L59.6783 75.4287C60.0214 75.8694 60.2608 76.3827 60.3786 76.9301C60.4964 77.4775 60.4894 78.0447 60.3583 78.5889C60.2187 79.1632 60.0031 79.6504 59.7303 79.7759Z" fill="#2F2E41"/>
<path d="M69.181 75.9003H67.746L66.8937 63.9588L70.6365 63.2256L69.181 75.9003Z" fill="#A0616A"/>
<path d="M69.285 79.7761C68.9023 79.952 68.5818 78.5265 68.2591 78.8461C67.3563 79.74 65.9738 79.9346 64.7688 79.5444L65.1905 79.5396C65.1178 79.5161 65.0506 79.4779 64.993 79.4274C64.9353 79.3769 64.8885 79.3151 64.8552 79.2459C64.8219 79.1766 64.803 79.1012 64.7995 79.0244C64.796 78.9475 64.808 78.8707 64.8348 78.7986C64.8669 78.7124 64.9193 78.6353 64.9875 78.574C65.0557 78.5127 65.1377 78.469 65.2264 78.4467L66.1865 78.2048L67.694 75.5337L69.3369 75.3242L69.3784 75.3926C69.6961 75.9083 69.9008 76.4864 69.9791 77.0882C70.0574 77.69 70.0074 78.3017 69.8324 78.8825C69.6958 79.3236 69.5098 79.6727 69.285 79.7761Z" fill="#2F2E41"/>
<path d="M70.808 34.061C69.4884 34.246 68.5748 34.9742 68.2027 36.4267L65.777 31.9143C65.6332 31.6276 65.5967 31.2982 65.6743 30.9865C65.7519 30.6749 65.9384 30.4019 66.1996 30.2175C66.4768 30.0218 66.8177 29.9403 67.1526 29.9897C67.4875 30.0391 67.791 30.2156 68.0009 30.4831L70.808 34.061Z" fill="#FA575A"/>
<path d="M73.3499 62.7017C67.4521 65.3308 61.4163 65.6544 55.2597 63.9587C57.5079 55.1734 60.1625 47.2296 60.1461 40.7042L66.1762 40.1804L67.1047 41.6634C69.3075 45.182 70.828 49.0895 71.5857 53.179L73.3499 62.7017Z" fill="#2F2E41"/>
<path d="M63.473 27.1915C65.1956 27.1915 66.592 25.7845 66.592 24.049C66.592 22.3134 65.1956 20.9065 63.473 20.9065C61.7504 20.9065 60.354 22.3134 60.354 24.049C60.354 25.7845 61.7504 27.1915 63.473 27.1915Z" fill="#A0616A"/>
<path d="M66.9039 29.6008L63.0572 29.8103L62.4333 26.3535L65.5523 25.8298L66.9039 29.6008Z" fill="#A0616A"/>
<path d="M66.4881 40.7042L62.2738 40.8238L60.1461 41.1232C59.1017 37.6473 58.2224 34.1794 60.354 31.2767L62.8492 28.7627L66.592 28.658L66.6416 28.6865C67.236 29.0296 67.6967 29.5665 67.9477 30.2087C68.1987 30.8509 68.2251 31.5601 68.0225 32.2194C67.0937 35.2604 66.4971 38.1321 66.4881 40.7042Z" fill="#FA575A"/>
<path d="M60.0422 50.446L59.7808 54.0456C59.7668 54.2384 59.6841 54.4196 59.548 54.5558C59.4119 54.6921 59.2315 54.7742 59.04 54.7871C58.9297 54.7945 58.8191 54.7786 58.7152 54.7406C58.6113 54.7025 58.5164 54.6431 58.4365 54.566C58.3567 54.4889 58.2937 54.396 58.2515 54.293C58.2093 54.19 58.1889 54.0793 58.1915 53.968L58.2747 50.446L60.8739 40.4947L60.9779 34.4192L63.8889 34.3145L63.681 41.3327L60.0422 50.446Z" fill="#A0616A"/>
<path d="M64.2008 34.8382C62.9666 34.3325 61.8139 34.5019 60.7699 35.5714L60.9129 30.4418C60.9309 30.121 61.0631 29.8175 61.2852 29.5869C61.5072 29.3563 61.8043 29.214 62.122 29.1862C62.4592 29.1566 62.7949 29.2581 63.0602 29.4698C63.3256 29.6816 63.5005 29.9875 63.5492 30.3249L64.2008 34.8382Z" fill="#FA575A"/>
<path d="M70.075 38.0332H60.51C62.7413 32.0801 63.4609 26.542 60.51 21.797C60.5607 20.3718 62.3749 19.1363 63.7839 19.2728C65.4479 19.434 67.6839 20.666 67.9956 22.3207L70.075 38.0332Z" fill="#2F2E41"/>
<path d="M39.5919 19.011H39.1556V6.96937C39.1556 6.05414 38.9767 5.14787 38.6291 4.3023C38.2815 3.45674 37.7719 2.68844 37.1296 2.04127C36.4873 1.39411 35.7247 0.880748 34.8855 0.530505C34.0462 0.180263 33.1468 -2.7427e-06 32.2384 0H6.91733C6.00894 -2.02093e-06 5.10945 0.180265 4.2702 0.530508C3.43096 0.880751 2.66841 1.39411 2.02608 2.04128C1.38375 2.68844 0.87423 3.45674 0.526605 4.3023C0.17898 5.14787 6.00322e-05 6.05414 6.10352e-05 6.96937V73.0306C6.03188e-05 73.9459 0.17898 74.8521 0.526605 75.6977C0.87423 76.5433 1.38375 77.3115 2.02608 77.9587C2.66841 78.6059 3.43096 79.1192 4.2702 79.4695C5.10945 79.8197 6.00894 80 6.91733 80H32.2384C33.1468 80 34.0462 79.8197 34.8855 79.4695C35.7247 79.1192 36.4873 78.6059 37.1296 77.9587C37.7719 77.3116 38.2815 76.5433 38.6291 75.6977C38.9767 74.8521 39.1556 73.9459 39.1556 73.0306V27.5824H39.5919V19.011Z" fill="#3F3D56"/>
<path d="M32.5174 1.81323H29.2122C29.3642 2.18869 29.4222 2.59605 29.3811 2.99943C29.3401 3.4028 29.2012 3.78981 28.9767 4.12636C28.7522 4.46291 28.449 4.73868 28.0938 4.92936C27.7386 5.12004 27.3424 5.2198 26.9399 5.21983H12.4338C12.0313 5.2198 11.6351 5.12004 11.2799 4.92936C10.9247 4.73868 10.6215 4.46292 10.397 4.12636C10.1725 3.78981 10.0336 3.4028 9.99257 2.99943C9.9515 2.59605 10.0095 2.18869 10.1615 1.81323H7.07443C6.39605 1.81323 5.72432 1.94785 5.09759 2.20941C4.47085 2.47097 3.90139 2.85434 3.4217 3.33763C2.94202 3.82093 2.56151 4.39468 2.30191 5.02614C2.04231 5.65759 1.90869 6.33438 1.90869 7.01787V72.9822C1.90869 73.6657 2.04231 74.3425 2.30191 74.9739C2.56151 75.6054 2.94202 76.1791 3.4217 76.6624C3.90138 77.1457 4.47085 77.5291 5.09759 77.7907C5.72432 78.0522 6.39605 78.1868 7.07443 78.1868H32.5174C33.1958 78.1868 33.8675 78.0522 34.4943 77.7907C35.121 77.5291 35.6905 77.1457 36.1701 76.6624C36.6498 76.1791 37.0303 75.6054 37.2899 74.9739C37.5495 74.3425 37.6832 73.6657 37.6832 72.9822V7.01786C37.6832 5.63751 37.1389 4.31369 36.1701 3.33763C35.2014 2.36157 33.8875 1.81323 32.5174 1.81323Z" fill="white"/>
<path d="M33.2155 12.1174H6.37646V35.3113H33.2155V12.1174Z" fill="#E6E6E6"/>
<path d="M14.3408 40.1479C15.4254 40.1479 16.3046 39.2621 16.3046 38.1693C16.3046 37.0765 15.4254 36.1907 14.3408 36.1907C13.2562 36.1907 12.377 37.0765 12.377 38.1693C12.377 39.2621 13.2562 40.1479 14.3408 40.1479Z" fill="#FA575A"/>
<path d="M15.3228 38.0044H14.5046V37.1799H14.1773V38.0044H13.359V38.3341H14.1773V39.1586H14.5046V38.3341H15.3228V38.0044Z" fill="white"/>
<path d="M24.7055 40.1479C25.7901 40.1479 26.6693 39.2621 26.6693 38.1693C26.6693 37.0765 25.7901 36.1907 24.7055 36.1907C23.6209 36.1907 22.7416 37.0765 22.7416 38.1693C22.7416 39.2621 23.6209 40.1479 24.7055 40.1479Z" fill="#FA575A"/>
<path d="M25.6874 38.3342V38.0044H23.7236V38.3342H25.6874Z" fill="white"/>
<path d="M20.7969 15.01H18.6759C18.6013 15.01 18.5298 15.0399 18.4771 15.093C18.4243 15.1461 18.3947 15.2182 18.3947 15.2933V16.2313C18.3947 16.3064 18.4243 16.3785 18.4771 16.4316C18.5298 16.4848 18.6013 16.5146 18.6759 16.5146H19.0274V17.92H20.4454V16.5146H20.7969C20.8714 16.5146 20.943 16.4848 20.9957 16.4316C21.0484 16.3785 21.0781 16.3064 21.0781 16.2313V15.2933C21.0781 15.2182 21.0484 15.1461 20.9957 15.093C20.943 15.0399 20.8714 15.01 20.7969 15.01Z" fill="#FA575A"/>
<path d="M22.9213 23.594C21.6224 21.679 20.9583 19.3989 21.0243 17.0804C21.0255 17.0269 21.0082 16.9746 20.9755 16.9325C20.9428 16.8903 20.8966 16.8609 20.8448 16.8491V16.4438H18.6048V16.8435H18.5739C18.5437 16.8435 18.5138 16.8496 18.486 16.8612C18.4581 16.8729 18.4328 16.89 18.4115 16.9115C18.3902 16.9331 18.3733 16.9586 18.3617 16.9867C18.3502 17.0149 18.3443 17.045 18.3444 17.0754C18.3444 17.081 18.3446 17.0866 18.345 17.0922C18.5215 19.5707 17.9256 21.7934 16.5573 23.7602C16.4785 23.8733 16.4383 24.009 16.4426 24.147L16.6876 31.7806C16.6935 31.9509 16.7644 32.1123 16.8856 32.2311C17.0067 32.35 17.1688 32.417 17.3378 32.4184H22.4044C22.5754 32.417 22.7392 32.3484 22.8607 32.2271C22.9822 32.1059 23.052 31.9416 23.0551 31.7694L23.1495 24.3578C23.1523 24.0857 23.0727 23.8193 22.9213 23.594Z" fill="#3F3D56"/>
<path opacity="0.2" d="M20.3548 15.3157C20.3548 15.4778 20.2908 15.6333 20.1771 15.7479C20.0633 15.8625 19.909 15.9269 19.7481 15.9269C19.5872 15.9269 19.4329 15.8625 19.3191 15.7479C19.2053 15.6333 19.1414 15.4778 19.1414 15.3157" fill="black"/>
<path d="M22.1192 26.1299H21.5057C21.4472 25.747 21.2545 25.3978 20.9626 25.1456C20.6707 24.8933 20.2988 24.7546 19.9142 24.7546C19.5297 24.7546 19.1578 24.8933 18.8659 25.1456C18.574 25.3978 18.3813 25.747 18.3227 26.1299H17.7092C17.6439 26.1299 17.5794 26.1442 17.5201 26.1716C17.4608 26.1991 17.4081 26.2392 17.3655 26.2891C17.323 26.339 17.2917 26.3976 17.2738 26.4608C17.2559 26.5241 17.2517 26.5905 17.2617 26.6555L17.9281 31.0199H21.7548L22.5643 26.6702C22.5765 26.6043 22.5742 26.5365 22.5575 26.4716C22.5408 26.4067 22.5101 26.3464 22.4677 26.2948C22.4252 26.2432 22.3719 26.2017 22.3117 26.1732C22.2515 26.1447 22.1858 26.1299 22.1192 26.1299V26.1299Z" fill="#FA575A"/>
<path d="M33.2155 44.7646H6.37646V67.9585H33.2155V44.7646Z" fill="#E6E6E6"/>
<path d="M14.3408 72.7951C15.4254 72.7951 16.3046 71.9093 16.3046 70.8165C16.3046 69.7237 15.4254 68.8379 14.3408 68.8379C13.2562 68.8379 12.377 69.7237 12.377 70.8165C12.377 71.9093 13.2562 72.7951 14.3408 72.7951Z" fill="#FA575A"/>
<path d="M15.3228 70.6518H14.5046V69.8274H14.1773V70.6518H13.359V70.9816H14.1773V71.806H14.5046V70.9816H15.3228V70.6518Z" fill="white"/>
<path d="M24.7055 72.7951C25.7901 72.7951 26.6693 71.9093 26.6693 70.8165C26.6693 69.7237 25.7901 68.8379 24.7055 68.8379C23.6209 68.8379 22.7416 69.7237 22.7416 70.8165C22.7416 71.9093 23.6209 72.7951 24.7055 72.7951Z" fill="#FA575A"/>
<path d="M25.6874 70.9814V70.6516H23.7236V70.9814H25.6874Z" fill="white"/>
<path d="M25.0795 61.2417L25.0943 61.2418C25.5996 61.246 26.0945 61.0968 26.5144 60.8134C26.9342 60.5301 27.2596 60.1258 27.448 59.6533C28.0417 58.1409 28.1807 56.4859 27.8477 54.8945C27.5147 53.303 26.7244 51.8454 25.5753 50.7031C24.4262 49.5609 22.9689 48.7844 21.385 48.4704C19.8011 48.1564 18.1605 48.3188 16.6675 48.9373C15.1745 49.5558 13.8951 50.6032 12.9886 51.9489C12.082 53.2946 11.5884 54.8793 11.5691 56.5057C11.5499 58.132 12.0059 59.7281 12.8803 61.0952C13.7548 62.4623 15.0091 63.5401 16.487 64.1943C16.9463 64.3992 17.4564 64.4595 17.9504 64.3672C18.4443 64.2749 18.899 64.0344 19.2549 63.6772C20.0182 62.9041 20.9259 62.2908 21.9256 61.8728C22.9252 61.4548 23.9972 61.2404 25.0795 61.2417Z" fill="white"/>
<path d="M20.8526 58.7323C22.3533 58.7323 23.5699 57.5066 23.5699 55.9946C23.5699 54.4826 22.3533 53.2568 20.8526 53.2568C19.3519 53.2568 18.1353 54.4826 18.1353 55.9946C18.1353 57.5066 19.3519 58.7323 20.8526 58.7323Z" fill="#F9A825"/>
</g>
<defs>
<clipPath id="clip0">
<rect width="84" height="80" fill="white"/>
</clipPath>
</defs>
</svg>
