<svg width="283" height="238" viewBox="0 0 283 238" fill="none" xmlns="http://www.w3.org/2000/svg">
<path d="M75.3758 144.688C74.6139 144.688 73.8442 144.676 73.0887 144.652L73.1058 144.102C74.1907 144.136 75.2978 144.146 76.3877 144.131L76.3952 144.681C76.0559 144.685 75.7162 144.688 75.3758 144.688ZM79.6999 144.56L79.6677 144.011C80.7542 143.947 81.8546 143.857 82.9384 143.743L82.9958 144.29C81.9037 144.405 80.795 144.496 79.6999 144.56ZM69.7869 144.475C68.6913 144.39 67.5842 144.28 66.4962 144.147L66.5632 143.601C67.643 143.733 68.7415 143.843 69.8288 143.926L69.7869 144.475ZM86.2755 143.87L86.1931 143.326C87.2726 143.162 88.3604 142.971 89.4254 142.759L89.5324 143.299C88.4591 143.512 87.3633 143.704 86.2755 143.87ZM63.2243 143.668C62.1421 143.485 61.0496 143.273 59.9773 143.04L60.0938 142.503C61.1579 142.734 62.2419 142.944 63.3161 143.126L63.2243 143.668ZM92.7604 142.579L92.6285 142.045C93.6881 141.782 94.7536 141.492 95.7956 141.183L95.9517 141.71C94.9017 142.022 93.8281 142.314 92.7604 142.579ZM56.7629 142.263C55.7012 141.98 54.6329 141.669 53.5874 141.338L53.7529 140.814C54.7904 141.142 55.8506 141.451 56.9039 141.731L56.7629 142.263ZM99.0994 140.695L98.9192 140.175C99.9475 139.817 100.982 139.43 101.994 139.025L102.197 139.536C101.178 139.944 100.136 140.334 99.0995 140.695H99.0994ZM50.4498 140.264C49.4188 139.885 48.3813 139.475 47.3664 139.047L47.5796 138.54C48.5867 138.964 49.6162 139.371 50.6395 139.748L50.4498 140.264ZM105.232 138.237L105.004 137.737C105.992 137.287 106.984 136.807 107.954 136.311L108.204 136.801C107.227 137.301 106.227 137.784 105.232 138.237H105.232ZM111.108 135.228L110.836 134.751C111.783 134.21 112.729 133.641 113.646 133.06L113.939 133.524C113.015 134.11 112.063 134.683 111.108 135.228H111.108ZM116.69 131.692L116.375 131.241C117.267 130.617 118.157 129.963 119.02 129.299L119.355 129.735C118.485 130.405 117.588 131.063 116.69 131.692ZM32.9753 130.917C32.0888 130.272 31.2032 129.596 30.3429 128.909L30.6857 128.479C31.5393 129.161 32.4182 129.832 33.2979 130.472L32.9753 130.917ZM121.929 127.659L121.575 127.238C122.406 126.535 123.233 125.803 124.034 125.062L124.407 125.466C123.6 126.213 122.767 126.951 121.929 127.659H121.929ZM27.8053 126.782C26.9797 126.058 26.1594 125.305 25.3674 124.543L25.7477 124.146C26.5338 124.902 27.3478 125.65 28.1671 126.369L27.8053 126.782ZM126.782 123.162L126.391 122.776C127.158 121.998 127.916 121.193 128.644 120.384L129.052 120.752C128.318 121.568 127.555 122.379 126.782 123.162ZM23.0344 122.196C22.2769 121.398 21.5287 120.574 20.8108 119.745L21.2257 119.385C21.9381 120.207 22.6805 121.025 23.4324 121.817L23.0344 122.196ZM131.21 118.241L130.785 117.891C131.477 117.048 132.159 116.177 132.811 115.303L133.251 115.633C132.594 116.513 131.907 117.391 131.21 118.241L131.21 118.241ZM18.7013 117.196C18.021 116.335 17.3512 115.446 16.7104 114.554L17.1561 114.233C17.7921 115.118 18.4568 116 19.132 116.855L18.7013 117.196ZM135.172 112.933L134.718 112.624C135.33 111.721 135.93 110.791 136.501 109.861L136.969 110.149C136.394 111.086 135.789 112.023 135.172 112.933L135.172 112.933ZM14.8424 111.825C14.2439 110.906 13.6582 109.961 13.1013 109.014L13.5744 108.735C14.1271 109.674 14.7085 110.612 15.3024 111.524L14.8424 111.825ZM138.637 107.283L138.156 107.017C138.683 106.062 139.196 105.08 139.679 104.1L140.172 104.344C139.684 105.331 139.168 106.32 138.637 107.283ZM141.57 101.336L141.067 101.115C141.504 100.114 141.925 99.0887 142.316 98.068L142.829 98.2651C142.435 99.294 142.011 100.327 141.57 101.336ZM8.67542 100.149C8.25436 99.1368 7.85113 98.1013 7.47699 97.0708L7.99327 96.8828C8.36445 97.9054 8.7646 98.9329 9.18231 99.9373L8.67542 100.149ZM143.945 95.1383L143.424 94.9653C143.766 93.9309 144.09 92.8735 144.385 91.8224L144.914 91.9712C144.616 93.0304 144.29 94.0961 143.945 95.1383ZM6.41897 93.9327C6.09218 92.8843 5.78509 91.8133 5.50631 90.749L6.0376 90.6093C6.31424 91.6655 6.61904 92.7285 6.94329 93.7689L6.41897 93.9327ZM145.735 88.7628L145.2 88.6381C145.446 87.5779 145.671 86.495 145.868 85.4203L146.409 85.5197C146.21 86.603 145.983 87.6939 145.735 88.7628V88.7628ZM4.74143 87.5266C4.51239 86.4521 4.30508 85.3574 4.12538 84.2724L4.66714 84.1822C4.84562 85.2591 5.05132 86.3454 5.27862 87.4116L4.74143 87.5266ZM146.932 82.2497L146.388 82.175C146.535 81.0976 146.66 79.9989 146.759 78.9093L147.306 78.9588C147.206 80.0569 147.081 81.1639 146.932 82.2497V82.2497ZM3.659 80.9936C3.52946 79.9046 3.42312 78.7954 3.34279 77.697L3.89071 77.6567C3.97023 78.7471 4.07591 79.8476 4.2045 80.9286L3.659 80.9936ZM147.529 75.6547L146.981 75.63C147.03 74.5399 147.054 73.4342 147.054 72.3439H147.604C147.604 73.4426 147.579 74.5566 147.529 75.6547ZM3.17638 74.3889C3.15761 73.7144 3.14809 73.0262 3.14795 72.3439C3.14795 71.9205 3.15157 71.498 3.15881 71.0763L3.70807 71.0859C3.70083 71.5044 3.69721 71.9238 3.69721 72.3439C3.69735 73.0211 3.70687 73.7042 3.72537 74.3739L3.17638 74.3889ZM3.83841 67.8016L3.29023 67.7672C3.35875 66.668 3.45342 65.5578 3.57129 64.4673L4.11734 64.5265C4.00027 65.6088 3.90653 66.7106 3.83841 67.8016H3.83841ZM146.7 64.4453C146.59 63.3607 146.439 62.8319 146.28 61.752L146.823 61.6717C146.984 62.7598 147.121 63.5904 147.232 64.6831L146.7 64.4453ZM4.54496 61.2678L4.00214 61.1837C4.17043 60.0954 4.36595 58.9985 4.58332 57.923L5.12159 58.0321C4.90595 59.0993 4.71191 60.188 4.54496 61.2678ZM145.726 58.5128C145.516 57.4397 145.28 56.3594 145.023 55.3021L145.557 55.1721C145.815 56.2374 146.054 57.326 146.265 58.4072L145.726 58.5128ZM5.84597 54.8265L5.31321 54.6927C5.57993 53.6272 5.87534 52.5528 6.19127 51.4993L6.71719 51.6575C6.40382 52.703 6.11068 53.7692 5.84597 54.8265ZM144.173 52.1271C143.867 51.0796 143.532 50.0259 143.178 48.9949L143.698 48.816C144.054 49.8549 144.392 50.9169 144.701 51.9723L144.173 52.1271ZM7.73674 48.5236L7.21859 48.3412C7.5836 47.3012 7.97772 46.2563 8.38993 45.2353L8.89923 45.4417C8.4901 46.4546 8.09894 47.4917 7.73674 48.5236ZM142.04 45.9119C141.64 44.8994 141.21 43.8834 140.765 42.8917L141.266 42.6658C141.715 43.6651 142.147 44.689 142.551 45.7091L142.04 45.9119ZM10.202 42.4177L9.70287 42.1881C10.1616 41.1874 10.6499 40.184 11.1541 39.2056L11.6422 39.4579C11.1417 40.4288 10.6572 41.4246 10.202 42.4177ZM139.352 39.9323C138.861 38.9611 138.34 37.9879 137.804 37.04L138.282 36.769C138.822 37.7242 139.347 38.7048 139.842 39.6835L139.352 39.9323ZM13.2166 36.5683L12.7406 36.2938C13.2885 35.3408 13.8663 34.3869 14.4581 33.4588L14.921 33.7549C14.3338 34.676 13.7602 35.6226 13.2166 36.5683ZM136.125 34.2205C135.545 33.2951 134.937 32.3732 134.319 31.4803L134.77 31.1668C135.393 32.0665 136.006 32.9954 136.59 33.928L136.125 34.2205ZM16.7519 31.0232L16.303 30.7062C16.9362 29.8067 17.5982 28.9102 18.2711 28.0415L18.7051 28.3786C18.0374 29.2409 17.3802 30.1306 16.7519 31.0232ZM132.389 28.8248C131.727 27.9564 131.038 27.0932 130.34 26.2591L130.761 25.9058C131.464 26.7463 132.159 27.616 132.826 28.4909L132.389 28.8248ZM20.7762 25.8268L20.3581 25.4701C21.0687 24.6341 21.8093 23.802 22.5593 22.997L22.9608 23.3722C22.2165 24.1713 21.4815 24.9971 20.7762 25.8268ZM128.176 23.789C127.438 22.9846 126.673 22.1873 125.901 21.4196L126.289 21.0293C127.066 21.8031 127.837 22.6063 128.58 23.4167L128.176 23.789ZM25.254 21.0207L24.8699 20.6274C25.6553 19.8578 26.4681 19.0969 27.2854 18.366L27.6512 18.7765C26.8401 19.5018 26.0335 20.2569 25.254 21.0207ZM123.522 19.1558C122.713 18.4212 121.878 17.6967 121.04 17.0025L121.391 16.5786C122.235 17.2781 123.076 18.0081 123.891 18.7483L123.522 19.1558ZM30.1474 16.6439L29.8007 16.2173C30.6502 15.5244 31.5281 14.841 32.4102 14.1861L32.7374 14.628C31.8619 15.278 30.9905 15.9562 30.1474 16.6439ZM35.4154 12.7331L35.1089 12.2767C36.0181 11.6639 36.9541 11.064 37.891 10.493L38.1764 10.9631C37.2467 11.5296 36.3178 12.1252 35.4154 12.7331ZM41.0145 9.32181L40.7509 8.83909C41.7128 8.31191 42.699 7.80045 43.6822 7.31867L43.9236 7.81294C42.9479 8.29097 41.9692 8.79852 41.0145 9.32181ZM107.302 8.04718C106.325 7.55948 105.324 7.08833 104.327 6.64684L104.549 6.14371C105.554 6.58855 106.562 7.06334 107.547 7.55479L107.302 8.04718ZM46.8976 6.4396L46.6793 5.93484C47.6845 5.49846 48.7128 5.07994 49.7354 4.69084L49.9304 5.20525C48.9155 5.59128 47.8952 6.00657 46.8976 6.4396ZM101.289 5.38483C100.272 4.98983 99.2309 4.61294 98.1948 4.2648L98.3697 3.74313C99.4135 4.09409 100.462 4.47379 101.487 4.87202L101.289 5.38483ZM53.0243 4.10941L52.8532 3.58667C53.897 3.2439 54.962 2.92115 56.0184 2.62767L56.1652 3.15767C55.1168 3.44899 54.06 3.76919 53.0243 4.10941ZM95.0602 3.29144C94.0126 2.99233 92.9441 2.71377 91.8845 2.46354L92.0106 1.92817C93.0785 2.18028 94.155 2.46099 95.2109 2.76226L95.0602 3.29144ZM59.3468 2.35193L59.2245 1.81562C60.2946 1.57077 61.3847 1.34768 62.4643 1.15265L62.5619 1.69393C61.4903 1.88761 60.4087 2.10896 59.3468 2.35193ZM88.674 1.78338C87.6044 1.58232 86.515 1.40341 85.4358 1.25164L85.5119 0.706872C86.5995 0.859853 87.6975 1.0401 88.7753 1.24264L88.674 1.78338ZM65.804 1.18476L65.7313 0.639452C66.8186 0.494126 67.9243 0.3719 69.0177 0.276541L69.0655 0.824534C67.9804 0.919354 66.8832 1.0405 65.804 1.18476ZM82.1764 0.869125C81.0945 0.767049 79.9933 0.688343 78.9031 0.635557L78.9299 0.0859626C80.0282 0.139285 81.1377 0.218531 82.2279 0.321424L82.1764 0.869125ZM72.3407 0.613529L72.3176 0.0639348C73.3271 0.0217608 74.3559 0.00026957 75.3758 0L75.6244 0.000404511L75.6228 0.550548L75.3758 0.550144C74.3636 0.550397 73.3424 0.571753 72.3407 0.613523V0.613529Z" fill="#3F3D56"/>
<path d="M163.746 25.9135V204.215C163.744 206.339 162.9 208.375 161.4 209.877C159.9 211.378 157.867 212.222 155.746 212.222H83.4772C82.4265 212.224 81.3859 212.018 80.4148 211.617C79.4437 211.215 78.5613 210.625 77.8182 209.882C77.075 209.138 76.4857 208.254 76.084 207.282C75.6823 206.31 75.4761 205.267 75.4772 204.215V25.9135C75.4771 24.8612 75.684 23.8192 76.086 22.847C76.488 21.8748 77.0772 20.9914 77.8201 20.2473C78.563 19.5033 79.445 18.913 80.4156 18.5104C81.3862 18.1077 82.4266 17.9005 83.4772 17.9006H94.2921V19.2897C94.2919 21.0395 94.9856 22.7177 96.2206 23.9552C97.4556 25.1927 99.1308 25.8882 100.878 25.8887H137.634C139.04 25.8917 140.41 25.4403 141.54 24.6014C141.768 24.435 141.984 24.253 142.188 24.0567C142.831 23.4414 143.343 22.7016 143.692 21.8822C144.042 21.0627 144.221 20.1808 144.22 19.2897V17.9006H155.746C156.797 17.9003 157.837 18.1074 158.808 18.5099C159.779 18.9125 160.661 19.5027 161.404 20.2468C162.147 20.9909 162.736 21.8744 163.138 22.8467C163.54 23.819 163.747 24.8611 163.746 25.9135Z" fill="#3F3D56"/>
<path d="M153.18 82.1768H86.043V133.34H153.18V82.1768Z" fill="#FA575A"/>
<path d="M50.689 73.5562C56.6666 73.6846 61.4217 78.0234 61.4217 78.0234C61.4217 78.0234 56.4852 82.1539 50.5077 82.0255C44.5301 81.897 39.775 77.5583 39.775 77.5583C39.775 77.5583 44.7115 73.4277 50.689 73.5562Z" fill="#FA575A"/>
<path d="M20.6368 53.1186C26.0373 55.6884 32.2299 53.9458 32.2299 53.9458C32.2299 53.9458 29.6666 48.0368 24.2662 45.467C18.8657 42.8972 12.6731 44.6398 12.6731 44.6398C12.6731 44.6398 15.2364 50.5489 20.6368 53.1186Z" fill="#FA575A"/>
<path d="M21.1857 50.5653C27.1398 50.0202 32.3514 53.7965 32.3514 53.7965C32.3514 53.7965 27.9095 58.4563 21.9554 59.0014C16.0013 59.5464 10.7897 55.7701 10.7897 55.7701C10.7897 55.7701 15.2316 51.1103 21.1857 50.5653Z" fill="#3F3D56"/>
<path d="M43.0118 51.5977C42.4411 57.5589 46.188 62.7957 46.188 62.7957C46.188 62.7957 50.8601 58.3674 51.4308 52.4062C52.0015 46.4451 48.2546 41.2083 48.2546 41.2083C48.2546 41.2083 43.5825 45.6365 43.0118 51.5977Z" fill="#3F3D56"/>
<path d="M71.0527 88.1574C67.9298 93.2641 69.0042 99.6163 69.0042 99.6163C69.0042 99.6163 75.142 97.6888 78.265 92.5822C81.3879 87.4755 80.3135 81.1233 80.3135 81.1233C80.3135 81.1233 74.1757 83.0507 71.0527 88.1574Z" fill="#3F3D56"/>
<path d="M61.9925 143.68L62.4476 143.372C60.8434 141.04 59.9675 138.284 59.9311 135.452C59.9439 131.31 61.975 127.479 63.9394 123.774C64.304 123.087 64.6674 122.401 65.017 121.716C66.4845 118.923 67.6539 115.982 68.506 112.943C71.5529 101.602 68.553 88.2218 60.4815 77.1505C54.0783 68.3678 44.5332 60.6878 31.3009 53.6716L31.0439 54.1578C44.2009 61.134 53.6849 68.7612 60.0379 77.475C68.0124 88.4129 70.9797 101.619 67.9755 112.801C67.1334 115.802 65.9779 118.707 64.5281 121.466C64.1796 122.148 63.8175 122.831 63.4543 123.516C61.4586 127.28 59.395 131.172 59.3819 135.451C59.4182 138.392 60.3269 141.257 61.9925 143.68Z" fill="#3F3D56"/>
<path d="M5.21798 54.3944C8.0998 54.3944 10.436 52.0545 10.436 49.168C10.436 46.2816 8.0998 43.9417 5.21798 43.9417C2.33617 43.9417 0 46.2816 0 49.168C0 52.0545 2.33617 54.3944 5.21798 54.3944Z" fill="#3F3D56"/>
<path d="M78.6713 134.004L45.9164 131.27V83.1525L78.6713 81.5122V134.004Z" fill="#FA575A"/>
<path d="M160.552 134.004L193.307 131.27V83.1525L160.552 81.5122V134.004Z" fill="#FA575A"/>
<path d="M130.997 101.38C130.023 100.537 128.821 100.001 127.544 99.8381C126.267 99.6755 124.97 99.8939 123.815 100.466C122.813 100.952 121.735 101.261 120.628 101.379C120.6 98.9778 121.04 96.5937 121.924 94.3607L122.068 93.9863H120.143L120.088 94.1887C119.874 94.9783 119.705 95.7796 119.582 96.5887C119.478 96.238 119.343 95.8972 119.179 95.5702C117.829 92.8886 114.709 91.7919 114.577 91.7466L114.311 91.6553L114.226 91.9238C114.184 92.0573 113.209 95.2221 114.56 97.9038C115.526 99.8237 117.4 100.931 118.435 101.422C117.125 101.337 115.845 100.994 114.668 100.412C113.934 100.034 113.108 99.8696 112.285 99.9392C111.462 100.009 110.676 100.309 110.016 100.806C106.421 103.542 104.36 107.552 104.36 111.808C104.36 117.4 107.975 122.521 113.57 124.854C114.075 125.064 114.616 125.172 115.163 125.171C115.922 125.171 116.666 124.966 117.319 124.579C118.186 124.073 119.171 123.806 120.175 123.804C121.178 123.802 122.164 124.065 123.034 124.567C123.596 124.899 124.227 125.096 124.878 125.142C125.529 125.188 126.182 125.082 126.785 124.832C132.348 122.489 135.942 117.377 135.942 111.808C135.942 107.822 134.186 104.119 130.997 101.38ZM120.564 94.5364H121.27C120.475 96.6692 120.07 98.9279 120.074 101.204H119.948C119.778 98.9629 119.986 96.7087 120.564 94.5364ZM115.05 97.6561C114.025 95.6203 114.475 93.1938 114.673 92.375C115.448 92.7009 117.662 93.7783 118.689 95.8179C119.714 97.8534 119.264 100.279 119.065 101.099C118.29 100.772 116.075 99.6915 115.05 97.6561ZM126.572 124.324C126.048 124.542 125.481 124.634 124.915 124.593C124.349 124.553 123.8 124.382 123.312 124.093C122.358 123.541 121.275 123.252 120.174 123.254C119.072 123.256 117.99 123.55 117.038 124.106C116.551 124.396 116.004 124.569 115.438 124.611C114.873 124.652 114.306 124.562 113.782 124.347C108.392 122.099 104.909 117.177 104.909 111.808C104.909 107.725 106.891 103.875 110.348 101.244C111.011 100.742 111.82 100.472 112.651 100.474C113.265 100.473 113.87 100.62 114.416 100.901C115.92 101.62 117.564 101.998 119.231 102.008C120.898 102.018 122.547 101.66 124.06 100.959C125.117 100.435 126.306 100.235 127.476 100.384C128.646 100.533 129.747 101.025 130.639 101.798C133.705 104.431 135.393 107.986 135.393 111.808C135.393 117.155 131.931 122.068 126.572 124.324Z" fill="white"/>
<path d="M62.2043 96.1817V95.5359H62.4605V93.524C62.4615 93.3749 62.4215 93.2283 62.345 93.1004C62.2684 92.9725 62.1582 92.8681 62.0265 92.7986C60.8929 92.2063 59.6748 92.207 58.4058 92.8014C58.2658 92.8681 58.1475 92.9732 58.0647 93.1045C57.9819 93.2359 57.9381 93.3881 57.9384 93.5434V95.5359H58.1946V96.1206C57.2514 96.3853 56.4209 96.9527 55.8306 97.7357C55.2403 98.5186 54.9227 99.474 54.9265 100.455V104.808L55.4147 104.971L54.9265 105.297V106.606L55.4147 106.769L54.9265 107.095V108.403L55.4147 108.566L54.9265 108.892V118.855C54.9274 119.633 55.236 120.378 55.7847 120.927C56.3334 121.477 57.0773 121.786 57.8532 121.787H62.1678C62.942 121.786 63.6842 121.478 64.2317 120.929C64.7791 120.381 65.087 119.638 65.0879 118.862V108.892L64.5998 108.566L65.0879 108.403V107.095L64.5998 106.769L65.0879 106.606V105.297L64.5998 104.971L65.0879 104.808V100.23C65.0846 99.3395 64.8055 98.4717 64.289 97.7466C63.7725 97.0214 63.0441 96.4747 62.2043 96.1817ZM58.6384 93.2998C59.7601 92.775 60.7854 92.7706 61.7722 93.2865C61.8147 93.3098 61.85 93.3442 61.8745 93.386C61.899 93.4279 61.9117 93.4756 61.9113 93.5241V94.6007H58.4876V93.5434C58.4872 93.4927 58.5011 93.4428 58.5278 93.3997C58.5544 93.3566 58.5928 93.3219 58.6384 93.2998ZM64.5386 104.412L63.3607 104.805L64.5386 105.592V106.209L63.3607 106.602L64.5386 107.389V108.006L63.3607 108.399L64.5386 109.186V118.862C64.5379 119.492 64.2879 120.095 63.8434 120.541C63.399 120.986 62.7964 121.236 62.1678 121.237H57.8532C57.2229 121.236 56.6186 120.985 56.1729 120.539C55.7272 120.092 55.4765 119.487 55.4758 118.856V109.186L56.6537 108.399L55.4758 108.006V107.389L56.6537 106.602L55.4758 106.209V105.592L56.6537 104.805L55.4758 104.412V100.455C55.4723 99.5607 55.773 98.6918 56.3284 97.9914C56.8837 97.291 57.6607 96.8009 58.5312 96.6018L58.7439 96.5525V95.5359H61.655V96.5895L61.8531 96.6471C62.6262 96.8752 63.3052 97.3471 63.789 97.9927C64.2729 98.6382 64.5358 99.423 64.5386 100.23V104.412Z" fill="white"/>
<path d="M191.298 103.715L189.915 103.439L190.241 102.786L189.606 102.659L189.716 101.999L189.023 101.883V101.256L188.462 101.096L188.995 100.428H188.07L188.263 99.9443L187.578 99.8302L187.811 99.0149H187.07V98.2542H186.796C185.93 98.2542 185.448 99.2835 185.289 99.6957C180.513 100.53 166.644 110.152 165.061 111.258C164.404 111.044 163.428 111.545 163.225 111.657L162.902 111.833L163.368 112.298L163.229 112.715L164.082 113.035L163.895 113.503L164.433 113.952L163.95 114.315L164.677 114.752L164.549 115.39L165.36 115.506V116.145L165.832 116.24L165.597 117.064H166.12V117.716H166.631L166.862 118.411L167.1 118.363C167.652 118.253 168.125 117.487 168.31 117.147C172.91 116.325 187.113 106.317 188.495 105.337C190.109 105.531 190.702 105.099 190.765 105.048L191.028 104.837L190.401 104.314L191.298 103.715ZM188.46 104.778L188.353 104.764L188.264 104.826C188.108 104.938 172.532 115.99 168.092 116.626L167.95 116.646L167.885 116.775C167.715 117.122 167.485 117.437 167.206 117.705L167.026 117.166H166.669V116.514H166.325L166.524 115.817L165.91 115.694V115.029L165.202 114.928L165.291 114.479L164.933 114.264L165.318 113.974L164.553 113.336L164.8 112.718L163.918 112.386L163.996 112.15L163.826 111.979C164.238 111.807 164.737 111.679 164.951 111.808L165.104 111.9L165.25 111.797C165.406 111.688 180.876 100.85 185.531 100.215L185.704 100.191L185.756 100.023C185.836 99.763 186.12 99.1061 186.521 98.8812V99.565H187.083L186.881 100.271L187.499 100.375L187.258 100.978H187.852L187.517 101.397L188.474 101.671V102.349L189.084 102.451L188.977 103.094L189.428 103.184L189.102 103.837L189.89 103.995L189.484 104.265L190.067 104.752C189.538 104.86 188.993 104.869 188.46 104.778Z" fill="white"/>
<path d="M119.612 156.721C124.01 156.721 127.576 153.15 127.576 148.744C127.576 144.339 124.01 140.767 119.612 140.767C115.213 140.767 111.647 144.339 111.647 148.744C111.647 153.15 115.213 156.721 119.612 156.721Z" fill="#FA575A"/>
<path d="M124.626 147.956H120.398V143.721H118.825V147.956H114.597V149.532H118.825V153.766H120.398V149.532H124.626V147.956Z" fill="white"/>
<path d="M144.731 149.019L140.611 147.094V148.194H130.999V149.844H140.611V150.945L144.731 149.019Z" fill="white"/>
<path d="M94.4929 149.019L98.6124 147.094V148.194H108.224V149.844H98.6124V150.945L94.4929 149.019Z" fill="white"/>
<path d="M220.264 212.286H18.9594V212.836H220.264V212.286Z" fill="#3F3D56"/>
<path d="M145.976 43.9417H93.2469V44.4918H145.976V43.9417Z" fill="white"/>
<path d="M146.104 194.131H93.3745V194.681H146.104V194.131Z" fill="white"/>
<path d="M230.827 139.804L229.454 145.031C229.454 145.031 224.511 156.033 229.454 156.584C234.397 157.134 234.672 142.28 234.672 142.28L230.827 139.804Z" fill="#A0616A"/>
<path d="M239.341 102.119L229.454 141.18C229.454 141.18 233.299 142.28 235.221 143.655L239.341 102.119Z" fill="#D0CDE1"/>
<path d="M270.374 131.827L273.12 174.463C273.12 174.463 279.712 191.243 279.437 207.197C279.437 207.197 276.965 213.524 278.888 214.624C280.81 215.724 281.909 216.549 280.81 217.375C279.712 218.2 278.888 220.125 279.712 220.675C280.535 221.226 280.81 222.051 280.535 222.051H272.296C272.296 222.051 273.944 217.925 271.473 216.824C269.001 215.724 270.374 212.973 270.374 212.973L251.974 159.059L237.418 208.572C237.418 208.572 239.89 210.223 237.968 211.048C236.045 211.873 235.221 210.223 236.045 211.873C236.869 213.524 235.771 214.349 235.771 214.624C235.771 214.899 227.532 213.799 227.532 213.799C227.532 213.799 231.651 210.223 229.729 209.398C227.806 208.572 226.982 207.747 227.532 207.197C228.081 206.647 230.278 201.42 230.278 201.42C230.278 201.42 231.376 181.615 231.651 180.79C231.926 179.965 231.651 176.114 231.651 174.188C231.651 172.263 231.376 164.561 232.2 162.635C233.024 160.71 233.848 137.054 238.242 134.303C242.636 131.552 270.374 131.827 270.374 131.827Z" fill="#2F2E41"/>
<path d="M235.496 213.248C235.496 213.248 240.989 224.526 237.144 225.902C233.299 227.277 228.356 226.177 227.257 227.827C226.159 229.478 214.075 231.403 213.8 227.277C213.526 223.151 226.982 215.449 226.982 215.449L228.735 212.622L235.496 213.248Z" fill="#2F2E41"/>
<path d="M279.986 221.501C279.986 221.501 285.479 232.779 281.634 234.154C277.789 235.529 272.846 234.429 271.747 236.079C270.649 237.73 258.565 239.655 258.29 235.529C258.016 231.403 271.473 223.701 271.473 223.701L273.226 220.874L279.986 221.501Z" fill="#2F2E41"/>
<path d="M254.583 79.976C259.588 79.976 263.646 75.9119 263.646 70.8987C263.646 65.8854 259.588 61.8213 254.583 61.8213C249.577 61.8213 245.52 65.8854 245.52 70.8987C245.52 75.9119 249.577 79.976 254.583 79.976Z" fill="#A0616A"/>
<path d="M260.762 75.7124L259.664 83.6895L251.425 90.0161L249.228 86.9904V76.5376L260.762 75.7124Z" fill="#A0616A"/>
<path d="M247.854 85.8903C247.854 85.8903 256.368 86.7155 260.762 83.6897L269.55 135.678C269.55 135.678 238.517 138.154 237.144 136.503V120.274L242.636 93.8674L247.854 85.8903Z" fill="#3F3D56"/>
<path d="M260.006 81.2039L262.959 83.6895C262.959 83.6895 275.043 85.615 274.219 88.9158L270.923 127.976L272.022 141.179C272.022 141.179 262.684 138.704 255.544 141.179C248.404 143.655 254.076 87.9797 254.076 87.9797C254.076 87.9797 260.623 82.0191 260.006 81.2039Z" fill="#D0CDE1"/>
<path d="M249.227 84.2148C249.227 84.2148 240.439 90.5664 239.341 94.6925C238.242 98.8186 234.672 142.28 234.672 142.28C234.672 142.28 236.32 141.455 237.144 142.83C237.968 144.205 250.601 86.3905 249.227 84.2148Z" fill="#D0CDE1"/>
<path d="M273.395 141.73L271.427 148.164C271.427 148.164 270.924 160.16 264.332 158.509C257.741 156.859 266.255 142.83 266.255 142.83L268.177 139.804L273.395 141.73Z" fill="#A0616A"/>
<path d="M245.525 70.5032C245.525 70.5032 244.543 69.0292 244.921 67.4417C245.146 66.5405 245.235 65.6104 245.185 64.6827C245.185 64.6827 245.977 62.1126 246.77 60.6764C247.562 59.2401 247.185 58.6354 249.675 58.1819C252.166 57.7283 251.147 54.4779 257.713 57.9929C257.934 58.3027 258.243 58.5398 258.598 58.6743C258.954 58.8089 259.342 58.8348 259.713 58.7488C261.071 58.4842 261.562 60.374 261.562 60.374C261.562 60.374 262.467 59.8449 262.807 60.6008C263.147 61.3567 265.568 60.1471 265.568 65.2495C265.568 70.3519 262.813 74.9096 262.813 74.9096C262.813 74.9096 263.015 66.3268 258.524 65.4575C254.034 64.5882 249.204 62.0559 248.034 65.3063C247.402 67.1306 246.56 68.8747 245.525 70.5032Z" fill="#2F2E41"/>
<path d="M262.911 72.544C263.4 72.544 263.797 72.0144 263.797 71.3611C263.797 70.7078 263.4 70.1782 262.911 70.1782C262.422 70.1782 262.025 70.7078 262.025 71.3611C262.025 72.0144 262.422 72.544 262.911 72.544Z" fill="#A0616A"/>
<path d="M272.022 86.9903C272.022 86.9903 276.416 85.8901 277.789 93.317C279.162 100.744 280.81 121.924 280.81 121.924L274.219 144.205C274.219 144.205 267.628 140.629 266.255 141.179L271.441 121.836L267.078 102.119C267.078 102.119 270.923 86.9903 272.022 86.9903Z" fill="#D0CDE1"/>
<path opacity="0.15" d="M265.633 102.496L271.4 121.751L265.633 141.281L268.929 121.751L265.633 102.496Z" fill="black"/>
</svg>
