<svg width="114" height="77" viewBox="0 0 114 77" fill="none" xmlns="http://www.w3.org/2000/svg">
<g clip-path="url(#clip0)">
<path d="M95.8234 77.0001C105.862 77.0001 114 76.3881 114 75.6332C114 74.8783 105.862 74.2664 95.8234 74.2664C85.7848 74.2664 77.6469 74.8783 77.6469 75.6332C77.6469 76.3881 85.7848 77.0001 95.8234 77.0001Z" fill="#E6E6E6"/>
<path d="M18.514 21.2074C18.5198 19.8162 17.3333 18.6782 15.9405 18.6782H3.01683C1.64611 18.6782 0.46181 19.7973 0.445762 21.1665C0.440789 21.5556 0.526358 21.9405 0.695725 22.291C0.865091 22.6414 1.11363 22.9478 1.42174 23.1859C1.50072 23.2447 1.56288 23.3232 1.60199 23.4135C1.6411 23.5038 1.65581 23.6028 1.64463 23.7005C1.62964 23.8115 1.62212 23.9233 1.62213 24.0352V32.9645C1.62213 33.2932 1.68694 33.6187 1.81286 33.9223C1.93878 34.226 2.12334 34.5019 2.35601 34.7343C2.58868 34.9667 2.8649 35.1511 3.16889 35.2769C3.47289 35.4027 3.79871 35.4674 4.12775 35.4674H14.7478C15.4123 35.4674 16.0496 35.2037 16.5195 34.7343C16.9894 34.265 17.2534 33.6283 17.2534 32.9646V24.0352C17.2534 23.9373 17.2477 23.8394 17.2363 23.7421C17.2262 23.6458 17.242 23.5485 17.2823 23.4603C17.3225 23.3722 17.3855 23.2964 17.4649 23.2408C17.7883 23.0089 18.052 22.7036 18.2344 22.3502C18.4167 21.9967 18.5125 21.605 18.514 21.2074Z" fill="#3F3D56"/>
<path d="M17.9543 20.9622C17.8899 20.4779 17.6504 20.0338 17.2809 19.7136C16.9114 19.3933 16.4375 19.2191 15.9483 19.2237H3.01304C2.55577 19.2196 2.11077 19.3715 1.75155 19.6541C1.39233 19.9368 1.14037 20.3334 1.03728 20.7784C0.949012 21.1874 0.993002 21.6138 1.16291 21.9963C1.33282 22.3787 1.61987 22.6974 1.98272 22.9064C2.08747 22.9663 2.16933 23.0592 2.21542 23.1706C2.26152 23.282 2.26924 23.4055 2.23736 23.5218C2.19146 23.6891 2.16828 23.8619 2.16845 24.0355V32.964C2.16851 33.4203 2.32808 33.8622 2.61961 34.2135C2.91114 34.5648 3.31632 34.8034 3.76519 34.888C3.88492 34.9103 4.00645 34.9216 4.12824 34.9216H14.7483C14.9275 34.9219 15.106 34.8973 15.2785 34.8486C15.6897 34.733 16.0517 34.4864 16.3096 34.1464C16.5675 33.8063 16.7071 33.3914 16.7072 32.9648V24.0347C16.7072 23.8721 16.6869 23.7103 16.6467 23.5528C16.6357 23.5092 16.6301 23.4643 16.6299 23.4193C16.63 23.3206 16.6569 23.2238 16.7078 23.1392C16.7588 23.0547 16.8317 22.9855 16.919 22.9392L16.9198 22.9383C17.2718 22.7517 17.5589 22.4631 17.7436 22.1104C17.9282 21.7577 18.0017 21.3574 17.9543 20.9622Z" fill="#FA575A"/>
<path opacity="0.2" d="M16.7072 24.89V24.0505H15.2785V19.2236H14.4381V24.0505H9.94201V19.2236H9.10162V24.0505H4.60553V19.2236H3.76514V24.0505H2.1684V24.89H3.76514V27.4083H2.1684V28.2478H3.76514V30.7662H2.1684V31.6056H3.76514V34.8879C3.88487 34.9102 4.00639 34.9215 4.12819 34.9215H4.60553V31.6056H9.10161V34.9215H9.94201V31.6056H14.4381V34.9215H14.7482C14.9275 34.9218 15.106 34.8972 15.2785 34.8485V31.6056H16.7071V30.7662H15.2785V28.2478H16.7072V27.4083H15.2785V24.89H16.7072ZM4.60553 24.89H9.10162V27.4083H4.60553V24.89ZM4.60553 30.7662V28.2478H9.10162V30.7662H4.60553ZM14.4381 30.7662H9.94202V28.2478H14.4381V30.7662ZM14.4381 27.4083H9.94202V24.89H14.4381V27.4083Z" fill="black"/>
<path d="M18.4551 0C18.4551 1.17735 18.2229 2.34316 17.7719 3.43089C17.3208 4.51861 16.6597 5.50694 15.8263 6.33945C14.9929 7.17196 14.0034 7.83235 12.9145 8.2829C11.8256 8.73345 10.6585 8.96534 9.47981 8.96534C8.30116 8.96534 7.13404 8.73345 6.04511 8.2829C4.95618 7.83235 3.96675 7.17196 3.13332 6.33945C2.29989 5.50694 1.63877 4.51861 1.18772 3.43089C0.73667 2.34316 0.504517 1.17735 0.504517 0H18.4551Z" fill="#FA575A"/>
<path d="M3.79724 1.59139C3.79724 1.82578 3.71401 2.01578 3.61135 2.01578C3.50869 2.01578 3.42548 1.82578 3.42548 1.59139C3.43676 1.43279 3.5024 1.28291 3.61135 1.16699C3.72031 1.28291 3.78595 1.43279 3.79724 1.59139Z" fill="#3F3D56"/>
<path d="M13.1974 3.07699C13.1974 3.31137 13.1142 3.50138 13.0115 3.50138C12.9088 3.50138 12.8256 3.31137 12.8256 3.07699C12.8369 2.91838 12.9025 2.76851 13.0115 2.65259C13.1205 2.76851 13.1861 2.91838 13.1974 3.07699Z" fill="#3F3D56"/>
<path d="M6.29333 2.22811C6.29333 2.46249 6.21011 2.6525 6.10745 2.6525C6.00479 2.6525 5.92157 2.46249 5.92157 2.22811C5.93285 2.0695 5.9985 1.91963 6.10745 1.80371C6.2164 1.91963 6.28205 2.0695 6.29333 2.22811Z" fill="#3F3D56"/>
<path d="M10.0109 5.57039C10.0109 5.80478 9.9277 5.99478 9.82504 5.99478C9.72238 5.99478 9.63916 5.80478 9.63916 5.57039C9.65044 5.41179 9.71609 5.26191 9.82504 5.146C9.93399 5.26191 9.99963 5.41179 10.0109 5.57039Z" fill="#3F3D56"/>
<path d="M6.02776 5.14583C6.02776 5.38022 5.94454 5.57022 5.84189 5.57022C5.73923 5.57022 5.65601 5.38022 5.65601 5.14583C5.66729 4.98723 5.73293 4.83735 5.84189 4.72144C5.95084 4.83735 6.01648 4.98723 6.02776 5.14583Z" fill="#3F3D56"/>
<path d="M15.3217 1.16707C15.3217 1.40146 15.2385 1.59147 15.1358 1.59147C15.0332 1.59147 14.95 1.40146 14.95 1.16707C14.9612 1.00847 15.0269 0.858594 15.1358 0.742676C15.2448 0.858594 15.3104 1.00847 15.3217 1.16707Z" fill="#3F3D56"/>
<path d="M11.9228 6.41902C11.9228 6.65341 11.8396 6.84342 11.7369 6.84342C11.6342 6.84342 11.551 6.65341 11.551 6.41902C11.5623 6.26042 11.628 6.11055 11.7369 5.99463C11.8459 6.11055 11.9115 6.26042 11.9228 6.41902Z" fill="#3F3D56"/>
<path d="M9.47983 9.46931C6.96649 9.46647 4.55691 8.4679 2.77972 6.69268C1.00252 4.91745 0.00284487 2.51055 0 0H1.00905C1.00905 1.11116 1.22815 2.21145 1.65385 3.23803C2.07954 4.26461 2.7035 5.19738 3.49008 5.98309C4.27666 6.76881 5.21047 7.39207 6.23819 7.81729C7.26591 8.24251 8.36742 8.46137 9.47982 8.46137C10.5922 8.46137 11.6937 8.24251 12.7214 7.81729C13.7492 7.39207 14.683 6.76881 15.4696 5.98309C16.2561 5.19738 16.8801 4.26461 17.3058 3.23803C17.7315 2.21145 17.9506 1.11116 17.9506 0H18.9596C18.9568 2.51054 17.9571 4.91745 16.1799 6.69267C14.4027 8.46789 11.9932 9.46647 9.47983 9.46931Z" fill="#3F3D56"/>
<path d="M31.3156 3.25098H28.3448V6.21853H31.3156V3.25098Z" fill="#3F3D56"/>
<path d="M60.4299 4.58643H36.5146V4.88318H60.4299V4.58643Z" fill="#3F3D56"/>
<path d="M31.3156 25.5889H28.3448V28.5564H31.3156V25.5889Z" fill="#3F3D56"/>
<path d="M60.4299 26.9243H36.5146V27.2211H60.4299V26.9243Z" fill="#3F3D56"/>
<path d="M31.3156 47.7717H28.3448V50.7393H31.3156V47.7717Z" fill="#3F3D56"/>
<path d="M60.4299 49.1069H36.5146V49.4037H60.4299V49.1069Z" fill="#3F3D56"/>
<path d="M93.9271 20.3789L90.1321 23.3668L82.0907 20.5438C82.0907 20.5438 79.3566 17.4719 77.8105 19.7599C77.281 20.5435 80.7492 21.9912 81.0764 22.1257C81.8944 22.462 89.7302 26.7561 90.4981 26.1928C91.2659 25.6294 95.5862 22.78 95.5862 22.78L93.9271 20.3789Z" fill="#A0616A"/>
<path d="M106.881 15.2818C103.285 13.9393 99.8633 13.3041 97.0892 15.2818V8.89898C97.0892 8.25673 97.2159 7.62077 97.4619 7.0274C97.708 6.43404 98.0686 5.89489 98.5233 5.44075C98.9779 4.98661 99.5177 4.62636 100.112 4.38058C100.706 4.1348 101.342 4.0083 101.985 4.0083H101.985C102.628 4.0083 103.265 4.1348 103.859 4.38058C104.453 4.62636 104.993 4.98661 105.447 5.44075C105.902 5.8949 106.263 6.43404 106.509 7.02741C106.755 7.62077 106.881 8.25674 106.881 8.89899L106.881 15.2818Z" fill="#2F2E41"/>
<path d="M97.844 29.2251L97.5501 31.2802C97.5501 31.2802 96.8153 33.482 97.5501 37.5921L85.7205 69.8122L94.4641 72.3076L98.7992 54.693L104.898 41.2618L104.31 56.5278L101.224 72.8214L110.335 72.4544L112.99 44.5159C113.419 40.1004 112.652 35.6509 110.77 31.633C110.033 30.0706 109.241 28.8392 108.523 28.6604C106.367 28.1242 97.844 29.2251 97.844 29.2251Z" fill="#2F2E41"/>
<path d="M86.8226 69.592L83.8101 72.8214C83.8101 72.8214 78.0055 75.8306 82.1202 76.1975C86.2348 76.5645 87.6309 74.9498 87.6309 74.9498C87.6309 74.9498 92.7742 74.5829 92.7007 73.8489C92.6272 73.115 92.2598 70.693 92.2598 70.693L86.8226 69.592Z" fill="#2F2E41"/>
<path d="M103.171 70.3706V72.6458C103.171 72.6458 103.244 73.6 103.171 73.8201C103.097 74.0403 101.995 76.7559 105.669 76.1688C109.343 75.5816 107.873 73.3064 107.873 73.3064L106.992 70.0037L103.171 70.3706Z" fill="#2F2E41"/>
<path d="M101.94 13.372C103.979 13.372 105.632 11.7208 105.632 9.68392C105.632 7.64705 103.979 5.99585 101.94 5.99585C99.9011 5.99585 98.248 7.64705 98.248 9.68392C98.248 11.7208 99.9011 13.372 101.94 13.372Z" fill="#A0616A"/>
<path d="M104.494 11.7206C104.494 11.7206 103.979 16.5646 104.494 17.4453C105.008 18.3261 99.2767 16.5646 99.2767 16.5646C99.2767 16.5646 100.526 13.2619 100.085 11.9408C99.6441 10.6197 104.494 11.7206 104.494 11.7206Z" fill="#A0616A"/>
<path d="M107.433 25.6653L108.608 28.8947L97.6603 30.1424C97.6603 30.1424 96.4846 29.9222 96.4846 28.9681C96.4846 28.014 95.2356 24.6378 95.2356 24.6378C95.2356 24.6378 92.1764 22.161 90.7068 21.5005C90.1741 21.2612 90.971 21.36 91.4192 20.3443C91.5537 20.0389 91.7146 19.7167 91.8902 19.3901C92.0335 19.1222 92.1878 18.8507 92.3457 18.5828C92.5375 18.2562 92.7352 17.9347 92.9269 17.6287C93.5074 16.7032 94.0372 15.9252 94.2069 15.6103C94.7212 14.6562 99.5567 14.571 99.5567 14.571C100.939 15.44 104.934 15.6103 104.934 15.6103C104.934 15.6103 107.682 16.7589 108.827 17.6287C108.91 17.691 107.433 25.6653 107.433 25.6653Z" fill="#E6E6E6"/>
<path d="M105.056 5.25661V5.16903L104.952 5.17482C104.36 4.72454 103.673 4.41484 102.943 4.2692C102.214 4.12357 101.46 4.14582 100.741 4.33428C101.431 4.51641 102.072 4.8475 102.62 5.30421L99.0809 5.5006L97.5872 8.81633H98.5981L99.4128 7.32425V8.81633H102.832L103.064 7.65582L103.71 8.81633H104.381C104.386 8.89907 104.392 8.98122 104.392 9.065L103.728 15.4478L106.881 14.1215V9.065C106.882 8.33417 106.718 7.61253 106.402 6.95337C106.086 6.29421 105.626 5.71436 105.056 5.25661Z" fill="#2F2E41"/>
<path d="M110.004 22.1426L109.784 27.9407L109.196 39.1701C109.196 39.1701 110.004 44.0141 107.947 43.9407C105.89 43.8673 107.433 38.216 107.433 38.216L106.845 29.3352L107.433 23.0967L110.004 22.1426Z" fill="#A0616A"/>
<path d="M110.592 25.2984C110.592 25.959 106.882 25.7755 106.882 25.7755L104.934 15.6104C104.934 15.6104 107.682 16.759 108.827 17.6287C109.097 17.9079 109.317 18.2304 109.479 18.5828C109.566 18.8184 109.649 19.0914 109.728 19.3902C109.806 19.6867 109.879 20.0089 109.947 20.3443C110.268 21.9802 110.483 23.635 110.592 25.2984Z" fill="#E6E6E6"/>
<path d="M9.37989 48.8791L3.75577 48.2975C3.79898 47.9991 3.7658 47.6947 3.65933 47.4127C3.55285 47.1307 3.37655 46.8802 3.1469 46.6847C2.91724 46.4892 2.64172 46.355 2.34607 46.2946C2.05042 46.2343 1.74429 46.2498 1.45627 46.3397C1.16824 46.4296 0.907719 46.5909 0.699037 46.8086C0.490354 47.0264 0.340318 47.2934 0.262942 47.5847C0.185566 47.8761 0.183376 48.1822 0.256573 48.4746C0.32977 48.7671 0.475968 49.0362 0.681511 49.2569C0.472675 49.4822 0.325581 49.7575 0.254456 50.0562C0.183331 50.3549 0.190582 50.6669 0.275508 50.962C0.360434 51.2572 0.52016 51.5254 0.739239 51.7408C0.958318 51.9561 1.22933 52.1114 1.52608 52.1916C1.82282 52.2717 2.13524 52.274 2.43312 52.1982C2.73101 52.1224 3.00428 51.9711 3.2265 51.759C3.44872 51.5468 3.61237 51.281 3.70162 50.9872C3.79087 50.6933 3.80271 50.3815 3.73598 50.0817L9.37989 49.5635V48.8791Z" fill="#CCCCCC"/>
<path d="M15.0991 52.7403C17.31 53.2834 19.5373 51.7169 19.6526 49.4455C19.6558 49.3825 19.6574 49.3191 19.6574 49.2553C19.6574 49.1916 19.6558 49.1282 19.6526 49.0652C19.5373 46.7938 17.31 45.2273 15.0991 45.7704L7.59848 47.6128C7.3824 47.6126 7.1684 47.6549 6.96871 47.7374C6.76903 47.8198 6.58756 47.9408 6.4347 48.0933C6.28184 48.2459 6.16057 48.427 6.07784 48.6264C5.9951 48.8258 5.95251 49.0395 5.95251 49.2553C5.95251 49.4712 5.9951 49.6849 6.07784 49.8843C6.16057 50.0837 6.28184 50.2648 6.4347 50.4174C6.58756 50.5699 6.76903 50.6909 6.96871 50.7733C7.1684 50.8558 7.3824 50.8981 7.59848 50.8979L15.0991 52.7403Z" fill="#FA575A"/>
</g>
<defs>
<clipPath id="clip0">
<rect width="114" height="77" fill="white"/>
</clipPath>
</defs>
</svg>
