<svg width="148" height="155" viewBox="0 0 148 155" fill="none" xmlns="http://www.w3.org/2000/svg">
<g clip-path="url(#clip0)">
<path d="M74 141.888C107.624 141.888 134.881 114.646 134.881 81.0411C134.881 47.4362 107.624 20.1941 74 20.1941C40.3764 20.1941 13.1191 47.4362 13.1191 81.0411C13.1191 114.646 40.3764 141.888 74 141.888Z" stroke="#3AD29F" stroke-width="2" stroke-miterlimit="10" stroke-dasharray="12 12"/>
<path d="M74 154.795C114.756 154.795 147.795 121.774 147.795 81.0413C147.795 40.3081 114.756 7.28735 74 7.28735C33.2441 7.28735 0.204987 40.3081 0.204987 81.0413C0.204987 121.774 33.2441 154.795 74 154.795Z" stroke="#3AD29F" stroke-width="2" stroke-miterlimit="10" stroke-dasharray="12 12"/>
<path d="M123.389 104.538C123.39 100.394 121.844 96.3995 119.054 93.3351C116.263 90.2707 112.429 88.3573 108.301 87.9694C104.173 87.5814 100.049 88.7468 96.7359 91.2376C93.4226 93.7283 91.1584 97.3651 90.3865 101.436L39.224 100.049L39.7857 108.834C39.7857 108.834 32.4902 125.658 70.8329 130.141V147.145H115.159V118.873C117.662 117.408 119.739 115.314 121.182 112.8C122.626 110.285 123.387 107.437 123.389 104.538Z" fill="url(#paint0_linear)"/>
<path d="M41.5425 109.203C41.5425 109.203 34.5566 125.314 71.2757 129.612V145.904H113.726V102.76L40.9972 100.789L41.5425 109.203Z" fill="#BE7C5E"/>
<path d="M62.7585 41.9701C61.6516 43.7158 59.8985 44.9527 57.882 45.4107C55.8656 45.8686 53.7498 45.5104 51.9968 44.4142L29.2044 29.4033C27.4577 28.297 26.2201 26.5448 25.7619 24.5295C25.3037 22.5142 25.6621 20.3995 26.7589 18.6475C27.8657 16.9041 29.6173 15.6687 31.6318 15.2109C33.6462 14.753 35.7601 15.1098 37.5124 16.2034L60.3048 31.2143C62.0529 32.3193 63.2922 34.0709 63.7519 36.0863C64.2117 38.1017 63.8546 40.2171 62.7585 41.9701Z" fill="url(#paint1_linear)"/>
<path d="M61.4959 41.1505C60.467 42.7731 58.8375 43.9229 56.9631 44.3486C55.0888 44.7743 53.1221 44.4414 51.4926 43.4225L30.2991 29.4584C28.6755 28.4301 27.5251 26.8015 27.0992 24.9282C26.6732 23.0549 27.0064 21.0893 28.0258 19.4607C29.0547 17.8381 30.6842 16.6883 32.5586 16.2626C34.4329 15.8369 36.3996 16.1698 38.0291 17.1887L59.2185 31.1445C60.845 32.1723 61.9979 33.8022 62.4247 35.6775C62.8515 37.5528 62.5175 39.5207 61.4959 41.1505Z" fill="#BE7C5E"/>
<path d="M105.668 121.02C114.473 121.02 121.61 113.887 121.61 105.087C121.61 96.2877 114.473 89.1543 105.668 89.1543C96.8639 89.1543 89.7266 96.2877 89.7266 105.087C89.7266 113.887 96.8639 121.02 105.668 121.02Z" fill="#BE7C5E"/>
<path d="M102.798 0H41.729C40.3421 0 39.2179 1.12362 39.2179 2.50968V116.718C39.2179 118.104 40.3421 119.227 41.729 119.227H102.798C104.185 119.227 105.31 118.104 105.31 116.718V2.50968C105.31 1.12362 104.185 0 102.798 0Z" fill="url(#paint2_linear)"/>
<path d="M101.618 1.6123H42.9057C41.3615 1.6123 40.1097 2.86342 40.1097 4.40676V114.825C40.1097 116.368 41.3615 117.619 42.9057 117.619H101.618C103.162 117.619 104.414 116.368 104.414 114.825V4.40676C104.414 2.86342 103.162 1.6123 101.618 1.6123Z" fill="white"/>
<path d="M88.4167 4.52149C88.2306 5.75174 87.6102 6.87484 86.6676 7.68762C85.7251 8.50041 84.5226 8.94922 83.2776 8.95287H61.0694C59.8249 8.94873 58.6229 8.49971 57.6807 7.68696C56.7386 6.87422 56.1185 5.75139 55.9325 4.52149H44.1663C43.8455 4.52122 43.5278 4.58413 43.2314 4.70663C42.9349 4.82914 42.6656 5.00882 42.4386 5.23543C42.2117 5.46203 42.0317 5.73111 41.9089 6.02728C41.7861 6.32345 41.7229 6.64091 41.7229 6.96151V112.266C41.7226 112.586 41.7855 112.904 41.9081 113.2C42.0307 113.496 42.2105 113.766 42.4372 113.992C42.6639 114.219 42.9332 114.399 43.2295 114.522C43.5258 114.645 43.8435 114.708 44.1642 114.708H100.359C100.68 114.708 100.998 114.645 101.294 114.523C101.59 114.4 101.86 114.22 102.087 113.994C102.314 113.767 102.494 113.498 102.617 113.202C102.739 112.906 102.803 112.588 102.803 112.268V6.96356C102.803 6.64296 102.74 6.32545 102.617 6.02917C102.495 5.7329 102.315 5.46367 102.088 5.23688C101.862 5.01008 101.592 4.83017 101.296 4.70742C101 4.58467 100.682 4.52149 100.361 4.52149H88.4167Z" fill="#6C63FF"/>
<path d="M79.1083 5.90845H65.5976C65.3712 5.90845 65.1877 6.0919 65.1877 6.31819V6.39399C65.1877 6.62029 65.3712 6.80374 65.5976 6.80374H79.1083C79.3347 6.80374 79.5182 6.62029 79.5182 6.39399V6.31819C79.5182 6.0919 79.3347 5.90845 79.1083 5.90845Z" fill="#DBDBDB"/>
<path d="M82.5623 6.80376C82.8589 6.80376 83.0994 6.56344 83.0994 6.26699C83.0994 5.97054 82.8589 5.73022 82.5623 5.73022C82.2657 5.73022 82.0253 5.97054 82.0253 6.26699C82.0253 6.56344 82.2657 6.80376 82.5623 6.80376Z" fill="#DBDBDB"/>
<path d="M115.973 107.898C111.346 108.967 108.171 105.952 107.101 101.33L96.4705 61.8776C95.9624 59.6487 96.3573 57.3095 97.569 55.3706C98.7808 53.4318 100.711 52.0509 102.938 51.5295C105.168 51.0217 107.508 51.4164 109.448 52.6274C111.388 53.8385 112.77 55.7675 113.292 57.9932L121.967 98.4636C123.037 103.088 120.597 106.829 115.973 107.898Z" fill="url(#paint3_linear)"/>
<path d="M112.099 58.959C111.197 55.0575 107.301 52.6255 103.398 53.527C99.4938 54.4284 97.0604 58.322 97.9624 62.2235L107.738 104.508C108.64 108.409 112.535 110.841 116.439 109.94C120.343 109.038 122.776 105.145 121.874 101.243L112.099 58.959Z" fill="#BE7C5E"/>
<path d="M121.542 140.573H60.8666V154.709H121.542V140.573Z" fill="url(#paint4_linear)"/>
<path d="M119.903 142.212H62.5065V153.275H119.903V142.212Z" fill="#4D8AF0"/>
<path d="M53.9115 84.2926C52.818 86.0175 51.086 87.2398 49.0937 87.6924C47.1014 88.145 45.0109 87.7911 43.2788 86.7081L27.993 76.823C26.2671 75.7302 25.0442 73.9991 24.5913 72.0079C24.1385 70.0167 24.4926 67.9273 25.5762 66.1963C26.6697 64.4714 28.4017 63.2491 30.394 62.7965C32.3863 62.3439 34.4768 62.6978 36.2089 63.7808L51.4947 73.6659C53.2205 74.7587 54.4435 76.4898 54.8964 78.481C55.3492 80.4722 54.9951 82.5615 53.9115 84.2926Z" fill="url(#paint5_linear)"/>
<path d="M50.074 105.216C48.9709 106.957 47.2231 108.19 45.2128 108.647C43.2024 109.104 41.0928 108.747 39.345 107.654L29.8767 100.754C28.135 99.6514 26.9008 97.9046 26.4437 95.8954C25.9866 93.8861 26.3439 91.7777 27.4374 90.0309C28.5406 88.2902 30.2883 87.0567 32.2987 86.5998C34.309 86.143 36.4186 86.5001 38.1664 87.593L47.6347 94.4951C49.3758 95.5976 50.6097 97.344 51.0667 99.3527C51.5238 101.362 51.1669 103.469 50.074 105.216Z" fill="url(#paint6_linear)"/>
<g opacity="0.5">
<path opacity="0.5" d="M72.2617 78.0418C82.4438 78.0418 90.6981 69.7921 90.6981 59.6156C90.6981 49.4391 82.4438 41.1895 72.2617 41.1895C62.0795 41.1895 53.8252 49.4391 53.8252 59.6156C53.8252 69.7921 62.0795 78.0418 72.2617 78.0418Z" fill="url(#paint7_linear)"/>
</g>
<path d="M72.2616 76.958C81.8449 76.958 89.6137 69.1936 89.6137 59.6156C89.6137 50.0377 81.8449 42.2732 72.2616 42.2732C62.6783 42.2732 54.9095 50.0377 54.9095 59.6156C54.9095 69.1936 62.6783 76.958 72.2616 76.958Z" fill="#69F0AE"/>
<path d="M64.7305 57.3008L71.2367 63.2625L80.455 49.7144L83.7101 52.4248L71.2367 68.6834L62.0185 58.3866L64.7305 57.3008Z" fill="white"/>
<path d="M49.3094 104.702C48.2805 106.324 46.6509 107.474 44.7766 107.9C42.9023 108.326 40.9356 107.993 39.3061 106.974L30.4753 100.549C28.8517 99.5207 27.7013 97.892 27.2754 96.0188C26.8494 94.1455 27.1825 92.1799 28.202 90.5513C29.2308 88.9286 30.8604 87.7789 32.7347 87.3532C34.6091 86.9275 36.5758 87.2604 38.2053 88.2792L47.034 94.7163C48.6545 95.7442 49.803 97.3704 50.2291 99.2407C50.6553 101.111 50.3247 103.074 49.3094 104.702Z" fill="#BE7C5E"/>
<path d="M53.0709 83.7496C52.042 85.3722 50.4124 86.522 48.5381 86.9477C46.6638 87.3734 44.6971 87.0405 43.0676 86.0216L28.6857 76.7204C27.0622 75.6921 25.9118 74.0634 25.4859 72.1902C25.0599 70.3169 25.393 68.3513 26.4124 66.7227C27.4413 65.1 29.0709 63.9503 30.9452 63.5246C32.8195 63.0988 34.7863 63.4318 36.4158 64.4506L50.7976 73.7518C52.4211 74.7801 53.5715 76.4088 53.9975 78.2821C54.4234 80.1553 54.0903 82.121 53.0709 83.7496Z" fill="#BE7C5E"/>
<path d="M57.8636 63.4674C56.7648 65.1999 55.0246 66.4275 53.0232 66.882C51.0218 67.3365 48.9218 66.981 47.1818 65.8931L27.8106 53.2873C26.0771 52.1891 24.8489 50.4499 24.3941 48.4497C23.9394 46.4494 24.2951 44.3505 25.3835 42.6115C26.4824 40.879 28.2225 39.6514 30.2239 39.1969C32.2253 38.7424 34.3254 39.0979 36.0654 40.1858L55.4366 52.7916C57.17 53.8898 58.3983 55.629 58.853 57.6292C59.3078 59.6295 58.9521 61.7284 57.8636 63.4674Z" fill="url(#paint8_linear)"/>
<path d="M56.8344 62.8115C55.8055 64.4342 54.1759 65.5839 52.3016 66.0096C50.4273 66.4354 48.4606 66.1024 46.8311 65.0836L28.6878 53.2768C27.0642 52.2485 25.9138 50.6198 25.4879 48.7465C25.0619 46.8733 25.395 44.9076 26.4145 43.2791C27.4433 41.6564 29.0729 40.5067 30.9472 40.0809C32.8216 39.6552 34.7883 39.9882 36.4178 41.007L54.5591 52.8138C56.183 53.8418 57.3338 55.4703 57.7601 57.3436C58.1864 59.2169 57.8536 61.1827 56.8344 62.8115Z" fill="#BE7C5E"/>
</g>
<defs>
<linearGradient id="paint0_linear" x1="81.3097" y1="147.155" x2="81.3097" y2="87.8983" gradientUnits="userSpaceOnUse">
<stop stop-color="#808080" stop-opacity="0.25"/>
<stop offset="0.54" stop-color="#808080" stop-opacity="0.12"/>
<stop offset="1" stop-color="#808080" stop-opacity="0.1"/>
</linearGradient>
<linearGradient id="paint1_linear" x1="17578.5" y1="9033.58" x2="17578.5" y2="4465.42" gradientUnits="userSpaceOnUse">
<stop stop-color="#808080" stop-opacity="0.25"/>
<stop offset="0.54" stop-color="#808080" stop-opacity="0.12"/>
<stop offset="1" stop-color="#808080" stop-opacity="0.1"/>
</linearGradient>
<linearGradient id="paint2_linear" x1="39084.7" y1="77981.3" x2="39084.7" y2="8595.8" gradientUnits="userSpaceOnUse">
<stop stop-color="#808080" stop-opacity="0.25"/>
<stop offset="0.54" stop-color="#808080" stop-opacity="0.12"/>
<stop offset="1" stop-color="#808080" stop-opacity="0.1"/>
</linearGradient>
<linearGradient id="paint3_linear" x1="20135.9" y1="34126.6" x2="20135.9" y2="18378" gradientUnits="userSpaceOnUse">
<stop stop-color="#808080" stop-opacity="0.25"/>
<stop offset="0.54" stop-color="#808080" stop-opacity="0.12"/>
<stop offset="1" stop-color="#808080" stop-opacity="0.1"/>
</linearGradient>
<linearGradient id="paint4_linear" x1="41510.6" y1="11821.5" x2="41510.6" y2="10846.1" gradientUnits="userSpaceOnUse">
<stop stop-color="#808080" stop-opacity="0.25"/>
<stop offset="0.54" stop-color="#808080" stop-opacity="0.12"/>
<stop offset="1" stop-color="#808080" stop-opacity="0.1"/>
</linearGradient>
<linearGradient id="paint5_linear" x1="13309.1" y1="12732.9" x2="13309.1" y2="9613.29" gradientUnits="userSpaceOnUse">
<stop stop-color="#808080" stop-opacity="0.25"/>
<stop offset="0.54" stop-color="#808080" stop-opacity="0.12"/>
<stop offset="1" stop-color="#808080" stop-opacity="0.1"/>
</linearGradient>
<linearGradient id="paint6_linear" x1="10732.9" y1="13625.7" x2="10732.9" y2="11168.4" gradientUnits="userSpaceOnUse">
<stop stop-color="#808080" stop-opacity="0.25"/>
<stop offset="0.54" stop-color="#808080" stop-opacity="0.12"/>
<stop offset="1" stop-color="#808080" stop-opacity="0.1"/>
</linearGradient>
<linearGradient id="paint7_linear" x1="13052.3" y1="14079.4" x2="13052.3" y2="7449.99" gradientUnits="userSpaceOnUse">
<stop stop-color="#808080" stop-opacity="0.25"/>
<stop offset="0.54" stop-color="#808080" stop-opacity="0.12"/>
<stop offset="1" stop-color="#808080" stop-opacity="0.1"/>
</linearGradient>
<linearGradient id="paint8_linear" x1="15427.5" y1="11257.6" x2="15427.5" y2="7411.03" gradientUnits="userSpaceOnUse">
<stop stop-color="#808080" stop-opacity="0.25"/>
<stop offset="0.54" stop-color="#808080" stop-opacity="0.12"/>
<stop offset="1" stop-color="#808080" stop-opacity="0.1"/>
</linearGradient>
<clipPath id="clip0">
<rect width="148" height="155" fill="white"/>
</clipPath>
</defs>
</svg>
