<svg width="106" height="89" viewBox="0 0 106 89" fill="none" xmlns="http://www.w3.org/2000/svg">
<path d="M29.7664 20.1374C34.0897 20.1374 37.5945 16.623 37.5945 12.2878C37.5945 7.95261 34.0897 4.43823 29.7664 4.43823C25.4431 4.43823 21.9383 7.95261 21.9383 12.2878C21.9383 16.623 25.4431 20.1374 29.7664 20.1374Z" fill="#FF6584"/>
<path d="M75.4776 14.5764H66.0878V6.01685L75.4776 14.5764Z" fill="#3F3D56"/>
<path d="M76.5748 14.2961H29.3378V79.7359H76.5748V14.2961Z" fill="#E6E6E6"/>
<path d="M39.6079 18.8845H34.0506V30.6267H39.6079V18.8845Z" fill="white"/>
<path d="M48.2037 18.8845H42.6464V30.6267H48.2037V18.8845Z" fill="white"/>
<path d="M38.8754 35.5273H33.3181V47.2695H38.8754V35.5273Z" fill="white"/>
<path d="M48.2037 35.5273H42.6464V47.2695H48.2037V35.5273Z" fill="white"/>
<path d="M38.8754 50.9265H33.3181V62.6687H38.8754V50.9265Z" fill="white"/>
<path d="M47.9944 50.7168H42.4371V62.459H47.9944V50.7168Z" fill="white"/>
<path d="M56.0717 68.02H50.5144V79.7622H56.0717V68.02Z" fill="#CCCCCC"/>
<path d="M64.4678 50.7168H58.9105V62.459H64.4678V50.7168Z" fill="white"/>
<path d="M73.7962 50.7168H68.2389V62.459H73.7962V50.7168Z" fill="white"/>
<path d="M64.6771 35.4031H59.1198V47.1452H64.6771V35.4031Z" fill="white"/>
<path d="M74.0054 35.4031H68.4481V47.1452H74.0054V35.4031Z" fill="white"/>
<path d="M64.6771 18.8845H59.1198V30.6267H64.6771V18.8845Z" fill="white"/>
<path d="M74.0054 18.8845H68.4481V30.6267H74.0054V18.8845Z" fill="white"/>
<path d="M76.5748 29.4216H29.3378V31.2128H76.5748V29.4216Z" fill="#3F3D56"/>
<path d="M76.5748 43.353H29.3378V44.3481H76.5748V43.353Z" fill="#3F3D56"/>
<path d="M76.5748 40.1687H29.3378V41.1638H76.5748V40.1687Z" fill="#3F3D56"/>
<path d="M34.002 63.4539V55.4932H33.0096V63.4539H34.002Z" fill="#3F3D56"/>
<path d="M39.5593 63.454V55.4932H38.5669V63.454H39.5593Z" fill="#3F3D56"/>
<path d="M45.1166 63.4539V55.4932H44.1242V63.4539H45.1166Z" fill="#3F3D56"/>
<path d="M50.6738 63.454V55.4932H49.6815V63.454H50.6738Z" fill="#3F3D56"/>
<path d="M56.2311 63.4539V55.4932H55.2388V63.4539H56.2311Z" fill="#3F3D56"/>
<path d="M61.7885 63.4539V55.4932H60.7961V63.4539H61.7885Z" fill="#3F3D56"/>
<path d="M67.3457 63.4539V55.4932H66.3533V63.4539H67.3457Z" fill="#3F3D56"/>
<path d="M72.903 63.4539V55.4932H71.9106V63.4539H72.903Z" fill="#3F3D56"/>
<path d="M34.1013 48.3284V40.3677H33.1089V48.3284H34.1013Z" fill="#3F3D56"/>
<path d="M39.6585 48.3285V40.3677H38.6661V48.3285H39.6585Z" fill="#3F3D56"/>
<path d="M45.2158 48.3284V40.3677H44.2234V48.3284H45.2158Z" fill="#3F3D56"/>
<path d="M50.7731 48.3285V40.3677H49.7808V48.3285H50.7731Z" fill="#3F3D56"/>
<path d="M56.3304 48.3285V40.3677H55.338V48.3285H56.3304Z" fill="#3F3D56"/>
<path d="M61.8878 48.3285V40.3677H60.8954V48.3285H61.8878Z" fill="#3F3D56"/>
<path d="M67.445 48.3285V40.3677H66.4526V48.3285H67.445Z" fill="#3F3D56"/>
<path d="M73.0023 48.3285V40.3677H72.0099V48.3285H73.0023Z" fill="#3F3D56"/>
<path d="M34.1012 30.6158V22.655H33.1088V30.6158H34.1012Z" fill="#3F3D56"/>
<path d="M39.6585 30.6158V22.655H38.6661V30.6158H39.6585Z" fill="#3F3D56"/>
<path d="M45.2158 30.6158V22.655H44.2234V30.6158H45.2158Z" fill="#3F3D56"/>
<path d="M50.7731 30.6158V22.655H49.7807V30.6158H50.7731Z" fill="#3F3D56"/>
<path d="M56.3304 30.6158V22.655H55.338V30.6158H56.3304Z" fill="#3F3D56"/>
<path d="M61.8878 30.6158V22.655H60.8954V30.6158H61.8878Z" fill="#3F3D56"/>
<path d="M67.4449 30.6156V22.6548H66.4526V30.6156H67.4449Z" fill="#3F3D56"/>
<path d="M73.0023 30.6158V22.655H72.0099V30.6158H73.0023Z" fill="#3F3D56"/>
<path d="M76.5748 25.4414H29.3378V26.4365H76.5748V25.4414Z" fill="#3F3D56"/>
<path d="M76.5748 22.2568H29.3378V23.2519H76.5748V22.2568Z" fill="#3F3D56"/>
<path d="M76.5748 46.7363H29.3378V48.5275H76.5748V46.7363Z" fill="#3F3D56"/>
<path d="M78.7485 13.5598H27.1642V16.2289H78.7485V13.5598Z" fill="#3F3D56"/>
<path d="M39.6183 70.5591V68.02H36.5798V70.5591H39.3651H39.6183Z" fill="white"/>
<path d="M39.3651 72.5903H36.5798V75.1294H39.6183V72.5903H39.3651Z" fill="white"/>
<path d="M44.6826 68.02H41.644V70.5591H44.6826V68.02Z" fill="white"/>
<path d="M44.6826 72.5903H41.644V75.1294H44.6826V72.5903Z" fill="white"/>
<path d="M64.4009 70.5591V68.02H61.3623V70.5591H64.1476H64.4009Z" fill="white"/>
<path d="M64.1476 72.5903H61.3623V75.1294H64.4009V72.5903H64.1476Z" fill="white"/>
<path d="M69.465 68.02H66.4265V70.5591H69.465V68.02Z" fill="white"/>
<path d="M69.465 72.5903H66.4265V75.1294H69.465V72.5903Z" fill="white"/>
<path d="M76.5748 61.8618H29.3378V63.653H76.5748V61.8618Z" fill="#3F3D56"/>
<path d="M76.5748 58.6775H29.3378V59.6726H76.5748V58.6775Z" fill="#3F3D56"/>
<path d="M76.5748 55.4932H29.3378V56.4883H76.5748V55.4932Z" fill="#3F3D56"/>
<path d="M43.6385 78.8829C43.6386 78.8275 43.6378 78.7723 43.6362 78.7175C43.5938 77.2504 42.1424 76.8525 41.3643 77.547C41.1188 77.3332 40.8046 77.2155 40.4794 77.2155C40.1542 77.2155 39.8399 77.3332 39.5944 77.547C38.813 76.8634 37.3905 77.233 37.3436 78.6835C37.3418 78.7383 37.3409 78.7934 37.3408 78.8488C37.343 79.1538 37.3617 79.4585 37.3966 79.7615H43.5834C43.617 79.4698 43.6354 79.1765 43.6385 78.8829Z" fill="#FA575A"/>
<path d="M68.2274 78.8829C68.2275 78.8275 68.2267 78.7723 68.2251 78.7175C68.1827 77.2504 66.7313 76.8525 65.9532 77.547C65.7077 77.3332 65.3934 77.2155 65.0683 77.2155C64.7431 77.2155 64.4288 77.3332 64.1833 77.547C63.4019 76.8634 61.9794 77.233 61.9325 78.6835C61.9307 78.7383 61.9297 78.7934 61.9296 78.8488C61.9319 79.1538 61.9506 79.4585 61.9855 79.7615H68.1723C68.2059 79.4698 68.2243 79.1765 68.2274 78.8829Z" fill="#FA575A"/>
<path d="M102.158 79.8607H101.202L101.52 61.1189H101.839L102.158 79.8607Z" fill="#E6E6E6"/>
<path d="M102.956 49.3197L104.5 46.9262C104.042 45.6575 103.513 44.4157 102.916 43.2067L101.917 44.0155L102.708 42.7901C101.954 41.3025 101.361 40.3652 101.361 40.3652C101.361 40.3652 98.2634 45.2599 97.2285 50.4422L99.2105 53.5137L97.0164 51.7366C96.9382 52.3403 96.898 52.9483 96.896 53.5571C96.896 59.6947 98.895 64.6702 101.361 64.6702C103.827 64.6702 105.826 59.6947 105.826 53.5571C105.826 51.6544 105.397 49.6637 104.805 47.8223L102.956 49.3197Z" fill="#E6E6E6"/>
<path d="M98.7892 53.6465H78.3765V68.7179H78.3889V71.7185L81.3813 68.7179H98.7892V53.6465Z" fill="#FA575A"/>
<path d="M72.9752 85.8342H54.8651V86.552H72.9752V85.8342Z" fill="#E6E6E6"/>
<path d="M106 85.8342H87.7919V86.552H106V85.8342Z" fill="#E6E6E6"/>
<path d="M40.0719 85.8342H21.9383V86.552H40.0719V85.8342Z" fill="#E6E6E6"/>
<path d="M105.926 79.7458H0V79.946H105.926V79.7458Z" fill="#3F3D56"/>
<path d="M83.0797 83.2022L85.2123 83.2034L85.2125 82.8639L83.0799 82.8628L83.0797 83.2022Z" fill="#3F3D56"/>
<path d="M67.661 82.9394L68.101 83.0415L84.8231 83.0504L84.9735 82.6991C85.2357 82.0965 85.3258 81.4327 85.2335 80.7817C85.1615 80.2966 84.981 79.8145 84.5711 79.6051L83.829 74.6489L74.5775 74.6323L70.9982 77.5272C70.9982 77.5272 69.3097 77.4968 68.3924 78.6419C68.0615 79.0677 67.8662 79.5835 67.8318 80.1222L67.7956 80.7179L67.661 82.9394Z" fill="#FA575A"/>
<path d="M71.3338 84.9272C72.4742 84.9272 73.3987 84.0002 73.3987 82.8567C73.3987 81.7131 72.4742 80.7861 71.3338 80.7861C70.1934 80.7861 69.2689 81.7131 69.2689 82.8567C69.2689 84.0002 70.1934 84.9272 71.3338 84.9272Z" fill="#3F3D56"/>
<path d="M71.3338 83.9464C71.9341 83.9464 72.4206 83.4585 72.4206 82.8566C72.4206 82.2547 71.9341 81.7668 71.3338 81.7668C70.7336 81.7668 70.2471 82.2547 70.2471 82.8566C70.2471 83.4585 70.7336 83.9464 71.3338 83.9464Z" fill="#CCCCCC"/>
<path d="M81.5228 84.9326C82.6632 84.9326 83.5876 84.0056 83.5876 82.862C83.5876 81.7185 82.6632 80.7915 81.5228 80.7915C80.3824 80.7915 79.4579 81.7185 79.4579 82.862C79.4579 84.0056 80.3824 84.9326 81.5228 84.9326Z" fill="#3F3D56"/>
<path d="M81.5228 83.9517C82.123 83.9517 82.6096 83.4638 82.6096 82.862C82.6096 82.2601 82.123 81.7722 81.5228 81.7722C80.9226 81.7722 80.436 82.2601 80.436 82.862C80.436 83.4638 80.9226 83.9517 81.5228 83.9517Z" fill="#CCCCCC"/>
<path d="M72.4203 77.1891L77.4154 77.1913H78.0251L79.0546 77.192V77.1166L79.0553 76.209L79.056 75.1897H78.3712L77.7613 75.1889L76.6813 75.1882H76.0716L74.8247 75.1875L72.4203 77.1891Z" fill="white"/>
<path d="M79.8672 77.1925L82.5071 77.1939L82.5078 76.6745V75.7668L82.5086 75.1916H82.122L81.5123 75.1909L79.868 75.1902L79.8672 77.1925Z" fill="white"/>
<path d="M78.7147 79.3309L79.0532 79.3311L79.0535 78.6861L78.715 78.6859L78.7147 79.3309Z" fill="#3F3D56"/>
<path d="M73.774 78.1063L73.7742 77.7668L73.131 77.7665L73.1308 78.1059L73.774 78.1063Z" fill="#3F3D56"/>
<path d="M73.5367 77.9158L73.4995 77.9158C73.3119 77.9157 73.132 77.8408 72.9994 77.7077C72.8668 77.5746 72.7923 77.3941 72.7924 77.206C72.7925 77.0178 72.8672 76.8374 72.9999 76.7044C73.1326 76.5715 73.3126 76.4968 73.5003 76.4969L73.5375 76.4969L73.5367 77.9158Z" fill="#3F3D56"/>
<path d="M67.7956 80.7181C68.0516 80.746 68.3092 80.6824 68.523 80.5386C68.7369 80.3947 68.8932 80.1798 68.9646 79.9317C69.0359 79.6836 69.0176 79.4183 68.913 79.1823C68.8083 78.9464 68.624 78.7551 68.3925 78.6421C68.0616 79.0679 67.8662 79.5837 67.8318 80.1224L67.7956 80.7181Z" fill="#3F3D56"/>
<path d="M77.7613 75.1887L79.0545 77.1164L79.0552 76.2088L78.3712 75.1894L77.7613 75.1887Z" fill="#F2F2F2"/>
<path d="M81.5123 75.1909L82.5079 76.6745V75.7668L82.1221 75.1916L81.5123 75.1909Z" fill="#F2F2F2"/>
<path d="M76.0716 75.188L77.4154 77.191H78.0251L76.6813 75.188H76.0716Z" fill="#F2F2F2"/>
<path d="M48.9604 0.125363L48.9466 0.1329C48.7975 0.214629 48.6305 0.257748 48.4607 0.258346C48.2908 0.258943 48.1235 0.217 47.9739 0.136321C47.9652 0.131658 47.9567 0.127053 47.9482 0.122507C47.7986 0.0424406 47.6315 0.000837787 47.4619 0.00142487C47.2924 0.00201196 47.1256 0.0447709 46.9766 0.125871L46.9637 0.1329C46.8146 0.214629 46.6476 0.257748 46.4778 0.258346C46.3079 0.258943 46.1406 0.217 45.991 0.136321C45.982 0.13148 45.9731 0.126702 45.9643 0.121986C45.8165 0.0422865 45.6513 0.000428486 45.4834 0.000130683C45.3156 -0.00016712 45.1503 0.0411048 45.0022 0.120279C44.5497 0.3646 43.9381 0.782328 43.9408 1.25409C43.9409 1.27274 43.942 1.29138 43.944 1.30993C43.9966 1.79985 45.5902 1.92468 46.4656 1.6938C47.1182 1.8431 47.7959 1.8431 48.4485 1.6938C49.3202 1.92838 50.9462 1.79398 50.9937 1.29844C50.9955 1.27987 50.9963 1.26123 50.9962 1.24257C50.9935 0.77056 50.3765 0.35721 49.9212 0.116329C49.7727 0.0384124 49.6073 -0.00153111 49.4396 4.48905e-05C49.272 0.00162089 49.1074 0.0446671 48.9604 0.125363Z" fill="#E6E6E6"/>
<path d="M92.8627 16.3009L92.849 16.3084C92.6999 16.3902 92.5329 16.4333 92.363 16.4339C92.1932 16.4345 92.0259 16.3925 91.8763 16.3119C91.8676 16.3072 91.8591 16.3026 91.8505 16.298C91.7009 16.218 91.5339 16.1764 91.3643 16.177C91.1948 16.1775 91.028 16.2203 90.8789 16.3014L90.8661 16.3084C90.717 16.3902 90.55 16.4333 90.3802 16.4339C90.2103 16.4345 90.043 16.3925 89.8934 16.3119C89.8844 16.307 89.8755 16.3022 89.8667 16.2975C89.7189 16.2178 89.5537 16.176 89.3858 16.1757C89.218 16.1754 89.0527 16.2166 88.9046 16.2958C88.4521 16.5401 87.8405 16.9579 87.8432 17.4296C87.8433 17.4483 87.8444 17.4669 87.8464 17.4855C87.899 17.9754 89.4926 18.1002 90.368 17.8693C91.0205 18.0186 91.6983 18.0186 92.3509 17.8693C93.2225 18.1039 94.8485 17.9695 94.8961 17.474C94.8978 17.4554 94.8987 17.4368 94.8986 17.4181C94.8959 16.9461 94.2789 16.5327 93.8236 16.2919C93.6751 16.2139 93.5096 16.174 93.342 16.1756C93.1744 16.1772 93.0098 16.2202 92.8627 16.3009Z" fill="#E6E6E6"/>
<path d="M15.9823 17.204L15.9685 17.2115C15.8195 17.2932 15.6524 17.3364 15.4826 17.337C15.3127 17.3376 15.1454 17.2956 14.9958 17.2149C14.9872 17.2103 14.9786 17.2057 14.9701 17.2011C14.8205 17.1211 14.6534 17.0794 14.4838 17.08C14.3143 17.0806 14.1475 17.1234 13.9985 17.2045L13.9856 17.2115C13.8366 17.2932 13.6695 17.3364 13.4997 17.337C13.3298 17.3376 13.1625 17.2956 13.0129 17.2149C13.0039 17.2101 12.995 17.2053 12.9862 17.2006C12.8384 17.1209 12.6732 17.079 12.5054 17.0787C12.3375 17.0784 12.1722 17.1197 12.0241 17.1989C11.5717 17.4432 10.96 17.8609 10.9627 18.3327C10.9628 18.3514 10.9639 18.37 10.9659 18.3885C11.0185 18.8785 12.6121 19.0033 13.4875 18.7724C14.1401 18.9217 14.8178 18.9217 15.4704 18.7724C16.3421 19.007 17.9681 18.8726 18.0156 18.3771C18.0174 18.3585 18.0182 18.3398 18.0181 18.3212C18.0154 17.8492 17.3984 17.4358 16.9431 17.1949C16.7946 17.117 16.6292 17.0771 16.4616 17.0787C16.294 17.0802 16.1293 17.1233 15.9823 17.204Z" fill="#E6E6E6"/>
<path d="M13.1414 86.9309H11.0089V87.2703H13.1414V86.9309Z" fill="#3F3D56"/>
<path d="M28.5602 87.007L28.1202 87.1091L11.3981 87.1181L11.2478 86.7668C10.9855 86.1642 10.8955 85.5003 10.9878 84.8494C11.0598 84.3642 11.2403 83.8821 11.6502 83.6727L12.3922 78.7166L21.6437 78.7L25.2231 81.5949C25.2231 81.5949 26.9115 81.5644 27.8288 82.7095C28.1597 83.1353 28.3551 83.6511 28.3895 84.1898L28.4257 84.7855L28.5602 87.007Z" fill="#FA575A"/>
<path d="M24.8874 88.9946C26.0278 88.9946 26.9523 88.0676 26.9523 86.9241C26.9523 85.7805 26.0278 84.8535 24.8874 84.8535C23.747 84.8535 22.8225 85.7805 22.8225 86.9241C22.8225 88.0676 23.747 88.9946 24.8874 88.9946Z" fill="#3F3D56"/>
<path d="M24.8874 88.0137C25.4876 88.0137 25.9741 87.5258 25.9741 86.924C25.9741 86.3221 25.4876 85.8342 24.8874 85.8342C24.2872 85.8342 23.8006 86.3221 23.8006 86.924C23.8006 87.5258 24.2872 88.0137 24.8874 88.0137Z" fill="#CCCCCC"/>
<path d="M14.6984 89C15.8388 89 16.7633 88.073 16.7633 86.9294C16.7633 85.7859 15.8388 84.8589 14.6984 84.8589C13.558 84.8589 12.6335 85.7859 12.6335 86.9294C12.6335 88.073 13.558 89 14.6984 89Z" fill="#3F3D56"/>
<path d="M14.6984 88.0191C15.2986 88.0191 15.7852 87.5312 15.7852 86.9294C15.7852 86.3275 15.2986 85.8396 14.6984 85.8396C14.0982 85.8396 13.6116 86.3275 13.6116 86.9294C13.6116 87.5312 14.0982 88.0191 14.6984 88.0191Z" fill="#CCCCCC"/>
<path d="M23.8009 81.2562L18.8058 81.2585H18.1961L17.1667 81.2592V81.1839L17.1659 80.2761L17.1652 79.2569H17.8501L18.4599 79.2561L19.5399 79.2554H20.1496L21.3966 79.2546L23.8009 81.2562Z" fill="white"/>
<path d="M16.3539 81.2599L13.714 81.2613L13.7133 80.7419V79.8342L13.7126 79.259H14.0991L14.7089 79.2583L16.3532 79.2576L16.3539 81.2599Z" fill="white"/>
<path d="M17.5059 82.7529H17.1674V83.3978H17.5059V82.7529Z" fill="#3F3D56"/>
<path d="M23.0908 82.1729L23.0906 81.8335L22.4474 81.8338L22.4476 82.1733L23.0908 82.1729Z" fill="#3F3D56"/>
<path d="M22.6841 80.564H22.7214C22.8143 80.564 22.9063 80.5823 22.9921 80.618C23.078 80.6536 23.1559 80.7059 23.2216 80.7718C23.2873 80.8376 23.3394 80.9158 23.375 81.0019C23.4106 81.088 23.4289 81.1802 23.4289 81.2734C23.4289 81.4615 23.3543 81.642 23.2216 81.775C23.089 81.9081 22.909 81.9828 22.7214 81.9828H22.6841V80.564H22.6841Z" fill="#3F3D56"/>
<path d="M28.4257 84.7854C28.1697 84.8134 27.9121 84.7498 27.6982 84.606C27.4844 84.4621 27.3281 84.2472 27.2567 83.9991C27.1854 83.751 27.2037 83.4856 27.3083 83.2497C27.413 83.0138 27.5973 82.8225 27.8288 82.7095C28.1597 83.1353 28.3551 83.6511 28.3895 84.1898L28.4257 84.7854Z" fill="#3F3D56"/>
<path d="M18.4599 79.2561L17.1667 81.1839L17.166 80.2762L17.8501 79.2569L18.4599 79.2561Z" fill="#F2F2F2"/>
<path d="M14.7088 79.2585L13.7133 80.7422V79.8344L14.0991 79.2593L14.7088 79.2585Z" fill="#F2F2F2"/>
<path d="M20.1496 79.2554L18.8058 81.2585H18.1961L19.5399 79.2554H20.1496Z" fill="#F2F2F2"/>
<path d="M87.8678 64.3943L85.2611 61.0337L86.7769 59.8514L88.0111 61.4426L92.1806 57.0293L93.5749 58.3538L87.8678 64.3943Z" fill="white"/>
<path d="M0.756348 57.4602H21.1691V72.5316H21.1567V75.5322L18.1642 72.5316H0.756348V57.4602Z" fill="#FA575A"/>
<path d="M10.3841 68.5669L7.7774 65.2063L9.29335 64.0239L10.5275 65.6152L14.6969 61.2019L16.0912 62.5263L10.3841 68.5669Z" fill="white"/>
</svg>
