<?xml version="1.0" encoding="utf-8"?>
<!-- Generator: Adobe Illustrator 18.0.0, SVG Export Plug-In . SVG Version: 6.00 Build 0)  -->
<!DOCTYPE svg PUBLIC "-//W3C//DTD SVG 1.1//EN" "http://www.w3.org/Graphics/SVG/1.1/DTD/svg11.dtd">
<svg version="1.1" id="Layer_1" xmlns="http://www.w3.org/2000/svg" xmlns:xlink="http://www.w3.org/1999/xlink" x="0px" y="0px"
	 viewBox="0 0 310 90" enable-background="new 0 0 310 90" xml:space="preserve">
<g>
	<g>
		<path fill="#004B82" d="M112.3,42.3h8.1v7h-7.9v23.8h-9.2V49.3h-4.9v-7h4.9v-1.4c0-3.6,1.1-6.5,3.2-8.6c2.1-2.1,5.1-3.2,9-3.2
			c1.4,0,2.7,0.1,3.9,0.4c1.2,0.3,2.3,0.7,3.1,1.3l-2.4,6.6c-1.1-0.7-2.3-1.1-3.7-1.1c-2.8,0-4.2,1.5-4.2,4.6V42.3z"/>
		<path fill="#004B82" d="M130.7,71.5c-2.6-1.4-4.7-3.3-6.2-5.8c-1.5-2.5-2.2-5.3-2.2-8.4c0-3.1,0.7-5.9,2.2-8.4
			c1.5-2.5,3.6-4.4,6.2-5.8c2.6-1.4,5.6-2.1,9-2.1c3.3,0,6.3,0.7,8.9,2.1c2.6,1.4,4.7,3.3,6.2,5.8c1.5,2.5,2.2,5.3,2.2,8.4
			c0,3.1-0.7,5.9-2.2,8.4c-1.5,2.5-3.5,4.4-6.2,5.8c-2.6,1.4-5.6,2.1-8.9,2.1C136.3,73.6,133.3,72.9,130.7,71.5z M145.4,63.7
			c1.5-1.6,2.3-3.7,2.3-6.4c0-2.7-0.8-4.8-2.3-6.4c-1.5-1.6-3.4-2.4-5.8-2.4c-2.3,0-4.3,0.8-5.8,2.4c-1.5,1.6-2.3,3.7-2.3,6.4
			c0,2.7,0.8,4.8,2.3,6.4c1.5,1.6,3.5,2.4,5.8,2.4C142,66.1,143.9,65.3,145.4,63.7z"/>
		<path fill="#004B82" d="M207.6,71.5c-2.6-1.4-4.7-3.3-6.2-5.8c-1.5-2.5-2.2-5.3-2.2-8.4c0-3.1,0.7-5.9,2.2-8.4
			c1.5-2.5,3.6-4.4,6.2-5.8c2.6-1.4,5.6-2.1,9-2.1s6.3,0.7,8.9,2.1c2.6,1.4,4.7,3.3,6.2,5.8c1.5,2.5,2.2,5.3,2.2,8.4
			c0,3.1-0.7,5.9-2.2,8.4c-1.5,2.5-3.5,4.4-6.2,5.8c-2.6,1.4-5.6,2.1-8.9,2.1S210.2,72.9,207.6,71.5z M222.3,63.7
			c1.5-1.6,2.3-3.7,2.3-6.4c0-2.7-0.8-4.8-2.3-6.4c-1.5-1.6-3.4-2.4-5.8-2.4c-2.3,0-4.3,0.8-5.8,2.4c-1.5,1.6-2.3,3.7-2.3,6.4
			c0,2.7,0.8,4.8,2.3,6.4c1.5,1.6,3.5,2.4,5.8,2.4C218.9,66.1,220.8,65.3,222.3,63.7z"/>
		<path fill="#004B82" d="M272.1,29.6v43.6h-8.7v-3.6c-2.3,2.7-5.6,4.1-9.9,4.1c-3,0-5.7-0.7-8.1-2c-2.4-1.3-4.3-3.2-5.7-5.7
			c-1.4-2.5-2.1-5.3-2.1-8.6c0-3.2,0.7-6.1,2.1-8.6c1.4-2.5,3.3-4.4,5.7-5.7c2.4-1.3,5.1-2,8.1-2c4,0,7.2,1.3,9.5,3.8V29.6H272.1z
			 M260.8,63.7c1.5-1.6,2.3-3.7,2.3-6.4c0-2.7-0.8-4.8-2.3-6.4c-1.5-1.6-3.4-2.4-5.8-2.4c-2.3,0-4.3,0.8-5.8,2.4
			c-1.5,1.6-2.3,3.7-2.3,6.4c0,2.7,0.8,4.8,2.3,6.4c1.5,1.6,3.5,2.4,5.8,2.4C257.4,66.1,259.3,65.3,260.8,63.7z"/>
		<path fill="#004B82" d="M283.5,72.7c-2.5-0.6-4.5-1.5-6-2.4l3.1-6.6c1.4,0.9,3.1,1.6,5.1,2.2c2,0.6,4,0.9,5.9,0.9
			c3.9,0,5.8-1,5.8-2.9c0-0.9-0.5-1.5-1.6-1.9c-1.1-0.4-2.7-0.7-4.9-1c-2.6-0.4-4.7-0.8-6.4-1.4c-1.7-0.5-3.1-1.4-4.4-2.7
			c-1.2-1.3-1.8-3.1-1.8-5.5c0-2,0.6-3.8,1.7-5.3c1.2-1.5,2.8-2.7,5-3.6c2.2-0.9,4.8-1.3,7.8-1.3c2.2,0,4.5,0.2,6.7,0.7
			c2.2,0.5,4,1.2,5.5,2l-3.1,6.5c-2.8-1.6-5.8-2.3-9.1-2.3c-2,0-3.4,0.3-4.4,0.8c-1,0.5-1.5,1.3-1.5,2.1c0,1,0.5,1.7,1.6,2.1
			c1.1,0.4,2.7,0.8,5,1.1c2.6,0.4,4.7,0.9,6.3,1.4c1.6,0.5,3.1,1.4,4.3,2.7c1.2,1.3,1.8,3.1,1.8,5.4c0,2-0.6,3.7-1.8,5.2
			c-1.2,1.5-2.9,2.7-5.1,3.6c-2.3,0.8-4.9,1.3-8,1.3C288.5,73.6,286,73.3,283.5,72.7z"/>
		<path fill="#004B82" d="M194.7,46.8c-0.2-0.5-0.5-0.5-1-0.5c-5.2,0-10.5,0.2-15.7,0.2h0c-5.2,0-10.5-0.2-15.7-0.2
			c-0.5,0-0.8,0-1,0.6c-1.5,4.1-1.7,8.2-0.9,12.5c0.9,4.4,2.9,8,6.5,10.7c2.4,1.8,5.1,3.3,8.1,3.7c1,0.2,2,0.7,3,0.7h0
			c1,0,2-0.5,3-0.7c3-0.5,5.7-1.7,8.1-3.5c3.6-2.7,5.7-6.4,6.5-10.8C196.4,55.2,196.2,50.9,194.7,46.8z M193.1,58.4
			c-0.7,3.9-2.5,7.1-5.6,9.6c-0.9,0.7-2,1.3-3,1.9c0-0.1-0.1-0.1-0.1-0.2c0.7-0.5,1.5-0.9,2.2-1.5c2.8-2.1,4.5-5,5.2-8.5
			c0.7-3.6,0.5-7.2-0.8-10.7c-0.4-1,0.6-0.7,0.9-0.9c0.4-0.3,0.6,0,0.7,0.4C193.6,51.8,193.7,55,193.1,58.4z"/>
		<path fill="#004B82" d="M184.3,35.5c-1.8,0-3.4,0-5,0c-5.1-0.1-10.1-0.2-15.2-0.3c-1,0-1.9-0.4-2.6-1.1c-4.7-4.7-9.6-9.2-15-13.1
			c-3.9-2.8-8-5.3-12.4-7c-2.5-1-5-1.7-7.7-1.8c-0.5,0-0.8,0.1-0.7,0.7c0.1,1.1,0,2.2,0.1,3.3c0,0.6,0.4,1,1,1.1
			c3.9,0.8,7.6,2,11.2,3.6c4.2,1.8,8.1,4,11.7,6.7c3.1,2.4,5.9,5,8.6,7.8c2.4,2.5,5.2,4.5,8.5,5.7c2.6,0.9,5.2,1.1,7.9,0.8
			c4-0.4,6.9-2.7,9.3-5.7C184.2,36.1,184.2,35.9,184.3,35.5z"/>
		<g>
			<path fill="#004B82" d="M100.6,14.3h-1.5c-0.3,0-0.5-0.2-0.5-0.5v-1.2c0-0.3,0.2-0.5,0.5-0.5h6.8c0.3,0,0.5,0.2,0.5,0.5v1.2
				c0,0.3-0.2,0.5-0.5,0.5h-1.5c-0.3,0-0.5,0.2-0.5,0.5V20c0,0.3-0.2,0.5-0.5,0.5h-1.9c-0.3,0-0.5-0.2-0.5-0.5v-5.2
				C101,14.5,100.8,14.3,100.6,14.3z"/>
			<path fill="#004B82" d="M115.4,12.6V20c0,0.3-0.2,0.5-0.5,0.5H113c-0.3,0-0.5-0.2-0.5-0.5v-2.1c0-0.3-0.2-0.5-0.5-0.5h-1.6
				c-0.3,0-0.5,0.2-0.5,0.5V20c0,0.3-0.2,0.5-0.5,0.5h-1.9c-0.3,0-0.5-0.2-0.5-0.5v-7.4c0-0.3,0.2-0.5,0.5-0.5h1.9
				c0.3,0,0.5,0.2,0.5,0.5v2c0,0.3,0.2,0.5,0.5,0.5h1.6c0.3,0,0.5-0.2,0.5-0.5v-2c0-0.3,0.2-0.5,0.5-0.5h1.9
				C115.2,12.1,115.4,12.3,115.4,12.6z"/>
			<path fill="#004B82" d="M123.8,18.9V20c0,0.3-0.2,0.5-0.5,0.5h-6c-0.3,0-0.5-0.2-0.5-0.5v-7.4c0-0.3,0.2-0.5,0.5-0.5h5.9
				c0.3,0,0.5,0.2,0.5,0.5v1.2c0,0.3-0.2,0.5-0.5,0.5h-3.1c-0.3,0-0.5,0.2-0.5,0.5v0c0,0.3,0.2,0.5,0.5,0.5h2.6
				c0.3,0,0.5,0.2,0.5,0.5v1.1c0,0.3-0.2,0.5-0.5,0.5h-2.6c-0.3,0-0.5,0.2-0.5,0.5v0.1c0,0.3,0.2,0.5,0.5,0.5h3.2
				C123.5,18.4,123.8,18.6,123.8,18.9z"/>
		</g>
	</g>
	<g>
		<path fill="#A40032" d="M3.9,26.9c-0.1-4.5,1.2-8.5,4.9-11.4c1.5-1.2,3.3-1.8,5-2.4c2.5-0.8,5-1.6,7.6-2.4c3.5-1.1,7.1-2.1,10.6-3
			c2.6-0.7,5.2-1.3,7.7-1.9c3.8-0.9,7.6-1.7,11.4-2.3c2.8-0.5,5.6-1,8.5-1.5c2.1-0.3,4.3-0.7,6.4-0.9c5.1-0.4,8.9,1.8,11.5,6.2
			c1.7,2.8,2.5,5.9,3.6,8.9c0.9,2.4,1.7,4.9,2.4,7.4c1.1,3.7,2.1,7.4,3,11.2c0.7,3,1.4,6.1,1.9,9.2c0.6,3,1,6.1,1.4,9.2
			c0.5,3.3,0.8,6.6,1.2,9.9c0.6,4.9-2.4,10.3-7,12.4c-4.1,1.9-8.4,3.4-12.7,4.8c-3.3,1.1-6.6,2.1-9.9,3c-3.4,0.9-6.7,1.7-10.2,2.3
			c-2.5,0.5-4.9,1-7.4,1.3c-3.3,0.5-6.6,1-9.9,1.3c-1.2,0.1-2.5,0.2-3.7,0.4c-6.3,0.8-12-2.4-14.3-8.6c-1.3-3.7-2.8-7.4-4-11.1
			c-1.5-4.5-2.8-9-3.9-13.5c-0.9-3.7-1.8-7.5-2.5-11.2c-0.6-3.3-1-6.7-1.4-10.1C4.2,31.7,4.2,29.3,3.9,26.9z"/>
		<g>
			<path fill="#FFFFFF" d="M86.7,28c0,0,3.8-0.3,3.5-4.5c-0.1-1.9-1-3.6-2.4-4.9c-1.7-1.6-3.7-2.9-5.9-3.8c-1.1-0.5-2.1-0.9-3.3-1.2
				c-1.4-0.3-2.9-0.6-4.3-0.8c-5.8-1-11.6-1.3-17.5-1.1c-10.3,0.4-21.3,2-29.5,8.7c-1.9,1.6-3.6,3.4-5,5.4c-1.4,2-2.5,4.3-2.9,6.8
				c-1.1,6,2.4,11.5,7.9,13.8c3.4,1.4,7.2,1.8,10.9,1.7c-0.1,0-0.6,2-0.6,2.2c-0.5,1.9-1,3.7-1.5,5.6c-1.1,4.6-2.3,9.6-2.2,14.3
				c0,0,0,0.1,0,0.1c0,2.1,0.4,4.3,1.5,6.1c1.3,2.1,3.1,2.7,5.4,3.2c1.6,0.3,3.5,0.1,4.9-0.6c0,0-4.8-3.5-1.6-15.9S48.7,47,48.7,47
				s11.9-2.7,14.6,3c0,0,3.1-6.9,0.6-9.5c-2.6-2.7-8.8-3.2-18.6-0.1c-3.8,1.2-8.1,1.7-12,0.8c-1.6-0.4-3-1.1-4.2-2.2
				c-1.4-1.3-1.3-3.9-1-5.6c0.1-0.6,0.3-1.2,0.6-1.7c1-2.3,2.9-4.1,5-5.4c2.5-1.6,5.2-2.7,8.1-3.7c0.6-0.2,7.1-1.7,7.1-2
				c0,0.5-0.4,1.1-0.5,1.6c-0.4,0.9-0.7,1.8-1.1,2.7c-1,2.4-1.9,4.8-2.9,7.1c-1,2.5-2,5-3,7.5l10.8-2.3l7.2-16.8
				C59.4,20.5,84.1,20,86.7,28z"/>
			<path fill="#BABCBE" d="M53.5,34.3l-1.3,2.9l-10.8,2.3c0.4-1,0.8-2.1,1.3-3.1L53.5,34.3z"/>
		</g>
	</g>
	<g>
		<path fill="#004B82" d="M197,16.8c-1.3-0.7-2.3-1.7-3-2.9c-0.7-1.2-1.1-2.6-1.1-4.1c0-1.5,0.4-2.9,1.1-4.1c0.7-1.2,1.7-2.2,3-2.9
			c1.3-0.7,2.7-1,4.3-1c1.2,0,2.4,0.2,3.4,0.6c1,0.4,1.9,1,2.6,1.8l-1.5,1.4c-1.2-1.2-2.7-1.9-4.4-1.9c-1.2,0-2.2,0.3-3.2,0.8
			c-0.9,0.5-1.7,1.2-2.2,2.2s-0.8,2-0.8,3.1c0,1.1,0.3,2.2,0.8,3.1c0.5,0.9,1.3,1.6,2.2,2.2s2,0.8,3.2,0.8c1.8,0,3.2-0.6,4.4-1.9
			l1.5,1.4c-0.7,0.8-1.6,1.4-2.6,1.8c-1,0.4-2.2,0.6-3.4,0.6C199.7,17.9,198.3,17.5,197,16.8z"/>
		<path fill="#004B82" d="M211.6,17c-0.9-0.5-1.7-1.2-2.2-2.2c-0.5-0.9-0.8-2-0.8-3.1c0-1.2,0.3-2.2,0.8-3.1
			c0.5-0.9,1.3-1.6,2.2-2.2c0.9-0.5,2-0.8,3.2-0.8c1.2,0,2.2,0.3,3.2,0.8c0.9,0.5,1.7,1.2,2.2,2.2c0.5,0.9,0.8,2,0.8,3.1
			c0,1.2-0.3,2.2-0.8,3.1c-0.5,0.9-1.3,1.6-2.2,2.2c-0.9,0.5-2,0.8-3.2,0.8C213.6,17.8,212.5,17.5,211.6,17z M216.8,15.4
			c0.6-0.4,1.1-0.8,1.4-1.5c0.3-0.6,0.5-1.4,0.5-2.2s-0.2-1.6-0.5-2.2c-0.3-0.6-0.8-1.1-1.4-1.5c-0.6-0.3-1.3-0.5-2.1-0.5
			c-0.8,0-1.5,0.2-2.1,0.5c-0.6,0.3-1.1,0.8-1.4,1.5c-0.4,0.6-0.5,1.4-0.5,2.2s0.2,1.6,0.5,2.2c0.4,0.6,0.8,1.1,1.4,1.5
			c0.6,0.4,1.3,0.5,2.1,0.5C215.5,15.9,216.2,15.7,216.8,15.4z"/>
		<path fill="#004B82" d="M227.7,6.2c0.7-0.4,1.6-0.5,2.7-0.5v2.1c-0.1,0-0.3,0-0.5,0c-1.2,0-2.1,0.3-2.8,1c-0.7,0.7-1,1.7-1,3v5.9
			h-2.2V5.7h2.1v2C226.4,7.1,226.9,6.5,227.7,6.2z"/>
		<path fill="#004B82" d="M242.4,6.4c0.9,0.5,1.6,1.2,2.1,2.1c0.5,0.9,0.8,2,0.8,3.2c0,1.2-0.3,2.3-0.8,3.2
			c-0.5,0.9-1.2,1.6-2.1,2.1c-0.9,0.5-1.9,0.8-3.1,0.8c-0.9,0-1.6-0.2-2.4-0.5c-0.7-0.3-1.3-0.8-1.8-1.4V22H233V5.7h2.1v1.9
			c0.5-0.7,1.1-1.2,1.8-1.5c0.7-0.3,1.5-0.5,2.4-0.5C240.5,5.6,241.5,5.9,242.4,6.4z M241.2,15.4c0.6-0.4,1.1-0.8,1.4-1.5
			c0.4-0.6,0.5-1.4,0.5-2.2s-0.2-1.6-0.5-2.2c-0.4-0.6-0.8-1.1-1.4-1.5c-0.6-0.3-1.3-0.5-2.1-0.5c-0.8,0-1.4,0.2-2,0.5
			c-0.6,0.4-1.1,0.8-1.4,1.5c-0.4,0.6-0.5,1.4-0.5,2.2s0.2,1.6,0.5,2.2c0.3,0.6,0.8,1.1,1.4,1.5c0.6,0.4,1.3,0.5,2,0.5
			C239.9,15.9,240.6,15.7,241.2,15.4z"/>
		<path fill="#004B82" d="M250.3,17c-0.9-0.5-1.7-1.2-2.2-2.2c-0.5-0.9-0.8-2-0.8-3.1c0-1.2,0.3-2.2,0.8-3.1
			c0.5-0.9,1.3-1.6,2.2-2.2c0.9-0.5,2-0.8,3.2-0.8c1.2,0,2.2,0.3,3.2,0.8c0.9,0.5,1.7,1.2,2.2,2.2c0.5,0.9,0.8,2,0.8,3.1
			c0,1.2-0.3,2.2-0.8,3.1c-0.5,0.9-1.3,1.6-2.2,2.2c-0.9,0.5-2,0.8-3.2,0.8C252.3,17.8,251.2,17.5,250.3,17z M255.5,15.4
			c0.6-0.4,1.1-0.8,1.4-1.5c0.3-0.6,0.5-1.4,0.5-2.2s-0.2-1.6-0.5-2.2c-0.3-0.6-0.8-1.1-1.4-1.5c-0.6-0.3-1.3-0.5-2.1-0.5
			c-0.8,0-1.5,0.2-2.1,0.5c-0.6,0.3-1.1,0.8-1.4,1.5c-0.4,0.6-0.5,1.4-0.5,2.2s0.2,1.6,0.5,2.2c0.4,0.6,0.8,1.1,1.4,1.5
			c0.6,0.4,1.3,0.5,2.1,0.5C254.2,15.9,254.9,15.7,255.5,15.4z"/>
		<path fill="#004B82" d="M266.4,6.2c0.7-0.4,1.6-0.5,2.7-0.5v2.1c-0.1,0-0.3,0-0.5,0c-1.2,0-2.1,0.3-2.8,1c-0.7,0.7-1,1.7-1,3v5.9
			h-2.2V5.7h2.1v2C265.1,7.1,265.6,6.5,266.4,6.2z"/>
		<path fill="#004B82" d="M279.8,6.8c0.9,0.8,1.3,2,1.3,3.6v7.2h-2v-1.6c-0.4,0.6-0.9,1-1.5,1.3s-1.5,0.4-2.4,0.4
			c-1.3,0-2.4-0.3-3.2-1c-0.8-0.6-1.2-1.5-1.2-2.5s0.4-1.9,1.1-2.5c0.8-0.6,2-1,3.6-1h3.4v-0.4c0-0.9-0.3-1.6-0.8-2.1
			c-0.5-0.5-1.3-0.7-2.4-0.7c-0.7,0-1.4,0.1-2.1,0.3c-0.7,0.2-1.2,0.5-1.7,0.9l-0.9-1.6c0.6-0.5,1.4-0.9,2.2-1.1
			c0.9-0.3,1.8-0.4,2.7-0.4C277.7,5.6,278.9,6,279.8,6.8z M277.7,15.6c0.6-0.4,1-0.9,1.3-1.6v-1.7h-3.3c-1.8,0-2.7,0.6-2.7,1.8
			c0,0.6,0.2,1.1,0.7,1.4c0.5,0.3,1.1,0.5,1.9,0.5C276.4,16.1,277.1,16,277.7,15.6z"/>
		<path fill="#004B82" d="M291.8,17c-0.3,0.3-0.7,0.5-1.2,0.6c-0.5,0.1-0.9,0.2-1.4,0.2c-1.2,0-2.1-0.3-2.8-1c-0.7-0.6-1-1.6-1-2.8
			V7.5h-2V5.7h2V3.1h2.2v2.6h3.4v1.8h-3.4V14c0,0.6,0.2,1.1,0.5,1.5c0.3,0.3,0.8,0.5,1.4,0.5c0.7,0,1.2-0.2,1.7-0.6L291.8,17z"/>
		<path fill="#004B82" d="M304.8,12.4h-9.7c0.1,1.1,0.6,1.9,1.4,2.5c0.8,0.6,1.8,1,2.9,1c1.4,0,2.6-0.5,3.4-1.4l1.2,1.4
			c-0.5,0.6-1.2,1.1-2,1.4s-1.7,0.5-2.7,0.5c-1.3,0-2.4-0.3-3.4-0.8c-1-0.5-1.7-1.2-2.3-2.2c-0.5-0.9-0.8-2-0.8-3.1
			c0-1.2,0.3-2.2,0.8-3.1s1.2-1.7,2.1-2.2c0.9-0.5,1.9-0.8,3.1-0.8c1.1,0,2.2,0.3,3,0.8s1.6,1.2,2.1,2.2s0.8,2,0.8,3.2
			C304.8,11.9,304.8,12.2,304.8,12.4z M296.3,8.4c-0.7,0.6-1.1,1.5-1.2,2.5h7.6c-0.1-1-0.5-1.8-1.2-2.5c-0.7-0.6-1.6-1-2.6-1
			C297.9,7.5,297,7.8,296.3,8.4z"/>
	</g>
	<g>
		<g>
			<defs>
				<path id="SVGID_34_" d="M236.4,28.5c0.5,1,3.4-0.2,5-0.7c0.9-0.3,1.8-0.5,2.6-0.8c19.8-7.2,46.6-6.1,59.1-4.5c4,0.5,4,0.3,0-0.6
					c-12.4-2.6-39.1-5.8-60.5,1.4c-0.6,0.2-1.3,0.4-1.9,0.6C238,24.8,235.6,26.9,236.4,28.5"/>
			</defs>
			<clipPath id="SVGID_1_">
				<use xlink:href="#SVGID_34_"  overflow="visible"/>
			</clipPath>
		</g>
		<g>
			<defs>
				<path id="SVGID_36_" d="M236.4,28.5c0.5,1,3.4-0.2,5-0.7c0.9-0.3,1.8-0.5,2.6-0.8c19.8-7.2,46.6-6.1,59.1-4.5c4,0.5,4,0.3,0-0.6
					c-12.4-2.6-39.1-5.8-60.5,1.4c-0.6,0.2-1.3,0.4-1.9,0.6C238,24.8,235.6,26.9,236.4,28.5"/>
			</defs>
			<use xlink:href="#SVGID_36_"  overflow="visible" fill-rule="evenodd" clip-rule="evenodd" fill="#A40032"/>
			<clipPath id="SVGID_2_">
				<use xlink:href="#SVGID_36_"  overflow="visible"/>
			</clipPath>
			<path clip-path="url(#SVGID_2_)" fill="#A40032" d="M305.3,16.6c0.2-0.4,0.5-0.8,0.7-1.2l-0.8-5.3l-70.5,11.1l2.9,18.5l65.7-10.4
				C300.3,25.7,301.1,19.2,305.3,16.6z"/>
		</g>
		<g>
			<defs>
				<path id="SVGID_38_" d="M236.4,28.5c0.5,1,3.4-0.2,5-0.7c0.9-0.3,1.8-0.5,2.6-0.8c19.8-7.2,46.6-6.1,59.1-4.5c4,0.5,4,0.3,0-0.6
					c-12.4-2.6-39.1-5.8-60.5,1.4c-0.6,0.2-1.3,0.4-1.9,0.6C238,24.8,235.6,26.9,236.4,28.5"/>
			</defs>
			<clipPath id="SVGID_4_">
				<use xlink:href="#SVGID_38_"  overflow="visible"/>
			</clipPath>
		</g>
	</g>
	<line fill="none" x1="305.4" y1="20.5" x2="305.4" y2="29.5"/>
</g>
</svg>
