<?xml version="1.0" encoding="utf-8"?>
<!-- Generator: Adobe Illustrator 18.0.0, SVG Export Plug-In . SVG Version: 6.00 Build 0)  -->
<!DOCTYPE svg PUBLIC "-//W3C//DTD SVG 1.1//EN" "http://www.w3.org/Graphics/SVG/1.1/DTD/svg11.dtd">
<svg version="1.1" id="Layer_1" xmlns="http://www.w3.org/2000/svg" xmlns:xlink="http://www.w3.org/1999/xlink" x="0px" y="0px"
	 viewBox="0 0 390 110" enable-background="new 0 0 390 110" xml:space="preserve">
<g>
	<g>
		<path fill="#004B82" d="M141.3,51.6h10.2v8.9h-9.9v30h-11.5v-30H124v-8.9h6.1v-1.8c0-4.5,1.3-8.1,4-10.8c2.7-2.7,6.5-4,11.3-4
			c1.7,0,3.4,0.2,4.9,0.6c1.5,0.4,2.8,0.9,3.9,1.6l-3,8.3c-1.3-0.9-2.9-1.4-4.7-1.4c-3.5,0-5.2,1.9-5.2,5.8V51.6z"/>
		<path fill="#004B82" d="M164.4,88.4c-3.3-1.7-5.9-4.2-7.8-7.3c-1.9-3.1-2.8-6.6-2.8-10.6c0-3.9,0.9-7.5,2.8-10.6
			c1.9-3.1,4.5-5.5,7.8-7.3c3.3-1.7,7.1-2.6,11.3-2.6c4.2,0,7.9,0.9,11.2,2.6c3.3,1.7,5.9,4.2,7.8,7.3c1.9,3.1,2.8,6.6,2.8,10.6
			c0,3.9-0.9,7.5-2.8,10.6c-1.9,3.1-4.5,5.5-7.8,7.3c-3.3,1.7-7,2.6-11.2,2.6C171.5,91,167.7,90.1,164.4,88.4z M182.9,78.6
			c1.9-2,2.8-4.7,2.8-8c0-3.3-0.9-6-2.8-8c-1.9-2-4.3-3-7.3-3c-3,0-5.4,1-7.3,3c-1.9,2-2.9,4.7-2.9,8c0,3.3,1,6,2.9,8
			c1.9,2,4.4,3,7.3,3C178.6,81.5,181,80.6,182.9,78.6z"/>
		<path fill="#004B82" d="M261.1,88.4c-3.3-1.7-5.9-4.2-7.8-7.3c-1.9-3.1-2.8-6.6-2.8-10.6c0-3.9,0.9-7.5,2.8-10.6
			c1.9-3.1,4.5-5.5,7.8-7.3c3.3-1.7,7.1-2.6,11.3-2.6c4.2,0,7.9,0.9,11.2,2.6c3.3,1.7,5.9,4.2,7.8,7.3c1.9,3.1,2.8,6.6,2.8,10.6
			c0,3.9-0.9,7.5-2.8,10.6c-1.9,3.1-4.5,5.5-7.8,7.3c-3.3,1.7-7,2.6-11.2,2.6C268.2,91,264.4,90.1,261.1,88.4z M279.6,78.6
			c1.9-2,2.8-4.7,2.8-8c0-3.3-0.9-6-2.8-8c-1.9-2-4.3-3-7.3-3c-3,0-5.4,1-7.3,3c-1.9,2-2.9,4.7-2.9,8c0,3.3,1,6,2.9,8
			c1.9,2,4.4,3,7.3,3C275.3,81.5,277.7,80.6,279.6,78.6z"/>
		<path fill="#004B82" d="M342.3,35.6v54.8h-11v-4.6c-2.9,3.4-7,5.2-12.4,5.2c-3.7,0-7.1-0.8-10.2-2.5c-3-1.7-5.4-4.1-7.1-7.2
			c-1.7-3.1-2.6-6.7-2.6-10.8c0-4.1,0.9-7.7,2.6-10.8c1.7-3.1,4.1-5.5,7.1-7.2c3-1.7,6.4-2.5,10.2-2.5c5.1,0,9,1.6,11.9,4.8V35.6
			H342.3z M328.1,78.6c1.9-2,2.9-4.7,2.9-8c0-3.3-1-6-2.9-8c-1.9-2-4.3-3-7.2-3c-3,0-5.4,1-7.3,3c-1.9,2-2.9,4.7-2.9,8
			c0,3.3,1,6,2.9,8c1.9,2,4.4,3,7.3,3C323.8,81.5,326.2,80.6,328.1,78.6z"/>
		<path fill="#004B82" d="M356.6,89.8c-3.2-0.8-5.7-1.8-7.5-3.1l3.8-8.3c1.8,1.1,3.9,2.1,6.4,2.8c2.5,0.7,5,1.1,7.4,1.1
			c4.9,0,7.3-1.2,7.3-3.6c0-1.1-0.7-1.9-2-2.4c-1.3-0.5-3.4-0.9-6.1-1.3c-3.2-0.5-5.9-1.1-8-1.7c-2.1-0.6-3.9-1.8-5.5-3.4
			c-1.5-1.6-2.3-3.9-2.3-6.9c0-2.5,0.7-4.7,2.2-6.7c1.5-1.9,3.6-3.5,6.3-4.5c2.8-1.1,6.1-1.6,9.9-1.6c2.8,0,5.6,0.3,8.4,0.9
			c2.8,0.6,5.1,1.5,6.9,2.5l-3.8,8.2c-3.5-2-7.3-3-11.4-3c-2.5,0-4.3,0.3-5.5,1c-1.2,0.7-1.8,1.6-1.8,2.7c0,1.2,0.7,2.1,2,2.6
			c1.3,0.5,3.4,1,6.3,1.4c3.2,0.5,5.9,1.1,8,1.7c2.1,0.6,3.9,1.7,5.4,3.4c1.5,1.6,2.3,3.9,2.3,6.8c0,2.5-0.7,4.7-2.2,6.6
			c-1.5,1.9-3.6,3.4-6.5,4.5c-2.8,1.1-6.2,1.6-10.1,1.6C363,91,359.7,90.6,356.6,89.8z"/>
		<path fill="#004B82" d="M244.9,57.3c-0.3-0.7-0.6-0.8-1.2-0.8c-6.6,0-13.2,0-19.8,0h0c-6.6,0-13.2,0-19.8,0c-0.6,0-1,0.1-1.2,0.8
			c-1.9,5.1-2.2,10.4-1.2,15.8c1.1,5.5,3.7,10.1,8.2,13.4c3,2.3,6.4,3.8,10.2,4.4c1.3,0.2,2.5,0.6,3.8,0.6h0c1.2,0,2.5-0.4,3.8-0.6
			c3.7-0.6,7.2-2,10.2-4.3c4.5-3.4,7.1-8,8.2-13.5C247.1,67.7,246.8,62.4,244.9,57.3z M242.9,71.8c-0.9,4.9-3.1,9-7,12.1
			c-1.2,0.9-2.5,1.6-3.8,2.4c0-0.1-0.1-0.2-0.1-0.3c0.9-0.6,1.9-1.2,2.8-1.8c3.5-2.7,5.7-6.3,6.5-10.7c0.9-4.6,0.6-9.1-1-13.5
			c-0.5-1.3,0.8-0.8,1.2-1.2c0.5-0.4,0.7,0,0.9,0.5C243.5,63.5,243.7,67.6,242.9,71.8z"/>
		<path fill="#004B82" d="M231.9,43c-2.2,0-4.2,0-6.2,0c-6.4-0.1-12.7-0.3-19.1-0.4c-1.3,0-2.4-0.5-3.3-1.4
			c-5.9-5.9-12-11.6-18.8-16.4c-4.9-3.5-10-6.6-15.6-8.8c-3.1-1.2-6.3-2.1-9.6-2.2c-0.7,0-1,0.2-0.9,0.9c0.1,1.4,0.1,2.8,0.1,4.2
			c0,0.8,0.5,1.2,1.2,1.4c4.9,1,9.5,2.5,14.1,4.5c5.2,2.2,10.1,5,14.7,8.4c3.9,3,7.5,6.3,10.9,9.9c3,3.2,6.5,5.7,10.7,7.2
			c3.2,1.1,6.6,1.4,10,1c5.1-0.6,8.6-3.5,11.8-7.1C231.7,43.8,231.7,43.5,231.9,43z"/>
		<g>
			<path fill="#004B82" d="M126.5,16.4h-1.9c-0.3,0-0.6-0.3-0.6-0.6v-1.5c0-0.3,0.3-0.6,0.6-0.6h8.5c0.3,0,0.6,0.3,0.6,0.6v1.5
				c0,0.3-0.3,0.6-0.6,0.6h-1.9c-0.3,0-0.6,0.3-0.6,0.6v6.6c0,0.3-0.3,0.6-0.6,0.6h-2.3c-0.3,0-0.6-0.3-0.6-0.6V17
				C127.1,16.7,126.9,16.4,126.5,16.4z"/>
			<path fill="#004B82" d="M145.2,14.3v9.4c0,0.3-0.3,0.6-0.6,0.6h-2.3c-0.3,0-0.6-0.3-0.6-0.6V21c0-0.3-0.3-0.6-0.6-0.6h-2.1
				c-0.3,0-0.6,0.3-0.6,0.6v2.7c0,0.3-0.3,0.6-0.6,0.6h-2.3c-0.3,0-0.6-0.3-0.6-0.6v-9.4c0-0.3,0.3-0.6,0.6-0.6h2.3
				c0.3,0,0.6,0.3,0.6,0.6v2.5c0,0.3,0.3,0.6,0.6,0.6h2.1c0.3,0,0.6-0.3,0.6-0.6v-2.5c0-0.3,0.3-0.6,0.6-0.6h2.3
				C144.9,13.6,145.2,13.9,145.2,14.3z"/>
			<path fill="#004B82" d="M155.7,22.2v1.5c0,0.3-0.3,0.6-0.6,0.6h-7.6c-0.3,0-0.6-0.3-0.6-0.6v-9.4c0-0.3,0.3-0.6,0.6-0.6h7.4
				c0.3,0,0.6,0.3,0.6,0.6v1.5c0,0.3-0.3,0.6-0.6,0.6H151c-0.3,0-0.6,0.3-0.6,0.6v0c0,0.3,0.3,0.6,0.6,0.6h3.2
				c0.3,0,0.6,0.3,0.6,0.6v1.3c0,0.3-0.3,0.6-0.6,0.6H151c-0.3,0-0.6,0.3-0.6,0.6v0.2c0,0.3,0.3,0.6,0.6,0.6h4.1
				C155.4,21.5,155.7,21.8,155.7,22.2z"/>
		</g>
	</g>
	<g>
		<path fill="#A40032" d="M5,32.3C4.9,26.6,6.5,21.6,11.2,18c1.9-1.5,4.1-2.2,6.3-3c3.2-1.1,6.3-2.1,9.5-3c4.4-1.3,8.9-2.6,13.4-3.7
			c3.2-0.8,6.5-1.6,9.7-2.4c4.8-1.1,9.6-2.1,14.4-2.9c3.6-0.6,7.1-1.3,10.7-1.9c2.7-0.4,5.4-0.9,8.1-1.1c6.4-0.5,11.2,2.3,14.5,7.7
			c2.1,3.5,3.2,7.4,4.6,11.2c1.1,3.1,2.1,6.2,3,9.3c1.4,4.6,2.6,9.3,3.8,14c0.9,3.8,1.7,7.7,2.4,11.5c0.7,3.8,1.3,7.7,1.8,11.6
			c0.6,4.1,1,8.3,1.5,12.4c0.7,6.2-3,12.9-8.8,15.6c-5.2,2.4-10.6,4.3-16,6.1c-4.1,1.4-8.2,2.6-12.4,3.7c-4.2,1.1-8.5,2.1-12.8,2.9
			c-3.1,0.6-6.2,1.2-9.3,1.7c-4.2,0.6-8.3,1.2-12.5,1.6c-1.5,0.1-3.1,0.3-4.6,0.5c-7.9,1-15.1-3-17.9-10.8c-1.7-4.7-3.5-9.3-5-14
			c-1.8-5.6-3.5-11.3-4.9-17c-1.2-4.7-2.2-9.4-3.1-14.1c-0.8-4.2-1.3-8.4-1.8-12.7C5.3,38.2,5.3,35.2,5,32.3z"/>
		<g>
			<path fill="#FFFFFF" d="M109.1,33.7c0,0,4.8-0.4,4.5-5.7c-0.1-2.4-1.3-4.6-3-6.2c-2.2-2-4.7-3.7-7.4-4.8
				c-1.4-0.6-2.6-1.2-4.2-1.5c-1.8-0.4-3.6-0.7-5.4-1c-7.2-1.2-14.6-1.7-22-1.4c-13,0.4-26.7,2.5-37.1,11c-2.4,2-4.6,4.3-6.3,6.8
				c-1.8,2.6-3.1,5.4-3.7,8.5c-1.4,7.6,3,14.5,9.9,17.4c4.3,1.8,9.1,2.3,13.7,2.2c-0.2,0-0.8,2.6-0.8,2.8c-0.7,2.3-1.3,4.7-1.8,7.1
				c-1.4,5.8-2.8,12-2.8,18c0,0.1,0,0.1,0,0.2c0.1,2.7,0.5,5.4,1.9,7.6c1.6,2.6,3.9,3.4,6.8,4c2,0.4,4.4,0.2,6.2-0.8
				c0,0-6.1-4.4-2-20s5.8-20.3,5.8-20.3s14.9-3.5,18.4,3.8c0,0,4-8.6,0.7-12c-3.2-3.3-11.1-4.1-23.3-0.1c-4.7,1.5-10.2,2.2-15.1,1
				c-2-0.5-3.7-1.4-5.2-2.7c-1.8-1.6-1.7-4.8-1.2-7c0.2-0.7,0.4-1.5,0.7-2.2c1.3-2.9,3.6-5.2,6.2-6.9c3.1-2,6.6-3.5,10.1-4.6
				c0.7-0.2,8.9-2.2,8.9-2.5c0,0.6-0.5,1.4-0.7,2c-0.5,1.1-0.9,2.3-1.4,3.4c-1.2,3-2.4,6-3.6,9c-1.3,3.2-2.5,6.3-3.8,9.5l13.6-2.8
				l9-21.1C74.8,24.1,105.8,23.5,109.1,33.7z"/>
			<path fill="#BABCBE" d="M67.4,41.6l-1.6,3.7l-13.6,2.8c0.5-1.3,1.1-2.6,1.6-3.9L67.4,41.6z"/>
		</g>
	</g>
	<g>
		<path fill="#004B82" d="M247.8,19.5c-1.6-0.9-2.8-2.1-3.7-3.6c-0.9-1.5-1.4-3.3-1.4-5.2c0-1.9,0.5-3.7,1.4-5.2
			c0.9-1.5,2.2-2.7,3.8-3.6c1.6-0.9,3.4-1.3,5.4-1.3c1.5,0,3,0.3,4.2,0.8c1.3,0.5,2.4,1.3,3.3,2.3l-1.8,1.8
			c-1.5-1.6-3.3-2.3-5.6-2.3c-1.5,0-2.8,0.3-4,1c-1.2,0.7-2.1,1.6-2.8,2.7s-1,2.5-1,3.9c0,1.4,0.3,2.7,1,3.9s1.6,2.1,2.8,2.7
			s2.5,1,4,1c2.2,0,4.1-0.8,5.6-2.4l1.8,1.8c-0.9,1-2,1.8-3.3,2.3c-1.3,0.5-2.7,0.8-4.3,0.8C251.2,20.9,249.4,20.4,247.8,19.5z"/>
		<path fill="#004B82" d="M266.2,19.8c-1.2-0.7-2.1-1.6-2.8-2.7c-0.7-1.2-1-2.5-1-3.9c0-1.5,0.3-2.8,1-3.9c0.7-1.2,1.6-2.1,2.8-2.7
			c1.2-0.7,2.5-1,4-1c1.5,0,2.8,0.3,4,1c1.2,0.7,2.1,1.6,2.8,2.7c0.7,1.2,1,2.5,1,3.9c0,1.5-0.3,2.8-1,3.9c-0.7,1.2-1.6,2.1-2.8,2.7
			c-1.2,0.7-2.5,1-4,1C268.7,20.8,267.3,20.5,266.2,19.8z M272.8,17.8c0.8-0.4,1.4-1.1,1.8-1.9c0.4-0.8,0.7-1.7,0.7-2.8
			s-0.2-2-0.7-2.8c-0.4-0.8-1-1.4-1.8-1.9c-0.8-0.4-1.6-0.7-2.6-0.7c-1,0-1.8,0.2-2.6,0.7c-0.8,0.4-1.4,1.1-1.8,1.9
			c-0.4,0.8-0.7,1.7-0.7,2.8s0.2,2,0.7,2.8c0.4,0.8,1,1.4,1.8,1.9c0.8,0.4,1.6,0.7,2.6,0.7C271.1,18.4,272,18.2,272.8,17.8z"/>
		<path fill="#004B82" d="M286.4,6.2c0.9-0.5,2-0.7,3.4-0.7v2.6c-0.2,0-0.4,0-0.6,0c-1.5,0-2.6,0.4-3.5,1.3
			c-0.8,0.9-1.3,2.1-1.3,3.7v7.5h-2.7v-15h2.6v2.5C284.8,7.3,285.5,6.6,286.4,6.2z"/>
		<path fill="#004B82" d="M305,6.5c1.2,0.6,2.1,1.5,2.7,2.7c0.7,1.2,1,2.5,1,4c0,1.5-0.3,2.8-1,4c-0.7,1.2-1.6,2.1-2.7,2.7
			c-1.2,0.6-2.5,1-3.9,1c-1.1,0-2.1-0.2-3-0.6c-0.9-0.4-1.7-1-2.3-1.8v7.8h-2.7V5.6h2.6V8c0.6-0.8,1.4-1.5,2.3-1.9
			c0.9-0.4,1.9-0.6,3.1-0.6C302.5,5.5,303.8,5.8,305,6.5z M303.4,17.8c0.8-0.4,1.4-1.1,1.8-1.9c0.4-0.8,0.7-1.7,0.7-2.8
			s-0.2-2-0.7-2.8c-0.4-0.8-1-1.4-1.8-1.9c-0.8-0.4-1.6-0.7-2.6-0.7c-0.9,0-1.8,0.2-2.6,0.7c-0.8,0.4-1.4,1.1-1.8,1.9
			c-0.4,0.8-0.7,1.7-0.7,2.7s0.2,2,0.7,2.8c0.4,0.8,1,1.4,1.8,1.9c0.8,0.4,1.6,0.7,2.6,0.7C301.8,18.4,302.7,18.2,303.4,17.8z"/>
		<path fill="#004B82" d="M314.8,19.8c-1.2-0.7-2.1-1.6-2.8-2.7c-0.7-1.2-1-2.5-1-3.9c0-1.5,0.3-2.8,1-3.9c0.7-1.2,1.6-2.1,2.8-2.7
			c1.2-0.7,2.5-1,4-1c1.5,0,2.8,0.3,4,1c1.2,0.7,2.1,1.6,2.8,2.7c0.7,1.2,1,2.5,1,3.9c0,1.5-0.3,2.8-1,3.9c-0.7,1.2-1.6,2.1-2.8,2.7
			c-1.2,0.7-2.5,1-4,1C317.4,20.8,316,20.5,314.8,19.8z M321.4,17.8c0.8-0.4,1.4-1.1,1.8-1.9c0.4-0.8,0.7-1.7,0.7-2.8
			s-0.2-2-0.7-2.8c-0.4-0.8-1-1.4-1.8-1.9c-0.8-0.4-1.6-0.7-2.6-0.7c-1,0-1.8,0.2-2.6,0.7c-0.8,0.4-1.4,1.1-1.8,1.9
			c-0.4,0.8-0.7,1.7-0.7,2.8s0.2,2,0.7,2.8c0.4,0.8,1,1.4,1.8,1.9c0.8,0.4,1.6,0.7,2.6,0.7C319.8,18.4,320.7,18.2,321.4,17.8z"/>
		<path fill="#004B82" d="M335.1,6.2c0.9-0.5,2-0.7,3.4-0.7v2.6c-0.2,0-0.4,0-0.6,0c-1.5,0-2.6,0.4-3.5,1.3
			c-0.8,0.9-1.3,2.1-1.3,3.7v7.5h-2.7v-15h2.6v2.5C333.5,7.3,334.2,6.6,335.1,6.2z"/>
		<path fill="#004B82" d="M352,7c1.1,1,1.7,2.5,1.7,4.6v9.1h-2.6v-2c-0.5,0.7-1.1,1.2-1.9,1.6c-0.8,0.4-1.8,0.6-3,0.6
			c-1.7,0-3-0.4-4-1.2c-1-0.8-1.5-1.9-1.5-3.2s0.5-2.4,1.4-3.2c1-0.8,2.5-1.2,4.6-1.2h4.3v-0.5c0-1.2-0.3-2.1-1-2.7s-1.7-0.9-3-0.9
			c-0.9,0-1.8,0.1-2.6,0.4c-0.8,0.3-1.6,0.7-2.1,1.2l-1.1-2c0.8-0.6,1.7-1.1,2.8-1.4c1.1-0.3,2.2-0.5,3.4-0.5
			C349.3,5.5,350.9,6,352,7z M349.3,18c0.8-0.5,1.3-1.1,1.6-2v-2.1h-4.2c-2.3,0-3.5,0.8-3.5,2.3c0,0.8,0.3,1.3,0.9,1.8
			c0.6,0.4,1.4,0.7,2.4,0.7C347.6,18.7,348.5,18.5,349.3,18z"/>
		<path fill="#004B82" d="M367.1,19.8c-0.4,0.3-0.9,0.6-1.5,0.8c-0.6,0.2-1.2,0.3-1.8,0.3c-1.5,0-2.7-0.4-3.5-1.2
			c-0.8-0.8-1.2-2-1.2-3.5V7.9h-2.5V5.6h2.5V2.3h2.7v3.3h4.3v2.2h-4.3V16c0,0.8,0.2,1.4,0.6,1.9c0.4,0.4,1,0.7,1.7,0.7
			c0.8,0,1.5-0.2,2.1-0.7L367.1,19.8z"/>
		<path fill="#004B82" d="M383.4,14h-12.2c0.2,1.3,0.7,2.4,1.7,3.2c1,0.8,2.2,1.2,3.7,1.2c1.8,0,3.2-0.6,4.3-1.8l1.5,1.8
			c-0.7,0.8-1.5,1.4-2.5,1.8c-1,0.4-2.1,0.6-3.4,0.6c-1.6,0-3-0.3-4.2-1c-1.2-0.7-2.2-1.6-2.8-2.7c-0.7-1.2-1-2.5-1-4
			c0-1.5,0.3-2.8,1-3.9s1.5-2.1,2.7-2.7c1.1-0.7,2.4-1,3.9-1c1.4,0,2.7,0.3,3.8,1s2,1.6,2.6,2.7s0.9,2.5,0.9,4
			C383.4,13.4,383.4,13.7,383.4,14z M372.8,9c-0.9,0.8-1.4,1.8-1.5,3.1h9.6c-0.2-1.3-0.7-2.3-1.5-3.1c-0.9-0.8-2-1.2-3.3-1.2
			C374.7,7.8,373.6,8.2,372.8,9z"/>
	</g>
	<g>
		<g>
			<defs>
				<path id="SVGID_28_" d="M297.4,34.3c0.6,1.2,4.3-0.2,6.3-0.9c1.1-0.4,2.2-0.6,3.3-1c24.8-9.1,58.6-7.6,74.3-5.6
					c5,0.6,5,0.4,0.1-0.7c-15.6-3.3-49.2-7.3-76.1,1.8c-0.8,0.3-1.6,0.5-2.4,0.7C299.4,29.6,296.4,32.2,297.4,34.3"/>
			</defs>
			<clipPath id="SVGID_1_">
				<use xlink:href="#SVGID_28_"  overflow="visible"/>
			</clipPath>
		</g>
		<g>
			<defs>
				<path id="SVGID_30_" d="M297.4,34.3c0.6,1.2,4.3-0.2,6.3-0.9c1.1-0.4,2.2-0.6,3.3-1c24.8-9.1,58.6-7.6,74.3-5.6
					c5,0.6,5,0.4,0.1-0.7c-15.6-3.3-49.2-7.3-76.1,1.8c-0.8,0.3-1.6,0.5-2.4,0.7C299.4,29.6,296.4,32.2,297.4,34.3"/>
			</defs>
			<use xlink:href="#SVGID_30_"  overflow="visible" fill-rule="evenodd" clip-rule="evenodd" fill="#A40032"/>
			<clipPath id="SVGID_2_">
				<use xlink:href="#SVGID_30_"  overflow="visible"/>
			</clipPath>
			<path clip-path="url(#SVGID_2_)" fill="#A40032" d="M384.1,19.3c0.3-0.5,0.6-1,0.9-1.5l-1-6.6l-88.7,14l3.7,23.3l82.7-13
				C377.7,30.8,378.7,22.6,384.1,19.3z"/>
		</g>
		<g>
			<defs>
				<path id="SVGID_32_" d="M297.4,34.3c0.6,1.2,4.3-0.2,6.3-0.9c1.1-0.4,2.2-0.6,3.3-1c24.8-9.1,58.6-7.6,74.3-5.6
					c5,0.6,5,0.4,0.1-0.7c-15.6-3.3-49.2-7.3-76.1,1.8c-0.8,0.3-1.6,0.5-2.4,0.7C299.4,29.6,296.4,32.2,297.4,34.3"/>
			</defs>
			<clipPath id="SVGID_4_">
				<use xlink:href="#SVGID_32_"  overflow="visible"/>
			</clipPath>
		</g>
	</g>
	<line fill="none" x1="384.3" y1="23.5" x2="384.3" y2="35.5"/>
</g>
</svg>
