<?xml version="1.0" encoding="utf-8"?>
<!-- Generator: Adobe Illustrator 18.0.0, SVG Export Plug-In . SVG Version: 6.00 Build 0)  -->
<!DOCTYPE svg PUBLIC "-//W3C//DTD SVG 1.1//EN" "http://www.w3.org/Graphics/SVG/1.1/DTD/svg11.dtd">
<svg version="1.1" id="Layer_1" xmlns="http://www.w3.org/2000/svg" xmlns:xlink="http://www.w3.org/1999/xlink" x="0px" y="0px"
	 viewBox="0 0 300 90" enable-background="new 0 0 300 90" xml:space="preserve">
<g>
	<g>
		<g>
			<path fill="#004B82" d="M107.6,42.6h8v7h-7.8v23.7h-9.1V49.6h-4.8v-7h4.8v-1.4c0-3.6,1.1-6.4,3.2-8.5c2.1-2.1,5.1-3.1,8.9-3.1
				c1.4,0,2.7,0.1,3.9,0.4c1.2,0.3,2.2,0.7,3.1,1.3l-2.4,6.6c-1-0.7-2.3-1.1-3.7-1.1c-2.8,0-4.1,1.5-4.1,4.5V42.6z"/>
			<path fill="#004B82" d="M125.8,71.7c-2.6-1.4-4.7-3.3-6.1-5.7c-1.5-2.4-2.2-5.2-2.2-8.3c0-3.1,0.7-5.9,2.2-8.3
				c1.5-2.4,3.5-4.4,6.1-5.7c2.6-1.4,5.6-2.1,8.9-2.1c3.3,0,6.3,0.7,8.9,2.1c2.6,1.4,4.6,3.3,6.1,5.7c1.5,2.4,2.2,5.2,2.2,8.3
				c0,3.1-0.7,5.9-2.2,8.3c-1.5,2.4-3.5,4.4-6.1,5.7c-2.6,1.4-5.6,2.1-8.9,2.1C131.4,73.7,128.5,73,125.8,71.7z M140.5,63.9
				c1.5-1.6,2.2-3.7,2.2-6.3c0-2.6-0.7-4.7-2.2-6.3c-1.5-1.6-3.4-2.4-5.7-2.4c-2.3,0-4.3,0.8-5.8,2.4c-1.5,1.6-2.3,3.7-2.3,6.3
				c0,2.6,0.8,4.7,2.3,6.3c1.5,1.6,3.4,2.4,5.8,2.4C137.1,66.3,139,65.5,140.5,63.9z"/>
			<path fill="#004B82" d="M202.2,71.7c-2.6-1.4-4.7-3.3-6.1-5.7c-1.5-2.4-2.2-5.2-2.2-8.3c0-3.1,0.7-5.9,2.2-8.3
				c1.5-2.4,3.5-4.4,6.1-5.7c2.6-1.4,5.6-2.1,8.9-2.1s6.3,0.7,8.9,2.1c2.6,1.4,4.6,3.3,6.1,5.7c1.5,2.4,2.2,5.2,2.2,8.3
				c0,3.1-0.7,5.9-2.2,8.3c-1.5,2.4-3.5,4.4-6.1,5.7c-2.6,1.4-5.6,2.1-8.9,2.1S204.8,73,202.2,71.7z M216.8,63.9
				c1.5-1.6,2.2-3.7,2.2-6.3c0-2.6-0.7-4.7-2.2-6.3c-1.5-1.6-3.4-2.4-5.7-2.4c-2.3,0-4.3,0.8-5.8,2.4c-1.5,1.6-2.3,3.7-2.3,6.3
				c0,2.6,0.8,4.7,2.3,6.3c1.5,1.6,3.4,2.4,5.8,2.4C213.4,66.3,215.3,65.5,216.8,63.9z"/>
			<path fill="#004B82" d="M266.3,30v43.2h-8.7v-3.6c-2.3,2.7-5.5,4.1-9.8,4.1c-3,0-5.6-0.7-8-2c-2.4-1.3-4.3-3.2-5.6-5.7
				c-1.4-2.4-2-5.3-2-8.5c0-3.2,0.7-6.1,2-8.5c1.4-2.4,3.2-4.3,5.6-5.7c2.4-1.3,5.1-2,8-2c4,0,7.1,1.3,9.4,3.8V30H266.3z
				 M255.1,63.9c1.5-1.6,2.3-3.7,2.3-6.3c0-2.6-0.8-4.7-2.3-6.3c-1.5-1.6-3.4-2.4-5.7-2.4c-2.3,0-4.3,0.8-5.8,2.4
				c-1.5,1.6-2.3,3.7-2.3,6.3c0,2.6,0.8,4.7,2.3,6.3c1.5,1.6,3.4,2.4,5.8,2.4C251.6,66.3,253.6,65.5,255.1,63.9z"/>
			<path fill="#004B82" d="M277.6,72.8c-2.5-0.6-4.5-1.4-5.9-2.4l3-6.5c1.4,0.9,3.1,1.6,5.1,2.2c2,0.6,3.9,0.8,5.8,0.8
				c3.8,0,5.8-1,5.8-2.9c0-0.9-0.5-1.5-1.6-1.9c-1-0.4-2.7-0.7-4.8-1c-2.6-0.4-4.7-0.8-6.4-1.3c-1.7-0.5-3.1-1.4-4.3-2.7
				c-1.2-1.3-1.8-3.1-1.8-5.5c0-2,0.6-3.7,1.7-5.3c1.1-1.5,2.8-2.7,5-3.6c2.2-0.9,4.8-1.3,7.8-1.3c2.2,0,4.4,0.2,6.6,0.7
				c2.2,0.5,4,1.2,5.4,2l-3,6.5c-2.8-1.6-5.8-2.3-9-2.3c-1.9,0-3.4,0.3-4.4,0.8c-1,0.5-1.5,1.2-1.5,2.1c0,1,0.5,1.7,1.6,2
				c1,0.4,2.7,0.8,5,1.1c2.6,0.4,4.7,0.9,6.3,1.4c1.6,0.5,3.1,1.4,4.3,2.7c1.2,1.3,1.8,3.1,1.8,5.4c0,1.9-0.6,3.7-1.7,5.2
				c-1.2,1.5-2.9,2.7-5.1,3.5c-2.2,0.8-4.9,1.3-8,1.3C282.6,73.7,280,73.4,277.6,72.8z"/>
			<path fill="#004B82" d="M189.4,47.1c-0.2-0.5-0.5-0.6-1-0.6c-5.2,0-10.4,0-15.6,0h0c-5.2,0-10.4,0-15.6,0c-0.5,0-0.8,0.1-1,0.6
				c-1.5,4.1-1.7,8.2-0.9,12.4c0.8,4.4,2.9,7.9,6.5,10.6c2.4,1.8,5.1,3.2,8,3.7c1,0.2,2,0.7,3,0.7h0c1,0,2-0.5,3-0.6
				c3-0.5,5.6-1.7,8-3.5c3.6-2.7,5.6-6.4,6.5-10.7C191.1,55.4,190.9,51.2,189.4,47.1z M187.8,58.6c-0.7,3.9-2.4,7.1-5.6,9.5
				c-0.9,0.7-2,1.3-3,1.9c0-0.1-0.1-0.1-0.1-0.2c0.7-0.5,1.5-0.9,2.2-1.5c2.8-2.1,4.5-5,5.2-8.4c0.7-3.6,0.5-7.2-0.8-10.6
				c-0.4-1,0.6-0.7,0.9-0.9c0.4-0.3,0.6,0,0.7,0.4C188.3,52,188.5,55.3,187.8,58.6z"/>
			<path fill="#004B82" d="M179.1,35.9c-1.7,0-3.3,0-4.9,0c-5-0.1-10-0.2-15.1-0.3c-1,0-1.9-0.4-2.6-1.1c-4.6-4.7-9.5-9.1-14.9-13
				c-3.9-2.8-7.9-5.2-12.4-7c-2.4-1-5-1.6-7.6-1.8c-0.5,0-0.8,0.1-0.7,0.7c0.1,1.1,0,2.2,0.1,3.3c0,0.6,0.4,1,0.9,1.1
				c3.8,0.8,7.5,2,11.1,3.5c4.1,1.7,8,3.9,11.6,6.7c3.1,2.3,5.9,5,8.6,7.8c2.4,2.5,5.1,4.5,8.4,5.7c2.6,0.9,5.2,1.1,7.9,0.8
				c4-0.4,6.8-2.7,9.3-5.6C178.9,36.5,179,36.3,179.1,35.9z"/>
			<g>
				<path fill="#004B82" d="M95.9,14.9h-1.5c-0.3,0-0.5-0.2-0.5-0.5v-1.2c0-0.3,0.2-0.5,0.5-0.5h6.7c0.3,0,0.5,0.2,0.5,0.5v1.2
					c0,0.3-0.2,0.5-0.5,0.5h-1.5c-0.3,0-0.5,0.2-0.5,0.5v5.2c0,0.3-0.2,0.5-0.5,0.5h-1.8c-0.3,0-0.5-0.2-0.5-0.5v-5.2
					C96.4,15.1,96.2,14.9,95.9,14.9z"/>
				<path fill="#004B82" d="M110.7,13.2v7.4c0,0.3-0.2,0.5-0.5,0.5h-1.8c-0.3,0-0.5-0.2-0.5-0.5v-2.1c0-0.3-0.2-0.5-0.5-0.5h-1.6
					c-0.3,0-0.5,0.2-0.5,0.5v2.1c0,0.3-0.2,0.5-0.5,0.5h-1.8c-0.3,0-0.5-0.2-0.5-0.5v-7.4c0-0.3,0.2-0.5,0.5-0.5h1.8
					c0.3,0,0.5,0.2,0.5,0.5v2c0,0.3,0.2,0.5,0.5,0.5h1.6c0.3,0,0.5-0.2,0.5-0.5v-2c0-0.3,0.2-0.5,0.5-0.5h1.8
					C110.5,12.7,110.7,12.9,110.7,13.2z"/>
				<path fill="#004B82" d="M119,19.4v1.1c0,0.3-0.2,0.5-0.5,0.5h-6c-0.3,0-0.5-0.2-0.5-0.5v-7.4c0-0.3,0.2-0.5,0.5-0.5h5.8
					c0.3,0,0.5,0.2,0.5,0.5v1.1c0,0.3-0.2,0.5-0.5,0.5h-3c-0.3,0-0.5,0.2-0.5,0.5v0c0,0.3,0.2,0.5,0.5,0.5h2.6
					c0.3,0,0.5,0.2,0.5,0.5v1.1c0,0.3-0.2,0.5-0.5,0.5h-2.6c-0.3,0-0.5,0.2-0.5,0.5v0.1c0,0.3,0.2,0.5,0.5,0.5h3.2
					C118.8,18.9,119,19.1,119,19.4z"/>
			</g>
		</g>
	</g>
	<g>
		<path fill="#A40032" d="M0,27.4c-0.1-4.5,1.2-8.4,4.9-11.3c1.5-1.1,3.2-1.8,5-2.3c2.5-0.8,5-1.6,7.5-2.4c3.5-1.1,7-2.1,10.5-3
			c2.6-0.6,5.1-1.3,7.7-1.9c3.8-0.9,7.5-1.6,11.3-2.3c2.8-0.5,5.6-1,8.4-1.5c2.1-0.3,4.3-0.7,6.4-0.8c5.1-0.4,8.9,1.8,11.4,6.1
			c1.6,2.7,2.5,5.8,3.6,8.8c0.9,2.4,1.7,4.9,2.4,7.3c1.1,3.7,2.1,7.4,3,11.1c0.7,3,1.3,6.1,1.9,9.1c0.6,3,1,6.1,1.4,9.1
			c0.4,3.3,0.8,6.5,1.2,9.8c0.6,4.9-2.4,10.2-6.9,12.3c-4.1,1.9-8.3,3.4-12.6,4.8c-3.2,1.1-6.5,2.1-9.8,2.9
			c-3.3,0.9-6.7,1.7-10.1,2.3c-2.5,0.5-4.9,1-7.4,1.3c-3.3,0.5-6.6,1-9.9,1.2c-1.2,0.1-2.4,0.2-3.7,0.4c-6.3,0.8-11.9-2.4-14.2-8.6
			c-1.3-3.7-2.7-7.3-3.9-11c-1.5-4.4-2.7-8.9-3.9-13.4C3.5,51.9,2.7,48.2,2,44.4c-0.6-3.3-1-6.7-1.4-10C0.3,32.1,0.2,29.7,0,27.4z"
			/>
		<g>
			<path fill="#FFFFFF" d="M82.2,28.5c0,0,3.8-0.3,3.5-4.5c-0.1-1.9-1-3.6-2.4-4.9c-1.7-1.6-3.7-2.9-5.8-3.8
				c-1.1-0.5-2.1-0.9-3.3-1.2c-1.4-0.3-2.8-0.6-4.3-0.8c-5.7-1-11.5-1.3-17.3-1.1c-10.2,0.3-21.1,2-29.3,8.7c-1.9,1.6-3.6,3.4-5,5.4
				c-1.4,2-2.5,4.3-2.9,6.7c-1.1,6,2.4,11.4,7.8,13.7c3.4,1.4,7.2,1.8,10.8,1.7c-0.1,0-0.6,2-0.6,2.2c-0.5,1.8-1,3.7-1.5,5.6
				c-1.1,4.6-2.2,9.5-2.2,14.2c0,0,0,0.1,0,0.1c0,2.1,0.4,4.3,1.5,6c1.3,2.1,3.1,2.7,5.3,3.2c1.5,0.3,3.4,0.1,4.9-0.6
				c0,0-4.8-3.5-1.6-15.8s4.6-16,4.6-16s11.8-2.7,14.5,3c0,0,3.1-6.8,0.6-9.5c-2.5-2.6-8.8-3.2-18.4-0.1c-3.7,1.2-8,1.7-11.9,0.8
				c-1.6-0.4-2.9-1.1-4.1-2.2c-1.4-1.2-1.3-3.8-0.9-5.5c0.1-0.6,0.3-1.2,0.6-1.7c1-2.3,2.8-4.1,4.9-5.4c2.5-1.6,5.2-2.7,8-3.6
				c0.6-0.2,7-1.7,7-2c0,0.5-0.4,1.1-0.5,1.5c-0.4,0.9-0.7,1.8-1.1,2.7c-0.9,2.4-1.9,4.7-2.8,7.1c-1,2.5-2,5-3,7.5L48,37.6L55.1,21
				C55.1,21,79.6,20.5,82.2,28.5z"/>
			<path fill="#BABCBE" d="M49.2,34.7L48,37.6l-10.7,2.2c0.4-1,0.8-2.1,1.2-3.1L49.2,34.7z"/>
		</g>
	</g>
	<g>
		<g>
			<path fill="#004B82" d="M247.5,18.2l-3.4-4.8c-0.4,0-0.7,0-1,0h-3.9v4.8h-2.2V2.5h6.1c2,0,3.6,0.5,4.8,1.5c1.2,1,1.7,2.3,1.7,4
				c0,1.2-0.3,2.2-0.9,3.1c-0.6,0.8-1.4,1.5-2.5,1.9l3.7,5.2H247.5z M246.3,10.6c0.7-0.6,1.1-1.5,1.1-2.6c0-1.1-0.4-2-1.1-2.6
				s-1.8-0.9-3.2-0.9h-3.8v7h3.8C244.5,11.5,245.6,11.2,246.3,10.6z"/>
			<path fill="#004B82" d="M263.6,13H254c0.1,1,0.6,1.9,1.4,2.5c0.8,0.6,1.8,0.9,2.9,0.9c1.4,0,2.6-0.5,3.4-1.4l1.2,1.4
				c-0.5,0.6-1.2,1.1-2,1.4c-0.8,0.3-1.7,0.5-2.7,0.5c-1.3,0-2.4-0.3-3.3-0.8c-1-0.5-1.7-1.2-2.2-2.2c-0.5-0.9-0.8-2-0.8-3.1
				c0-1.1,0.3-2.2,0.8-3.1c0.5-0.9,1.2-1.6,2.1-2.2c0.9-0.5,1.9-0.8,3-0.8c1.1,0,2.1,0.3,3,0.8c0.9,0.5,1.6,1.2,2.1,2.2
				c0.5,0.9,0.7,2,0.7,3.2C263.7,12.5,263.7,12.7,263.6,13z M255.3,9c-0.7,0.6-1.1,1.4-1.2,2.5h7.6c-0.1-1-0.5-1.8-1.2-2.4
				c-0.7-0.6-1.6-0.9-2.6-0.9C256.8,8,255.9,8.4,255.3,9z"/>
			<path fill="#004B82" d="M273.3,17.5c-0.3,0.3-0.7,0.5-1.2,0.6c-0.5,0.1-0.9,0.2-1.4,0.2c-1.2,0-2.1-0.3-2.8-1
				c-0.7-0.6-1-1.6-1-2.7V8.1h-2V6.3h2V3.7h2.1v2.6h3.4v1.8h-3.4v6.4c0,0.6,0.2,1.1,0.5,1.5c0.3,0.3,0.8,0.5,1.4,0.5
				c0.7,0,1.2-0.2,1.7-0.6L273.3,17.5z"/>
			<path fill="#004B82" d="M284,7.4c0.9,0.8,1.3,2,1.3,3.6v7.1h-2v-1.6c-0.4,0.6-0.9,1-1.5,1.3c-0.7,0.3-1.4,0.4-2.4,0.4
				c-1.3,0-2.4-0.3-3.2-1c-0.8-0.6-1.2-1.5-1.2-2.5s0.4-1.9,1.1-2.5c0.8-0.6,2-0.9,3.6-0.9h3.4v-0.4c0-0.9-0.3-1.6-0.8-2.1
				c-0.5-0.5-1.3-0.7-2.4-0.7c-0.7,0-1.4,0.1-2.1,0.3c-0.7,0.2-1.2,0.5-1.7,0.9l-0.9-1.6c0.6-0.5,1.3-0.9,2.2-1.1
				c0.8-0.3,1.7-0.4,2.7-0.4C281.9,6.2,283.1,6.6,284,7.4z M281.8,16.1c0.6-0.4,1-0.9,1.3-1.6v-1.7h-3.3c-1.8,0-2.7,0.6-2.7,1.8
				c0,0.6,0.2,1.1,0.7,1.4c0.5,0.3,1.1,0.5,1.9,0.5S281.3,16.5,281.8,16.1z"/>
			<path fill="#004B82" d="M289.3,3.7c-0.3-0.3-0.4-0.6-0.4-1c0-0.4,0.1-0.7,0.4-1c0.3-0.3,0.6-0.4,1-0.4c0.4,0,0.8,0.1,1,0.4
				c0.3,0.3,0.4,0.6,0.4,1c0,0.4-0.1,0.7-0.4,1c-0.3,0.3-0.6,0.4-1,0.4C289.9,4.1,289.6,3.9,289.3,3.7z M289.3,6.3h2.1v11.8h-2.1
				V6.3z"/>
			<path fill="#004B82" d="M295.5,1.6h2.1v16.6h-2.1V1.6z"/>
		</g>
	</g>
	<g>
		<g>
			<defs>
				<path id="SVGID_16_" d="M230.8,28.9c0.5,1,3.4-0.2,5-0.7c0.9-0.3,1.7-0.5,2.6-0.8c19.6-7.2,46.3-6,58.7-4.5c3.9,0.5,4,0.3,0-0.6
					c-12.3-2.6-38.8-5.8-60.1,1.4c-0.6,0.2-1.3,0.4-1.9,0.6C232.4,25.3,230,27.4,230.8,28.9"/>
			</defs>
			<clipPath id="SVGID_1_">
				<use xlink:href="#SVGID_16_"  overflow="visible"/>
			</clipPath>
		</g>
		<g>
			<defs>
				<path id="SVGID_18_" d="M230.8,28.9c0.5,1,3.4-0.2,5-0.7c0.9-0.3,1.7-0.5,2.6-0.8c19.6-7.2,46.3-6,58.7-4.5c3.9,0.5,4,0.3,0-0.6
					c-12.3-2.6-38.8-5.8-60.1,1.4c-0.6,0.2-1.3,0.4-1.9,0.6C232.4,25.3,230,27.4,230.8,28.9"/>
			</defs>
			<use xlink:href="#SVGID_18_"  overflow="visible" fill-rule="evenodd" clip-rule="evenodd" fill="#A40032"/>
			<clipPath id="SVGID_2_">
				<use xlink:href="#SVGID_18_"  overflow="visible"/>
			</clipPath>
			<path clip-path="url(#SVGID_2_)" fill="#A40032" d="M299.3,17.1c0.2-0.4,0.5-0.8,0.7-1.2l-0.8-5.2l-70,11l2.9,18.4l65.3-10.3
				C294.2,26.2,295,19.7,299.3,17.1z"/>
		</g>
		<g>
			<defs>
				<path id="SVGID_20_" d="M230.8,28.9c0.5,1,3.4-0.2,5-0.7c0.9-0.3,1.7-0.5,2.6-0.8c19.6-7.2,46.3-6,58.7-4.5c3.9,0.5,4,0.3,0-0.6
					c-12.3-2.6-38.8-5.8-60.1,1.4c-0.6,0.2-1.3,0.4-1.9,0.6C232.4,25.3,230,27.4,230.8,28.9"/>
			</defs>
			<clipPath id="SVGID_4_">
				<use xlink:href="#SVGID_20_"  overflow="visible"/>
			</clipPath>
		</g>
	</g>
	<line fill="none" x1="299.1" y1="19.5" x2="299.1" y2="29.5"/>
</g>
</svg>
