<?xml version="1.0" encoding="utf-8"?>
<!-- Generator: Adobe Illustrator 18.0.0, SVG Export Plug-In . SVG Version: 6.00 Build 0)  -->
<!DOCTYPE svg PUBLIC "-//W3C//DTD SVG 1.1//EN" "http://www.w3.org/Graphics/SVG/1.1/DTD/svg11.dtd">
<svg version="1.1" id="Layer_1" xmlns="http://www.w3.org/2000/svg" xmlns:xlink="http://www.w3.org/1999/xlink" x="0px" y="0px"
	 viewBox="0 0 95 90" enable-background="new 0 0 95 90" xml:space="preserve">
<g>
	<path fill="#A40032" d="M69.4,70.9c-5,0-9.1,4.1-9.1,9.1c0,5.1,4.1,9.2,9.1,9.2c5.1,0,9.2-4.1,9.2-9.2C78.5,75,74.4,70.9,69.4,70.9
		z M69.4,84.1c-2.2,0-4-1.8-4-4c0-2.2,1.8-4,4-4c2.2,0,4,1.8,4,4C73.4,82.3,71.6,84.1,69.4,84.1z"/>
	<path fill="#A40032" d="M36.2,70.9c-5,0-9.1,4.1-9.1,9.1c0,5.1,4.1,9.2,9.1,9.2c5.1,0,9.2-4.1,9.2-9.2C45.3,75,41.3,70.9,36.2,70.9
		z M36.2,84.1c-2.2,0-4-1.8-4-4c0-2.2,1.8-4,4-4c2.2,0,4,1.8,4,4C40.2,82.3,38.4,84.1,36.2,84.1z"/>
	<g>
		<g>
			<path fill="#A40032" d="M87.8,28.3l-48.5-2.1c-1.7-0.1-3.1,1.2-3.1,2.9c-0.1,1.7,1.2,3.1,2.9,3.1l47.9,2.1
				C87,32.3,87.3,30.2,87.8,28.3z"/>
		</g>
	</g>
	<g>
		<g>
			<path fill="#A40032" d="M87,41.8l-47.6-2.1c-1.7-0.1-3.1,1.2-3.1,2.9c-0.1,1.7,1.2,3.1,2.9,3.1l44.7,1.9
				C84.4,45.5,85.5,43.5,87,41.8z"/>
		</g>
	</g>
	<g>
		<path fill="#004B82" d="M93.9,17.6c-0.5-0.8-1.4-1.2-2.3-1.3l-58.2-2.5c-1.7-0.1-3.1,1.2-3.1,2.9c-0.1,1.7,1.2,3.1,2.9,3.1
			l54.3,2.3L76.7,55.5H29.2L20.6,8.8c-0.2-1-0.9-1.9-1.9-2.3L4.7,1C3.1,0.4,1.4,1.2,0.8,2.7C0.2,4.3,0.9,6,2.5,6.6L15,11.5l8.7,47.5
			c0.3,1.4,1.5,2.5,3,2.5h1.5l-3.3,9.2c-0.3,0.8-0.2,1.6,0.3,2.3c0.3,0.4,0.7,0.7,1.1,0.9h53.6c0.9-0.4,1.6-1.3,1.6-2.3
			c0-1.4-1.1-2.5-2.5-2.5H30.7l2.7-7.5h45.4c1.3,0,2.5-0.9,2.9-2.1l12.5-39.1C94.6,19.4,94.4,18.4,93.9,17.6z"/>
	</g>
</g>
</svg>
