<?xml version="1.0" encoding="utf-8"?>
<!-- Generator: Adobe Illustrator 18.0.0, SVG Export Plug-In . SVG Version: 6.00 Build 0)  -->
<!DOCTYPE svg PUBLIC "-//W3C//DTD SVG 1.1//EN" "http://www.w3.org/Graphics/SVG/1.1/DTD/svg11.dtd">
<svg version="1.1" id="Layer_1" xmlns="http://www.w3.org/2000/svg" xmlns:xlink="http://www.w3.org/1999/xlink" x="0px" y="0px"
	 viewBox="0 0 800 500" enable-background="new 0 0 800 500" xml:space="preserve">
<g>
	<g>
		<path fill="#FCECDB" d="M688.5,497c0,0,57.1,13.5,85.2-47.8c36.5-79.6-14.7-155.2-103-160.7c-127.4-7.9-56.8-211.2-257.8-156
			c-56.5,15.5-179.4-64.6-251.8,71.1c-12.3,23.1-49.1,21.9-98.1,61.3c-86.4,69.4-55.3,232.8,17.5,233.6
			C153.4,499.2,688.5,497,688.5,497z"/>
		<path fill="#A8D29F" d="M93.3,498.2c0,0,2.7-17.4,36.5-22.1c33.9-4.7,65.4-42.2,121.2-36.8c55.9,5.4,102.2,39.6,165.8,29.1
			c63.6-10.5,103.4,2.9,117.7,13.4c14.3,10.5,73.3-2.5,77.7,16.8L93.3,498.2z"/>
		<path fill="#AFCDFB" d="M232.6,83.6c0,0-38.2-1.9-18,114.7c0,0,13.6,39.6-3.6,65h253.6V83.6H232.6z"/>
		<g>
			<g>
				<path fill="#599DAD" d="M258.6,386.6c0,0-17.7-20.7-1.1-33.8c0,0,12.1-7.4,22-6.8c0,0-14,23.5-9.5,25.9
					c4.5,2.3,13.7-27.3,13.7-27.3s27.6-2.7,36.5,1.6c0,0-23.6,19.3-18.6,20.5c5,1.2,30.5-17.8,30.5-17.8s25.7,4.4,24.3,20.1
					c-1.4,15.7-10.2,20.5-14.1,20.1c-3.9-0.4-26.7-9.1-27.2-5.9c-0.5,3.2,13.2,13.6,22.8,14.1c0,0-18.1,20-30.2,14.2
					c-12-5.8-13.1-14.9-20.6-18.3c-7.5-3.4-13.9-3.4-10.8,0.1c3.1,3.5,16.7,6.9,21,14.5c4.3,7.6,8.1,12.7-4.3,10.8
					c-12.5-1.9-32.7-11-33.6-21.4C258.6,386.6,258.6,386.6,258.6,386.6z"/>
				<g>
					<path fill="#599DAD" d="M343.9,369.3c0,0-69.8-2.7-85.3,17.3c0,0-3.4,10.2-13.9,19.5l-1.6,4.5c0,0,12.1-12.8,16.4-13.5
						C259.5,397,252.7,372.3,343.9,369.3z"/>
					<path fill="#599DAD" d="M244.7,406.1c0,0-15,11.1-16,30.9l2.7,0.2c0,0,4.8-20.5,13.4-28.5C253.5,400.7,244.7,406.1,244.7,406.1
						z"/>
				</g>
			</g>
			<g>
				<path fill="#6BB7BF" d="M196.7,360.6c0,0,28.2-15.8,15-37.2c0,0-10.5-13.1-21.8-16.5c0,0,6,31.9,0,32.7
					c-6,0.8-4.1-36.1-4.1-36.1s-29.7-14.3-41.3-13.1c0,0,18.4,31.2,12.4,30.4c-6-0.8-26.7-32.3-26.7-32.3s-30.4-5.6-35.3,12.4
					c-4.9,18,3,27.1,7.5,28.2c4.5,1.1,33.4,0.8,32.7,4.5c-0.8,3.8-20.3,9.8-31.2,6.4c0,0,12,29.7,27.8,28.2
					c15.8-1.5,20.7-11.3,30.4-12c9.8-0.8,16.9,1.9,12,4.5c-4.9,2.6-21.4,0.9-29.3,7.6c-7.9,6.7-14.3,10.8,0.4,13.8
					c14.7,3,41,1.1,46.2-10.1C196.7,360.6,196.7,360.6,196.7,360.6z"/>
				<g>
					<path fill="#6BB7BF" d="M108.8,306.5c0,0,78.9,25.5,87.9,54.1c0,0-0.4,12.8,7.5,27.4v5.6c0,0-8.3-19.2-12.8-21.8
						C191.4,371.9,209.1,347.1,108.8,306.5z"/>
					<path fill="#6BB7BF" d="M204.2,388c0,0,12.2,18.5,5.2,41l-3.1-0.8c0,0,3-24.8-3.3-37.2C196.6,378.5,204.2,388,204.2,388z"/>
				</g>
			</g>
			<g>
				<path fill="#86D1CD" d="M241.5,338.8c0,0-37.1-20.8-19.8-49c0,0,13.9-17.3,28.7-21.8c0,0-7.9,42.1,0,43.1
					c7.9,1,5.4-47.5,5.4-47.5s39.1-18.8,54.5-17.3c0,0-24.3,41.1-16.3,40.1c7.9-1,35.2-42.6,35.2-42.6s40.1-7.4,46.6,16.3
					c6.4,23.8-4,35.7-9.9,37.1s-44.1,1-43.1,5.9c1,5,26.7,12.9,41.1,8.4c0,0-15.8,39.1-36.6,37.1c-20.8-2-27.2-14.9-40.1-15.8
					c-12.9-1-22.3,2.5-15.8,5.9c6.4,3.5,28.2,1.1,38.6,10c10.4,8.8,18.8,14.3-0.5,18.3c-19.3,4-54,1.5-60.9-13.4
					C241.5,338.8,241.5,338.8,241.5,338.8z"/>
				<g>
					<path fill="#6BB7BF" d="M357.4,267.5c0,0-104,33.7-115.9,71.3c0,0,0.5,16.8-9.9,36.2v7.4c0,0,10.9-25.3,16.8-28.7
						C248.5,353.7,225.2,321,357.4,267.5z"/>
					<path fill="#6BB7BF" d="M231.6,375c0,0-16,24.4-6.9,54l4.1-1.1c0,0-4-32.7,4.4-49.1C241.6,362.4,231.6,375,231.6,375z"/>
				</g>
			</g>
			<path fill="#EFCBAB" d="M240.3,493.3c40.2,0,72.8-32.6,72.8-72.8H167.5C167.5,460.7,200.1,493.3,240.3,493.3z"/>
			<path fill="#FFEBDC" d="M258.2,492.7c-3,0.4-6,0.6-9,0.6c-40.2,0-72.8-32.6-72.8-72.8h18.1C194.5,457.7,222.3,488.3,258.2,492.7z
				"/>
			<path fill="#EFCBAB" d="M314,497H166.5l0,0c0-5,4-9,9-9h129.6C310,488,314,492,314,497L314,497z"/>
			<rect x="165.1" y="420.5" fill="#EFCDAF" width="149.6" height="2.2"/>
		</g>
		<g>
			<path fill="#599DAD" d="M503.6,143.9c0,0-12.7-24,6.4-33.2c0,0,13.5-4.5,23-1.8c0,0-18.8,19.9-14.9,23.1
				c3.9,3.3,19.4-23.7,19.4-23.7s27.5,3.5,35.3,9.6c0,0-27.3,13.7-22.7,15.9c4.6,2.2,33.7-10.7,33.7-10.7s24.1,9.9,19.3,24.9
				c-4.8,15-14.5,17.8-18.2,16.5s-24-14.7-25.2-11.7c-1.2,3,9.9,16.2,19.2,18.8c0,0-22.1,15.5-32.6,7.3
				c-10.5-8.3-9.5-17.4-16.1-22.4c-6.6-5-12.8-6.4-10.6-2.3c2.3,4.1,14.8,10.4,17.3,18.8c2.5,8.4,5.2,14.2-6.6,9.6
				c-11.7-4.6-29.5-17.9-28.1-28.3C503.6,143.9,503.6,143.9,503.6,143.9z"/>
			<g>
				<path fill="#599DAD" d="M590.5,145.7c0,0-67.5-18-87-1.9c0,0-5.6,9.2-17.9,16l-2.6,4c0,0,14.6-9.8,19-9.6
					C502.1,154.3,501,128.6,590.5,145.7z"/>
				<path fill="#599DAD" d="M485.7,159.9c0,0-17.1,7.5-22.4,26.6l2.6,0.8c0,0,9.2-18.9,19.4-24.8
					C495.5,156.6,485.7,159.9,485.7,159.9z"/>
			</g>
		</g>
		<g>
			<path fill="#86D1CD" d="M419.6,100.5c0,0-37.7-19.7-21.3-48.4c0,0,13.3-17.7,28.1-22.6c0,0-6.7,42.3,1.3,43.1
				c8,0.8,4-47.7,4-47.7s38.5-20,53.9-18.9c0,0-23,41.8-15.1,40.6c7.9-1.2,33.9-43.6,33.9-43.6s39.9-8.6,47,15
				c7.1,23.6-2.9,35.8-8.8,37.4c-5.9,1.7-44,2.3-42.9,7.2c1.1,4.9,27.1,12.1,41.3,7.2c0,0-14.7,39.6-35.5,38.2
				c-20.8-1.4-27.7-14-40.6-14.6c-12.9-0.6-22.2,3.1-15.7,6.4s28.3,0.3,38.9,8.8c10.7,8.5,19.2,13.7,0,18.3
				c-19.2,4.5-53.9,3.1-61.3-11.6C419.6,100.5,419.6,100.5,419.6,100.5z"/>
			<g>
				<path fill="#6BB7BF" d="M533.3,25.8c0,0-103,36.8-113.7,74.7c0,0,1,16.8-8.8,36.4l0.2,7.4c0,0,10.1-25.6,16-29.2
					C427,115.2,402.8,83.2,533.3,25.8z"/>
				<path fill="#6BB7BF" d="M410.8,136.9c0,0-15.3,24.8-5.3,54.2l4.1-1.2c0,0-5-32.5,2.9-49.2C420.4,124,410.8,136.9,410.8,136.9z"
					/>
			</g>
		</g>
		<rect x="248.7" y="152.6" fill="#9ABCEF" width="264.7" height="345.2"/>
		<rect x="257.3" y="152.6" fill="#E9F3FE" width="260.3" height="345.2"/>
		<path fill="#A8D29F" d="M701.1,497h-52.4c-2.8-2.4,1.9-7.8,6.9-8.2c2.2-0.2,4.9,0.3,8,0.9c0.7-9.6,4.8-52.7,20.4-50.9
			c17.5,1.9,0,19-4.9,29.1c-3.7,7.5-7.5,18.2-9.3,23.2c1.4,0.3,2.9,0.6,4.4,0.9c2.3-7.1,10.9-31,21.9-29.6
			c12.9,1.6,7.7,11.2-1.4,16.9c-6.7,4.2-14.9,10.1-18.8,13c3.3,0.5,6.8,0.9,10.3,0.8C695,492.9,699.4,495.6,701.1,497z"/>
		<path fill="#E9F3FE" d="M517.6,152.6L517.6,152.6l-260.3,0c1.4-19.7-0.7-34-4.2-44.3c-6.7-19.8-18.2-24.7-18.2-24.7h245.5
			c20.9,0,37.2,12.6,41.6,29.4c0.2,0.6,0.3,1.3,0.5,1.9C526.7,134.1,517.8,152.3,517.6,152.6z"/>
		<path fill="#D8E8FD" d="M517.6,152.6L517.6,152.6l-260.3,0c1.4-19.7-0.7-34-4.2-44.3c26.6,4.9,92.5,15.2,163,13.5
			c45.6-1.1,81.7-4.2,106.4-7C526.7,134.1,517.8,152.3,517.6,152.6z"/>
		<g>
			<path fill="#BBD5FC" d="M448.8,232.2h-138c-1.4,0-2.6-1.2-2.6-2.6v-1.3c0-1.4,1.2-2.6,2.6-2.6h138c1.4,0,2.6,1.2,2.6,2.6v1.3
				C451.4,231.1,450.3,232.2,448.8,232.2z"/>
			<path fill="#BBD5FC" d="M395.4,243.1h-85.1c-1.1,0-2-0.9-2-2v-2.4c0-1.1,0.9-2,2-2h85.1c1.1,0,2,0.9,2,2v2.4
				C397.5,242.2,396.5,243.1,395.4,243.1z"/>
			<g>
				<path fill="#BBD5FC" d="M294.9,242.1v-13.2h-1.7c-1.1,0-1.6-0.4-1.6-1.3c0-0.6,0.4-1.1,1.2-1.3c0.4-0.1,1.1-0.2,2-0.3
					c0.9-0.1,1.7-0.1,2.2-0.1c0.5,0,0.9,0.1,1,0.3c0.1,0.2,0.2,0.8,0.2,1.7v14.3h1.8c1.2,0,1.7,0.5,1.7,1.5c0,1.1-0.6,1.6-1.7,1.6
					h-7.2c-0.5,0-0.9-0.1-1.3-0.4c-0.3-0.3-0.5-0.7-0.5-1.2c0-1,0.6-1.5,1.8-1.5H294.9z"/>
			</g>
		</g>
		<g>
			<path fill="#D2E4FD" d="M448.8,300.4h-138c-1.4,0-2.6-1.2-2.6-2.6v-1.3c0-1.4,1.2-2.6,2.6-2.6h138c1.4,0,2.6,1.2,2.6,2.6v1.3
				C451.4,299.2,450.3,300.4,448.8,300.4z"/>
			<path fill="#D2E4FD" d="M395.4,311.3h-85.1c-1.1,0-2-0.9-2-2v-2.4c0-1.1,0.9-2,2-2h85.1c1.1,0,2,0.9,2,2v2.4
				C397.5,310.4,396.5,311.3,395.4,311.3z"/>
			<g>
				<path fill="#D2E4FD" d="M302.2,310c0,0.9-0.6,1.3-1.8,1.3h-7.7c-1.1,0-1.7-0.4-1.7-1.3c0-0.3,0.1-0.6,0.4-1
					c0.4-0.5,1.1-1.2,1.9-2.2c1.3-1.6,2.3-3,3.2-4.2c0.3-0.4,0.7-1,1.3-1.8c0.5-0.8,0.7-1.5,0.7-2c0-0.6-0.2-1.1-0.6-1.5
					c-0.4-0.4-0.9-0.6-1.5-0.6c-0.6,0-1.1,0.2-1.5,0.6c-0.3,0.2-0.5,0.7-0.7,1.4c-0.2,0.9-0.4,1.4-0.4,1.5c-0.2,0.5-0.6,0.7-1.1,0.7
					c-0.5,0-0.8-0.2-1.1-0.5c-0.2-0.3-0.4-0.7-0.4-1.2c0-0.5,0.1-1.1,0.3-1.7c0.4-1.2,1-2.1,2-2.8c0.9-0.6,2-0.9,3.3-0.9
					c1.4,0,2.6,0.4,3.6,1.3c1,0.9,1.5,2.1,1.5,3.5c0,1-0.4,2.1-1.1,3.2c-0.4,0.6-1.2,1.7-2.4,3.2c-0.6,0.8-1.6,2-2.9,3.5h5
					C301.6,308.6,302.2,309.1,302.2,310z"/>
			</g>
		</g>
		<g>
			<path fill="#D2E4FD" d="M448.8,357.3h-138c-1.4,0-2.6-1.2-2.6-2.6v-1.3c0-1.4,1.2-2.6,2.6-2.6h138c1.4,0,2.6,1.2,2.6,2.6v1.3
				C451.4,356.1,450.3,357.3,448.8,357.3z"/>
			<path fill="#D2E4FD" d="M395.4,368.2h-85.1c-1.1,0-2-0.9-2-2v-2.4c0-1.1,0.9-2,2-2h85.1c1.1,0,2,0.9,2,2v2.4
				C397.5,367.3,396.5,368.2,395.4,368.2z"/>
			<g>
				<path fill="#D2E4FD" d="M302.2,362.7c0,1.7-0.6,3-1.7,4c-1.1,1-2.5,1.4-4.2,1.4c-1.3,0-2.4-0.3-3.3-0.9c-1.5-1-2.2-2.2-2.2-3.6
					c0-0.4,0.1-0.7,0.4-1c0.3-0.3,0.6-0.4,1-0.4c0.4,0,0.8,0.3,1.2,0.8c0.6,0.9,0.9,1.4,1,1.5c0.5,0.6,1.2,0.8,2,0.8
					c1.1,0,1.9-0.4,2.4-1.2c0.2-0.4,0.3-0.9,0.3-1.6c0-1.6-0.9-2.4-2.7-2.6c-1-0.1-1.6-0.5-1.6-1.3c0-0.6,0.3-1,0.9-1.2
					c1.1-0.4,1.7-0.6,1.7-0.6c0.6-0.4,0.9-1.1,0.9-2.1c0-0.6-0.2-1.1-0.5-1.4c-0.3-0.3-0.8-0.5-1.4-0.5c-0.7,0-1.3,0.2-1.7,0.5
					c-0.3,0.3-0.6,0.8-0.9,1.6c-0.2,0.6-0.6,0.8-1.1,0.8c-0.4,0-0.7-0.2-0.9-0.5c-0.2-0.3-0.4-0.7-0.4-1.1c0-0.5,0.1-1,0.4-1.5
					c0.4-0.8,1.1-1.5,2.1-1.9c0.8-0.4,1.8-0.6,2.8-0.6c1.4,0,2.5,0.4,3.4,1.2c0.9,0.8,1.4,1.9,1.4,3.2c0,1.6-0.7,2.9-2,3.8
					C301.2,359.2,302.2,360.6,302.2,362.7z"/>
			</g>
		</g>
		<g>
			<path fill="#BBD5FC" d="M432.8,175.5h-86c-1.5,0-2.7-1.2-2.7-2.7v-2.2c0-1.5,1.2-2.7,2.7-2.7h86c1.5,0,2.7,1.2,2.7,2.7v2.2
				C435.4,174.3,434.2,175.5,432.8,175.5z"/>
			<path fill="#BBD5FC" d="M455.2,187.1H324.4c-1.8,0-3.3-1.5-3.3-3.3v-1c0-1.8,1.5-3.3,3.3-3.3h130.8c1.8,0,3.3,1.5,3.3,3.3v1
				C458.5,185.7,457,187.1,455.2,187.1z"/>
		</g>
		<g>
			<path fill="#C65447" d="M379.7,267.1c-28.4,0-55.3-3.6-75.3-8.6c-20.3-5.1-31.2-13.5-31.2-21c0-6.8,8.9-13,25.7-18l0,0
				c-16.1,4.8-24.8,11.8-24.8,18c0,6.8,11.2,13.6,30.7,18.5c20,5.1,46.6,7.9,74.8,7.9c28.3,0,54.9-2.8,74.8-7.9
				c19.5-4.9,30.7-11.7,30.7-18.5c0-7.2-11.8-16.2-30.7-23.4c-21.5-8.2-48.1-11.2-74.8-11.2c-50.1,0-70.7,5.8-88.6,13.2l0,0
				c18-7.4,38.3-15.7,88.6-15.7c26.8,0,53.5,4.5,75.1,12.8c19.4,7.4,31.4,16.7,31.4,24.4c0,7.4-11.2,14.4-31.4,19.5
				C434.7,262.1,408,267.1,379.7,267.1z"/>
		</g>
		<g>
			<path fill="#FFB27D" d="M551.9,333.6c0,0-0.9,9.1-2,10.8c-1,1.7-5.4,7.2-7.2,8.3c-1.9,1.1,1.1-7.2,0.8-8.8
				c-0.4-1.6-1.5,2.9-2.3,3.1c-0.8,0.1-0.6-4-0.6-5.5c0-1.5,4-5.2,5.4-8.4C547.2,329.8,551.9,333.6,551.9,333.6z"/>
			<path fill="#FFB27D" d="M440.3,249.9l-2.1-3.9c0,0,1-7-7.8-11.5c0,0-3.2-1.3-5,1.3c-1.7,2.4,3.2,2,2.9,6.1
				c-0.3,4.1,1.7,6.5,4.4,7.9l2.3,2.6L440.3,249.9z"/>
			<path fill="#E58638" d="M523.4,240.5c0,0-7.5,37-49.1,49.1c-13,3.8-42.4-38.9-42.4-38.9s1-3.9,7.5-3c0,0,28.7,19,32.3,21
				c3.2,1.8,24.3-23.5,33.9-27.6C515.2,237,523.4,240.5,523.4,240.5z"/>
			<g>
				
					<rect x="427.7" y="220.5" transform="matrix(0.1518 -0.9884 0.9884 0.1518 128.8608 630.1277)" fill="#C65447" width="7.8" height="39"/>
				<polygon fill="#FFB27D" points="403.3,235.6 411.7,240.9 412.9,233.2 				"/>
				<path fill="#FFB27D" d="M455.5,242.3l-0.4,2.4c-0.2,1.5-1.6,2.5-3.1,2.3l-1.8-0.3l1.2-7.7l1.9,0.3
					C454.8,239.6,455.8,240.9,455.5,242.3z"/>
			</g>
			<g>
				<path fill="#233862" d="M573,473.3c0,0,5.2,4.7,4.1,8c-1,3.3-5.7,5.6-6.3,9.7c-0.6,4.1-3.1,6.3-5.4,6.3c-2.3,0-10.8,0-10.8,0
					s-1.7-2.9,2.4-3.7c4-0.9,5.5-5.7,5.3-10.1c-0.3-4.5,0.4-10.4,0.4-10.4l8.5-2L573,473.3z"/>
				<path fill="#233862" d="M509.8,485.5c0,0,0.9,10.7-1.3,11.8l-28.9-0.1c0,0,0-3.3,4.6-4.1c4.6-0.7,12.8-3.5,14.2-9.5
					C499.7,477.6,509.8,485.5,509.8,485.5z"/>
				<path fill="#BCBAB1" d="M485.3,334.3c0,0,1.5,18.8,3.3,41.3c2.4,30.6,5.4,68.2,5.7,75.4c0.5,12.4,2.5,32.2,2.5,32.2
					s4.8,4.7,14.3,2.7c0,0,8.5-28.3,10.9-58.2c0-0.5,0.1-1,0.1-1.5c2.3-30.4,5.8-94.5,5.8-94.5L485.3,334.3z"/>
				<path fill="#9E9C95" d="M485.3,334.3c0,0,1.5,18.8,3.3,41.3l33.4,52.1c0-0.5,0.1-1,0.1-1.5c2.3-30.4,5.8-94.5,5.8-94.5
					L485.3,334.3z"/>
				<path fill="#BCBAB1" d="M492.3,336.6c0,0,27.5,67.9,45.6,99.9c18.1,31.9,23.8,40.8,23.8,40.8s10.4-4.1,11.3-6.9
					c0,0-6.9-61.6-19-76.7c-6.8-8.5-14.9-34-15.3-42.9c-0.4-8.9-2.5-26.5-2.5-26.5L492.3,336.6z"/>
			</g>
			<path fill="#FFB27D" d="M528.5,231.9c0,0-18.6,9-29.4,5.7c0,0,2.6-3.3,7.3-5.8c-0.4-2.2-0.7-4-0.8-5.6c-0.5-3.7-0.5-5.7-0.5-5.7
				l7.2-5.7l6.8-5.4C518.6,224.5,528.5,231.9,528.5,231.9z"/>
			<path fill="#3C7AA5" d="M538.3,327.8c0,1.1-2.4,2.4-3.5,2.9c-8,3.5-15.4,5.9-23.8,6.7c-10,1-21.7-1.2-25.8-1.1
				c-0.4,0-0.8-0.2-1.1-0.4c-0.3-0.2-0.5-12.2-0.3-27.3c0-0.6,0-1.2,0-1.8v-0.2c0.1-5.9,0.3-12.1,0.6-18.3
				c0.6-13.6,1.7-26.7,3.5-33.9c2.2-8.5,7.1-14.2,11.6-18.3l3.7-3.3c3.7,0.7,7.6,0.5,11.6-1.4c4.3-2.1,8.9-4.3,9.7-3.7
				c5.6,4.1,9.4,13.3,11.4,25.1c1.2,6.8,1.7,14.4,1.7,22.4c0,2.9-0.1,5.9-0.2,8.9c-1,16.1,0,30.1,0.6,38.2
				C538.2,324.7,538.3,326.5,538.3,327.8z"/>
			<path fill="#2B478B" d="M538,327c-65.2-0.1-12-70.8-12-70.8l10.6-3.4c0.8,7.3,1.3,15.4,1.2,23.9c0,3.1-0.1,6.3-0.2,9.5
				C536.9,303.5,537.6,318.4,538,327z"/>
			<path fill="#ED985F" d="M519.3,215.1c0,0-4.7,8.6-13.7,11c-0.5-3.7-0.5-5.7-0.5-5.7l7.2-5.7L519.3,215.1z"/>
			<path fill="#FFB27D" d="M501.9,220.1c0,0,17.8,2.9,19.4-8c1.7-10.9,5.1-17.9-6.2-20.2c-11.3-2.3-14.1,1.5-15.6,5
				C498.1,200.4,497.3,219.1,501.9,220.1z"/>
			<path fill="#2C3A64" d="M527.8,190.6c0.2-0.2,0.5-0.3,1.4-0.4c0,0-0.7-0.4-1.5-0.4c-0.2-1.2-0.8-3.2-2.8-3.7c0,0,1.1,0.6,1.2,1.8
				c-2.3-2.4-7.2-4.1-20.8-3c-17.9,1.4-12,12.9-9.7,14.3c2.3,1.4,8.2-2.4,12.5-2c4.3,0.3,5.2,6.6,6.6,7.5c1.5,0.9,0.9-0.7,2.9-1.6
				c2-0.9,2.2,2.4,1.6,4.5c-0.6,2.1,2.2,5,2.2,5s0,0,2.8-3c2.8-3,5.4-15.6,4.1-18.2C528,191.1,527.9,190.8,527.8,190.6z"/>
			<path fill="#3C7AA5" d="M524.5,227.7c0,0,11.2,5.3,16.6,13.5c8.4,12.7,18,58.9,18.2,63.2c0.2,4.3-7.1,34.5-7.1,34.5
				s-7.4-0.5-9.3-4.2c0,0,1.5-31.1,0.5-33.1c-0.9-2-30.7-41.7-27.3-50.1C519.6,243,524.5,227.7,524.5,227.7z"/>
			<path fill="#FFB27D" d="M438.2,245.8c0,0,0.6-2.4-1.1-3.5c-1.7-1.1-3.2-4-3.9-3.6c-1.5,0.8,0.8,3.4,0.4,6.6
				C433.5,246.4,436.1,249.3,438.2,245.8z"/>
		</g>
		<path fill="#A8D29F" d="M165.1,474.4c0,0-26.4-67.6-44.9-56.8C101.7,428.3,165.1,474.4,165.1,474.4z"/>
		<path fill="#A8D29F" d="M152.1,474.4c0,0-34.9-30.1-50.8-24.5C85.3,455.4,152.1,474.4,152.1,474.4z"/>
		<path fill="#A8D29F" d="M521.4,484.1c0,0,8-27.9,17.5-24.6C548.3,462.8,521.4,484.1,521.4,484.1z"/>
		<path fill="#A8D29F" d="M528.7,482.6c0,0,20.5-13.5,25-9.3C558.2,477.5,528.7,482.6,528.7,482.6z"/>
		<path fill="#D2E4FD" d="M458.6,422.8h-160c-1.1,0-1.9-0.9-1.9-1.9l0,0c0-1.1,0.9-1.9,1.9-1.9h160c1.1,0,1.9,0.9,1.9,1.9l0,0
			C460.5,421.9,459.6,422.8,458.6,422.8z"/>
		<path fill="#D2E4FD" d="M458.6,430.6h-160c-1.1,0-1.9-0.9-1.9-1.9l0,0c0-1.1,0.9-1.9,1.9-1.9h160c1.1,0,1.9,0.9,1.9,1.9l0,0
			C460.5,429.7,459.6,430.6,458.6,430.6z"/>
		<path fill="#D2E4FD" d="M458.6,439.2h-160c-1.1,0-1.9-0.9-1.9-1.9l0,0c0-1.1,0.9-1.9,1.9-1.9h160c1.1,0,1.9,0.9,1.9,1.9l0,0
			C460.5,438.3,459.6,439.2,458.6,439.2z"/>
		<path fill="#D2E4FD" d="M437.6,447.8H298.4c-1,0-1.8-0.8-1.8-1.8v-0.3c0-1,0.8-1.8,1.8-1.8h139.2c1,0,1.8,0.8,1.8,1.8v0.3
			C439.4,447,438.6,447.8,437.6,447.8z"/>
		<path fill="#1C468A" d="M796.8,498.7H3.2c-0.4,0-0.8-0.3-0.8-0.8v-0.1c0-0.4,0.3-0.8,0.8-0.8h793.7c0.4,0,0.8,0.3,0.8,0.8v0.1
			C797.6,498.3,797.3,498.7,796.8,498.7z"/>
	</g>
</g>
</svg>
