<?xml version="1.0" encoding="utf-8"?>
<!-- Generator: Adobe Illustrator 18.0.0, SVG Export Plug-In . SVG Version: 6.00 Build 0)  -->
<!DOCTYPE svg PUBLIC "-//W3C//DTD SVG 1.1//EN" "http://www.w3.org/Graphics/SVG/1.1/DTD/svg11.dtd">
<svg version="1.1" id="Layer_1" xmlns="http://www.w3.org/2000/svg" xmlns:xlink="http://www.w3.org/1999/xlink" x="0px" y="0px"
	 viewBox="0 0 165 75" enable-background="new 0 0 165 75" xml:space="preserve">
<g>
	<g>
		<path fill-rule="evenodd" clip-rule="evenodd" fill="#F8D056" d="M36.2,3.3C37.1,1.9,38.5,1,40,1c1.6,0,3.1,0.9,3.9,2.2
			c3.1,5.8,7.3,13.2,9.1,16.6c0.6,1.2,1.8,2.1,3.1,2.2c3.7,0.7,12.2,2.4,18.6,3.6c1.6,0.3,2.8,1.3,3.4,3c0.4,1.5,0,3.1-1,4.3
			c-4.5,4.6-10.4,10.8-13.1,13.8c-0.9,0.9-1.3,2.2-1,3.6c0.4,3.9,1.5,12.3,2.4,18.7c0.1,1.6-0.4,3.1-1.8,4.2c-1.3,0.9-3,1-4.5,0.3
			c-5.8-2.7-13.5-6.4-17.1-8c-1.2-0.6-2.5-0.6-3.7,0c-3.6,1.6-11.3,5.3-17.2,8c-1.3,0.7-3.1,0.6-4.3-0.3c-1.3-1-2.1-2.5-1.8-4.2
			c0.7-6.4,1.9-14.8,2.4-18.7c0.1-1.3-0.3-2.7-1.2-3.6c-2.7-3-8.6-9.2-12.9-13.8c-1.2-1.2-1.5-2.8-1-4.3C2.6,27,4,26,5.6,25.7
			c6.2-1.2,14.7-2.8,18.6-3.6c1.3-0.1,2.4-1,3-2.2C29,16.5,33.2,9.1,36.2,3.3L36.2,3.3z"/>
		<path fill-rule="evenodd" clip-rule="evenodd" fill="#F2A40A" d="M40,36.7L16.3,72.9c-1-1-1.6-2.4-1.3-3.9
			c0.7-6.4,1.9-14.8,2.4-18.7c0.1-0.7,0-1.3-0.1-1.9L40,36.7z"/>
		<path fill-rule="evenodd" clip-rule="evenodd" fill="#FBE296" d="M40,36.7V1c1.6,0,3.1,0.9,3.9,2.2c3.1,5.8,7.3,13.2,9.1,16.6
			c0.4,0.7,0.9,1.2,1.5,1.6L40,36.7z"/>
	</g>
	<path fill-rule="evenodd" clip-rule="evenodd" fill="#DDDDDD" d="M121.1,3.3c0.7-1.3,2.2-2.2,3.9-2.2c1.6,0,3.1,0.9,3.9,2.2
		c3.1,5.8,7.1,13.2,9.1,16.6c0.6,1.2,1.8,2.1,3,2.2c3.9,0.7,12.3,2.4,18.7,3.6c1.5,0.3,2.8,1.3,3.3,3c0.6,1.5,0.1,3.1-0.9,4.3
		c-4.5,4.6-10.4,10.8-13.1,13.8c-0.9,0.9-1.3,2.2-1.2,3.6c0.6,3.9,1.6,12.3,2.5,18.7c0.1,1.6-0.4,3.1-1.8,4.2c-1.3,0.9-3,1-4.5,0.3
		c-5.8-2.7-13.7-6.4-17.1-8c-1.2-0.6-2.7-0.6-3.9,0c-3.4,1.6-11.3,5.3-17.1,8c-1.5,0.7-3.1,0.6-4.5-0.3c-1.2-1-1.9-2.5-1.8-4.2
		c0.9-6.4,1.9-14.8,2.5-18.7c0.1-1.3-0.3-2.7-1.2-3.6c-2.7-3-8.6-9.2-13.1-13.8c-1-1.2-1.5-2.8-0.9-4.3c0.4-1.6,1.8-2.7,3.3-3
		c6.4-1.2,14.8-2.8,18.7-3.6c1.2-0.1,2.4-1,3-2.2C113.9,16.5,117.9,9.1,121.1,3.3L121.1,3.3z"/>
</g>
</svg>
