<?xml version="1.0" encoding="utf-8"?>
<!-- Generator: Adobe Illustrator 18.0.0, SVG Export Plug-In . SVG Version: 6.00 Build 0)  -->
<!DOCTYPE svg PUBLIC "-//W3C//DTD SVG 1.1//EN" "http://www.w3.org/Graphics/SVG/1.1/DTD/svg11.dtd">
<svg version="1.1" id="Layer_1" xmlns="http://www.w3.org/2000/svg" xmlns:xlink="http://www.w3.org/1999/xlink" x="0px" y="0px"
	 viewBox="0 0 715 640" enable-background="new 0 0 715 640" xml:space="preserve">
<g>
	<g>
		<g>
			<g>
				<path fill="#F2E2CE" d="M87.4,516.1c-1.8,3.3-3.3,6.8-4.8,10.3c-0.5,1.2-1,2.3-1.5,3.5c-0.4-5.8-0.7-11.6,0.3-17.3
					c0.7-3.8,2-7.4,3.9-10.7c3.1-5.5,7.7-10.1,11.4-15.2c3.8-5.1,6.9-11.1,6.5-17.5c4.4,7.5,2.5,17.2-1.5,24.9
					C97.7,501.9,91.6,508.5,87.4,516.1z"/>
				<path fill="#73B7B4" d="M61.8,512.5c2,0.8,3.9,1.9,5.7,3.2c5.5,3.9,10.5,9,12.4,15.4c-6.5-3.2-13.5-5.6-20.6-7.1
					c-6-1.3-12.4-2.1-17.3-5.8c-4.9-3.8-7.3-10.1-9.4-16c6.2,4.4,13.3,7.3,20.8,8.6C56.2,511.3,59.1,511.5,61.8,512.5z"/>
				<path fill="#73B7B4" d="M69.3,541.5c8.5,6.2,13.1,16.3,17.4,25.9c-2.9-17.6-6.4-35.2-10.3-52.4c-4.6-8.4-10.7-16.6-19.7-19.6
					c-1.8-0.6-3.7-1-5.5-1.7c-4.8-1.9-8.5-5.9-10.8-10.6s-3.2-9.8-3.6-14.9c1.3,4.1,4.7,7.2,8.2,9.8c5.3,3.9,11.2,7.2,16.2,11.6
					c6.6,5.7,11.6,13.3,14.3,21.6c-1.2-5.3-2.5-10.7-3.8-15.9c-1.9-3.1-3.3-6.6-3.9-10.3c-0.5-3.1-0.5-6.3-1.1-9.3
					c-0.8-4.1-2.7-7.9-5.4-11c-2.4-2.8-5.5-5-7.6-7.9c-5.1-7.1-4.1-17.4-9.5-24.3c3,2.8,6,5.6,8.9,8.4c5.9,5.6,12,11.3,16,18.4
					c3.4,6.1,5.3,13.1,5.2,20c0,6.1-1.4,12.2-0.8,18.3c0.2,0.9,0.5,1.9,0.7,3c0.1-3.5,0.9-7,2.2-10.3c1.2-3,3-5.8,4.1-8.8
					c3.6-9.7,0.7-20.7-4.1-29.8c5.5,6.2,11,12.7,13.6,20.6c2.6,7.9,1.6,17.4-4.4,23.1c-3.2,3-7.5,4.7-10.9,7.4
					c2.2,9,5.3,23.3,8.4,37.4c1.8-6,7.8-10,12.4-14.6c6.9-6.9,11.3-16.2,12.1-25.9c1.1,7.6,1.1,15.6-1.6,22.9
					c-2.7,7.2-8.1,13.7-15.4,16.3c-2.4,0.9-5,1.3-7.2,2.5c1.8,8.5,3.6,16.9,5.1,24c0.9-10.1,6.6-19.6,14.9-25.3
					c8.9-6,20.5-7.8,28.1-15.4c-2.7,8.3-8.3,15.6-15.6,20.4c-2.2,1.4-4.5,2.6-6.7,3.9c-7.7,4.4-14.7,10.1-20.7,16.6
					c2.2,10.4,3.8,18.1,4,19.5c5.9,37.4,6.4,43.4,1.6,43c-1.7-20-4.3-40-7.6-59.9c-7.8-4.2-14.9-9.6-22-15c-3.5-2.7-7-5.4-10.5-8
					c-7.4-5.7-15-11.5-19.6-19.7C44.6,533.2,59,533.9,69.3,541.5z"/>
			</g>
			<g>
				<path fill="#E8D6BE" d="M83.3,404c4.7,5.8,8.8,12,12.9,18.3c1.4,2.1,2.7,4.2,4.1,6.2c-1.3-11.2-2.6-22.6-6.6-33.2
					c-2.7-7-6.5-13.6-11.3-19.4c-7.9-9.6-18.3-16.8-27.3-25.3c-9.1-8.5-17.2-19.1-18.6-31.5c-5.9,16,1.1,34.2,11.6,47.6
					C58.7,380.3,72.5,390.8,83.3,404z"/>
				<path fill="#E8D6BE" d="M131.6,388.3c-3.7,2.2-6.8,5-9.8,8.1c-9.3,9.4-17.2,21-18.5,34.1c11.5-8.5,24-15.5,37.2-20.9
					c11.1-4.6,23.3-8.3,31.3-17.3c8.2-9.1,10.6-22,12.7-34.1c-10.4,10.6-23.2,18.8-37.1,23.8C142,383.9,136.5,385.4,131.6,388.3z"/>
				<path fill="#E8D6BE" d="M127.1,446.9c-14.2,15-19.7,36-24.5,56.1c-0.5-35.1,0.2-70.1,1.7-104.8c6-17.7,14.9-35.7,31.2-44.7
					c3.3-1.8,6.8-3.2,10-5.2c8.6-5.3,14.3-14.4,17.1-24.1c2.8-9.7,2.8-20,1.8-30c-1.1,8.4-6.6,15.6-12.5,21.7
					c-8.9,9.4-19,17.8-27.2,27.9c-10.7,13.4-17.7,29.6-20.2,46.6c0.5-10.7,1.1-21.4,1.8-32.1c2.7-6.7,4-13.9,3.9-21.2
					c-0.1-6.1-1.2-12.2-1.1-18.4c0.1-8.1,2.4-16.2,6.6-23.1c3.7-6.2,8.8-11.5,11.9-18c7.4-15.5,1.8-35,9.8-50.2
					c-4.8,6.5-9.6,12.9-14.3,19.4c-9.5,12.9-19.2,26-24.4,41.1c-4.5,12.9-5.6,27-3.2,40.5c2.1,11.8,6.9,23.1,7.8,35
					c-0.1,1.8-0.3,3.8-0.4,6c-1.5-6.8-4.2-13.3-7.9-19.1c-3.4-5.4-7.7-10.2-11-15.6c-10.3-17.5-8.6-39.7-2.5-59
					c-8.5,13.8-16.8,28.3-19.1,44.4c-2.2,16.1,3,34.2,16.6,43c7.2,4.7,16,6.4,23.6,10.6c-1,18.2-2.2,46.7-3.2,75.1
					c-5.6-11-18.5-16.7-28.9-23.9c-15.7-10.9-27.4-27.4-32.4-45.8c0.4,15.1,3.4,30.5,11,43.6c7.7,13.1,20.5,23.6,35.4,26.1
					c4.9,0.8,10,0.9,14.8,2.3c-0.6,17-1.1,33.8-1.6,48.1c-5.3-19.1-19.5-35.6-37.6-43.6C41.1,447,18,447.6,0.8,435.5
					c8,15.1,21.4,27.3,37.1,33.9c4.7,2,9.5,3.4,14.3,5.1c16.4,5.8,31.9,14.3,45.8,24.9c-0.6,20.8-1,36.2-0.9,39.1
					c1.6,74.2,2.7,86.1,11.7,83.6c-3.7-39.1-5.6-78.7-6.2-118.3c13.6-10.9,25.4-23.8,37.2-36.6c5.8-6.4,11.7-12.8,17.5-19.2
					c12.4-13.5,25-27.5,31.1-44.8C171.9,422.3,144.5,428.6,127.1,446.9z"/>
			</g>
		</g>
		<g>
			<g>
				<path fill="#73B7B4" d="M687,496.2c2.1-0.1,4.2,0.2,5.9,1.3c1.4,0.9,2.5,2.3,3.3,3.8c3,5.5,2.8,12.3,1.1,18.4
					c-1.3,4.8-2.8,8.4-7.7,10.4c1,0,2,0,2.9,0c1,0-2.9,7.6-3.2,8.1c-2.7,4.8-5.7,12.7-11.6,13.9c-3.1,0.7-6.2,1.9-8.8,3.7
					c3-0.3,6.1-0.4,9.2-0.3c0.2,0-3.4,4.1-3.7,4.5c-1.9,2-4.2,1.6-7,1.7c1.3,0.7,2.6,1.4,3.9,2.1c-0.8-0.5-12.7,12.5-14,13.6
					c-8.4,7.7-16.2,14.7-23.7,23.2c-7.3,8.4-19.5,27.6-21,27c-1-0.2-1.6-1.1-1.8-2.1c-0.2-1,0.1-1.9,0.3-2.9
					c3.5-14.3,8.2-28.4,13.6-42.1c1.4-3.4,16-37.3,16.5-37.1c0.3,0.2,0.3,0.6,0.3,1c-0.1,1.4,0.4,2.7,1.2,3.8
					c1.5-6.6,2.5-12.6,6.1-18.4c3.4-5.6,7-11.2,11.2-16.3c1.2-1.4,2.3-2.9,3.7-4c0.4,1.7,0.2,3.7,0.2,5.6c0,0.2,0,0.4,0.1,0.5
					c0.4,0.4,1-0.2,1.2-0.7c0.9-2.6,1.2-5.5,2.2-8c1-2.5,1.7-2.9,4-4.6c4.4-3.2,8.4-5.8,14-6.3C686,496.2,686.5,496.2,687,496.2z"/>
				
					<path fill="none" stroke="#97D8D6" stroke-width="1.3998" stroke-linecap="round" stroke-linejoin="round" stroke-miterlimit="10" d="
					M612.5,626.6c21.1-48.9,62.7-108,77.4-124.6"/>
				
					<path fill="none" stroke="#97D8D6" stroke-width="1.3998" stroke-linecap="round" stroke-linejoin="round" stroke-miterlimit="10" d="
					M654.3,551.1c8.8-0.8,16.9-6.3,25.7-10.8"/>
				
					<path fill="none" stroke="#97D8D6" stroke-width="1.3998" stroke-linecap="round" stroke-linejoin="round" stroke-miterlimit="10" d="
					M646.7,563c1.1-14,4-25.5,9.9-38.3"/>
				
					<path fill="none" stroke="#97D8D6" stroke-width="1.3998" stroke-linecap="round" stroke-linejoin="round" stroke-miterlimit="10" d="
					M672.7,507.3c-3.1,7.6-4.8,16.4-5.4,24.6"/>
				
					<path fill="none" stroke="#97D8D6" stroke-width="1.3998" stroke-linecap="round" stroke-linejoin="round" stroke-miterlimit="10" d="
					M672.4,524.5c4.5,1.1,12.2-0.2,17.3-3"/>
				
					<path fill="none" stroke="#97D8D6" stroke-width="1.3998" stroke-linecap="round" stroke-linejoin="round" stroke-miterlimit="10" d="
					M631.2,589.1c8.8-2.7,17.7-11.4,24.7-18"/>
				
					<path fill="none" stroke="#97D8D6" stroke-width="1.3998" stroke-linecap="round" stroke-linejoin="round" stroke-miterlimit="10" d="
					M625.5,599.5c1.4-11.3,3.8-17.7,8.3-30"/>
			</g>
			<g>
				<path fill="#95C3B0" d="M671.7,276.5c4.5-1.8,9.4-2.8,14.1-1.8c3.8,0.9,7.2,3.1,10.2,5.7c7.1,6.4,17.8,19.3,8.2,27.6
					c-2.8,2.5-6.3,4.8-7.2,8.4c4.9-1.9,10-3.8,15.2-2.9c4.2,12.8,1,31.2-0.7,44.3c-1.9,15-5.2,29.8-9.2,44.3
					c-3,10.9-5.1,18.4-16,23.3c-5,2.3-10.4,4.1-14.3,8c2.7-2.7,15.4-2.8,19-2.6c-1.2,16-12.9,33.5-20.2,47.4
					c-5.4,10.2-10.8,20.4-16,30.8c-2.6,5.2-5.2,10.4-7.6,15.7c-2.2,4.7-3.5,9.7-7.9,12.7c-3,2-5.5,4.7-7.5,7.7
					c2.3-0.8,4.6-1.7,6.9-2.3c0.8,2.9-1.2,5-2.4,7.5c-1.5,3.3-2.6,6.9-3.7,10.4c-2.4,7.2-4.6,14.5-6.8,21.8
					c-2.2,7.4-4.2,14.8-6.4,22.2c-1.9,6.6-3.2,15.1-6.6,21.2c-1.5,2.6-3.9,2-5,0c-1.1-2-2.3-9.5-2.5-11.8c-6.7-62.2-3.9-125,3-187.3
					c1.9-17,4.1-33.9,7.5-50.7c1.7-8.6,3.8-17,6.2-25.4c1-3.5,5.2-21.6,8.5-10.2c0.6,2.2,1.2,4.3,1.9,6.5c-0.4-7.7-0.6-15.3-0.4-23
					c0-1,0.1-2.1,0.4-3.1c0.2-0.7,0.7-1.4,1.1-2.1c4.8-8.1,8-16.6,14-24.1c2.8-3.5,5.9-6.8,9.4-9.6c3.3-2.7,8.7-4.4,11.6-7.4
					C669.4,277.5,670.5,277,671.7,276.5z"/>
				
					<path fill="none" stroke="#A7D9CE" stroke-width="3.2632" stroke-linecap="round" stroke-linejoin="round" stroke-miterlimit="10" d="
					M610.2,625.3c7.7-123.8,53.3-290.2,72.3-338.2"/>
				
					<path fill="none" stroke="#A7D9CE" stroke-width="3.2632" stroke-linecap="round" stroke-linejoin="round" stroke-miterlimit="10" d="
					M643.2,422.9c18.7-8.7,32.1-27.3,47.9-43.9"/>
				
					<path fill="none" stroke="#A7D9CE" stroke-width="3.2632" stroke-linecap="round" stroke-linejoin="round" stroke-miterlimit="10" d="
					M635.9,455c-8.6-31.7-11.2-59-8.4-91.7"/>
				
					<path fill="none" stroke="#A7D9CE" stroke-width="3.2632" stroke-linecap="round" stroke-linejoin="round" stroke-miterlimit="10" d="
					M649,312.3c-0.9,19.1,2.5,39.6,7.5,58.1"/>
				
					<path fill="none" stroke="#A7D9CE" stroke-width="3.2632" stroke-linecap="round" stroke-linejoin="round" stroke-miterlimit="10" d="
					M662.1,350.2c10.7-1.1,26.6-10,35.6-20.2"/>
				
					<path fill="none" stroke="#A7D9CE" stroke-width="3.2632" stroke-linecap="round" stroke-linejoin="round" stroke-miterlimit="10" d="
					M622.5,524.5c17.2-12.9,29.7-39,40.1-59"/>
				
					<path fill="none" stroke="#A7D9CE" stroke-width="3.2632" stroke-linecap="round" stroke-linejoin="round" stroke-miterlimit="10" d="
					M618.2,551.6c-5.8-26-5.6-41.9-5.6-72.3"/>
			</g>
			<g>
				<path fill="#73B7B4" d="M575.7,326.6c-3.8-1.8-7.9-3-12-2.3c-3.3,0.5-6.4,2.2-9,4.3c-9.9,7.8-15,20.4-16.8,32.9
					c-0.6,4.2-1,8.5-1.2,12.8c-0.1,2.1-1.9,9.6-1.3,11.1c1.2,3.2,14.2,6.3,18,9.4c-5.1-1.8-10.5-5.1-15.6-3.2
					c-0.3,0.1-0.7,0.3-0.9,0.6c-0.3,0.4-0.3,0.8-0.3,1.3c0.1,12.9,3,26.6,5.6,39.2c1.4,6.9,4.2,13.9,5.1,20.8c2.5,1.5,4.9,3,7.4,4.5
					c1.9,1.2,4,2.5,5,4.5c-1.3-2.6-7.9-3.8-10.4-3.8c-0.5,5.7,4.1,13.2,6.1,18.4c2.9,7.6,6.1,15.2,9.4,22.7
					c3.3,7.3,5.8,17.4,10.4,23.8c3.6,4.9,10,6.1,12.3,12.9c-3.3-2.1-6.5-4.1-9.8-6.2c2.9,1.8,4.4,10.1,5.5,13.1c2.3,6,4.4,12,6.3,18
					c6.8,21.2,13.7,66.2,16.8,66.4c1.9,0.5,3.9-0.7,5-2.3c1.1-1.6,1.4-3.6,1.8-5.5c4.7-26.6,7.3-53.6,8.5-80.6
					c0.6-13.7,0.8-27.5,0.7-41.2c0-6.7-0.1-13.4-0.3-20c0-1.5-2.6-13.6-1.8-14.3c-3.3,3-6.2,6.3-8.8,9.8c1.3-6.4,3.6-12.6,6.8-18.3
					c5.6-9.8,1.5-25,0.2-35.8c-1.6-13.1-3.9-26.1-7.5-38.8c-0.8-2.8-2-5.4-2.6-8.2c-0.6-1.1-2.3-0.1-3,0.9
					c-2.4,3.5-4.2,7.5-5.3,11.6c0.3-6.6,1.6-13.1,3.9-19.3c0.5-1.4,1.1-2.9,0.9-4.3c-2.1-12.5-15.7-27.3-26.4-33.2
					C577.7,327.6,576.7,327.1,575.7,326.6z"/>
				
					<path fill="none" stroke="#97D8D6" stroke-width="2.8018" stroke-linecap="round" stroke-linejoin="round" stroke-miterlimit="10" d="
					M607.8,625.7c0.6-106.5-28.4-248.4-41.9-290.6"/>
				
					<path fill="none" stroke="#97D8D6" stroke-width="2.8018" stroke-linecap="round" stroke-linejoin="round" stroke-miterlimit="10" d="
					M591.7,453.7c-15.5-8.5-25.9-25.2-38.5-40.4"/>
				
					<path fill="none" stroke="#97D8D6" stroke-width="2.8018" stroke-linecap="round" stroke-linejoin="round" stroke-miterlimit="10" d="
					M596.1,481.6c9.2-26.6,13-49.9,12.5-78.1"/>
				
					<path fill="none" stroke="#97D8D6" stroke-width="2.8018" stroke-linecap="round" stroke-linejoin="round" stroke-miterlimit="10" d="
					M593.1,358.6c-0.3,16.5-4.4,33.8-9.8,49.4"/>
				
					<path fill="none" stroke="#97D8D6" stroke-width="2.8018" stroke-linecap="round" stroke-linejoin="round" stroke-miterlimit="10" d="
					M579.7,390.4c-9.1-1.6-22.2-10.1-29.3-19.3"/>
				
					<path fill="none" stroke="#97D8D6" stroke-width="2.8018" stroke-linecap="round" stroke-linejoin="round" stroke-miterlimit="10" d="
					M603.6,541.9c-14-12-23.2-35.1-30.9-52.9"/>
				
					<path fill="none" stroke="#97D8D6" stroke-width="2.8018" stroke-linecap="round" stroke-linejoin="round" stroke-miterlimit="10" d="
					M605.7,565.4c6.5-22,7.2-35.6,8.9-61.6"/>
			</g>
		</g>
	</g>
	<path id="Shadow_23_" fill="#F0F0F0" d="M442.9,518.2c47.2,27.2,47.2,71.4,0,98.6c-47.2,27.2-123.7,27.2-170.8,0
		c-47.2-27.2-47.2-71.4,0-98.6C319.3,490.9,395.7,490.9,442.9,518.2z"/>
	<g id="Speech_Bubble">
		<g>
			<g>
				<path fill="#004B82" d="M482.5,89.2c-0.8,1.7-2,3-3.4,4c-1.4,0.9-3.3,1.5-5.6,1.8c-3.1,0.4-5.6,0-7.4-1.2
					c-1.8-1.2-2.9-3.5-3.3-6.9c-0.1-1-0.2-2.2-0.2-3.7l0.1-7.6l-4.2,0.6l-1.3-8.2l5.6-0.8l0.1-4.1l9.4-1.6l0,4.4l5.3-0.7l2,8.3
					l-7.4,0.9l0,6.6c0,0.2,0,0.5,0.1,0.9c0.1,1.1,0.5,1.9,1.2,2.5c0.7,0.6,1.4,0.9,2.3,0.8c1.4-0.2,2.5-1.1,3.3-2.9L482.5,89.2z"/>
				<path fill="#004B82" d="M516.8,89.1l-10.6,1.3l-2.4-13.7c-0.2-1.4-0.7-2.5-1.5-3.3c-0.7-0.9-1.8-1.2-3.1-1
					c-2.4,0.3-3.4,2.5-3.2,6.6l1.6,12.4L487,92.5l-5.5-40.8l11.1,0l1.9,14.3c1.6-1.8,4-3,7.1-3.3c1.8-0.2,3.6,0,5.5,0.7
					c1.9,0.7,3.5,1.9,4.8,3.5c1.3,1.6,2.2,3.6,2.5,5.9L516.8,89.1z"/>
				<path fill="#004B82" d="M539.4,86.4l-0.2-1.9c-1.5,2-4,3.2-7.4,3.6c-2.2,0.3-4.4-0.1-6.4-1.2c-2-1.1-3.7-2.7-5.1-4.7
					c-1.4-2.1-2.2-4.4-2.5-6.9c-0.3-2.5,0-4.9,0.9-7.3c0.9-2.3,2.2-4.3,4-5.8c1.7-1.5,3.6-2.4,5.7-2.7c3.4-0.4,5.9,0.2,7.6,1.8
					l-0.2-1.9l8.8-1.1l4.5,26.9L539.4,86.4z M536.7,76.5c0.7-1,1-2.2,0.8-3.7c-0.2-1.5-0.8-2.6-1.8-3.3c-1-0.7-2.2-1-3.6-0.9
					c-1.3,0.2-2.4,0.7-3.2,1.7c-0.8,1-1.1,2.1-1,3.5c0.1,0.8,0.4,1.5,0.9,2.2c0.5,0.7,1.1,1.3,1.9,1.7c0.8,0.4,1.6,0.5,2.6,0.4
					C534.8,78,535.9,77.5,536.7,76.5z"/>
				<path fill="#004B82" d="M567.6,70.4c-0.2-1.6-0.6-2.9-1.3-3.7c-0.7-0.8-1.6-1.2-2.7-1c-1.2,0.1-2,0.7-2.4,1.5
					c-0.4,0.9-0.5,2.1-0.3,3.9l-0.1,0l1.5,12.6l-10.6,1.3l-3.5-27.4l10.8-1.9l0.2,2c2-2,4.1-3.1,6.4-3.4c3.5-0.4,6.3,0.6,8.3,2.9
					c2.1,2.4,3.4,5.8,3.9,10.4l1.7,13.7l-10.8,1.3L567.6,70.4z"/>
				<path fill="#004B82" d="M612.7,77.5l-10.6,1.9l-8.7-9.8l1.2,9.9L583.9,81L579,39.9l10.7-1.8l2.6,22.4l4.3-9.1l10.8-0.5l-6.2,13
					L612.7,77.5z"/>
			</g>
		</g>
		<g>
			<g>
				<path fill="#004B82" d="M562.4,92.8l-4.5,27.7c-0.8,4.8-2.3,8.4-4.5,11c-2.2,2.5-4.8,4-8,4.3c-1.3,0.2-2.7,0.1-4.3-0.1
					c-1.6-0.2-3.2-0.6-4.7-1.1l2.7-10.5c0.4,0.4,1.1,0.9,2.4,1.3c1.2,0.4,2.1,0.6,2.8,0.5c1.1-0.1,1.9-0.5,2.6-1.2
					c0.6-0.7,1.1-1.6,1.4-2.7l-15.7-24.8l10.9-1.4l6.8,12.9l1.8-14.1L562.4,92.8z"/>
				<path fill="#004B82" d="M573.1,118.4c-2.5-1.1-4.5-2.7-6.2-4.9c-1.6-2.1-2.6-4.6-3-7.2c-0.3-2.5,0.1-4.9,1.2-7.1
					c1.1-2.3,2.7-4.2,4.8-5.7c2.2-1.5,4.7-2.5,7.5-2.8c2.7-0.3,5.3,0,7.6,0.9c2.3,1,4.2,2.4,5.7,4.4c1.5,2,2.4,4.3,2.7,6.8
					c0.3,2.7,0,5.3-1.1,7.7c-1,2.5-2.6,4.5-4.7,6.1c-2.1,1.6-4.4,2.6-7,2.9C578.1,119.9,575.6,119.5,573.1,118.4z M582.6,108
					c0.8-1,1.1-2.2,0.9-3.5c-0.1-1.2-0.7-2.2-1.7-3.1c-1-0.8-2.1-1.2-3.5-1c-1.4,0.2-2.5,0.8-3.3,1.7c-0.8,1-1.1,2.1-0.9,3.5
					c0.2,1.3,0.8,2.4,1.8,3.2c1,0.8,2.2,1.1,3.5,1C580.8,109.6,581.8,109,582.6,108z"/>
				<path fill="#004B82" d="M615.9,115.3l-0.2-2c-2,2-4.1,3.1-6.4,3.4c-3.5,0.4-6.3-0.6-8.3-2.9c-2.1-2.4-3.4-5.8-3.9-10.4
					l-1.7-13.7l10.8-1.3l1.2,12.4c0.2,1.6,0.6,2.9,1.3,3.7c0.7,0.8,1.6,1.2,2.7,1c1.2-0.1,2-0.7,2.4-1.5c0.4-0.9,0.5-2.1,0.3-3.9
					l0.1,0l-1.5-12.6l10.6-1.3l3.4,27.4L615.9,115.3z"/>
				<path fill="#004B82" d="M629.6,98.7l-4.1-24.6l11.2-1.3l2.8,23.9L629.6,98.7z M632,109.8c-1.2-1-1.9-2.3-2.1-3.8
					c-0.1-1,0-2,0.5-2.9c0.5-0.9,1.1-1.7,2-2.3c0.9-0.6,1.8-1,2.8-1.1c1.5-0.2,2.8,0.2,4,1c1.2,0.9,1.8,2.1,2,3.8
					c0.2,1.6-0.2,3.1-1.1,4.3c-0.9,1.3-2.2,2-3.8,2.2C634.7,111.2,633.2,110.8,632,109.8z"/>
				<path fill="#004B82" d="M645.7,96.8l-4.1-24.6l11.2-1.3l2.8,23.9L645.7,96.8z M648.1,107.9c-1.2-1-1.9-2.3-2.1-3.8
					c-0.1-1,0-2,0.5-2.9c0.5-0.9,1.1-1.7,2-2.3c0.9-0.6,1.8-1,2.8-1.1c1.5-0.2,2.8,0.2,4,1c1.2,0.9,1.8,2.1,2,3.8
					c0.2,1.6-0.2,3.1-1.1,4.3c-0.9,1.3-2.2,2-3.8,2.2C650.8,109.3,649.4,108.9,648.1,107.9z"/>
				<path fill="#004B82" d="M661.9,94.8l-4-24.6l11.2-1.3l2.8,23.9L661.9,94.8z M664.3,105.9c-1.2-1-1.9-2.3-2.1-3.8
					c-0.1-1,0-2,0.5-2.9c0.5-0.9,1.1-1.7,2-2.3c0.9-0.6,1.8-1,2.8-1.1c1.5-0.2,2.8,0.2,4,1c1.2,0.9,1.8,2.1,2,3.8
					c0.2,1.6-0.2,3.1-1.1,4.3c-0.9,1.3-2.2,2-3.8,2.2C666.9,107.3,665.5,106.9,664.3,105.9z"/>
			</g>
		</g>
		<g>
			<g>
				<path fill="#27DEBF" d="M425.5,143.5c1.4,2,4.5,2.6,6.7,3.1c1.6,0.4,3.2,0.7,4.8,1c3,0.5,6.1,0.9,9.1,1
					c5.9,0.2,11.8-0.4,17.6-1.7c5.2-1.2,10.4-2.9,15.1-5.5c4.6-2.5,8.8-5.7,12.5-9.3c4.2-4.1,8.5-8.8,10.5-14.4
					c0.3-0.9,0-1.7-0.8-2.3c-0.6-0.4-2-0.8-2.6-0.1c-3.6,4.3-6.7,9-10.7,12.9c-3.4,3.4-7.3,6.4-11.5,8.8c-8.8,4.9-19.3,7.1-29.3,7
					c-3.1,0-6.3-0.2-9.4-0.6c-1.5-0.2-3.1-0.5-4.6-0.8c-2.2-0.5-4.6-1.3-6.9-1.2C425.2,141.6,425,142.8,425.5,143.5L425.5,143.5z"/>
			</g>
		</g>
		<g>
			<g>
				<path fill="#27DEBF" d="M603.6,31.1c-1.1-0.1-2-1.1-1.9-2.3l1.3-24c0.1-1.2,1.1-2.1,2.3-2.1c1.2,0.1,2.1,1.1,2.1,2.3l-1.3,24
					c-0.1,1.2-1.1,2.1-2.3,2.1C603.8,31.1,603.7,31.1,603.6,31.1z"/>
			</g>
			<g>
				<path fill="#27DEBF" d="M616.7,35.3c-0.3,0-0.6-0.2-0.9-0.3c-1-0.7-1.3-2-0.6-3l13.2-20.1c0.7-1,2-1.3,3-0.6c1,0.7,1.3,2,0.6,3
					l-13.2,20.1C618.4,35.1,617.5,35.4,616.7,35.3z"/>
			</g>
			<g>
				<path fill="#27DEBF" d="M625.3,44.7c-0.8-0.1-1.5-0.7-1.8-1.5c-0.4-1.1,0.2-2.4,1.4-2.8l22.8-7.7c1.1-0.4,2.4,0.2,2.8,1.4
					c0.4,1.1-0.2,2.4-1.4,2.8l-22.8,7.7C625.9,44.7,625.6,44.8,625.3,44.7z"/>
			</g>
		</g>
		<g>
			<g>
				<path fill="#27DEBF" d="M560,171.5c-0.9,0-1.8-0.6-2.1-1.5l-7.7-22.8c-0.4-1.1,0.2-2.4,1.4-2.8c1.2-0.4,2.4,0.2,2.8,1.4
					l7.7,22.8c0.4,1.1-0.2,2.4-1.4,2.8C560.4,171.4,560.2,171.5,560,171.5z"/>
			</g>
			<g>
				<path fill="#27DEBF" d="M533.7,173.2c-0.1,0-0.3,0-0.4,0c-1.2-0.2-1.9-1.4-1.7-2.6l4.8-23.5c0.2-1.2,1.4-1.9,2.6-1.7
					c1.2,0.2,1.9,1.4,1.7,2.6l-4.8,23.5C535.7,172.5,534.7,173.2,533.7,173.2z"/>
			</g>
			<g>
				<path fill="#27DEBF" d="M508.9,159.8c-0.6,0-1.2-0.3-1.7-0.8c-0.8-0.9-0.7-2.3,0.2-3.1l18.3-15.6c0.9-0.8,2.3-0.7,3.1,0.2
					c0.8,0.9,0.7,2.3-0.2,3.1l-18.3,15.6C509.9,159.6,509.4,159.8,508.9,159.8z"/>
			</g>
		</g>
	</g>
	<g id="Balloons_5_">
		<path fill="#E1E1E1" d="M268.9,386.8c4.4,9.2,3.7,20.7,4.6,30.6c1,10.4,3.1,20.5,5.7,30.7c5.5,21.4,12.6,42.9,14.6,65
			c1.1,11.8-0.3,23-1.6,34.7c0,0.3,0.5,0.7,0.6,0.3c6.2-20.9,1.8-43.7-3-64.4c-5-21.4-12.5-42.5-14.7-64.4c-0.6-6.1-1-12.3-1.7-18.4
			c-0.6-5-1.1-10-3.9-14.4C269.2,386.1,268.7,386.4,268.9,386.8L268.9,386.8z"/>
		<path fill="#E1E1E1" d="M265.2,391.1c1.9,0.9,4.7,3.7,2.7,6c-0.8,0.6-1.7,1-2.7,1c-0.7,0-0.7,0.1,0,0.4c0.1,0.5,0.1,1,0.2,1.6
			c-2.7,1-3.9,2.8-3.6,5.5c-0.5,0.8-1.5,1.4-2.2,1.9c-0.3,0.2,0,0.8,0.3,0.6c2.3-1.1,5.3-4.1,2.8-6.6c-0.8-0.8-2.8-1.5-3.3,0
			c-0.7,2.2,3.4,2.6,4.6,2.3c2.7-0.7,3.1-3.6,2.2-5.9c-0.7-1.9-3.4-3.9-5.4-2c-1.3,1.2-0.3,2.6,1.2,3.2c2.5,1,6.8,0.2,7.6-2.7
			c0.8-3-1.8-5.2-4.5-5.8C264.8,390.4,264.9,391,265.2,391.1L265.2,391.1z"/>
		<path fill="#E1E1E1" d="M231.2,347.6c2.4,6.9,4.2,13.9,6.6,20.8c2.1,6.1,5,11.8,7.3,17.9c5.1,13.5,7.5,27.6,10.3,41.6
			c1.4,7,2.8,14,5.2,20.7c2.1,6.1,4.9,11.8,7.7,17.6c5.9,12.1,12,24.3,16.5,37.1c2.5,7.1,4.3,14.5,6.2,21.8
			c2.1,8.2,3.8,16.5,4.1,25.1c0,0.4,0.6,0.7,0.7,0.2c0.4-7.4-0.9-14.7-2.7-21.9c-1.6-6.6-3.2-13.4-5.2-19.9
			c-4-13-9.9-25.3-15.8-37.5c-3-6.1-6.1-12.2-8.6-18.5c-2.5-6.3-4.3-12.8-5.7-19.4c-3-13.9-4.9-28.1-9.5-41.6
			c-2.5-7.4-6-14.3-8.7-21.6c-2.7-7.5-4.5-15.2-7.8-22.5C231.6,347.2,231,347.1,231.2,347.6L231.2,347.6z"/>
		<path fill="#E1E1E1" d="M240.8,455c2.6,4.3,4.1,9.1,6.7,13.4c1.8,3,4.2,5.7,6.5,8.4c6.9,7.7,14.8,14.8,20.6,23.5
			c6,9,9.1,19.6,11.7,30c1.3,5.2,2.4,10.4,3.7,15.5c0.6,2.2,1.1,4.4,2.2,6.4c1.1,2.1,2.4,4,3.4,6.2c0.3,0.7,1.6,0.4,1.3-0.4
			c-0.9-2.2-2.3-4-3.4-6.1c-1.2-2.3-1.7-4.8-2.4-7.3c-1.3-5.1-2.4-10.3-3.7-15.4c-2.3-9.3-5.1-18.5-10-26.8
			c-4.9-8.2-11.8-14.9-18.3-21.8c-4.2-4.5-8.7-8.9-11.6-14.3c-2.1-3.9-3.6-7.9-6.2-11.5C241.1,454.4,240.5,454.6,240.8,455
			L240.8,455z"/>
		<path fill="#E1E1E1" d="M240.6,459.3c0.4,0.7,0.8,1.3,1,2.1c0.2,0.9,0,4.8-1.8,5.1c-0.9-0.4-1.7-0.9-2.6-1.3
			c3.9,0.9,5.3,2.9,4.1,5.8c-0.5,0.5-1,1-1.4,1.4c0.5,2.1-0.2,3.6-2.1,4.3c-0.5,0.2,0.1,0.9,0.5,0.8c7.4-2.3-0.8-10.3-2.9-6.9
			c-1.3,2.1,2.1,3.3,3.6,3.2c2.6-0.3,4.3-2.6,3.9-5.1c-0.3-2.4-2.3-4.5-4.8-4.6c-1.8,0-4.4,1.4-2.7,3.3c1.5,1.8,4.8,0.5,6.1-0.9
			c2.1-2.3,1.4-5.4-0.3-7.6C240.7,458.6,240.4,459,240.6,459.3L240.6,459.3z"/>
		<g>
			<g id="XMLID_101_">
				<g id="XMLID_102_">
					<path id="XMLID_104_" fill="#27DEBF" d="M234.6,349L234.6,349c-0.7-2.3-7.4-7.2-8.3-6.9c-0.9,0.3-3.4,7.8-2.6,10.2l0,0
						c0.2,0.8,1,1.5,2.3,1.8c2.5,0.6,6-0.4,7.7-2.3C234.5,350.8,234.8,349.8,234.6,349L234.6,349L234.6,349z"/>
					<path id="XMLID_103_" opacity="0.1" d="M234.6,349L234.6,349c-0.7-2.3-7.4-7.2-8.3-6.9c-0.9,0.3-3.4,7.8-2.6,10.2l0,0
						c0.2,0.8,1,1.5,2.3,1.8c2.5,0.6,6-0.4,7.7-2.3C234.5,350.8,234.8,349.8,234.6,349L234.6,349L234.6,349z"/>
				</g>
			</g>
			<path id="XMLID_100_" fill="#27DEBF" d="M256.7,272.8c-1.7-5.7-5.5-10.3-10.4-13.1l0,0l-0.1-0.1c-5.7-3.3-12.8-4.3-19.7-2.3
				c-8.3,2.5-13.8,10.8-15.7,19.6c-0.7,3.1-4.6,4.3-6.8,2.1c-6.4-6.2-15.6-10.2-23.9-7.7c-6.9,2.1-12.3,6.9-15.2,12.8l-0.1,0.1l0,0
				c-2.5,5.1-3.1,11-1.4,16.7c5.3,17.8,27.8,30.3,45.7,37.6l18.8,7.7l11.5-16.8C250.1,313.3,262,290.5,256.7,272.8z"/>
			<path id="XMLID_99_" opacity="0.2" d="M256.7,272.8c-1.7-5.7-5.5-10.3-10.4-13.1l0,0l-0.1-0.1c-5.7-3.3-12.8-4.3-19.7-2.3
				c-8.3,2.5-13.8,10.8-15.7,19.6c-0.7,3.1-4.6,4.3-6.8,2.1c-6.4-6.2-15.6-10.2-23.9-7.7c-6.9,2.1-12.3,6.9-15.2,12.8l-0.1,0.1l0,0
				c-2.5,5.1-3.1,11-1.4,16.7c5.3,17.8,27.8,30.3,45.7,37.6l18.8,7.7l11.5-16.8C250.1,313.3,262,290.5,256.7,272.8z"/>
			<path id="XMLID_98_" opacity="0.1" d="M257.4,289c-1.8,4.3-16.9,33.9-38.9,35.3c-26.2,1.6-55.5-21-53.9-40.2
				c-2.5,5.1-3.1,11-1.4,16.7c5.3,17.8,27.8,30.3,45.7,37.6l18.8,7.7l11.5-16.8C247,317.9,255.3,303.1,257.4,289z"/>
		</g>
		<g>
			<g id="XMLID_94_">
				<g id="XMLID_95_">
					<path id="XMLID_97_" fill="#27DEBF" d="M245,454.4L245,454.4c-1.3-2.1-9-5.1-9.8-4.6c-0.8,0.5-1.3,8.4,0.1,10.6l0,0
						c0.4,0.7,1.4,1.2,2.6,1.1c2.6-0.1,5.6-2,6.9-4.2C245.4,456.1,245.5,455.1,245,454.4L245,454.4L245,454.4z"/>
					<path id="XMLID_96_" opacity="0.3" fill="#FFFFFF" d="M245,454.4L245,454.4c-1.3-2.1-9-5.1-9.8-4.6c-0.8,0.5-1.3,8.4,0.1,10.6
						l0,0c0.4,0.7,1.4,1.2,2.6,1.1c2.6-0.1,5.6-2,6.9-4.2C245.4,456.1,245.5,455.1,245,454.4L245,454.4L245,454.4z"/>
				</g>
			</g>
			<path id="XMLID_93_" fill="#27DEBF" d="M246.8,375c-3.1-5.1-8-8.5-13.4-10l0,0l-0.1,0c-6.3-1.7-13.5-0.9-19.7,2.9
				c-7.4,4.6-10.6,14-10.2,23c0.1,3.2-3.3,5.3-6.1,3.7c-7.8-4.4-17.7-5.8-25.1-1.3c-6.2,3.8-10.1,9.8-11.4,16.2l0,0.1l0,0
				c-1.1,5.5-0.2,11.4,2.9,16.5c9.7,15.8,34.6,22.1,53.8,24.6l20.2,2.6l6.8-19.2C250.9,415.9,256.5,390.8,246.8,375z"/>
			<path id="XMLID_92_" opacity="0.5" fill="#FFFFFF" d="M246.8,375c-3.1-5.1-8-8.5-13.4-10l0,0l-0.1,0c-6.3-1.7-13.5-0.9-19.7,2.9
				c-7.4,4.6-10.6,14-10.2,23c0.1,3.2-3.3,5.3-6.1,3.7c-7.8-4.4-17.7-5.8-25.1-1.3c-6.2,3.8-10.1,9.8-11.4,16.2l0,0.1l0,0
				c-1.1,5.5-0.2,11.4,2.9,16.5c9.7,15.8,34.6,22.1,53.8,24.6l20.2,2.6l6.8-19.2C250.9,415.9,256.5,390.8,246.8,375z"/>
			<path id="XMLID_91_" opacity="5.000000e-002" d="M251.7,390.6c-0.7,4.7-7.6,37.1-28.5,44.1c-24.9,8.3-59.1-6-62.4-25
				c-1.1,5.5-0.2,11.4,2.9,16.5c9.7,15.8,34.6,22.1,53.8,24.6l20.2,2.6l6.8-19.2C249,421.2,253.2,404.7,251.7,390.6z"/>
		</g>
		<g>
			<g id="XMLID_87_">
				<g id="XMLID_88_">
					<path id="XMLID_90_" fill="#27DEBF" d="M274.5,387.4L274.5,387.4c-0.8-2.3-7.7-6.8-8.6-6.5c-0.9,0.3-3,7.9-2.1,10.3l0,0
						c0.3,0.8,1.1,1.4,2.4,1.6c2.5,0.5,5.9-0.7,7.6-2.7C274.5,389.2,274.8,388.2,274.5,387.4L274.5,387.4L274.5,387.4z"/>
					<path id="XMLID_89_" opacity="0.1" d="M274.5,387.4L274.5,387.4c-0.8-2.3-7.7-6.8-8.6-6.5c-0.9,0.3-3,7.9-2.1,10.3l0,0
						c0.3,0.8,1.1,1.4,2.4,1.6c2.5,0.5,5.9-0.7,7.6-2.7C274.5,389.2,274.8,388.2,274.5,387.4L274.5,387.4L274.5,387.4z"/>
				</g>
			</g>
			<path id="XMLID_86_" fill="#27DEBF" d="M292.6,310.2c-2-5.6-6-10-11-12.6l0,0l-0.1-0.1c-5.8-3-13-3.7-19.8-1.2
				c-8.2,2.9-13.3,11.5-14.7,20.4c-0.5,3.1-4.3,4.5-6.7,2.4c-6.7-5.9-16.1-9.4-24.3-6.4c-6.8,2.4-12,7.5-14.6,13.5l0,0.1l0,0
				c-2.2,5.2-2.6,11.1-0.6,16.7c6.3,17.5,29.3,28.8,47.6,35.2l19.2,6.7l10.6-17.4C288.2,351,298.8,327.6,292.6,310.2z"/>
			<path id="XMLID_85_" opacity="0.1" d="M294.2,326.4c-1.6,4.4-15.1,34.8-37,37.2c-26,2.9-56.5-18.1-55.9-37.4
				c-2.2,5.2-2.6,11.1-0.6,16.7c6.3,17.5,29.3,28.8,47.6,35.2l19.2,6.7l10.6-17.4C285.3,355.8,292.7,340.5,294.2,326.4z"/>
		</g>
	</g>
	<g id="Balloons_1_">
		<path fill="#E1E1E1" d="M474.1,397.5c-2.8,4.2-4.3,9.2-5.5,14c-1.4,5.4-2.7,10.9-3.7,16.5c-2.2,12.1-3.4,24.4-5.1,36.5
			c-1.7,12.1-4.2,24-8.2,35.6c-3.8,10.9-8.5,21.6-11.1,32.9c-3,12.9-2.8,26.9-0.2,39.9c0.1,0.4,0.6,0.6,0.6,0.1
			c-0.5-12-2.1-23.7,0-35.7c1.9-10.6,6-20.7,9.7-30.8c3.9-10.4,7-20.9,8.9-31.9c2-11.2,3.1-22.4,4.6-33.7c0.9-6.3,1.9-12.6,3.2-18.8
			c1.8-8.1,3.4-16.6,7.3-24C474.9,397.7,474.4,397.1,474.1,397.5L474.1,397.5z"/>
		<path fill="#E1E1E1" d="M478.2,401.6c-2.9,0.5-5.5,3.2-4.2,6.3c1.1,2.4,4.6,3.1,7,2.4c1.6-0.4,3-1.9,1.5-3.3
			c-2-1.7-4.6-0.2-5.4,1.8c-0.9,2.3-0.4,5.2,2.2,6c1.2,0.4,4.8,0.2,4.6-1.8c-0.2-1.7-2.4-1.5-3.4-0.6c-2.7,2.5,0.7,5.6,2.8,6.8
			c0.3,0.2,0.4-0.4,0.2-0.5c-2.6-1.8-0.1-0.9-2.6-4.9c-2.4-0.6-3.3-1.7-2.8-3.4c-0.1-0.5,0.1-0.9,0.5-1.2c-0.3,0-0.7-0.1-1-0.1
			c-2.4-0.7-3.2-2.1-2.4-4.2c0.6-1.4,2.1-2.2,3.4-2.7C478.8,402.1,478.5,401.6,478.2,401.6L478.2,401.6z"/>
		<path fill="#E1E1E1" d="M522.2,340.8c-2.7,7.6-6.9,14.5-8.9,22.4c-2.1,8.4-3.4,17-5.4,25.4c-3.5,15.1-8.1,30.1-14.4,44.3
			c-6.2,14.1-15.3,26.5-20.9,40.9c-5.8,14.9-9.9,30.4-17.9,44.4c-4.2,7.4-8.8,14.5-11.2,22.6c-2.7,9.2-4.1,18.9-3,28.4
			c0,0.3,0.7,0.6,0.7,0.1c-0.3-8.7,0.7-17.4,2.9-25.9c2.1-8.1,6.1-15.1,10.3-22.3c7.7-13.3,12.2-27.6,17.5-41.9
			c2.7-7.6,5.8-15,9.9-22c3.7-6.3,7.5-12.5,10.7-19.1c6.8-14.3,11.7-29.4,15.5-44.7c2.3-9.1,3.8-18.4,5.9-27.6
			c2-8.7,6.7-16.3,8.9-24.9C522.8,340.9,522.3,340.3,522.2,340.8L522.2,340.8z"/>
		<path fill="#E1E1E1" d="M503.1,464.8c-4.9,8.9-13.6,14.4-20.1,21.9c-6.9,7.8-11.6,17.2-16.4,26.4c-2.5,4.9-5.1,9.7-7.9,14.4
			c-2.9,4.7-6.2,9-9,13.7c-6.2,10.2-8.8,21.5-10.2,33.2c-0.1,0.8,1.3,1,1.4,0.2c1.3-11.6,3.9-22.8,10.1-32.9
			c5-8.3,10.7-16.1,15.2-24.8c4.4-8.4,8.6-17,14.1-24.7c4.5-6.2,10.2-11.1,15.7-16.4c3.2-3.1,6-6.4,7.8-10.5
			C503.9,465,503.3,464.4,503.1,464.8L503.1,464.8z"/>
		<path fill="#E1E1E1" d="M501.1,470.5c-1.9,2.2-2.3,5.4-0.3,7.7c1.2,1.3,4.6,2.9,6,1.1c1.5-1.9-1.4-3.4-3-3.4c-2.9,0-5.1,3-4.7,5.7
			c0.3,2.3,2.4,4.1,4.8,3.9c1.5-0.1,3.8-1.5,2.5-3.2c-1.4-1.9-4.6-0.2-5.4,1.4c-1.2,2.3,0.5,4.7,2.7,5.5c0.6,0.2,0.5-0.5,0.1-0.7
			c-1.9-0.9-3.9-5.9-3.6-8c0.2-0.5,0.3-1,0.5-1.5c0.5-1.4,1.1-1.6,1.8-0.7c1.2,0.9,1,0.8-0.4-0.3c-1.2-0.6-1.8-1.6-1.8-3.1
			c-0.1-1.4,0.5-2.7,1.2-3.8C501.7,470.8,501.4,470.2,501.1,470.5L501.1,470.5z"/>
		<g>
			<g id="XMLID_81_">
				<g id="XMLID_82_">
					<path id="XMLID_84_" fill="#27DEBF" d="M516.9,341.3L516.9,341.3c0.6-2.3,7.2-7.4,8.1-7.2c0.9,0.2,3.6,7.7,2.9,10.1l0,0
						c-0.2,0.8-1,1.5-2.2,1.8c-2.5,0.7-6-0.3-7.8-2.1C517,343.1,516.7,342.1,516.9,341.3L516.9,341.3L516.9,341.3z"/>
					<path id="XMLID_83_" opacity="0.1" d="M516.9,341.3L516.9,341.3c0.6-2.3,7.2-7.4,8.1-7.2c0.9,0.2,3.6,7.7,2.9,10.1l0,0
						c-0.2,0.8-1,1.5-2.2,1.8c-2.5,0.7-6-0.3-7.8-2.1C517,343.1,516.7,342.1,516.9,341.3L516.9,341.3L516.9,341.3z"/>
				</g>
			</g>
			<path id="XMLID_80_" fill="#27DEBF" d="M492.8,265.7c1.6-5.8,5.2-10.4,10-13.4l0,0l0.1-0.1c5.6-3.5,12.7-4.7,19.7-2.8
				c8.4,2.3,14.1,10.5,16.3,19.2c0.8,3.1,4.7,4.1,6.9,1.9c6.2-6.4,15.3-10.6,23.7-8.3c7,1.9,12.5,6.5,15.6,12.3l0.1,0.1l0,0
				c2.6,5,3.4,10.9,1.9,16.6c-4.9,17.9-27,31-44.7,38.8l-18.6,8.2l-11.9-16.5C500.4,306.1,488,283.6,492.8,265.7z"/>
			<path id="XMLID_79_" opacity="0.2" d="M492.8,265.7c1.6-5.8,5.2-10.4,10-13.4l0,0l0.1-0.1c5.6-3.5,12.7-4.7,19.7-2.8
				c8.4,2.3,14.1,10.5,16.3,19.2c0.8,3.1,4.7,4.1,6.9,1.9c6.2-6.4,15.3-10.6,23.7-8.3c7,1.9,12.5,6.5,15.6,12.3l0.1,0.1l0,0
				c2.6,5,3.4,10.9,1.9,16.6c-4.9,17.9-27,31-44.7,38.8l-18.6,8.2l-11.9-16.5C500.4,306.1,488,283.6,492.8,265.7z"/>
			<path id="XMLID_78_" opacity="0.1" d="M492.5,282c2,4.3,17.8,33.5,39.8,34.2c26.2,0.9,55-22.5,52.8-41.6c2.6,5,3.4,10.9,1.9,16.6
				c-4.9,17.9-27,31-44.7,38.8l-18.6,8.2l-11.9-16.5C503.7,310.6,495,296,492.5,282z"/>
		</g>
		<g>
			<g id="XMLID_74_">
				<g id="XMLID_75_">
					<path id="XMLID_77_" fill="#27DEBF" d="M497.2,465.9L497.2,465.9c1.3-2,9.1-4.9,9.9-4.4c0.8,0.5,1.1,8.4-0.3,10.6l0,0
						c-0.5,0.7-1.4,1.1-2.7,1.1c-2.6-0.1-5.6-2.1-6.8-4.4C496.8,467.6,496.8,466.6,497.2,465.9L497.2,465.9L497.2,465.9z"/>
					<path id="XMLID_76_" opacity="0.1" d="M497.2,465.9L497.2,465.9c1.3-2,9.1-4.9,9.9-4.4c0.8,0.5,1.1,8.4-0.3,10.6l0,0
						c-0.5,0.7-1.4,1.1-2.7,1.1c-2.6-0.1-5.6-2.1-6.8-4.4C496.8,467.6,496.8,466.6,497.2,465.9L497.2,465.9L497.2,465.9z"/>
				</g>
			</g>
			<path id="XMLID_73_" fill="#27DEBF" d="M497,386.6c3.2-5,8.1-8.3,13.6-9.8l0,0l0.1,0c6.4-1.6,13.5-0.6,19.6,3.3
				c7.3,4.7,10.3,14.2,9.7,23.2c-0.2,3.2,3.2,5.4,6,3.9c7.9-4.2,17.8-5.5,25.1-0.8c6.1,3.9,10,10,11.1,16.5l0,0.1l0,0
				c1,5.6,0,11.4-3.2,16.4c-10,15.6-35.1,21.4-54.3,23.5l-20.2,2.2l-6.4-19.3C492.1,427.4,487,402.2,497,386.6z"/>
			<path id="XMLID_72_" opacity="0.1" d="M491.8,402c0.6,4.7,6.9,37.3,27.7,44.6c24.7,8.7,59.2-4.9,62.8-23.8c1,5.6,0,11.4-3.2,16.4
				c-10,15.6-35.1,21.4-54.3,23.5l-20.2,2.2l-6.4-19.3C493.9,432.6,490,416.1,491.8,402z"/>
		</g>
		<g>
			<g id="XMLID_68_">
				<g id="XMLID_69_">
					<path id="XMLID_71_" fill="#27DEBF" d="M466.1,399.8L466.1,399.8c0.7-2.3,7.4-7.2,8.3-7c0.9,0.3,3.4,7.8,2.6,10.2l0,0
						c-0.2,0.8-1,1.5-2.3,1.8c-2.5,0.6-6-0.4-7.7-2.3C466.2,401.6,465.9,400.6,466.1,399.8L466.1,399.8L466.1,399.8z"/>
					<path id="XMLID_70_" opacity="0.3" fill="#FFFFFF" d="M466.1,399.8L466.1,399.8c0.7-2.3,7.4-7.2,8.3-7
						c0.9,0.3,3.4,7.8,2.6,10.2l0,0c-0.2,0.8-1,1.5-2.3,1.8c-2.5,0.6-6-0.4-7.7-2.3C466.2,401.6,465.9,400.6,466.1,399.8
						L466.1,399.8L466.1,399.8z"/>
				</g>
			</g>
			<path id="XMLID_67_" fill="#27DEBF" d="M443.9,323.6c1.7-5.7,5.5-10.3,10.4-13.2l0,0l0.1-0.1c5.7-3.3,12.8-4.4,19.7-2.3
				c8.4,2.5,13.9,10.8,15.8,19.6c0.7,3.1,4.6,4.3,6.8,2c6.4-6.2,15.6-10.2,23.9-7.7c6.9,2.1,12.3,6.9,15.3,12.7l0.1,0.1l0,0
				c2.5,5.1,3.2,10.9,1.4,16.7c-5.3,17.8-27.7,30.3-45.6,37.7l-18.8,7.7l-11.5-16.8C450.5,364.2,438.6,341.4,443.9,323.6z"/>
			<path id="XMLID_66_" opacity="0.5" fill="#FFFFFF" d="M443.9,323.6c1.7-5.7,5.5-10.3,10.4-13.2l0,0l0.1-0.1
				c5.7-3.3,12.8-4.4,19.7-2.3c8.4,2.5,13.9,10.8,15.8,19.6c0.7,3.1,4.6,4.3,6.8,2c6.4-6.2,15.6-10.2,23.9-7.7
				c6.9,2.1,12.3,6.9,15.3,12.7l0.1,0.1l0,0c2.5,5.1,3.2,10.9,1.4,16.7c-5.3,17.8-27.7,30.3-45.6,37.7l-18.8,7.7l-11.5-16.8
				C450.5,364.2,438.6,341.4,443.9,323.6z"/>
			<path id="XMLID_65_" opacity="5.000000e-002" d="M443.2,339.9c1.8,4.3,17,33.9,38.9,35.2c26.2,1.6,55.5-21.1,53.8-40.3
				c2.5,5.1,3.2,10.9,1.4,16.7c-5.3,17.8-27.7,30.3-45.6,37.7l-18.8,7.7l-11.5-16.8C453.6,368.8,445.4,353.9,443.2,339.9z"/>
		</g>
	</g>
	<g id="Character_2_">
		<g>
			<path fill="#1A2E35" d="M340.6,89.5c-2.1-2.1-4.6-3.6-7.7-4.3c-9.3-2.3-19.9,1.6-25.5,9.4c-5.1,7-6.1,16.2-5.4,24.8
				c0.7,8.6,2.9,17.1,3.7,25.7c0.6,7.7-7.4,13.9-12.8,18.2c-1,0.8-2.1,1.9-1.6,3.1c0.3,0.8,1.2,1.1,1.9,1.3
				c8.9,2.6,19.2-0.5,25.1-7.6c0.1,2.1,0.1,4.3,0.2,6.4c3.5-0.4,6.5-2.9,8.3-5.9c1.8-3,2.5-6.6,2.9-10.1c1.1-11.7-2.4-22.9-2.7-34.4
				c-0.3-13,4.1-22.7,12.4-21.2c3.4,0.6,5-0.5,2.8-3.5C341.7,90.7,341.2,90.1,340.6,89.5z"/>
			<path fill="#27DEBF" d="M338,91.8c-0.4-0.6-3.1-14.1,2.9-21.5c6.1-7.4,9.1-1.8,8.5,4.7C348.9,81.6,344.4,88.8,338,91.8z"/>
			<path fill="#27DEBF" d="M339.9,91.5c-0.6,0.3-14.4,1.1-20.9-6c-6.4-7-0.5-9.3,5.9-7.8C331.3,79.3,337.8,84.8,339.9,91.5z"/>
		</g>
		<g>
			<path fill="#FFA8A7" d="M460.2,213.7c-4.9-4.9-16.6-18.8-19-22.1c-3.1-4.2-11.5-14.2-16.6-18c-5.1-3.8-15.7-5.6-24.3-5
				c-0.7,10.4,8.8,26.8,8.8,26.8l21.4,21.4c12.5,11.2,27.9,17.6,45.4,20.4C474.3,232.4,465.1,218.6,460.2,213.7z"/>
			<path fill="#F28F8F" d="M430.5,216.8c2.5,0.5,10.8-0.1,16.4,1c5.6,1.1,15.8,5.4,21.2,12.8L430.5,216.8z"/>
			<path fill="#20315B" d="M400.3,168.6c2.9-0.1,15.6-2,23.4,3.8c7.1,5.2,12.4,12.7,18.1,19.7c2.8,3.5,7.2,9.2,7.2,9.2
				s-5.8,9.6-20,16.6l-24.7-23.8L400.3,168.6z"/>
		</g>
		<g id="XMLID_62_">
			<path id="XMLID_64_" fill="#37474F" d="M392.6,538.8c-0.5,0.1-0.9,0.5-1.1,1c-0.7,2.2-0.6,4.8-1.1,7.1c-0.7,3.6-1.5,8.7-0.9,11.6
				c0.6,2.9,4.5,5.7,11.7,7.7c4.4,1.2,12.2,5,15.8,8.3c4.4,4,13.8,7.3,20.1,7.5c7.4,0.2,15.2-1.8,17-7.1c0.8-2.3,1.3-6.1-9.3-10.3
				c-5.5-2.2-7.7-3.3-10.4-4.9c-4.9-2.9-12.4-6.8-16.5-10.6c-1.5-1.4-6.1-7-6.1-14.2c-2.8-1-6.1-0.4-8.5,1.5c-2.3,1.9-3.6,5-3.3,8
				c-0.5,0.3-1.1-0.2-1.3-0.7c-0.2-0.5-0.1-1.1-0.2-1.7c-0.2-1.2-1.3-2.2-2.4-2.6C395.4,539,393.7,538.5,392.6,538.8z"/>
			<path id="XMLID_63_" fill="#37474F" d="M290.8,539c0.8,1.7,0.7,3.3,0.9,5.1c0.2,1.5,0.6,2.8,0.6,4.4c0,1.3,0.3,2.8,1.5,3.3
				c0.9,0.4,2-0.2,2.7-0.9c0.7-0.7,1.1-1.7,1.7-2.5c1.3-1.7,3.3-2.8,5.4-3c2.1-0.1,2.3,0.1,3.7,1.7c-0.2,0.4-1.1,2.5-1.2,2.9
				c-4.1,10.5-4.4,19.8-1.8,30.6c0.5,2.2,3.7,5.8,5.5,7.6c1,1,2.1,2,3.3,2.9c1,0.8,2.1,1.8,2.2,2.6c0.2,1.2,0,2.5-0.6,3.6
				c-0.9,1.6-2.4,2.4-4,2.9c-6.3,2.2-13.1,2.1-19.2-0.6c-3-1.4-5.9-4.4-6.5-5.5c-3.6-6.2-3.2-12.1-3.2-17.5
				c-0.1-11.8-2.1-17.9-3-23.8C277.6,545.7,288.6,537.9,290.8,539z"/>
			<path fill="#FFA8A7" d="M417,545.4c-4.4-4.7-5.2-9.3-4.6-18.1c0.6-8.8,5-86.5,6.8-105.6c3-32.2,4.5-122.7,1.9-145l-85.8,6.8
				c-6.2,15.6-10.8,34.8-9.8,64.9c0.7,23,0.2,85.3,0.2,85.3s-10.5,9.2-18,27.2c-6.6,16-14.2,71.1-14.2,71.1l0,0
				c-1.2,3.7-2.1,6.4-2.5,7c-1.8,2.4-3.1,5.1-3.1,8.1c0,9.5,1,19.1,3,28.4c1,4.8,4.1,7.9,8.9,9.8c1.1,0.4,2.2,0.6,3.4,0.6
				c0.6,0,1.2-0.2,1.6-0.6c0.8-0.8,0.1-2.7-0.1-3.7c-0.2-1.6-0.4-3.1-0.4-4.7c-0.1-3.1,0-6.9,0.2-10c0.5-8.1,1.7-14.7,3.3-20.6
				c0,0,0.7-1.6,1.7-4l0,0c0,0,37.3-75.1,47.8-93.4c8.4-14.4,14-70.1,20-100.6l10.1,72.9c0,0-4.4,13.2-5.6,23.2
				c-1.6,13.5,8,66.5,10.8,85.4c0.5,3.5,0.6,7,0.1,10.6l0,0c1,8.2,7.1,10.7,13.5,15.3c3.2,2.3,17,10.7,25.4,12.4
				c6.8,1.4,12-2.7,7.8-5.3C431.3,557.3,421.4,550.2,417,545.4z"/>
			<g>
				<path fill="#BCBAB1" d="M373.6,371.4c0.9-8.2,3.2-19.4,3.2-19.4l3.8,31.6l3.1,36.3c0,0-1.4,5.4-2.7,14.7
					c-1.4,9.7-0.7,25.4,1.1,35.9c1.8,10.5,5.5,29.3,5.5,29.3c15.6,8.1,27.4-0.2,27.4-0.2s1.5-20.9,4.4-51.6
					c2.9-30.7,3.9-61.4,4.1-86.9c0,0,3.7-63.6-7.1-106.5c-12.6,8.9-50.1,10.7-65.3-1.3c0,0-6.1,10-19.3,32.4
					c-10.4,17.6-7.3,45.8-7.5,69.4c-0.3,36.4-0.1,77.5-0.1,77.5s-6.2,6.5-12.8,17.2c-6.6,10.7-10,34.5-10,34.5s6.7,14.3,29.6,14.9
					c0,0,22.2-40.5,27.8-49.7C364.4,440.3,372.8,379.6,373.6,371.4z"/>
				<path opacity="0.15" d="M376.9,352l8.4-32.1c0,0,16-1.7,28.5-10.9c0,0-2.6,11.8-24.6,15.2l-9.5,31.6l1.1,27.8L376.9,352z"/>
			</g>
		</g>
		<g>
			<path fill="#3C7AA5" d="M421.2,194c-10.5-13.7-13.9-18.4-20.8-25.4l-38-1.6c-3,0.3-20,3-20,3c-4.3,1.9-8.9,12-7.8,20
				c1.2,8.4,2.1,16.6,4.2,26.9c2.1,10.2,5.4,18.2,6.1,21.5c1.5,6.6,2.2,13.4-1.3,20c-7.2,13.7-13.1,22.6-15.5,34.2
				c0,0,5.5-1.2,10.9-6.3c4.6-4.4,7.4-6.5,11.2-11.7c0,0,0.4,7.8,8.1,18.1c1.8,2.5,4.1,4.9,6.8,7.2c13.9,11.7,55.9,16.7,57.3-19.8
				c0,0-4.1-16.7-4.9-26.6c-0.8-9.9-1-15.9-0.9-18.5C433.5,222.5,428,202.9,421.2,194z"/>
			<g>
				<path fill="#FFA8A7" d="M263.9,226.1c4.6-8,10.6-10,18.1-15.7c7.6-5.7,23.2-18.1,32.8-24.7c10.9-7.4,19.5-14.1,27.6-14
					c0,0,1.3-0.3,3.6,6.2c2.3,6.5,2.1,22.3-3.2,26.5c-5.2,4.2-47.8,27.8-47.8,27.8L263.9,226.1"/>
				<path fill="#F28F8F" d="M315.5,220.8l-3.1-6.1c-2.9,2-7.6,3.8-15.3,4.2c-7.7,0.4-21.4,0.1-29.1,4.7c-1,0.6-1.4,1.7-1.3,3
					l28.4,5.6C295.1,232.2,304.8,226.8,315.5,220.8z"/>
				<path fill="#20315B" d="M342.3,169.9c-4.7,0-11.1,2.9-16.7,7c-6.9,5.1-25.1,19.1-25.1,19.1s3.7,19.6,16.3,24.5
					c0,0,23.6-13.1,25.5-14.5c1.9-1.4,5.1-4.6,5.7-15.6C348.6,179.4,344.9,174.3,342.3,169.9z"/>
			</g>
		</g>
		<g id="XMLID_15_">
			<path fill="#1A2E35" d="M353.1,79.4c13-5.1,22.5-4.2,29-2.7c26.9-12.2,49,23.9,24.9,41.7c0,0-1.1,28.1-22.5,34.8l-23.4,4.9
				c-3.6-9.7-24-12.9-29.5-34.6C325.1,102.9,339.2,84.9,353.1,79.4z"/>
			<g id="XMLID_60_">
				<path id="XMLID_61_" fill="#FFA8A7" d="M394.5,89.5c4.8,1.9,12,12.2,15.1,35.6c2.6,19.9-3,25.7-6,27.6c-3,1.9-9.3,2-15.5,1.9
					l1.9,13.7c0,0,6.4,3.8,7.6,10.5c1.1,5.4-13.6,8.9-23.7,2.8c-8.2-4.9-11.2-11.4-11.2-11.4l-3.8-28.5c0,0-3.2,4.2-9.2,1.1
					c-6.4-3.3-7.7-10.7-4.5-15.2c3.3-4.5,11-3.6,13.4,1.6c0,0,8.5-1.9,19.7-11.6C390.5,107.3,392.4,98.4,394.5,89.5z"/>
			</g>
			<g>
				<path id="XMLID_59_" fill="#1A2E35" d="M383.2,123.7c0.3,1.4-0.6,2.8-1.9,3.1c-1.4,0.3-2.7-0.6-3-2.1c-0.3-1.4,0.6-2.8,1.9-3.1
					C381.5,121.4,382.9,122.3,383.2,123.7z"/>
				<path id="XMLID_58_" fill="#B16668" d="M385.3,137.3l9.9,1.9c-0.5,2.8-3.1,4.7-5.8,4.1C386.7,142.8,384.9,140.1,385.3,137.3z"/>
				<path fill="#F28F8F" d="M389.4,143.3c0.8,0.2,1.7,0.1,2.4-0.2c-0.2-2.1-2-3.7-4.2-3.7c-0.8,0-1.4,0.2-2.1,0.6
					C386.2,141.6,387.6,143,389.4,143.3z"/>
				<path id="XMLID_18_" fill="#1A2E35" d="M403.8,113.2l-5.6-2.7c0.7-1.6,2.5-2.3,4-1.5C403.8,109.7,404.5,111.6,403.8,113.2z"/>
				<path id="XMLID_56_" fill="#1A2E35" d="M403.6,119.2c0.3,1.4-0.6,2.8-1.9,3.1c-1.4,0.3-2.7-0.6-3-2.1c-0.3-1.4,0.6-2.8,1.9-3.1
					C401.9,116.8,403.3,117.8,403.6,119.2z"/>
				<polygon id="XMLID_17_" fill="#F28F8F" points="391.4,118.8 394.1,133.7 401.6,130 				"/>
				<path id="XMLID_16_" fill="#F28F8F" d="M388.1,154.7c-6.5,0.2-20.2-1.6-23-6.4c0,0,1.2,3.1,5.6,5.9c4.4,2.7,17.9,4.5,17.9,4.5
					L388.1,154.7z"/>
			</g>
		</g>
		<g>
			<path fill="#FFA8A7" d="M475.9,237.2c-11-9.3-14.4-14.7-45.4-20.4c0,0-17-5.2-19.2-6.7c-2.1-1.5-6.4-1.6-9.5-2.8
				c-3.1-1.1-14.4-5.2-17.4-7.2c-3-2-4.3-3.3-9.3-3.6c-5.1-0.3-12-1.1-13.6-1c-1.6,0.2-3.1,3.8-4.8,6.6c-1.6,2.8-2.5,3.2-1.2,8.7
				c0.8,3.6,2,4.1,2,4.1c0.9,0.4,2.1-1.3,2.1-1.3c1.8,0.5,2-1.5,2-1.5c1.4,0,4-4.5,4-4.5l2.7-0.7c2.3,0.7,7.3,4.7,5.6,8.5
				c-1.6,3.6-7.5,5.2-11.1,7.8c-3.5,2.6-4,8.3-2.3,9.1c0.9,0.5,2.1-1.4,5.2-3.5c2.3-1.6,6.1-3.3,9-4.2c6.9-2.1,12.9-0.6,18.8-1
				c5.9-0.3,7.7-2.6,27.7,9.8c8.2,5.1,15.2,9.7,22,12.1c9.7,3.5,18.2,3.8,23.8,4.1C476.5,250,477.5,242,475.9,237.2z"/>
			<path fill="#F28F8F" d="M397.9,219.1c-2.8-0.6-5.1-1.9-7.5-3.7c-2.4-1.7-5.1-5.1-7-6.8c-1.9-1.7-4.6-0.1-6.2,0
				c-1.6,0.1-2.4-1.3-2.4-1.3c2.5-0.5,2.4-2,2.4-2c-1.1,0.6-3.7,0.9-4.7,0.3c-1-0.6-1.1-2.2-1.1-2.2c-0.1,1.4-1.5,2.1-3.3,2.4
				c-1.8,0.2-2.3-0.6-2.3-0.6c0.3,1.2,0,2.2,0,2.2l2.7-0.7c0.3,0.1,0.6,0.2,1,0.4c2.5,1.3,6.1,4.8,4.7,8.1c-0.6,1.3-1.7,2.3-3,3.2
				c0,0,0,0,0,0c6.4-1.9,7.6-6,9.2-6.6c1.2-0.4,2.7-0.1,6.1,2.7C389.9,217.4,394.4,219.2,397.9,219.1z"/>
			<path fill="#F28F8F" d="M375.9,200.7c-2.7,0-6.5,0.1-7.6,0.3c-1.1,0.2-5,3-5.7,3.4c-0.7,0.4-1,3.1-1.6,4.9
				c-0.5,1.6-0.3,2.1,0.4,2.6c0,0-1.6-0.2-0.9-2.8c0.7-2.5,1-4.9,1.8-5.6c0.8-0.7,5-3.1,5.9-3.3C369,200.1,375.9,200.7,375.9,200.7z
				"/>
			<path fill="#F28F8F" d="M365.8,196.1c-1.4-0.2-1.9,0.5-2.9,1.7c-1.1,1.3-4.3,5.8-4.6,6.5c-0.3,0.7-0.1,2,0,3.3
				c0.1,1.2,0.2,4.1,1.5,5.9c0,0-0.6-0.1-1.3-1.8c-0.7-1.7-0.7-4.8-0.9-5.9c-0.1-1.1,0-1.4,1-3c1.1-1.5,3.3-4.7,4.3-5.7
				C364,196,364.3,195.7,365.8,196.1z"/>
			<path fill="#F28F8F" d="M403.7,224c-0.8-0.9-1.4-2.9-1.3-4.9c0-2.4-0.2-2.9-0.6-1.1c-0.4,1.8-2.7,5-4.6,5.1
				C398.9,223,400.8,223.1,403.7,224z"/>
		</g>
		<g>
			<path fill="#FFA8A7" d="M263.9,226.1c-4.6,8-6.1,14.2-3.1,17.6c2.3,2.6,6.5,2.3,12.5,2.6c5.7,0.3,16.3-1,23.7-5.1
				c10.8-6.1,16.4-9.3,25.3-10.1c8.4-0.8,12.1-2.8,16.7-3.2c5.4-0.5,11.2-0.6,15,1.3c3.8,1.9,4.1,2.8,5,3.2c0.4,0.2,1-0.2,1.1-1.5
				c0.1-1.2-0.2-2.7-0.9-4.1c-1.5-2.7-5.8-4.4-10.4-5.2c-4.6-0.8-8-3.1-8.7-5.9c-0.7-2.8,0.2-6,0.7-6.4c0,0,1.5,0.5,2.7,0.6
				c1.6,0.2,3.8,0.3,3.8,0.3s1.8,2.3,3.1,3.3c1.1,0.8,2.1,1.1,2.7,0.6c0,0,1.1,1.8,2.5,1.9c1.5,0.2,1.8-0.6,1.8-0.6s-0.5-2.8-0.6-4
				c-0.1-1.2-0.1-3-0.3-3.9c-0.2-0.9-1-1.5-3.2-3.9c-2.2-2.4-3.2-4.5-4.3-4.7c-1.1-0.2-3.1,0.2-3.1,0.2s-0.4-0.2-2.2,0
				c-1.8,0.2-4.2,0.5-7.1,0.7c-2.8,0.2-6.1,0.1-6.9,0.9c-0.8,0.8-2,2.7-3.8,4.8c-1.8,2-5.7,5.8-7.9,7.7c-1.7,1.4-3.2,2.4-4.4,3.3
				c-1.3,0.9-3.6,2.1-5.2,2.6c-3.2,0.9-7.8,1.1-13.9,1.6C284.1,221.4,268.1,221.2,263.9,226.1z"/>
			<path fill="#F28F8F" d="M346,220.8c-3.3-1.1-5.6-3-6.1-5.2c-0.7-2.8,0.2-6,0.7-6.4c0,0-0.7,1-2.9,1.2c-2.1,0.2-4.8-1.2-4.8-1.2
				s0.7,1.6,3.3,2.2c0,0-2.3,1.2-5.3,2.2c-3.1,0.9-3.6,3.9-4.7,7c-1.1,3.1-1.4,6.2-5,8.1c0,0,3.5-0.5,6.8-5c3.3-4.4,5.5-5.7,8.8-5.7
				C340.2,217.8,342.3,220.4,346,220.8L346,220.8z"/>
			<path fill="#F28F8F" d="M352.9,214c0.7-0.7,1.1-0.9,0.1-2.1c-0.9-1.2-2.3-3-3-3.8c-0.7-0.8-1.6-1.2-3.2-2.1
				c-1.7-0.8-2.3-1.5-4-1.6c0,0,1.7-0.1,2.8,0.5c1.1,0.6,3.9,2,4.5,2.5c0.7,0.4,2.3,2.7,2.7,3.4c0.5,0.7,1.4,1.9,1.3,2.3
				C354.1,213.5,352.9,214,352.9,214z"/>
			<path fill="#F28F8F" d="M352.9,214c0.3,0.4,1.9,1,2.8,0.5c0.9-0.5,0.8-0.9,0.3-2.1c-0.5-1.2-1-2.9-1.3-4.1
				c-0.3-1.2-0.5-2.2-1.6-3.1c-2-1.6-6.7-5.5-7.3-6.2c0,0,4.7,3.5,5.5,4.1c1.4,1,3.3,2.2,3.5,3.2c0.2,0.9,1.2,4.6,1.4,5.1
				c0.5,1.3,0.8,2.3,0.6,2.6C356.5,214.6,355.5,216.1,352.9,214z"/>
			<path fill="#F28F8F" d="M321.7,231L321.7,231c-2.7-0.2-4.1-2.3-5.3-2.9c-1.2-0.7,0.1,1.2,0,2.3c-0.1,1.2-1.1,1.8-1.1,1.8l0,0
				C317.4,231.7,319.4,231.3,321.7,231C321.7,231,321.7,231,321.7,231z"/>
		</g>
	</g>
</g>
</svg>
