<?xml version="1.0" encoding="utf-8"?>
<!-- Generator: Adobe Illustrator 18.0.0, SVG Export Plug-In . SVG Version: 6.00 Build 0)  -->
<!DOCTYPE svg PUBLIC "-//W3C//DTD SVG 1.1//EN" "http://www.w3.org/Graphics/SVG/1.1/DTD/svg11.dtd">
<svg version="1.1" id="Layer_1" xmlns="http://www.w3.org/2000/svg" xmlns:xlink="http://www.w3.org/1999/xlink" x="0px" y="0px"
	 viewBox="0 0 32 47" enable-background="new 0 0 32 47" xml:space="preserve">
<g>
	<g>
		<g>
			<g>
				<path fill="#A40032" d="M0.6,11.9h1.5v32.7c0,1.1,0.9,2.1,2.1,2.1h23.7c1.1,0,2.1-0.9,2.1-2.1V11.9h1.5V9.1H0.6V11.9z M6.1,43.8
					c0,0.4-0.3,0.7-0.6,0.7H5.1c-0.4,0-0.6-0.3-0.6-0.7V13.6c0-0.4,0.3-0.7,0.6-0.7h0.3c0.4,0,0.6,0.3,0.6,0.7V43.8z M9.7,43.8
					c0,0.4-0.3,0.7-0.6,0.7H8.7c-0.4,0-0.6-0.3-0.6-0.7V13.6c0-0.4,0.3-0.7,0.6-0.7H9c0.4,0,0.6,0.3,0.6,0.7V43.8z M13.3,43.8
					c0,0.4-0.3,0.7-0.6,0.7h-0.3c-0.4,0-0.6-0.3-0.6-0.7V13.6c0-0.4,0.3-0.7,0.6-0.7h0.3c0.4,0,0.6,0.3,0.6,0.7V43.8z M16.9,43.8
					c0,0.4-0.3,0.7-0.6,0.7h-0.3c-0.4,0-0.6-0.3-0.6-0.7V13.6c0-0.4,0.3-0.7,0.6-0.7h0.3c0.4,0,0.6,0.3,0.6,0.7V43.8z M20.5,43.8
					c0,0.4-0.3,0.7-0.6,0.7h-0.3c-0.4,0-0.6-0.3-0.6-0.7V13.6c0-0.4,0.3-0.7,0.6-0.7h0.3c0.4,0,0.6,0.3,0.6,0.7V43.8z M24.1,43.8
					c0,0.4-0.3,0.7-0.6,0.7h-0.3c-0.4,0-0.6-0.3-0.6-0.7V13.6c0-0.4,0.3-0.7,0.6-0.7h0.3c0.4,0,0.6,0.3,0.6,0.7V43.8z M27.7,43.8
					c0,0.4-0.3,0.7-0.6,0.7h-0.3c-0.4,0-0.6-0.3-0.6-0.7V13.6c0-0.4,0.3-0.7,0.6-0.7h0.3c0.4,0,0.6,0.3,0.6,0.7V43.8z"/>
			</g>
		</g>
		<g>
			<g>
				<path fill="#A40032" d="M0.7,8.9l30.8-2.6l-0.2-2.8l-9.3,0.8l-0.1-1.2c-0.1-1.7-1.6-3-3.4-2.8l-5.9,0.5c-1.7,0.1-3,1.6-2.8,3.4
					l0.1,1.2L0.5,6.2L0.7,8.9z M11.8,4c0-0.6,0.4-1.1,0.9-1.1l5.9-0.5c0.6,0,1.1,0.4,1.1,0.9l0.1,1.2l-8,0.7L11.8,4z"/>
			</g>
		</g>
	</g>
</g>
</svg>
