<?xml version="1.0" encoding="utf-8"?>
<!-- Generator: Adobe Illustrator 18.0.0, SVG Export Plug-In . SVG Version: 6.00 Build 0)  -->
<!DOCTYPE svg PUBLIC "-//W3C//DTD SVG 1.1//EN" "http://www.w3.org/Graphics/SVG/1.1/DTD/svg11.dtd">
<svg version="1.1" id="Layer_1" xmlns="http://www.w3.org/2000/svg" xmlns:xlink="http://www.w3.org/1999/xlink" x="0px" y="0px"
	 viewBox="0 0 676 642" enable-background="new 0 0 676 642" xml:space="preserve">
<g>
	<path fill="#F5F5F5" d="M588.9,562.6c-3.5-12.4-86.1,0.8-190.8,14.2c-104.7,13.4-188.9,28.8-188.2,34.4c0.7,5.6,67,8.5,171.7-4.9
		C486.2,592.9,590.5,568,588.9,562.6z"/>
	<path fill="#F5F5F5" d="M512.8,625.3c-1.1-10.2-26.6-7-58.9-5.5c-32.3,1.5-58.3,6.3-58.1,10.9c0.2,4.5,20.6,12.7,52.9,11.2
		C481.1,640.3,513.3,629.7,512.8,625.3z"/>
	<g>
		<path fill="#DED7DB" d="M533.1,150.2c-5-11.1,0.4-25.8,11.4-31c11-5.2,25.8-0.1,31.2,10.8c0.3-11.7,9.5-22.5,21-24.7
			c11.5-2.2,24,4.5,28.6,15.2c-1.5-10.4,6.8-20.9,17.1-23c10.3-2.2,21.4,3.1,27.4,11.8s7.2,20.1,4.7,30.3c-1.1,4.4-3.1,8.9-7,11.1
			c-3.1,1.7-6.7,1.7-10.2,1.7"/>
	</g>
	<g>
		<path fill="#DED7DB" d="M181.7,85c5-11.1-0.4-25.8-11.4-31c-11-5.2-25.8-0.1-31.2,10.8c-0.3-11.7-9.5-22.5-21-24.7
			s-24,4.5-28.6,15.2c1.5-10.4-6.8-20.9-17.1-23C62.1,30.2,51,35.5,45.1,44.1c-6,8.7-7.2,20.1-4.7,30.3c1.1,4.4,3.1,8.9,7,11.1
			c3.1,1.7,6.7,1.7,10.2,1.7"/>
	</g>
	<g>
		<path fill="#DED7DB" d="M106,283.7c3.7-8.2-0.3-19.1-8.5-23s-19.1-0.1-23.1,8c-0.2-8.7-7.1-16.7-15.6-18.3
			c-8.5-1.6-17.8,3.3-21.2,11.3c1.1-7.7-5-15.5-12.7-17.1c-7.6-1.6-15.9,2.3-20.3,8.7c-4.4,6.4-5.4,14.9-3.5,22.4
			c0.8,3.2,2.3,6.6,5.2,8.2c2.3,1.3,5,1.3,7.6,1.3"/>
	</g>
	<g>
		<g>
			<path fill="#73B7B4" d="M250.1,568.8c0.9,10.9-12.4,18.6-23.1,16.5c-10.8-2.1-19-10.4-26.7-18.3c-7.6-7.9-16-16.1-26.8-18
				c-17.8-3.1-34.4,12.1-52.4,10.8c-17.8-1.3-30.1-17.8-40.5-32.3c-10.4-14.6-24.5-30.2-42.3-28.8c-6.5,0.5-12.7,3.4-19.2,3.6
				c-6.5,0.2-14.1-3.9-14.1-10.5c0.1-6.4,7-10.2,12.9-12.6c17.4-7.1,34.8-14.3,52.2-21.4c19.4-7.9,41.5-15.9,60.6-7.3
				c16.7,7.5,26.7,26.2,44,32.2c22.7,7.8,49.1-9.1,71.1,0.4c16.6,7.2,24.2,27.5,22.3,45.5c-2,18-11.4,34.2-20.6,49.8"/>
		</g>
		<path fill="none" stroke="#FFF8F6" stroke-width="0.9935" stroke-miterlimit="10" d="M7,493.7c24.8-13.7,66.7-12,93.1-1.6
			c16.5,6.5,31.5,17.6,49,20.4c15.2,2.4,30.6-1.6,46-1.3c24.9,0.5,51,18.3,65.7,38.5"/>
		<path fill="none" stroke="#FFF8F6" stroke-width="0.9935" stroke-miterlimit="10" d="M155.3,512.8c0,0-12-55.1-36.6-65.4"/>
		<path fill="none" stroke="#FFF8F6" stroke-width="0.9935" stroke-miterlimit="10" d="M63.8,484.5c0,0-2.6,13.5-25.6,14.2"/>
		<path fill="none" stroke="#FFF8F6" stroke-width="0.9935" stroke-miterlimit="10" d="M221.3,518.2c0,0,3-26.2-17.3-33.7"/>
		<path fill="none" stroke="#FFF8F6" stroke-width="0.9935" stroke-miterlimit="10" d="M242.5,530.7c0,0-16.1,26.6-48.9,29.3"/>
		<path fill="none" stroke="#FFF8F6" stroke-width="0.9935" stroke-miterlimit="10" d="M100.6,447.2c0,0,20.4,13.7,31.4,60.9"/>
		<path fill="none" stroke="#FFF8F6" stroke-width="0.9935" stroke-miterlimit="10" d="M149.1,512.5c0,0-24.5,32.3-53,33"/>
		<path fill="none" stroke="#FFF8F6" stroke-width="0.9935" stroke-miterlimit="10" d="M64.8,509.1c0,0,30.2-1.4,39-14.6"/>
		<path fill="none" stroke="#FFF8F6" stroke-width="0.9935" stroke-miterlimit="10" d="M27.5,475.1c0,0,5.7-3,15.1,8.1"/>
		<path fill="none" stroke="#FFF8F6" stroke-width="0.9935" stroke-miterlimit="10" d="M60.4,462c0,0,9.7,5.1,14.3,22.7"/>
		<path fill="none" stroke="#FFF8F6" stroke-width="0.9935" stroke-miterlimit="10" d="M173.5,549c0,0,44.4-3.1,40.6-34.2"/>
		<path fill="none" stroke="#FFF8F6" stroke-width="0.9935" stroke-miterlimit="10" d="M174.7,482.7c0,0,13,11.7,5.9,27.3"/>
		<path fill="none" stroke="#FFF8F6" stroke-width="0.9935" stroke-miterlimit="10" d="M241,481.9c0,0,15.1,28.6,8.3,52.3"/>
	</g>
	<g>
		<g>
			<path fill="#E8D6BE" d="M476.1,483.8c-10.4-4.6-10.9-20.4-3.7-29.2c7.2-8.8,18.8-12.3,29.8-15.4c10.9-3.1,22.6-6.8,29.6-15.7
				c11.5-14.7,5.8-37.4,15.8-53.2c9.9-15.7,31-18.9,49.3-21.2c18.4-2.4,39.6-7.6,47-24.6c2.7-6.2,3.1-13.3,6.1-19.4
				c3-6.1,10.5-11,16.4-7.7c5.8,3.2,5.9,11.4,5.2,18c-2,19.4-4,38.8-6,58.1c-2.2,21.6-5.8,45.7-23,59c-15,11.5-37,11.6-50.9,24.5
				c-18.3,16.9-15.7,49.3-35.1,64.8c-14.7,11.7-37,8.7-52.5-1.9c-15.5-10.6-25.7-27.1-35.5-43.1"/>
		</g>
		<path fill="none" stroke="#FFF8F6" stroke-width="1.0299" stroke-miterlimit="10" d="M663.7,298.3c0.4,29.4-21.7,66.9-44.1,85.9
			c-14,11.9-31.5,20.1-42.6,34.8c-9.7,12.7-13.5,28.8-21.3,42.7C543,484.3,514,499.4,488.4,503"/>
		<path fill="none" stroke="#FFF8F6" stroke-width="1.0299" stroke-miterlimit="10" d="M573.6,424.6c0,0,56.2,15.9,77.7-1.4"/>
		<path fill="none" stroke="#FFF8F6" stroke-width="1.0299" stroke-miterlimit="10" d="M644.3,354.8c0,0-11-9-0.5-30.3"/>
		<path fill="none" stroke="#FFF8F6" stroke-width="1.0299" stroke-miterlimit="10" d="M536.4,482.3c0,0,22.5,15.6,39.3,0.6"/>
		<path fill="none" stroke="#FFF8F6" stroke-width="1.0299" stroke-miterlimit="10" d="M514.7,495.6c0,0-16.4-27.7-2.9-59"/>
		<path fill="none" stroke="#FFF8F6" stroke-width="1.0299" stroke-miterlimit="10" d="M660.4,406.6c0,0-22.5,11.9-71-1.1"/>
		<path fill="none" stroke="#FFF8F6" stroke-width="1.0299" stroke-miterlimit="10" d="M577,419c0,0-17.5-38.2-4.3-64.6"/>
		<path fill="none" stroke="#FFF8F6" stroke-width="1.0299" stroke-miterlimit="10" d="M621.3,343.7c0,0-13.5,28.3-5.7,42.7"/>
		<path fill="none" stroke="#FFF8F6" stroke-width="1.0299" stroke-miterlimit="10" d="M670.7,326.2c0,0,0,6.7-14.8,9.8"/>
		<path fill="none" stroke="#FFF8F6" stroke-width="1.0299" stroke-miterlimit="10" d="M666.6,362.7c0,0-9.4,6.3-27.7,2"/>
		<path fill="none" stroke="#FFF8F6" stroke-width="1.0299" stroke-miterlimit="10" d="M531.7,423.5c0,0-18.8,42.1,11.4,53.8"/>
		<path fill="none" stroke="#FFF8F6" stroke-width="1.0299" stroke-miterlimit="10" d="M591.7,457c0,0-17,6.2-27.9-8"/>
		<path fill="none" stroke="#FFF8F6" stroke-width="1.0299" stroke-miterlimit="10" d="M560,518c0,0-33.6-0.2-51.9-18"/>
	</g>
	<g>
		<g>
			<path fill="#A7D9CE" d="M220.6,518c-3.2,6.9-13.1,6.7-18.4,1.6c-5.3-5.2-7.2-13.2-8.8-20.7c-1.6-7.5-3.6-15.5-9-20.5
				c-8.9-8.3-23.3-5.2-32.9-12.5c-9.5-7.2-10.9-21.6-11.9-34.1s-3.7-27.1-14.1-32.6c-3.8-2-8.2-2.5-12-4.8
				c-3.7-2.2-6.6-7.5-4.4-11.4c2.2-3.8,7.3-3.6,11.4-2.9c12.1,2,24.2,4,36.3,6c13.5,2.2,28.5,5.4,36.3,17.5
				c6.8,10.6,6.2,25.4,13.9,35.3c10.1,12.9,30.5,12.2,39.6,25.9c6.9,10.3,4.4,25.3-2.7,35.5c-7.1,10.1-17.7,16.5-28.1,22.6"/>
		</g>
		<path fill="none" stroke="#FFF8F6" stroke-width="0.6717" stroke-miterlimit="10" d="M109.6,384.9c18.4,0.7,41.3,16.9,52.6,32.7
			c7.1,9.9,11.7,22,20.6,30c7.7,7,17.7,10.1,26.2,15.8c13.8,9.3,22.4,29.5,23.9,46.9"/>
		<path fill="none" stroke="#FFF8F6" stroke-width="0.6717" stroke-miterlimit="10" d="M138.7,427c0,0,16.6,8.9,31.1,3"/>
		<path fill="none" stroke="#FFF8F6" stroke-width="0.6717" stroke-miterlimit="10" d="M205.9,462.6c0,0-43.8,8.1-59.5-2.3"/>
		<path fill="none" stroke="#FFF8F6" stroke-width="0.6717" stroke-miterlimit="10" d="M144.5,399.8c0,0-6,7.2-19-0.7"/>
		<path fill="none" stroke="#FFF8F6" stroke-width="0.6717" stroke-miterlimit="10" d="M221.4,477.1c0,0,10.4-14.7,1.5-26.6"/>
		<path fill="none" stroke="#FFF8F6" stroke-width="0.6717" stroke-miterlimit="10" d="M229.1,492.2c0,0-17.9,10.2-37.1,0"/>
		<path fill="none" stroke="#FFF8F6" stroke-width="0.6717" stroke-miterlimit="10" d="M177.5,390.6c0,0,6.8,15.7-2.7,48"/>
		<path fill="none" stroke="#FFF8F6" stroke-width="0.6717" stroke-miterlimit="10" d="M127.3,381c0,0,4.2,0.2,5.7,10.3"/>
		<path fill="none" stroke="#FFF8F6" stroke-width="0.6717" stroke-miterlimit="10" d="M150.1,385c0,0,3.7,6.5,0.5,18.8"/>
		<path fill="none" stroke="#FFF8F6" stroke-width="0.6717" stroke-miterlimit="10" d="M184.4,478.3c0,0,25.8,14.1,34.1-6"/>
		<path fill="none" stroke="#FFF8F6" stroke-width="0.6717" stroke-miterlimit="10" d="M207.1,438.8c0,0,3.4,11.7-5.8,18.6"/>
		<path fill="none" stroke="#FFF8F6" stroke-width="0.6717" stroke-miterlimit="10" d="M244.4,462.3c0,0-1.1,22.7-12.7,34.5"/>
	</g>
	<g>
		<g>
			<path fill="#A7D9CE" d="M480.1,420.9c-7.6-0.6-10.8-10-7.8-16.7c3-6.8,9.9-11.3,16.3-15.4s13.3-8.8,16.1-15.6
				c4.7-11.2-3.2-23.6,0.3-35.2c3.5-11.5,16.4-17.7,27.9-23c11.4-5.3,24.1-12.8,25.7-24.6c0.6-4.3-0.5-8.6,0.3-12.9
				c0.8-4.3,4.7-8.8,9.2-8.1c4.3,0.7,5.9,5.6,6.7,9.7c2.3,12,4.7,24.1,7,36.1c2.6,13.4,4.8,28.6-3.8,40.2
				c-7.5,10.1-21.7,14.7-28.3,25.3c-8.6,14-0.9,32.8-10.6,46.2c-7.3,10.1-22.2,12.9-34.2,9.8c-12-3.1-21.6-10.9-30.9-18.5"/>
		</g>
		<path fill="none" stroke="#FFF8F6" stroke-width="0.6717" stroke-miterlimit="10" d="M566.5,270.6c5.7,17.5-1.5,44.6-12.4,60.7
			c-6.8,10.1-16.5,18.6-21,29.7c-3.9,9.6-3.3,20.1-5.8,30c-3.9,16.2-19.9,31.2-35.7,38.7"/>
		<path fill="none" stroke="#FFF8F6" stroke-width="0.6717" stroke-miterlimit="10" d="M537,312.5c0,0-2.6,18.7,8,30.2"/>
		<path fill="none" stroke="#FFF8F6" stroke-width="0.6717" stroke-miterlimit="10" d="M527,387.9c0,0-22.7-38.3-18.5-56.6"/>
		<path fill="none" stroke="#FFF8F6" stroke-width="0.6717" stroke-miterlimit="10" d="M564.5,308.5c0,0-8.8-3.1-6-18.1"/>
		<path fill="none" stroke="#FFF8F6" stroke-width="0.6717" stroke-miterlimit="10" d="M518.7,407.4c0,0,17.4,4.7,25.4-7.8"/>
		<path fill="none" stroke="#FFF8F6" stroke-width="0.6717" stroke-miterlimit="10" d="M507.2,419.9c0,0-15.8-13.2-12.8-34.8"/>
		<path fill="none" stroke="#FFF8F6" stroke-width="0.6717" stroke-miterlimit="10" d="M584.6,336.2c0,0-12.3,11.9-46,14.1"/>
		<path fill="none" stroke="#FFF8F6" stroke-width="0.6717" stroke-miterlimit="10" d="M576.2,285.9c0,0,1.2,4-7.7,9"/>
		<path fill="none" stroke="#FFF8F6" stroke-width="0.6717" stroke-miterlimit="10" d="M580.3,308.6c0,0-4.8,5.8-17.5,7"/>
		<path fill="none" stroke="#FFF8F6" stroke-width="0.6717" stroke-miterlimit="10" d="M504.7,373.1c0,0-4.3,29.1,17.4,29.9"/>
		<path fill="none" stroke="#FFF8F6" stroke-width="0.6717" stroke-miterlimit="10" d="M549.6,380.7c0,0-9.8,7.3-19.4,1"/>
		<path fill="none" stroke="#FFF8F6" stroke-width="0.6717" stroke-miterlimit="10" d="M540.6,423.9c0,0-21.7,6.9-36.8,0"/>
	</g>
	<ellipse fill="#E8D6BE" cx="475.3" cy="94.8" rx="95.3" ry="94.8"/>
	<g>
		<path fill="#DED7DB" d="M319.1,57.7c-3.2-7.2,0.3-16.8,7.4-20.1c7.2-3.4,16.8-0.1,20.3,7c0.2-7.6,6.2-14.6,13.6-16.1
			c7.5-1.4,15.6,2.9,18.6,9.9c-1-6.8,4.4-13.6,11.1-15c6.7-1.4,13.9,2,17.8,7.6c3.9,5.6,4.7,13,3,19.7c-0.7,2.8-2,5.8-4.5,7.2
			c-2,1.1-4.4,1.1-6.7,1.1"/>
	</g>
	<g>
		<path fill="#959595" d="M222.4,595.7l-56.9-423.3c-1-7.5,4.3-14.5,11.8-15.5l295.1-39.6c7.5-1,14.5,4.3,15.5,11.8l56.9,423.3
			c1,7.5-4.3,14.5-11.8,15.5l-295.1,39.6C230.3,608.5,223.4,603.2,222.4,595.7z"/>
		
			<linearGradient id="SVGID_1_" gradientUnits="userSpaceOnUse" x1="3320.0615" y1="1571.5211" x2="3852.4434" y2="1571.5211" gradientTransform="matrix(-3.000000e-003 0.9013 -0.9983 2.250000e-002 1934.7555 -2905.3015)">
			<stop  offset="1.081080e-002" style="stop-color:#4C4C4C"/>
			<stop  offset="1" style="stop-color:#303030"/>
		</linearGradient>
		<path fill="url(#SVGID_1_)" d="M224.9,592.9l-56.2-418.7c-1-7.5,4.3-14.5,11.8-15.5l289.4-38.9c7.5-1,14.5,4.3,15.5,11.8
			l56.2,418.7c1,7.5-4.3,14.5-11.8,15.5l-289.4,38.9C232.9,605.8,225.9,600.5,224.9,592.9z"/>
		
			<rect x="162.2" y="236.3" transform="matrix(0.1331 0.9911 -0.9911 0.1331 666.9902 -37.8764)" fill="#FFFFFF" width="385.9" height="252.2"/>
		
			<ellipse transform="matrix(0.1331 0.9911 -0.9911 0.1331 433.3879 -182.4053)" fill="#303030" cx="321" cy="156.5" rx="4.5" ry="5"/>
		<polygon opacity="0.17" fill="#FFFFFF" points="369.5,590.7 280.6,601.8 341.2,134.9 430.1,123.8 		"/>
	</g>
	<g>
		<path fill="#E6E6E6" stroke="#B4B4B4" stroke-width="0.2454" stroke-miterlimit="10" d="M466.9,390.8l-210.1,30
			c-2.1,0.3-4-1.1-4.3-3.2l-2.7-19.1c-0.3-2.1,1.1-4,3.2-4.3l210.1-30c2.1-0.3,4,1.1,4.3,3.2l2.7,19.1
			C470.4,388.6,469,390.5,466.9,390.8z"/>
		<g>
			<path fill="#646464" d="M263.5,403.6c0.4,0.3,0.7,0.7,0.7,1.2c0.1,0.5,0,1-0.4,1.4s-0.8,0.6-1.5,0.7l-1.4,0.2l0.2,1.6l-0.5,0.1
				l-0.7-5.1l1.9-0.3C262.6,403.3,263.1,403.4,263.5,403.6z M263.5,405.9c0.2-0.3,0.3-0.6,0.3-1c-0.1-0.4-0.2-0.7-0.5-0.9
				c-0.3-0.2-0.7-0.2-1.2-0.2l-1.3,0.2l0.4,2.5l1.3-0.2C262.9,406.3,263.2,406.2,263.5,405.9z"/>
			<path fill="#646464" d="M267.9,404.2c0.3,0.2,0.5,0.6,0.6,1l0.3,2.4l-0.5,0.1l-0.1-0.6c-0.1,0.2-0.2,0.4-0.4,0.5
				c-0.2,0.1-0.5,0.2-0.8,0.3c-0.4,0.1-0.8,0-1.1-0.2c-0.3-0.2-0.4-0.4-0.5-0.8c0-0.3,0-0.6,0.2-0.8c0.2-0.2,0.6-0.4,1.1-0.5
				l1.2-0.2l0-0.2c0-0.3-0.2-0.6-0.4-0.7c-0.2-0.1-0.5-0.2-0.8-0.1c-0.2,0-0.5,0.1-0.7,0.2c-0.2,0.1-0.4,0.2-0.5,0.4l-0.3-0.4
				c0.2-0.2,0.4-0.4,0.6-0.5c0.3-0.1,0.5-0.2,0.8-0.3C267.2,403.9,267.6,404,267.9,404.2z M267.7,407.2c0.2-0.2,0.3-0.4,0.4-0.6
				l-0.1-0.6l-1.2,0.2c-0.7,0.1-0.9,0.4-0.9,0.8c0,0.2,0.1,0.4,0.3,0.5c0.2,0.1,0.4,0.1,0.7,0.1
				C267.3,407.4,267.5,407.3,267.7,407.2z"/>
			<path fill="#646464" d="M270.3,407.3c-0.3,0-0.5-0.1-0.7-0.2l0.2-0.4c0.2,0.1,0.4,0.2,0.6,0.2c0.3,0,0.5,0,0.8,0
				c0.3-0.1,0.6-0.1,0.7-0.3c0.2-0.1,0.2-0.3,0.2-0.5c0-0.1-0.1-0.2-0.2-0.3c-0.1-0.1-0.2-0.1-0.4-0.1c-0.1,0-0.3,0-0.6,0
				c-0.3,0-0.6,0-0.8-0.1c-0.2,0-0.4-0.1-0.5-0.2c-0.2-0.1-0.2-0.3-0.3-0.6c0-0.3,0-0.6,0.3-0.8c0.2-0.2,0.6-0.4,1.1-0.5
				c0.2,0,0.5,0,0.8,0c0.3,0,0.5,0.1,0.6,0.2l-0.2,0.4c-0.3-0.2-0.7-0.2-1.2-0.2c-0.3,0-0.6,0.1-0.7,0.3s-0.2,0.3-0.2,0.5
				c0,0.1,0.1,0.3,0.2,0.3c0.1,0.1,0.2,0.1,0.4,0.1c0.1,0,0.3,0,0.6,0c0.3,0,0.6,0,0.8,0.1s0.4,0.1,0.5,0.2c0.1,0.1,0.2,0.3,0.3,0.6
				c0,0.3-0.1,0.6-0.3,0.9c-0.3,0.2-0.6,0.4-1.1,0.5C270.9,407.3,270.6,407.3,270.3,407.3z"/>
			<path fill="#646464" d="M273.8,406.8c-0.3,0-0.5-0.1-0.7-0.2l0.2-0.4c0.2,0.1,0.4,0.2,0.6,0.2s0.5,0,0.8,0c0.3,0,0.6-0.1,0.7-0.3
				c0.2-0.1,0.2-0.3,0.2-0.5c0-0.1-0.1-0.2-0.2-0.3c-0.1-0.1-0.2-0.1-0.4-0.1c-0.1,0-0.3,0-0.6,0c-0.3,0-0.6,0-0.8-0.1
				c-0.2,0-0.4-0.1-0.5-0.2c-0.2-0.1-0.2-0.3-0.3-0.6c0-0.3,0-0.6,0.3-0.8c0.2-0.2,0.6-0.4,1.1-0.5c0.2,0,0.5,0,0.8,0
				c0.3,0,0.5,0.1,0.6,0.2l-0.2,0.4c-0.3-0.2-0.7-0.2-1.2-0.2c-0.3,0-0.6,0.1-0.7,0.3c-0.1,0.1-0.2,0.3-0.2,0.5
				c0,0.1,0.1,0.3,0.2,0.3c0.1,0.1,0.2,0.1,0.4,0.1c0.1,0,0.3,0,0.6,0c0.3,0,0.6,0,0.8,0.1c0.2,0,0.4,0.1,0.5,0.2
				c0.2,0.1,0.2,0.3,0.3,0.6c0,0.3-0.1,0.6-0.3,0.9c-0.3,0.2-0.6,0.4-1.1,0.5C274.4,406.8,274.1,406.8,273.8,406.8z"/>
			<path fill="#646464" d="M282.3,401.8l-0.9,4l-0.5,0.1l-1.7-3l-0.8,3.3l-0.5,0.1l-2-3.6l0.5-0.1l1.7,3.1l0.8-3.4l0.4-0.1l1.7,3.1
				l0.8-3.4L282.3,401.8z"/>
			<path fill="#646464" d="M284.2,405.2c-0.3-0.1-0.6-0.3-0.8-0.6c-0.2-0.3-0.3-0.6-0.4-1c-0.1-0.4,0-0.7,0.1-1
				c0.1-0.3,0.3-0.6,0.6-0.8c0.3-0.2,0.6-0.3,1-0.4s0.7,0,1,0.1c0.3,0.1,0.6,0.3,0.8,0.6c0.2,0.3,0.3,0.6,0.4,1s0,0.7-0.1,1
				c-0.1,0.3-0.3,0.6-0.6,0.8c-0.3,0.2-0.6,0.3-1,0.4C284.8,405.4,284.5,405.3,284.2,405.2z M285.8,404.6c0.2-0.2,0.3-0.4,0.4-0.6
				s0.1-0.5,0.1-0.8c0-0.3-0.1-0.5-0.3-0.8c-0.2-0.2-0.3-0.4-0.6-0.5s-0.5-0.1-0.8-0.1c-0.3,0-0.5,0.1-0.7,0.3s-0.3,0.4-0.4,0.6
				c-0.1,0.2-0.1,0.5-0.1,0.8c0,0.3,0.1,0.5,0.3,0.8c0.2,0.2,0.3,0.4,0.6,0.5c0.2,0.1,0.5,0.1,0.8,0.1
				C285.4,404.8,285.6,404.7,285.8,404.6z"/>
			<path fill="#646464" d="M288.7,401c0.2-0.2,0.5-0.3,0.9-0.3l0.1,0.5l-0.1,0c-0.4,0.1-0.7,0.2-0.9,0.5c-0.2,0.3-0.3,0.6-0.2,1.1
				l0.3,1.9l-0.5,0.1l-0.5-3.8l0.5-0.1l0.1,0.7C288.3,401.4,288.5,401.2,288.7,401z"/>
			<path fill="#646464" d="M293.8,398.5l0.8,5.4l-0.5,0.1l-0.1-0.8c-0.1,0.3-0.3,0.5-0.5,0.7c-0.2,0.2-0.5,0.3-0.8,0.3
				c-0.4,0.1-0.7,0-1-0.1c-0.3-0.1-0.6-0.3-0.8-0.6c-0.2-0.3-0.3-0.6-0.4-1s0-0.7,0.1-1s0.3-0.6,0.6-0.8c0.3-0.2,0.6-0.3,0.9-0.4
				c0.3,0,0.6,0,0.9,0.1c0.3,0.1,0.5,0.2,0.7,0.5l-0.3-2.3L293.8,398.5z M293.3,403.5c0.2-0.2,0.3-0.4,0.4-0.6
				c0.1-0.2,0.1-0.5,0.1-0.8c0-0.3-0.1-0.5-0.3-0.8s-0.3-0.4-0.6-0.5c-0.2-0.1-0.5-0.1-0.7-0.1c-0.3,0-0.5,0.1-0.7,0.3
				c-0.2,0.2-0.3,0.4-0.4,0.6c-0.1,0.2-0.1,0.5-0.1,0.8c0,0.3,0.1,0.5,0.3,0.8s0.3,0.4,0.6,0.5c0.2,0.1,0.5,0.1,0.8,0.1
				C292.8,403.7,293.1,403.6,293.3,403.5z"/>
		</g>
		<path fill="#E6E6E6" stroke="#B4B4B4" stroke-width="0.2454" stroke-miterlimit="10" d="M471.2,421l-210.1,30
			c-2.1,0.3-4-1.1-4.3-3.2l-2.7-19.1c-0.3-2.1,1.1-4,3.2-4.3l210.1-30c2.1-0.3,4,1.1,4.3,3.2l2.7,19.1
			C474.7,418.8,473.3,420.7,471.2,421z"/>
		<g>
			<path fill="#646464" d="M265.9,438.6c-0.4-0.2-0.8-0.4-1.1-0.8c-0.3-0.4-0.5-0.8-0.5-1.3s0-0.9,0.2-1.4c0.2-0.4,0.4-0.8,0.8-1.1
				c0.4-0.3,0.8-0.5,1.3-0.5c0.4-0.1,0.7,0,1.1,0c0.3,0.1,0.6,0.2,0.9,0.4l-0.3,0.4c-0.5-0.3-1-0.5-1.6-0.4
				c-0.4,0.1-0.8,0.2-1.1,0.4c-0.3,0.2-0.5,0.5-0.7,0.9c-0.1,0.3-0.2,0.7-0.1,1.1s0.2,0.7,0.4,1c0.2,0.3,0.5,0.5,0.9,0.6
				c0.4,0.1,0.7,0.2,1.1,0.1c0.6-0.1,1.1-0.4,1.4-0.8l0.4,0.3c-0.2,0.3-0.4,0.5-0.7,0.7c-0.3,0.2-0.6,0.3-1,0.3
				C266.8,438.8,266.3,438.7,265.9,438.6z"/>
			<path fill="#646464" d="M270.7,437.9c-0.3-0.1-0.6-0.3-0.8-0.6c-0.2-0.3-0.3-0.6-0.4-1c-0.1-0.4,0-0.7,0.1-1
				c0.1-0.3,0.3-0.6,0.6-0.8c0.3-0.2,0.6-0.3,1-0.4c0.4-0.1,0.7,0,1,0.1c0.3,0.1,0.6,0.3,0.8,0.6s0.3,0.6,0.4,1c0.1,0.4,0,0.7-0.1,1
				s-0.3,0.6-0.6,0.8c-0.3,0.2-0.6,0.3-1,0.4C271.4,438.1,271,438.1,270.7,437.9z M272.4,437.3c0.2-0.2,0.3-0.4,0.4-0.6
				c0.1-0.2,0.1-0.5,0.1-0.8c0-0.3-0.1-0.5-0.3-0.8s-0.3-0.4-0.6-0.5c-0.2-0.1-0.5-0.1-0.8-0.1c-0.3,0-0.5,0.1-0.7,0.3
				c-0.2,0.2-0.3,0.4-0.4,0.6c-0.1,0.2-0.1,0.5-0.1,0.8c0,0.3,0.1,0.5,0.3,0.8c0.2,0.2,0.3,0.4,0.6,0.5c0.2,0.1,0.5,0.1,0.8,0.1
				C272,437.6,272.2,437.5,272.4,437.3z"/>
			<path fill="#646464" d="M277.3,433.7c0.3,0.2,0.5,0.6,0.6,1.2l0.3,2.2l-0.5,0.1l-0.3-2.2c-0.1-0.4-0.2-0.7-0.4-0.9
				c-0.2-0.2-0.5-0.2-0.9-0.2c-0.4,0.1-0.7,0.2-0.9,0.5c-0.2,0.3-0.3,0.6-0.2,1.1l0.3,2l-0.5,0.1l-0.5-3.8l0.5-0.1l0.1,0.7
				c0.1-0.3,0.3-0.5,0.5-0.6c0.2-0.2,0.5-0.3,0.8-0.3C276.6,433.4,277,433.5,277.3,433.7z"/>
			<path fill="#646464" d="M279.7,432c-0.1,0.1-0.1,0.3-0.1,0.6l0.1,0.4l1.2-0.2l0.1,0.4l-1.2,0.2l0.5,3.4l-0.5,0.1l-0.5-3.4
				l-0.7,0.1l-0.1-0.4l0.7-0.1l-0.1-0.5c0-0.3,0-0.6,0.2-0.9c0.2-0.2,0.4-0.4,0.8-0.4c0.1,0,0.3,0,0.4,0c0.1,0,0.3,0.1,0.4,0.1
				l-0.1,0.4c-0.2-0.1-0.4-0.1-0.6-0.1C280,431.8,279.8,431.8,279.7,432z M282,431.7c-0.1-0.1-0.1-0.1-0.1-0.2c0-0.1,0-0.2,0.1-0.3
				c0.1-0.1,0.1-0.1,0.3-0.1c0.1,0,0.2,0,0.3,0.1c0.1,0.1,0.1,0.1,0.1,0.2c0,0.1,0,0.2-0.1,0.3c-0.1,0.1-0.1,0.1-0.3,0.1
				C282.2,431.8,282.1,431.8,282,431.7z M282.1,432.6l0.5-0.1l0.5,3.8l-0.5,0.1L282.1,432.6z"/>
			<path fill="#646464" d="M285.1,432.4c0.2-0.2,0.5-0.3,0.9-0.3l0.1,0.5l-0.1,0c-0.4,0.1-0.7,0.2-0.9,0.5s-0.3,0.6-0.2,1.1l0.3,1.9
				l-0.5,0.1l-0.5-3.8l0.5-0.1l0.1,0.7C284.8,432.8,284.9,432.5,285.1,432.4z"/>
			<path fill="#646464" d="M292.9,431.5c0.3,0.2,0.5,0.6,0.6,1.2l0.3,2.2l-0.5,0.1l-0.3-2.2c-0.1-0.4-0.2-0.7-0.4-0.9
				c-0.2-0.2-0.5-0.2-0.9-0.2c-0.4,0.1-0.7,0.2-0.9,0.5c-0.2,0.3-0.3,0.6-0.2,1.1l0.3,2l-0.5,0.1l-0.3-2.2c-0.1-0.4-0.2-0.7-0.4-0.9
				c-0.2-0.2-0.5-0.2-0.9-0.2c-0.4,0.1-0.7,0.2-0.9,0.5c-0.2,0.3-0.3,0.6-0.2,1.1l0.3,2l-0.5,0.1l-0.5-3.8l0.5-0.1l0.1,0.7
				c0.1-0.3,0.3-0.5,0.5-0.6c0.2-0.2,0.5-0.3,0.8-0.3c0.3,0,0.6,0,0.9,0.1c0.3,0.1,0.5,0.3,0.6,0.5c0.1-0.3,0.3-0.5,0.5-0.7
				c0.2-0.2,0.5-0.3,0.9-0.3C292.2,431.2,292.6,431.3,292.9,431.5z"/>
			<path fill="#646464" d="M300,429.3c0.4,0.3,0.7,0.7,0.7,1.2s0,1-0.4,1.4c-0.3,0.4-0.8,0.6-1.5,0.7l-1.4,0.2l0.2,1.6l-0.5,0.1
				l-0.7-5.1l1.9-0.3C299.1,428.9,299.6,429,300,429.3z M299.9,431.5c0.2-0.3,0.3-0.6,0.3-1c-0.1-0.4-0.2-0.7-0.5-0.9
				c-0.3-0.2-0.7-0.2-1.2-0.2l-1.3,0.2l0.4,2.5l1.3-0.2C299.3,432,299.7,431.8,299.9,431.5z"/>
			<path fill="#646464" d="M304.3,429.8c0.3,0.2,0.5,0.6,0.6,1l0.3,2.4l-0.5,0.1l-0.1-0.6c-0.1,0.2-0.2,0.4-0.4,0.5
				c-0.2,0.1-0.5,0.2-0.8,0.3c-0.4,0.1-0.8,0-1.1-0.2c-0.3-0.2-0.4-0.4-0.5-0.8c0-0.3,0-0.6,0.2-0.8c0.2-0.2,0.6-0.4,1.1-0.5
				l1.2-0.2l0-0.2c0-0.3-0.2-0.6-0.4-0.7c-0.2-0.1-0.5-0.2-0.8-0.1c-0.2,0-0.5,0.1-0.7,0.2c-0.2,0.1-0.4,0.2-0.5,0.4l-0.3-0.4
				c0.2-0.2,0.4-0.4,0.6-0.5c0.3-0.1,0.5-0.2,0.8-0.3C303.6,429.5,304,429.6,304.3,429.8z M304.2,432.8c0.2-0.2,0.3-0.4,0.4-0.6
				l-0.1-0.6l-1.2,0.2c-0.7,0.1-0.9,0.4-0.9,0.8c0,0.2,0.1,0.4,0.3,0.5c0.2,0.1,0.4,0.1,0.7,0.1C303.7,433.1,304,433,304.2,432.8z"
				/>
			<path fill="#646464" d="M306.7,432.9c-0.3,0-0.5-0.1-0.7-0.2l0.2-0.4c0.2,0.1,0.4,0.2,0.6,0.2s0.5,0,0.8,0c0.3,0,0.6-0.1,0.8-0.3
				s0.2-0.3,0.2-0.5c0-0.1-0.1-0.2-0.2-0.3c-0.1-0.1-0.2-0.1-0.4-0.1c-0.1,0-0.3,0-0.6,0c-0.3,0-0.6,0-0.8-0.1
				c-0.2,0-0.4-0.1-0.5-0.2s-0.2-0.3-0.3-0.6c0-0.3,0.1-0.6,0.3-0.8c0.2-0.2,0.6-0.4,1.1-0.5c0.2,0,0.5,0,0.8,0
				c0.3,0,0.5,0.1,0.6,0.2l-0.2,0.4c-0.3-0.2-0.7-0.2-1.2-0.2c-0.3,0-0.6,0.1-0.7,0.3c-0.2,0.1-0.2,0.3-0.2,0.5
				c0,0.1,0.1,0.3,0.2,0.3c0.1,0.1,0.2,0.1,0.4,0.1c0.1,0,0.3,0,0.6,0c0.3,0,0.6,0,0.8,0.1c0.2,0,0.4,0.1,0.5,0.2
				c0.1,0.1,0.2,0.3,0.3,0.6c0,0.3-0.1,0.6-0.3,0.9c-0.3,0.2-0.6,0.4-1.1,0.5C307.3,433,307,433,306.7,432.9z"/>
			<path fill="#646464" d="M310.3,432.4c-0.3,0-0.5-0.1-0.7-0.2l0.2-0.4c0.2,0.1,0.4,0.2,0.6,0.2c0.3,0,0.5,0,0.8,0
				c0.3-0.1,0.6-0.1,0.8-0.3c0.2-0.1,0.2-0.3,0.2-0.5c0-0.1-0.1-0.2-0.2-0.3s-0.2-0.1-0.4-0.1c-0.1,0-0.3,0-0.6,0
				c-0.3,0-0.6,0-0.8-0.1c-0.2,0-0.4-0.1-0.5-0.2c-0.2-0.1-0.2-0.3-0.3-0.6c0-0.3,0-0.6,0.3-0.8c0.2-0.2,0.6-0.4,1.1-0.5
				c0.2,0,0.5,0,0.8,0c0.3,0,0.5,0.1,0.6,0.2l-0.2,0.4c-0.3-0.2-0.7-0.2-1.2-0.2c-0.3,0-0.6,0.1-0.7,0.3s-0.2,0.3-0.2,0.5
				c0,0.1,0.1,0.3,0.2,0.3c0.1,0.1,0.2,0.1,0.4,0.1c0.1,0,0.3,0,0.6,0c0.3,0,0.6,0,0.8,0.1c0.2,0,0.4,0.1,0.5,0.2s0.2,0.3,0.3,0.6
				c0,0.3-0.1,0.6-0.3,0.9c-0.3,0.2-0.6,0.4-1.1,0.5C310.9,432.5,310.6,432.5,310.3,432.4z"/>
			<path fill="#646464" d="M318.8,427.4l-0.9,4l-0.5,0.1l-1.7-3l-0.8,3.3l-0.5,0.1l-2-3.6l0.5-0.1l1.7,3.1l0.8-3.4l0.4-0.1l1.7,3.1
				l0.8-3.4L318.8,427.4z"/>
			<path fill="#646464" d="M320.6,430.8c-0.3-0.1-0.6-0.3-0.8-0.6c-0.2-0.3-0.3-0.6-0.4-1s0-0.7,0.1-1c0.1-0.3,0.3-0.6,0.6-0.8
				c0.3-0.2,0.6-0.3,1-0.4s0.7,0,1,0.1c0.3,0.1,0.6,0.3,0.8,0.6c0.2,0.3,0.3,0.6,0.4,1c0.1,0.4,0,0.7-0.1,1
				c-0.1,0.3-0.3,0.6-0.6,0.8c-0.3,0.2-0.6,0.3-1,0.4C321.3,431,320.9,430.9,320.6,430.8z M322.3,430.2c0.2-0.2,0.3-0.4,0.4-0.6
				c0.1-0.2,0.1-0.5,0.1-0.8c0-0.3-0.1-0.5-0.3-0.8c-0.2-0.2-0.3-0.4-0.6-0.5c-0.2-0.1-0.5-0.1-0.8-0.1s-0.5,0.1-0.7,0.3
				c-0.2,0.2-0.3,0.4-0.4,0.6c-0.1,0.2-0.1,0.5-0.1,0.8c0,0.3,0.1,0.5,0.3,0.8c0.2,0.2,0.3,0.4,0.6,0.5c0.2,0.1,0.5,0.1,0.8,0.1
				C321.9,430.4,322.1,430.3,322.3,430.2z"/>
			<path fill="#646464" d="M325.2,426.7c0.2-0.2,0.5-0.3,0.9-0.3l0.1,0.5l-0.1,0c-0.4,0.1-0.7,0.2-0.9,0.5s-0.3,0.6-0.2,1.1l0.3,1.9
				l-0.5,0.1l-0.5-3.8l0.5-0.1l0.1,0.7C324.8,427.1,324.9,426.8,325.2,426.7z"/>
			<path fill="#646464" d="M330.3,424.2l0.8,5.4l-0.5,0.1l-0.1-0.8c-0.1,0.3-0.3,0.5-0.5,0.7c-0.2,0.2-0.5,0.3-0.8,0.3
				c-0.4,0.1-0.7,0-1-0.1s-0.6-0.3-0.8-0.6c-0.2-0.3-0.3-0.6-0.4-1c-0.1-0.4,0-0.7,0.1-1s0.3-0.6,0.6-0.8s0.6-0.3,0.9-0.4
				c0.3,0,0.6,0,0.9,0.1c0.3,0.1,0.5,0.3,0.7,0.5l-0.3-2.3L330.3,424.2z M329.7,429.1c0.2-0.2,0.3-0.4,0.4-0.6
				c0.1-0.2,0.1-0.5,0.1-0.8s-0.1-0.5-0.3-0.8c-0.2-0.2-0.3-0.4-0.6-0.5c-0.2-0.1-0.5-0.1-0.7-0.1c-0.3,0-0.5,0.1-0.7,0.3
				c-0.2,0.2-0.3,0.4-0.4,0.6c-0.1,0.2-0.1,0.5-0.1,0.8c0,0.3,0.1,0.5,0.3,0.8c0.2,0.2,0.3,0.4,0.6,0.5c0.2,0.1,0.5,0.1,0.8,0.1
				C329.3,429.4,329.5,429.3,329.7,429.1z"/>
		</g>
		<path fill="#A40032" d="M475.5,451.2l-210.1,30c-2.1,0.3-4-1.1-4.3-3.2l-2.7-19.1c-0.3-2.1,1.1-4,3.2-4.3l210.1-30
			c2.1-0.3,4,1.1,4.3,3.2l2.7,19.1C479,449,477.6,450.9,475.5,451.2z"/>
		<g>
			<path fill="#FFFFFF" d="M355.3,456.8c-0.4-0.1-0.7-0.2-0.9-0.3l0.2-0.8c0.2,0.1,0.5,0.2,0.8,0.3c0.3,0.1,0.6,0.1,0.9,0
				c0.4-0.1,0.7-0.2,0.8-0.3c0.2-0.1,0.2-0.3,0.2-0.5c0-0.1-0.1-0.3-0.2-0.3c-0.1-0.1-0.3-0.1-0.4-0.2c-0.2,0-0.4-0.1-0.7-0.1
				c-0.4,0-0.7-0.1-1-0.1c-0.3-0.1-0.5-0.2-0.7-0.3c-0.2-0.2-0.3-0.4-0.4-0.8c0-0.3,0-0.5,0.1-0.8c0.1-0.3,0.3-0.5,0.6-0.6
				c0.3-0.2,0.7-0.3,1.1-0.4c0.3,0,0.6,0,0.9,0c0.3,0,0.6,0.1,0.8,0.2l-0.2,0.8c-0.2-0.1-0.5-0.2-0.7-0.2c-0.3,0-0.5,0-0.7,0
				c-0.4,0.1-0.6,0.2-0.8,0.3c-0.2,0.2-0.2,0.3-0.2,0.5c0,0.1,0.1,0.3,0.2,0.3c0.1,0.1,0.3,0.1,0.4,0.2c0.2,0,0.4,0.1,0.7,0.1
				c0.4,0,0.7,0.1,1,0.1c0.3,0.1,0.5,0.2,0.7,0.3c0.2,0.2,0.3,0.4,0.4,0.7c0,0.3,0,0.5-0.1,0.8c-0.1,0.3-0.3,0.5-0.6,0.6
				c-0.3,0.2-0.7,0.3-1.1,0.4C356.1,456.9,355.7,456.9,355.3,456.8z"/>
			<path fill="#FFFFFF" d="M358.7,451.7c-0.1-0.1-0.2-0.2-0.2-0.4c0-0.2,0-0.3,0.1-0.4c0.1-0.1,0.2-0.2,0.4-0.2c0.2,0,0.3,0,0.4,0.1
				s0.2,0.2,0.2,0.4c0,0.2,0,0.3-0.1,0.4c-0.1,0.1-0.2,0.2-0.4,0.2C359,451.8,358.9,451.8,358.7,451.7z M358.8,452.5l0.9-0.1
				l0.6,3.9l-0.9,0.1L358.8,452.5z"/>
			<path fill="#FFFFFF" d="M364.8,451.6l0.5,3.3c0.2,1.4-0.4,2.1-1.8,2.3c-0.4,0.1-0.7,0.1-1.1,0s-0.6-0.1-0.9-0.3l0.3-0.7
				c0.2,0.1,0.4,0.2,0.7,0.2c0.3,0,0.5,0.1,0.8,0c0.4-0.1,0.7-0.2,0.9-0.4c0.2-0.2,0.2-0.5,0.2-0.9l0-0.2c-0.1,0.2-0.3,0.3-0.5,0.5
				s-0.4,0.2-0.7,0.2c-0.4,0.1-0.7,0-1-0.1c-0.3-0.1-0.6-0.3-0.8-0.6c-0.2-0.3-0.3-0.6-0.4-0.9c-0.1-0.4,0-0.7,0.1-1
				c0.1-0.3,0.3-0.6,0.6-0.8s0.6-0.3,1-0.4c0.3,0,0.5,0,0.8,0c0.2,0.1,0.5,0.2,0.6,0.3l-0.1-0.5L364.8,451.6z M363.9,454.4
				c0.2-0.2,0.3-0.5,0.2-0.8c0-0.3-0.2-0.6-0.4-0.7c-0.2-0.2-0.5-0.2-0.9-0.2c-0.3,0-0.6,0.2-0.8,0.4c-0.2,0.2-0.3,0.5-0.2,0.8
				c0,0.3,0.2,0.6,0.4,0.8c0.2,0.2,0.5,0.2,0.9,0.2C363.4,454.8,363.7,454.7,363.9,454.4z"/>
			<path fill="#FFFFFF" d="M369.4,451.4c0.3,0.2,0.5,0.6,0.6,1.2l0.3,2.2l-0.9,0.1l-0.3-2.1c0-0.3-0.2-0.6-0.3-0.7
				c-0.2-0.1-0.4-0.2-0.7-0.2c-0.3,0-0.6,0.2-0.7,0.4c-0.2,0.2-0.2,0.5-0.2,0.9l0.3,2l-0.9,0.1l-0.6-3.9l0.9-0.1l0.1,0.5
				c0.1-0.2,0.3-0.4,0.5-0.5c0.2-0.1,0.5-0.2,0.7-0.2C368.6,451,369,451.1,369.4,451.4z"/>
			<path fill="#FFFFFF" d="M370.9,452.3l2-0.3l0.1,0.8l-2,0.3L370.9,452.3z"/>
			<path fill="#FFFFFF" d="M377.5,449.8l0.6,3.9l-0.9,0.1l-0.1-0.5c-0.1,0.2-0.3,0.4-0.5,0.5c-0.2,0.1-0.4,0.2-0.7,0.2
				c-0.5,0.1-0.9,0-1.3-0.3c-0.3-0.2-0.5-0.7-0.6-1.2l-0.3-2.2l0.9-0.1l0.3,2.1c0,0.3,0.2,0.6,0.3,0.7c0.2,0.2,0.4,0.2,0.7,0.2
				c0.3,0,0.6-0.2,0.7-0.4c0.2-0.2,0.2-0.5,0.2-0.9l-0.3-2L377.5,449.8z"/>
			<path fill="#FFFFFF" d="M381.8,449.4c0.3,0.1,0.6,0.3,0.8,0.6c0.2,0.3,0.3,0.6,0.4,1s0,0.8-0.1,1.1c-0.1,0.3-0.3,0.6-0.6,0.8
				c-0.3,0.2-0.6,0.3-1,0.4c-0.5,0.1-1,0-1.3-0.3l0.3,1.9l-0.9,0.1l-0.8-5.3l0.9-0.1l0.1,0.5c0.1-0.2,0.3-0.4,0.5-0.5
				c0.2-0.1,0.4-0.2,0.7-0.2C381.2,449.2,381.5,449.3,381.8,449.4z M381.9,452c0.2-0.3,0.3-0.6,0.2-0.9c-0.1-0.4-0.2-0.6-0.4-0.8
				c-0.2-0.2-0.5-0.3-0.9-0.2c-0.2,0-0.4,0.1-0.6,0.2c-0.2,0.1-0.3,0.3-0.4,0.5c-0.1,0.2-0.1,0.4-0.1,0.7c0,0.2,0.1,0.4,0.2,0.6
				c0.1,0.2,0.3,0.3,0.5,0.4s0.4,0.1,0.6,0.1C381.5,452.5,381.7,452.3,381.9,452z"/>
		</g>
		<path fill="#E6E6E6" stroke="#B4B4B4" stroke-width="0.2454" stroke-miterlimit="10" d="M462.6,360.6l-210.1,30
			c-2.1,0.3-4-1.1-4.3-3.2l-2.7-19.1c-0.3-2.1,1.1-4,3.2-4.3l210.1-30c2.1-0.3,4,1.1,4.3,3.2l2.7,19.1
			C466.1,358.4,464.7,360.3,462.6,360.6z"/>
		<g>
			<path fill="#646464" d="M260,377.5l0.1,0.5l-3.6,0.5l-0.7-5.1l3.5-0.5l0.1,0.5l-2.9,0.4l0.3,1.8l2.6-0.4l0.1,0.5l-2.6,0.4
				l0.3,1.9L260,377.5z"/>
			<path fill="#646464" d="M266.6,373.6c0.3,0.2,0.5,0.6,0.6,1.2l0.3,2.2L267,377l-0.3-2.2c-0.1-0.4-0.2-0.7-0.4-0.9
				c-0.2-0.2-0.5-0.2-0.9-0.2c-0.4,0.1-0.7,0.2-0.9,0.5c-0.2,0.3-0.3,0.6-0.2,1.1l0.3,2l-0.5,0.1l-0.3-2.2c-0.1-0.4-0.2-0.7-0.4-0.9
				c-0.2-0.2-0.5-0.2-0.9-0.2c-0.4,0.1-0.7,0.2-0.9,0.5c-0.2,0.3-0.3,0.6-0.2,1.1l0.3,2l-0.5,0.1l-0.5-3.8l0.5-0.1l0.1,0.7
				c0.1-0.3,0.3-0.5,0.5-0.6c0.2-0.2,0.5-0.3,0.8-0.3c0.3,0,0.6,0,0.9,0.1c0.3,0.1,0.5,0.3,0.6,0.5c0.1-0.3,0.3-0.5,0.5-0.7
				c0.2-0.2,0.5-0.3,0.9-0.3C265.9,373.3,266.3,373.3,266.6,373.6z"/>
			<path fill="#646464" d="M270.9,372.9c0.3,0.2,0.5,0.6,0.6,1l0.3,2.4l-0.5,0.1l-0.1-0.6c-0.1,0.2-0.2,0.4-0.4,0.5
				c-0.2,0.1-0.5,0.2-0.8,0.3c-0.4,0.1-0.8,0-1.1-0.2c-0.3-0.2-0.4-0.4-0.5-0.8c0-0.3,0-0.6,0.2-0.8c0.2-0.2,0.6-0.4,1.1-0.5
				l1.2-0.2l0-0.2c0-0.3-0.2-0.6-0.4-0.7c-0.2-0.1-0.5-0.2-0.8-0.1c-0.2,0-0.5,0.1-0.7,0.2c-0.2,0.1-0.4,0.2-0.5,0.4l-0.3-0.4
				c0.2-0.2,0.4-0.4,0.6-0.5c0.3-0.1,0.5-0.2,0.8-0.3C270.2,372.6,270.6,372.7,270.9,372.9z M270.7,375.9c0.2-0.2,0.3-0.4,0.4-0.6
				l-0.1-0.6l-1.2,0.2c-0.7,0.1-0.9,0.4-0.9,0.8c0,0.2,0.1,0.4,0.3,0.5c0.2,0.1,0.4,0.1,0.7,0.1
				C270.3,376.2,270.5,376.1,270.7,375.9z"/>
			<path fill="#646464" d="M272.5,371.4c-0.1-0.1-0.1-0.1-0.1-0.2c0-0.1,0-0.2,0.1-0.3c0.1-0.1,0.1-0.1,0.3-0.1c0.1,0,0.2,0,0.3,0.1
				c0.1,0.1,0.1,0.1,0.1,0.2c0,0.1,0,0.2-0.1,0.3c-0.1,0.1-0.1,0.1-0.3,0.1C272.7,371.5,272.6,371.4,272.5,371.4z M272.6,372.3
				l0.5-0.1l0.5,3.8l-0.5,0.1L272.6,372.3z"/>
			<path fill="#646464" d="M274.4,370.5l0.5-0.1l0.8,5.4l-0.5,0.1L274.4,370.5z"/>
		</g>
		<path fill="#E6E6E6" stroke="#B4B4B4" stroke-width="0.2454" stroke-miterlimit="10" d="M458.3,330.4l-210.1,30
			c-2.1,0.3-4-1.1-4.3-3.2l-2.7-19.1c-0.3-2.1,1.1-4,3.2-4.3l210.1-30c2.1-0.3,4,1.1,4.3,3.2l2.7,19.1
			C461.8,328.1,460.4,330.1,458.3,330.4z"/>
		<g>
			<path fill="#646464" d="M256.7,342.5l0.7,5.1l-0.5,0.1l-0.6-4.1l-1.5,3.7l-0.3,0l-2.5-3.1l0.6,4l-0.5,0.1l-0.7-5.1l0.4-0.1
				l2.7,3.5l1.6-4.1L256.7,342.5z"/>
			<path fill="#646464" d="M259.5,347c-0.3-0.1-0.6-0.3-0.8-0.6c-0.2-0.3-0.3-0.6-0.4-1c-0.1-0.4,0-0.7,0.1-1
				c0.1-0.3,0.3-0.6,0.6-0.8c0.3-0.2,0.6-0.3,1-0.4s0.7,0,1,0.1c0.3,0.1,0.6,0.3,0.8,0.6c0.2,0.3,0.3,0.6,0.4,1c0.1,0.4,0,0.7-0.1,1
				c-0.1,0.3-0.3,0.6-0.6,0.8c-0.3,0.2-0.6,0.3-1,0.4S259.8,347.2,259.5,347z M261.2,346.4c0.2-0.2,0.3-0.4,0.4-0.6
				c0.1-0.2,0.1-0.5,0.1-0.8c0-0.3-0.1-0.5-0.3-0.8c-0.2-0.2-0.3-0.4-0.6-0.5c-0.2-0.1-0.5-0.1-0.8-0.1s-0.5,0.1-0.7,0.3
				s-0.3,0.4-0.4,0.6c-0.1,0.2-0.1,0.5-0.1,0.8c0,0.3,0.1,0.5,0.3,0.8c0.2,0.2,0.3,0.4,0.6,0.5c0.2,0.1,0.5,0.1,0.8,0.1
				S261,346.5,261.2,346.4z"/>
			<path fill="#646464" d="M265.9,342.7c0.3,0.1,0.6,0.3,0.8,0.6c0.2,0.3,0.3,0.6,0.4,1s0,0.7-0.1,1c-0.1,0.3-0.3,0.6-0.6,0.8
				c-0.3,0.2-0.6,0.3-0.9,0.4c-0.3,0-0.6,0-0.9-0.1c-0.3-0.1-0.5-0.3-0.7-0.5l0.1,0.8l-0.5,0.1l-0.8-5.4l0.5-0.1l0.3,2.3
				c0.1-0.3,0.3-0.5,0.5-0.6c0.2-0.2,0.5-0.3,0.8-0.3C265.3,342.5,265.6,342.5,265.9,342.7z M266.1,345.7c0.2-0.2,0.3-0.4,0.4-0.6
				c0.1-0.2,0.1-0.5,0.1-0.8c0-0.3-0.1-0.5-0.3-0.8c-0.2-0.2-0.4-0.4-0.6-0.5s-0.5-0.1-0.8-0.1c-0.3,0-0.5,0.1-0.7,0.3
				c-0.2,0.2-0.3,0.4-0.4,0.6c-0.1,0.2-0.1,0.5-0.1,0.8c0,0.3,0.1,0.5,0.3,0.8c0.2,0.2,0.3,0.4,0.6,0.5c0.2,0.1,0.5,0.1,0.8,0.1
				C265.7,345.9,265.9,345.8,266.1,345.7z"/>
			<path fill="#646464" d="M267.7,341.2c-0.1-0.1-0.1-0.1-0.1-0.2c0-0.1,0-0.2,0.1-0.3c0.1-0.1,0.1-0.1,0.3-0.1s0.2,0,0.3,0.1
				c0.1,0.1,0.1,0.1,0.1,0.2c0,0.1,0,0.2-0.1,0.3c-0.1,0.1-0.1,0.1-0.3,0.1S267.8,341.3,267.7,341.2z M267.9,342.2l0.5-0.1l0.5,3.8
				l-0.5,0.1L267.9,342.2z"/>
			<path fill="#646464" d="M269.6,340.3l0.5-0.1l0.8,5.4l-0.5,0.1L269.6,340.3z"/>
			<path fill="#646464" d="M275.4,343.2l-3.2,0.5c0.1,0.4,0.3,0.7,0.6,0.9c0.3,0.2,0.7,0.3,1.1,0.2c0.2,0,0.4-0.1,0.6-0.2
				c0.2-0.1,0.3-0.3,0.5-0.4l0.3,0.3c-0.1,0.2-0.3,0.4-0.6,0.6c-0.2,0.1-0.5,0.2-0.8,0.3c-0.4,0.1-0.8,0-1.1-0.1
				c-0.3-0.1-0.6-0.3-0.8-0.6c-0.2-0.3-0.3-0.6-0.4-1c-0.1-0.4,0-0.7,0.1-1c0.1-0.3,0.3-0.6,0.6-0.8c0.3-0.2,0.6-0.3,0.9-0.4
				c0.4-0.1,0.7,0,1,0.1c0.3,0.1,0.6,0.3,0.8,0.6c0.2,0.3,0.3,0.6,0.4,1L275.4,343.2z M272.5,342.3c-0.2,0.3-0.3,0.6-0.3,1l2.7-0.4
				c-0.1-0.4-0.3-0.7-0.6-0.9c-0.3-0.2-0.6-0.3-1-0.2C273,341.9,272.7,342,272.5,342.3z"/>
		</g>
		<path fill="#E6E6E6" stroke="#B4B4B4" stroke-width="0.2454" stroke-miterlimit="10" d="M454,300.1l-210.1,30
			c-2.1,0.3-4-1.1-4.3-3.2l-2.7-19.1c-0.3-2.1,1.1-4,3.2-4.3l210.1-30c2.1-0.3,4,1.1,4.3,3.2l2.7,19.1
			C457.5,297.9,456,299.8,454,300.1z"/>
		<g>
			<path fill="#646464" d="M247.1,313l0.5-0.1l0.7,4.6l2.8-0.4l0.1,0.5l-3.4,0.5L247.1,313z"/>
			<path fill="#646464" d="M254,313.7c0.3,0.2,0.5,0.6,0.6,1l0.3,2.4l-0.5,0.1l-0.1-0.6c-0.1,0.2-0.2,0.4-0.4,0.5
				c-0.2,0.1-0.5,0.2-0.8,0.3c-0.4,0.1-0.8,0-1.1-0.2c-0.3-0.2-0.4-0.4-0.5-0.8c0-0.3,0-0.6,0.2-0.8c0.2-0.2,0.6-0.4,1.1-0.5
				l1.2-0.2l0-0.2c0-0.3-0.2-0.6-0.4-0.7c-0.2-0.1-0.5-0.2-0.8-0.1c-0.2,0-0.5,0.1-0.7,0.2c-0.2,0.1-0.4,0.2-0.5,0.4l-0.3-0.4
				c0.2-0.2,0.4-0.4,0.6-0.5c0.3-0.1,0.5-0.2,0.8-0.3C253.3,313.4,253.7,313.4,254,313.7z M253.8,316.6c0.2-0.2,0.3-0.4,0.4-0.6
				l-0.1-0.6l-1.2,0.2c-0.7,0.1-0.9,0.4-0.9,0.8c0,0.2,0.1,0.4,0.3,0.5s0.4,0.1,0.7,0.1C253.4,316.9,253.6,316.8,253.8,316.6z"/>
			<path fill="#646464" d="M256.4,316.8c-0.3,0-0.5-0.1-0.7-0.2l0.2-0.4c0.2,0.1,0.4,0.2,0.6,0.2c0.3,0,0.5,0,0.8,0
				c0.3,0,0.6-0.1,0.7-0.3c0.2-0.1,0.2-0.3,0.2-0.5c0-0.1-0.1-0.2-0.2-0.3c-0.1-0.1-0.2-0.1-0.4-0.1c-0.1,0-0.3,0-0.6,0
				c-0.3,0-0.6,0-0.8-0.1c-0.2,0-0.4-0.1-0.5-0.2c-0.2-0.1-0.2-0.3-0.3-0.6c0-0.3,0-0.6,0.3-0.8c0.2-0.2,0.6-0.4,1.1-0.5
				c0.2,0,0.5,0,0.8,0c0.3,0,0.5,0.1,0.6,0.2l-0.2,0.4c-0.3-0.2-0.7-0.2-1.2-0.2c-0.3,0-0.6,0.1-0.7,0.3c-0.1,0.1-0.2,0.3-0.2,0.5
				c0,0.1,0.1,0.3,0.2,0.3s0.2,0.1,0.4,0.1s0.3,0,0.6,0c0.3,0,0.6,0,0.8,0.1c0.2,0,0.4,0.1,0.5,0.2s0.2,0.3,0.3,0.6
				c0,0.3-0.1,0.6-0.3,0.9c-0.3,0.2-0.6,0.4-1.1,0.5C257,316.8,256.7,316.8,256.4,316.8z"/>
			<path fill="#646464" d="M261.8,315.8c-0.1,0.1-0.2,0.2-0.3,0.3c-0.1,0.1-0.3,0.1-0.4,0.1c-0.4,0.1-0.6,0-0.9-0.2
				s-0.4-0.4-0.4-0.8l-0.3-2.3l-0.7,0.1l-0.1-0.4l0.7-0.1l-0.1-0.8l0.5-0.1l0.1,0.8l1.2-0.2l0.1,0.4l-1.2,0.2l0.3,2.3
				c0,0.2,0.1,0.4,0.2,0.5s0.3,0.1,0.5,0.1c0.1,0,0.2,0,0.3-0.1c0.1,0,0.2-0.1,0.2-0.2L261.8,315.8z"/>
			<path fill="#646464" d="M268.3,310l0.7,5.1l-0.4,0.1l-3.9-3.7l0.6,4.1l-0.5,0.1l-0.7-5.1l0.4-0.1l3.9,3.7l-0.6-4.1L268.3,310z"/>
			<path fill="#646464" d="M272.6,311c0.3,0.2,0.5,0.6,0.6,1l0.3,2.4l-0.5,0.1l-0.1-0.6c-0.1,0.2-0.2,0.4-0.4,0.5
				c-0.2,0.1-0.5,0.2-0.8,0.3c-0.4,0.1-0.8,0-1.1-0.2c-0.3-0.2-0.4-0.4-0.5-0.8c0-0.3,0-0.6,0.2-0.8s0.6-0.4,1.1-0.5l1.2-0.2l0-0.2
				c0-0.3-0.2-0.6-0.4-0.7c-0.2-0.1-0.5-0.2-0.8-0.1c-0.2,0-0.5,0.1-0.7,0.2s-0.4,0.2-0.5,0.4l-0.3-0.4c0.2-0.2,0.4-0.4,0.6-0.5
				s0.5-0.2,0.8-0.3C271.9,310.7,272.3,310.8,272.6,311z M272.4,314c0.2-0.2,0.3-0.4,0.4-0.6l-0.1-0.6l-1.2,0.2
				c-0.7,0.1-0.9,0.4-0.9,0.8c0,0.2,0.1,0.4,0.3,0.5c0.2,0.1,0.4,0.1,0.7,0.1C272,314.3,272.2,314.2,272.4,314z"/>
			<path fill="#646464" d="M280.3,310c0.3,0.2,0.5,0.6,0.6,1.2l0.3,2.2l-0.5,0.1l-0.3-2.2c-0.1-0.4-0.2-0.7-0.4-0.9
				c-0.2-0.2-0.5-0.2-0.9-0.2c-0.4,0.1-0.7,0.2-0.9,0.5c-0.2,0.3-0.3,0.6-0.2,1.1l0.3,2l-0.5,0.1l-0.3-2.2c-0.1-0.4-0.2-0.7-0.4-0.9
				c-0.2-0.2-0.5-0.2-0.9-0.2c-0.4,0.1-0.7,0.2-0.9,0.5c-0.2,0.3-0.3,0.6-0.2,1.1l0.3,2l-0.5,0.1l-0.5-3.8l0.5-0.1l0.1,0.7
				c0.1-0.3,0.3-0.5,0.5-0.6c0.2-0.2,0.5-0.3,0.8-0.3c0.3,0,0.6,0,0.9,0.1c0.3,0.1,0.5,0.3,0.6,0.5c0.1-0.3,0.3-0.5,0.5-0.7
				c0.2-0.2,0.5-0.3,0.9-0.3C279.5,309.6,279.9,309.7,280.3,310z"/>
			<path fill="#646464" d="M285.6,310.9l-3.2,0.5c0.1,0.4,0.3,0.7,0.6,0.9c0.3,0.2,0.7,0.3,1.1,0.2c0.2,0,0.4-0.1,0.6-0.2
				c0.2-0.1,0.3-0.3,0.5-0.4l0.3,0.3c-0.1,0.2-0.3,0.4-0.6,0.6c-0.2,0.1-0.5,0.2-0.8,0.3c-0.4,0.1-0.8,0-1.1-0.1
				c-0.3-0.1-0.6-0.3-0.8-0.6c-0.2-0.3-0.3-0.6-0.4-1c-0.1-0.4,0-0.7,0.1-1c0.1-0.3,0.3-0.6,0.6-0.8c0.3-0.2,0.6-0.3,0.9-0.4
				s0.7,0,1,0.1c0.3,0.1,0.6,0.3,0.8,0.6c0.2,0.3,0.3,0.6,0.4,1L285.6,310.9z M282.7,310c-0.2,0.3-0.3,0.6-0.3,1l2.7-0.4
				c-0.1-0.4-0.3-0.7-0.6-0.9c-0.3-0.2-0.6-0.3-1-0.2C283.2,309.6,282.9,309.7,282.7,310z"/>
		</g>
		<path fill="#E6E6E6" stroke="#B4B4B4" stroke-width="0.2454" stroke-miterlimit="10" d="M449.7,269.9l-210.1,30
			c-2.1,0.3-4-1.1-4.3-3.2l-2.7-19.1c-0.3-2.1,1.1-4,3.2-4.3l210.1-30c2.1-0.3,4,1.1,4.3,3.2l2.7,19.1
			C453.2,267.7,451.7,269.6,449.7,269.9z"/>
		<g>
			<path fill="#646464" d="M243.4,283.2l0.3,2l2.6-0.4l0.1,0.5l-2.6,0.4l0.3,2.2l-0.5,0.1l-0.7-5.1l3.5-0.5l0.1,0.5L243.4,283.2z"/>
			<path fill="#646464" d="M247.3,282.5c-0.1-0.1-0.1-0.1-0.1-0.2c0-0.1,0-0.2,0.1-0.3s0.1-0.1,0.3-0.1c0.1,0,0.2,0,0.3,0.1
				s0.1,0.1,0.1,0.2c0,0.1,0,0.2-0.1,0.3c-0.1,0.1-0.1,0.1-0.3,0.1C247.5,282.5,247.4,282.5,247.3,282.5z M247.5,283.4l0.5-0.1
				l0.5,3.8l-0.5,0.1L247.5,283.4z"/>
			<path fill="#646464" d="M250.5,283.1c0.2-0.2,0.5-0.3,0.9-0.3l0.1,0.5l-0.1,0c-0.4,0.1-0.7,0.2-0.9,0.5c-0.2,0.3-0.3,0.6-0.2,1.1
				l0.3,1.9l-0.5,0.1l-0.5-3.8l0.5-0.1l0.1,0.7C250.1,283.5,250.3,283.3,250.5,283.1z"/>
			<path fill="#646464" d="M253,286.4c-0.3,0-0.5-0.1-0.7-0.2l0.2-0.4c0.2,0.1,0.4,0.2,0.6,0.2c0.3,0,0.5,0,0.8,0
				c0.3,0,0.6-0.1,0.8-0.3c0.2-0.1,0.2-0.3,0.2-0.5c0-0.1-0.1-0.2-0.2-0.3c-0.1-0.1-0.2-0.1-0.4-0.1c-0.1,0-0.3,0-0.6,0
				c-0.3,0-0.6,0-0.8-0.1s-0.4-0.1-0.5-0.2c-0.2-0.1-0.2-0.3-0.3-0.6c0-0.3,0.1-0.6,0.3-0.8c0.2-0.2,0.6-0.4,1.1-0.5
				c0.2,0,0.5,0,0.8,0c0.3,0,0.5,0.1,0.6,0.2l-0.2,0.4c-0.3-0.2-0.7-0.2-1.2-0.2c-0.3,0-0.6,0.1-0.7,0.3s-0.2,0.3-0.2,0.5
				c0,0.1,0.1,0.3,0.2,0.3c0.1,0.1,0.2,0.1,0.4,0.1c0.1,0,0.3,0,0.6,0c0.3,0,0.6,0,0.8,0.1s0.4,0.1,0.5,0.2c0.2,0.1,0.2,0.3,0.3,0.6
				c0,0.3-0.1,0.6-0.3,0.9c-0.3,0.2-0.6,0.4-1.1,0.5C253.6,286.5,253.3,286.5,253,286.4z"/>
			<path fill="#646464" d="M258.4,285.5c-0.1,0.1-0.2,0.2-0.3,0.3c-0.1,0.1-0.3,0.1-0.4,0.1c-0.4,0.1-0.6,0-0.9-0.2
				c-0.2-0.2-0.4-0.4-0.4-0.8l-0.3-2.3l-0.7,0.1l-0.1-0.4l0.7-0.1l-0.1-0.8l0.5-0.1l0.1,0.8l1.2-0.2l0.1,0.4l-1.2,0.2l0.3,2.3
				c0,0.2,0.1,0.4,0.2,0.5c0.1,0.1,0.3,0.1,0.5,0.1c0.1,0,0.2,0,0.3-0.1c0.1,0,0.2-0.1,0.2-0.2L258.4,285.5z"/>
			<path fill="#646464" d="M264.9,279.6l0.7,5.1l-0.4,0.1l-3.9-3.7l0.6,4.1l-0.5,0.1l-0.7-5.1l0.4-0.1l3.9,3.7l-0.6-4.1L264.9,279.6
				z"/>
			<path fill="#646464" d="M269.2,280.7c0.3,0.2,0.5,0.6,0.6,1.1l0.3,2.4l-0.5,0.1l-0.1-0.6c-0.1,0.2-0.2,0.4-0.4,0.5
				s-0.5,0.2-0.8,0.3c-0.4,0.1-0.8,0-1.1-0.2c-0.3-0.2-0.4-0.4-0.5-0.8c0-0.3,0-0.6,0.2-0.8c0.2-0.2,0.6-0.4,1.1-0.5l1.2-0.2l0-0.2
				c0-0.3-0.2-0.6-0.4-0.7c-0.2-0.1-0.5-0.2-0.8-0.1c-0.2,0-0.5,0.1-0.7,0.2c-0.2,0.1-0.4,0.2-0.5,0.4l-0.3-0.4
				c0.2-0.2,0.4-0.4,0.6-0.5s0.5-0.2,0.8-0.3C268.4,280.4,268.8,280.5,269.2,280.7z M269,283.6c0.2-0.2,0.3-0.4,0.4-0.6l-0.1-0.6
				l-1.2,0.2c-0.7,0.1-0.9,0.4-0.9,0.8c0,0.2,0.1,0.4,0.3,0.5c0.2,0.1,0.4,0.1,0.7,0.1C268.6,283.9,268.8,283.8,269,283.6z"/>
			<path fill="#646464" d="M276.8,279.6c0.3,0.2,0.5,0.6,0.6,1.2l0.3,2.2l-0.5,0.1l-0.3-2.2c-0.1-0.4-0.2-0.7-0.4-0.9
				c-0.2-0.2-0.5-0.2-0.9-0.2c-0.4,0.1-0.7,0.2-0.9,0.5c-0.2,0.3-0.3,0.6-0.2,1.1l0.3,2l-0.5,0.1l-0.3-2.2c-0.1-0.4-0.2-0.7-0.4-0.9
				c-0.2-0.2-0.5-0.2-0.9-0.2c-0.4,0.1-0.7,0.2-0.9,0.5c-0.2,0.3-0.3,0.6-0.2,1.1l0.3,2l-0.5,0.1l-0.5-3.8l0.5-0.1l0.1,0.7
				c0.1-0.3,0.3-0.5,0.5-0.6c0.2-0.2,0.5-0.3,0.8-0.3c0.3,0,0.6,0,0.9,0.1c0.3,0.1,0.5,0.3,0.6,0.5c0.1-0.3,0.3-0.5,0.5-0.7
				c0.2-0.2,0.5-0.3,0.9-0.3C276.1,279.3,276.5,279.4,276.8,279.6z"/>
			<path fill="#646464" d="M282.2,280.6L279,281c0.1,0.4,0.3,0.7,0.6,0.9s0.7,0.3,1.1,0.2c0.2,0,0.4-0.1,0.6-0.2
				c0.2-0.1,0.3-0.3,0.5-0.4l0.3,0.3c-0.1,0.2-0.3,0.4-0.6,0.6c-0.2,0.1-0.5,0.2-0.8,0.3c-0.4,0.1-0.8,0-1.1-0.1
				c-0.3-0.1-0.6-0.3-0.8-0.6c-0.2-0.3-0.3-0.6-0.4-1c-0.1-0.4,0-0.7,0.1-1c0.1-0.3,0.3-0.6,0.6-0.8c0.3-0.2,0.6-0.3,0.9-0.4
				c0.4,0,0.7,0,1,0.1c0.3,0.1,0.6,0.3,0.8,0.6c0.2,0.3,0.3,0.6,0.4,1L282.2,280.6z M279.3,279.7c-0.2,0.3-0.3,0.6-0.3,1l2.7-0.4
				c-0.1-0.4-0.3-0.7-0.6-0.9c-0.3-0.2-0.6-0.3-1-0.2C279.8,279.2,279.5,279.4,279.3,279.7z"/>
		</g>
		<g>
			<g>
				<path fill="#004B82" d="M325.6,242.5l2.4-0.3l0.3,2.1l-2.4,0.3l1,7.1l-2.7,0.4l-1-7.1l-1.5,0.2l-0.3-2.1l1.5-0.2l-0.1-0.4
					c-0.2-1.1,0-2,0.6-2.7c0.5-0.7,1.4-1.2,2.6-1.3c0.4-0.1,0.8-0.1,1.2,0c0.4,0,0.7,0.1,1,0.2l-0.4,2.1c-0.3-0.2-0.7-0.2-1.2-0.2
					c-0.8,0.1-1.2,0.6-1.1,1.5L325.6,242.5z"/>
				<path fill="#004B82" d="M332.3,250.4c-0.8-0.3-1.5-0.8-2.1-1.5c-0.5-0.7-0.9-1.5-1-2.4c-0.1-0.9,0-1.8,0.3-2.6
					c0.3-0.8,0.9-1.5,1.6-2c0.7-0.5,1.6-0.9,2.6-1c1-0.1,1.9-0.1,2.8,0.2c0.8,0.3,1.5,0.8,2.1,1.5c0.5,0.7,0.9,1.5,1,2.4
					c0.1,0.9,0,1.8-0.3,2.6c-0.3,0.8-0.9,1.5-1.6,2c-0.7,0.5-1.6,0.9-2.6,1C334.1,250.8,333.1,250.7,332.3,250.4z M336.4,247.5
					c0.4-0.5,0.5-1.2,0.4-2c-0.1-0.8-0.4-1.4-0.9-1.8c-0.5-0.4-1.1-0.6-1.8-0.5c-0.7,0.1-1.2,0.4-1.6,1c-0.4,0.5-0.5,1.2-0.4,2
					c0.1,0.8,0.4,1.4,1,1.8c0.5,0.4,1.1,0.6,1.8,0.5C335.4,248.3,336,248,336.4,247.5z"/>
				<path fill="#004B82" d="M355.3,247.2c-0.8-0.3-1.5-0.8-2.1-1.5c-0.5-0.7-0.9-1.5-1-2.4c-0.1-0.9,0-1.8,0.3-2.6
					c0.3-0.8,0.9-1.5,1.6-2c0.7-0.5,1.6-0.9,2.6-1c1-0.1,1.9-0.1,2.8,0.2c0.8,0.3,1.5,0.8,2.1,1.5c0.5,0.7,0.9,1.5,1,2.4
					c0.1,0.9,0,1.8-0.3,2.6c-0.3,0.8-0.9,1.5-1.6,2c-0.7,0.5-1.6,0.9-2.6,1S356.1,247.5,355.3,247.2z M359.3,244.2
					c0.4-0.5,0.5-1.2,0.4-2c-0.1-0.8-0.4-1.4-0.9-1.8c-0.5-0.4-1.1-0.6-1.8-0.5c-0.7,0.1-1.2,0.4-1.6,1c-0.4,0.5-0.5,1.2-0.4,2
					c0.1,0.8,0.4,1.4,1,1.8c0.5,0.4,1.1,0.6,1.8,0.5C358.4,245,359,244.7,359.3,244.2z"/>
				<path fill="#004B82" d="M372.8,231.9l1.9,13l-2.6,0.4l-0.2-1.1c-0.6,0.9-1.5,1.5-2.8,1.6c-0.9,0.1-1.7,0-2.5-0.3
					c-0.8-0.3-1.4-0.8-1.9-1.5c-0.5-0.7-0.8-1.5-1-2.5c-0.1-1-0.1-1.9,0.2-2.6c0.3-0.8,0.8-1.4,1.5-1.9c0.7-0.5,1.4-0.8,2.3-0.9
					c1.2-0.2,2.2,0.1,3,0.7l-0.7-4.6L372.8,231.9z M370.8,242.6c0.4-0.5,0.5-1.2,0.4-2c-0.1-0.8-0.4-1.4-1-1.8
					c-0.5-0.4-1.1-0.6-1.8-0.5c-0.7,0.1-1.2,0.4-1.6,1c-0.4,0.5-0.5,1.2-0.4,2c0.1,0.8,0.4,1.4,1,1.8c0.5,0.4,1.1,0.6,1.8,0.5
					C369.9,243.4,370.5,243.1,370.8,242.6z"/>
				<path fill="#004B82" d="M378,244.3c-0.8-0.1-1.4-0.2-1.9-0.5l0.6-2.1c0.5,0.2,1,0.4,1.6,0.4c0.6,0.1,1.2,0.1,1.8,0
					c1.2-0.2,1.7-0.5,1.6-1.1c0-0.3-0.2-0.4-0.6-0.5c-0.3-0.1-0.8-0.1-1.5-0.1c-0.8,0-1.4-0.1-2-0.1c-0.5-0.1-1-0.3-1.4-0.6
					c-0.4-0.3-0.7-0.9-0.8-1.6c-0.1-0.6,0-1.1,0.3-1.7c0.3-0.5,0.7-0.9,1.4-1.3c0.6-0.4,1.4-0.6,2.3-0.7c0.7-0.1,1.3-0.1,2-0.1
					c0.7,0.1,1.3,0.2,1.7,0.4l-0.6,2.1c-0.9-0.3-1.8-0.5-2.8-0.3c-0.6,0.1-1,0.2-1.3,0.4c-0.3,0.2-0.4,0.4-0.3,0.7
					c0,0.3,0.2,0.5,0.6,0.5c0.3,0.1,0.9,0.1,1.6,0.1c0.8,0,1.4,0.1,2,0.1c0.5,0.1,1,0.3,1.4,0.6c0.4,0.3,0.7,0.8,0.8,1.5
					c0.1,0.6,0,1.1-0.3,1.6c-0.3,0.5-0.7,0.9-1.4,1.3c-0.6,0.3-1.4,0.6-2.3,0.7C379.6,244.3,378.8,244.3,378,244.3z"/>
				<path fill="#004B82" d="M350.4,240.3c-0.1-0.2-0.2-0.2-0.3-0.2c-1.6,0.2-3.1,0.4-4.7,0.7l0,0c-1.6,0.2-3.1,0.5-4.7,0.7
					c-0.1,0-0.2,0.1-0.3,0.2c-0.3,1.3-0.2,2.5,0.3,3.8c0.4,1.3,1.2,2.3,2.4,2.9c0.8,0.4,1.7,0.8,2.6,0.8c0.3,0,0.6,0.1,0.9,0.1l0,0
					c0.3,0,0.6-0.2,0.9-0.3c0.9-0.3,1.6-0.8,2.3-1.4c1-1,1.4-2.2,1.5-3.5C351.2,242.7,351,241.5,350.4,240.3z M350.4,243.8
					c-0.1,1.2-0.4,2.2-1.3,3.1c-0.3,0.3-0.5,0.5-0.8,0.7c0,0,0,0,0-0.1c0.2-0.2,0.4-0.3,0.6-0.5c0.7-0.8,1.1-1.7,1.2-2.8
					c0.1-1.1-0.2-2.2-0.7-3.2c-0.2-0.3,0.2-0.2,0.2-0.3c0.1-0.1,0.2,0,0.2,0.1C350.2,241.8,350.4,242.8,350.4,243.8z"/>
				<path fill="#004B82" d="M346.8,237.4c-0.5,0.1-1,0.2-1.5,0.2c-1.5,0.2-3,0.4-4.5,0.5c-0.3,0-0.6,0-0.8-0.2
					c-1.6-1.2-3.2-2.3-5-3.3c-1.3-0.7-2.6-1.2-4-1.6c-0.8-0.2-1.6-0.3-2.4-0.2c-0.2,0-0.2,0.1-0.2,0.2c0.1,0.3,0.1,0.7,0.2,1
					c0,0.2,0.2,0.3,0.3,0.3c1.2,0.1,2.4,0.3,3.5,0.6c1.3,0.3,2.6,0.8,3.8,1.5c1,0.6,2,1.2,2.9,2c0.8,0.6,1.7,1.1,2.8,1.3
					c0.8,0.2,1.6,0.1,2.4-0.1c1.2-0.3,1.9-1.1,2.6-2.1C346.8,237.6,346.8,237.5,346.8,237.4z"/>
				<g>
					<path fill="#004B82" d="M320.8,234.6l-0.4,0.1c-0.1,0-0.2,0-0.2-0.1l-0.1-0.4c0-0.1,0-0.2,0.1-0.2l2-0.3c0.1,0,0.2,0,0.2,0.1
						l0.1,0.4c0,0.1,0,0.2-0.1,0.2l-0.4,0.1c-0.1,0-0.1,0.1-0.1,0.2l0.2,1.6c0,0.1,0,0.2-0.1,0.2l-0.6,0.1c-0.1,0-0.2,0-0.2-0.1
						l-0.2-1.6C321,234.7,320.9,234.6,320.8,234.6z"/>
					<path fill="#004B82" d="M325.2,233.5l0.3,2.2c0,0.1,0,0.2-0.1,0.2l-0.6,0.1c-0.1,0-0.2,0-0.2-0.1l-0.1-0.6
						c0-0.1-0.1-0.1-0.2-0.1l-0.5,0.1c-0.1,0-0.1,0.1-0.1,0.2l0.1,0.6c0,0.1,0,0.2-0.1,0.2l-0.6,0.1c-0.1,0-0.2,0-0.2-0.1l-0.3-2.2
						c0-0.1,0-0.2,0.1-0.2l0.6-0.1c0.1,0,0.2,0,0.2,0.1l0.1,0.6c0,0.1,0.1,0.1,0.2,0.1l0.5-0.1c0.1,0,0.1-0.1,0.1-0.2l-0.1-0.6
						c0-0.1,0-0.2,0.1-0.2l0.6-0.1C325.1,233.3,325.2,233.4,325.2,233.5z"/>
					<path fill="#004B82" d="M328,235l0,0.3c0,0.1,0,0.2-0.1,0.2l-1.8,0.3c-0.1,0-0.2,0-0.2-0.1l-0.3-2.2c0-0.1,0-0.2,0.1-0.2
						l1.8-0.2c0.1,0,0.2,0,0.2,0.1l0,0.3c0,0.1,0,0.2-0.1,0.2l-0.9,0.1c-0.1,0-0.1,0.1-0.1,0.2l0,0c0,0.1,0.1,0.1,0.2,0.1l0.8-0.1
						c0.1,0,0.2,0,0.2,0.1l0,0.3c0,0.1,0,0.2-0.1,0.2l-0.8,0.1c-0.1,0-0.1,0.1-0.1,0.2l0,0c0,0.1,0.1,0.1,0.2,0.1l1-0.1
						C327.9,234.9,328,234.9,328,235z"/>
				</g>
			</g>
			<g>
				<path fill="#A40032" d="M292.5,242.5c-0.2-1.4,0-2.6,1-3.6c0.4-0.4,0.9-0.7,1.4-0.9c0.7-0.4,1.4-0.7,2.2-1c1-0.5,2-0.9,3-1.3
					c0.7-0.3,1.5-0.6,2.2-0.9c1.1-0.4,2.2-0.8,3.3-1.2c0.8-0.3,1.6-0.5,2.5-0.8c0.6-0.2,1.3-0.4,1.9-0.5c1.5-0.3,2.7,0.2,3.7,1.4
					c0.6,0.8,1,1.7,1.5,2.5c0.4,0.7,0.7,1.4,1,2.1c0.5,1.1,0.9,2.1,1.4,3.2c0.3,0.9,0.7,1.8,1,2.7c0.3,0.9,0.6,1.8,0.8,2.7
					c0.3,1,0.5,1.9,0.8,2.9c0.4,1.4-0.3,3.2-1.6,4c-1.1,0.8-2.4,1.4-3.6,2c-0.9,0.5-1.9,0.9-2.8,1.3c-1,0.4-1.9,0.8-2.9,1.1
					c-0.7,0.2-1.4,0.5-2.2,0.7c-1,0.3-1.9,0.6-2.9,0.8c-0.4,0.1-0.7,0.2-1.1,0.3c-1.9,0.5-3.7-0.2-4.6-2c-0.6-1.1-1.1-2.1-1.7-3.2
					c-0.6-1.3-1.2-2.6-1.7-3.9c-0.4-1.1-0.8-2.2-1.2-3.2c-0.3-1-0.6-2-0.9-3C292.8,243.9,292.7,243.2,292.5,242.5z"/>
				<g>
					<path fill="#FFFFFF" d="M317.3,239.3c0,0,1.1-0.3,0.9-1.5c-0.1-0.6-0.5-1-0.9-1.4c-0.6-0.4-1.2-0.7-1.9-0.9
						c-0.4-0.1-0.7-0.2-1-0.2c-0.4,0-0.9-0.1-1.3-0.1c-1.8,0-3.5,0.1-5.3,0.4c-3.1,0.5-6.3,1.5-8.4,3.9c-0.5,0.6-0.9,1.2-1.3,1.8
						c-0.3,0.7-0.6,1.4-0.6,2.1c-0.1,1.8,1.2,3.3,2.9,3.8c1.1,0.3,2.2,0.2,3.3,0.1c0,0-0.1,0.6-0.1,0.7c-0.1,0.6-0.1,1.2-0.2,1.7
						c-0.1,1.4-0.3,3,0,4.4c0,0,0,0,0,0c0.1,0.6,0.3,1.3,0.7,1.8c0.5,0.6,1.1,0.7,1.7,0.7c0.5,0,1-0.1,1.4-0.4c0,0-1.6-0.9-1.1-4.7
						c0.4-3.8,0.7-5,0.7-5s3.4-1.3,4.5,0.3c0,0,0.6-2.2-0.2-2.9c-0.9-0.7-2.8-0.6-5.6,0.8c-1.1,0.5-2.3,0.9-3.5,0.7
						c-0.5-0.1-0.9-0.2-1.3-0.5c-0.5-0.3-0.6-1.1-0.5-1.6c0-0.2,0-0.4,0.1-0.5c0.2-0.7,0.7-1.3,1.2-1.8c0.7-0.6,1.5-1,2.3-1.4
						c0.2-0.1,2-0.8,2-0.9c0,0.1-0.1,0.3-0.1,0.5c-0.1,0.3-0.1,0.6-0.2,0.9c-0.2,0.8-0.4,1.5-0.5,2.3c-0.2,0.8-0.4,1.6-0.6,2.4
						l3.1-1.1l1.4-5.3C308.8,238.2,316.2,237,317.3,239.3z"/>
					<path fill="#BABCBE" d="M307.6,242.6l-0.2,0.9l-3.1,1.1c0.1-0.3,0.2-0.7,0.2-1L307.6,242.6z"/>
				</g>
			</g>
			<g>
				<path fill="#004B82" d="M366.6,229.1l-1.2-1.3c-0.1,0-0.2,0-0.3,0.1l-1.2,0.2l0.2,1.4l-0.7,0.1l-0.7-4.7l1.8-0.3
					c0.6-0.1,1.1,0,1.5,0.2c0.4,0.2,0.6,0.6,0.7,1.1c0.1,0.4,0,0.7-0.1,1c-0.1,0.3-0.4,0.5-0.7,0.7l1.3,1.4L366.6,229.1z
					 M365.9,226.9c0.2-0.2,0.3-0.5,0.2-0.8c0-0.3-0.2-0.6-0.4-0.7c-0.3-0.1-0.6-0.2-1-0.1l-1.1,0.2l0.3,2.1l1.1-0.2
					C365.4,227.2,365.7,227.1,365.9,226.9z"/>
				<path fill="#004B82" d="M371.2,226.9l-2.9,0.4c0.1,0.3,0.3,0.5,0.5,0.7c0.3,0.2,0.6,0.2,0.9,0.2c0.4-0.1,0.7-0.3,1-0.6l0.4,0.4
					c-0.1,0.2-0.3,0.4-0.5,0.5s-0.5,0.2-0.8,0.3c-0.4,0.1-0.7,0-1-0.1c-0.3-0.1-0.6-0.3-0.8-0.6c-0.2-0.3-0.3-0.6-0.4-0.9
					c0-0.3,0-0.7,0.1-1c0.1-0.3,0.3-0.5,0.5-0.7c0.2-0.2,0.5-0.3,0.9-0.4c0.3,0,0.7,0,0.9,0.1c0.3,0.1,0.5,0.3,0.7,0.6
					c0.2,0.3,0.3,0.6,0.4,0.9C371.2,226.7,371.2,226.8,371.2,226.9z M368.5,226c-0.2,0.2-0.3,0.5-0.3,0.8l2.3-0.3
					c-0.1-0.3-0.2-0.5-0.5-0.7c-0.2-0.2-0.5-0.2-0.8-0.2C369,225.7,368.7,225.8,368.5,226z"/>
				<path fill="#004B82" d="M374.4,227.8c-0.1,0.1-0.2,0.2-0.3,0.2c-0.1,0.1-0.3,0.1-0.4,0.1c-0.4,0.1-0.7,0-0.9-0.2
					c-0.2-0.2-0.4-0.4-0.4-0.8l-0.3-2l-0.6,0.1l-0.1-0.5l0.6-0.1l-0.1-0.8l0.6-0.1l0.1,0.8l1-0.1l0.1,0.5l-1,0.1l0.3,1.9
					c0,0.2,0.1,0.3,0.2,0.4c0.1,0.1,0.3,0.1,0.4,0.1c0.2,0,0.4-0.1,0.5-0.2L374.4,227.8z"/>
				<path fill="#004B82" d="M377.1,224.3c0.3,0.2,0.5,0.5,0.5,1l0.3,2.2l-0.6,0.1l-0.1-0.5c-0.1,0.2-0.2,0.3-0.4,0.4
					c-0.2,0.1-0.4,0.2-0.7,0.2c-0.4,0.1-0.7,0-1-0.2c-0.3-0.2-0.4-0.4-0.5-0.7s0-0.6,0.2-0.8c0.2-0.2,0.6-0.4,1-0.4l1-0.1l0-0.1
					c0-0.3-0.2-0.5-0.3-0.6c-0.2-0.1-0.4-0.2-0.7-0.1c-0.2,0-0.4,0.1-0.6,0.2c-0.2,0.1-0.3,0.2-0.5,0.4l-0.3-0.4
					c0.2-0.2,0.4-0.3,0.6-0.4c0.2-0.1,0.5-0.2,0.8-0.2C376.4,224,376.8,224.1,377.1,224.3z M376.9,227c0.2-0.1,0.3-0.3,0.3-0.5
					l-0.1-0.5l-1,0.1c-0.5,0.1-0.8,0.3-0.7,0.7c0,0.2,0.1,0.3,0.3,0.4c0.2,0.1,0.4,0.1,0.6,0.1C376.5,227.2,376.7,227.2,376.9,227z"
					/>
				<path fill="#004B82" d="M378.6,222.9c-0.1-0.1-0.2-0.2-0.2-0.3c0-0.1,0-0.2,0.1-0.3c0.1-0.1,0.2-0.2,0.3-0.2
					c0.1,0,0.2,0,0.3,0.1c0.1,0.1,0.1,0.2,0.2,0.3c0,0.1,0,0.2-0.1,0.3c-0.1,0.1-0.2,0.2-0.3,0.2C378.8,223,378.7,223,378.6,222.9z
					 M378.7,223.8l0.6-0.1l0.5,3.6l-0.6,0.1L378.7,223.8z"/>
				<path fill="#004B82" d="M380.3,222.1l0.6-0.1l0.7,5l-0.6,0.1L380.3,222.1z"/>
			</g>
			<g>
				<g>
					<defs>
						<path id="SVGID_10_" d="M362.1,233.1c0.2,0.3,1-0.2,1.5-0.4c0.3-0.1,0.5-0.2,0.7-0.4c5.6-3,13.7-3.8,17.5-3.9
							c1.2,0,1.2-0.1,0-0.2c-3.8-0.3-11.9-0.1-18,3c-0.2,0.1-0.4,0.2-0.5,0.3C362.4,231.9,361.7,232.6,362.1,233.1"/>
					</defs>
					<clipPath id="SVGID_2_">
						<use xlink:href="#SVGID_10_"  overflow="visible"/>
					</clipPath>
				</g>
				<g>
					<defs>
						<path id="SVGID_12_" d="M362.1,233.1c0.2,0.3,1-0.2,1.5-0.4c0.3-0.1,0.5-0.2,0.7-0.4c5.6-3,13.7-3.8,17.5-3.9
							c1.2,0,1.2-0.1,0-0.2c-3.8-0.3-11.9-0.1-18,3c-0.2,0.1-0.4,0.2-0.5,0.3C362.4,231.9,361.7,232.6,362.1,233.1"/>
					</defs>
					<use xlink:href="#SVGID_12_"  overflow="visible" fill-rule="evenodd" clip-rule="evenodd" fill="#A40032"/>
					<clipPath id="SVGID_4_">
						<use xlink:href="#SVGID_12_"  overflow="visible"/>
					</clipPath>
					<path clip-path="url(#SVGID_4_)" fill="#A40032" d="M382.1,226.6c0-0.1,0.1-0.3,0.2-0.4l-0.5-1.5l-20.6,6.3l1.7,5.4l19.2-5.9
						C381,229.5,381,227.5,382.1,226.6z"/>
				</g>
				<g>
					<defs>
						<path id="SVGID_14_" d="M362.1,233.1c0.2,0.3,1-0.2,1.5-0.4c0.3-0.1,0.5-0.2,0.7-0.4c5.6-3,13.7-3.8,17.5-3.9
							c1.2,0,1.2-0.1,0-0.2c-3.8-0.3-11.9-0.1-18,3c-0.2,0.1-0.4,0.2-0.5,0.3C362.4,231.9,361.7,232.6,362.1,233.1"/>
					</defs>
					<clipPath id="SVGID_6_">
						<use xlink:href="#SVGID_14_"  overflow="visible"/>
					</clipPath>
				</g>
			</g>
			<line fill="none" x1="382.3" y1="227.5" x2="382.7" y2="230.5"/>
		</g>
	</g>
	<g>
		<path fill="#ECB69B" d="M384.6,378c0,0-8.9-16.7-16.7-19.7c0,0-3-5.7,5.1-2.7c0,0-1.7-1-2.7-3.5c-0.2-0.5,0.2-0.9,0.7-0.9
			c3.6,0.2,15.9,2.5,20.8,23.2l-6.9,5.1"/>
		<g>
			<rect x="485.5" y="620.7" fill="#ECB69B" width="8.9" height="4.8"/>
			<rect x="429.6" y="620.7" fill="#ECB69B" width="8.9" height="4.8"/>
			<path fill="#20315B" d="M495,624.2v6.6H474C474,630.9,470.5,619.9,495,624.2z"/>
			<path fill="#20315B" d="M439,624.2v6.6h-21.1C417.9,630.9,414.4,619.9,439,624.2z"/>
			<path fill="#D0CEC2" d="M490.2,474.7l-2.8,87.2c-0.1,2.2,0.1,4.3,0.4,6.4l8.2,52.5H480L468.9,566c-0.3-1.5-0.5-3.1-0.6-4.7
				l-3.3-52.1c0-0.7-1-0.9-1.3-0.2l-17,44.9c-0.5,1.2-0.7,2.5-0.9,3.7l-5.6,63.2h-13.7l-0.7-68.7c0-1,0.1-2,0.3-3l15.6-75.2
				L490.2,474.7z"/>
			<path fill="#3C7AA5" d="M443.1,419.9l-31-3.9c-3.2-0.1-6.1-1.5-8.2-3.9l-24.4-33l14.5-10.2l18.5,25.7c2,2.7,5.1,4.4,8.4,4.6
				l66.5-4.3l7.6,96l-58.9-7L443.1,419.9z"/>
			<path fill="#3C7AA5" d="M488.9,405.6l25.3,35.9c3.2,4.6,2.1,10.9-2.4,14.1l-24.7,17.5l-9.8-15.2l19.2-10.5c0.5-0.3,0.6-1,0.2-1.4
				l-15.9-17.2l1.4-25.3l2.9-2.9L488.9,405.6z"/>
		</g>
		<path fill="#ECB69B" d="M450.1,367.1c0,0-3.3,3.1-5.6,6.9l1.8,1.5l-2.5,6.9l12,3.1l8.4-20.6L450.1,367.1z"/>
		<g>
			<path fill="#84211A" d="M464,354c-4.5-1.5-9.6,0.7-12.7,5.6c-3.1,4.8-4.3,12-2.8,18.2c-3-1-6.3,0.6-8.3,3.8
				c-2,3.2-2.7,8-1.6,12.1c-2.6,0.7-5.3,1.4-7.4,3.7c-2.1,2.3-3.3,6.6-2,9.8c1.5,3.6,5,3.9,8,3.8c18.9-0.6,37.9-1.2,56.8-1.9
				c1.5,0,3-0.1,4.4-1c2.5-1.7,3.7-6.7,2.3-10.1c-1.4-3.5-5-4.7-7.4-2.6c3.1-2.7,4.3-8.9,2.5-13.4c-1.7-4.5-6.1-6.5-9.4-4.4
				c3.2-5.2,2.5-13.7-0.6-18.9c-3.1-5.3-8.2-7.7-13.1-7.9c-4.9-0.2-9.7,1.4-14.5,3.1c0,2.2,0,4.5-0.1,6.7"/>
		</g>
	</g>
</g>
</svg>
