<?xml version="1.0" encoding="utf-8"?>
<!-- Generator: Adobe Illustrator 18.0.0, SVG Export Plug-In . SVG Version: 6.00 Build 0)  -->
<!DOCTYPE svg PUBLIC "-//W3C//DTD SVG 1.1//EN" "http://www.w3.org/Graphics/SVG/1.1/DTD/svg11.dtd">
<svg version="1.1" id="Layer_1" xmlns="http://www.w3.org/2000/svg" xmlns:xlink="http://www.w3.org/1999/xlink" x="0px" y="0px"
	 viewBox="0 0 380 110" enable-background="new 0 0 380 110" xml:space="preserve">
<g>
	<g>
		<g>
			<path fill="#004B82" d="M137.2,52h10v8.7h-9.7v29.5h-11.3V60.7h-6V52h6v-1.7c0-4.5,1.3-8,4-10.6c2.6-2.6,6.3-3.9,11.1-3.9
				c1.7,0,3.3,0.2,4.8,0.5c1.5,0.4,2.8,0.9,3.8,1.6l-3,8.2c-1.3-0.9-2.8-1.4-4.6-1.4c-3.4,0-5.2,1.9-5.2,5.7V52z"/>
			<path fill="#004B82" d="M159.9,88.2c-3.3-1.7-5.8-4.1-7.7-7.1c-1.8-3-2.8-6.5-2.8-10.4c0-3.9,0.9-7.3,2.8-10.4
				c1.8-3,4.4-5.4,7.7-7.1c3.3-1.7,7-2.6,11.1-2.6c4.1,0,7.8,0.9,11,2.6c3.2,1.7,5.8,4.1,7.6,7.1c1.8,3,2.8,6.5,2.8,10.4
				c0,3.9-0.9,7.3-2.8,10.4c-1.8,3-4.4,5.4-7.6,7.1c-3.2,1.7-6.9,2.6-11,2.6C166.9,90.8,163.2,89.9,159.9,88.2z M178.1,78.5
				c1.9-2,2.8-4.6,2.8-7.9c0-3.3-0.9-5.9-2.8-7.9c-1.9-2-4.2-2.9-7.1-2.9c-2.9,0-5.3,1-7.2,2.9c-1.9,2-2.8,4.6-2.8,7.9
				c0,3.3,0.9,5.9,2.8,7.9c1.9,2,4.3,2.9,7.2,2.9C173.9,81.5,176.3,80.5,178.1,78.5z"/>
			<path fill="#004B82" d="M255,88.2c-3.3-1.7-5.8-4.1-7.7-7.1c-1.8-3-2.8-6.5-2.8-10.4c0-3.9,0.9-7.3,2.8-10.4
				c1.8-3,4.4-5.4,7.7-7.1c3.3-1.7,7-2.6,11.1-2.6c4.1,0,7.8,0.9,11,2.6c3.2,1.7,5.8,4.1,7.6,7.1c1.8,3,2.8,6.5,2.8,10.4
				c0,3.9-0.9,7.3-2.8,10.4c-1.8,3-4.4,5.4-7.6,7.1c-3.2,1.7-6.9,2.6-11,2.6C261.9,90.8,258.2,89.9,255,88.2z M273.2,78.5
				c1.9-2,2.8-4.6,2.8-7.9c0-3.3-0.9-5.9-2.8-7.9c-1.9-2-4.2-2.9-7.1-2.9c-2.9,0-5.3,1-7.2,2.9c-1.9,2-2.8,4.6-2.8,7.9
				c0,3.3,0.9,5.9,2.8,7.9c1.9,2,4.3,2.9,7.2,2.9C268.9,81.5,271.3,80.5,273.2,78.5z"/>
			<path fill="#004B82" d="M334.7,36.4v53.8h-10.8v-4.5c-2.8,3.4-6.9,5.1-12.2,5.1c-3.7,0-7-0.8-10-2.5c-3-1.6-5.3-4-7-7
				c-1.7-3-2.5-6.6-2.5-10.6c0-4,0.8-7.5,2.5-10.6c1.7-3,4-5.4,7-7c3-1.6,6.3-2.5,10-2.5c5,0,8.9,1.6,11.7,4.7V36.4H334.7z
				 M320.8,78.5c1.9-2,2.8-4.6,2.8-7.9c0-3.3-0.9-5.9-2.8-7.9c-1.9-2-4.3-2.9-7.1-2.9c-2.9,0-5.3,1-7.2,2.9c-1.9,2-2.8,4.6-2.8,7.9
				c0,3.3,0.9,5.9,2.8,7.9c1.9,2,4.3,2.9,7.2,2.9C316.6,81.5,318.9,80.5,320.8,78.5z"/>
			<path fill="#004B82" d="M348.8,89.6c-3.1-0.8-5.6-1.8-7.4-3l3.8-8.1c1.7,1.1,3.8,2,6.3,2.7c2.5,0.7,4.9,1.1,7.3,1.1
				c4.8,0,7.2-1.2,7.2-3.6c0-1.1-0.7-1.9-2-2.4c-1.3-0.5-3.3-0.9-6-1.2c-3.2-0.5-5.8-1-7.9-1.7c-2.1-0.6-3.9-1.7-5.4-3.3
				c-1.5-1.6-2.3-3.9-2.3-6.8c0-2.5,0.7-4.7,2.1-6.6c1.4-1.9,3.5-3.4,6.2-4.5c2.7-1.1,6-1.6,9.7-1.6c2.8,0,5.5,0.3,8.2,0.9
				c2.7,0.6,5,1.4,6.8,2.5l-3.8,8.1c-3.4-1.9-7.2-2.9-11.2-2.9c-2.4,0-4.2,0.3-5.4,1c-1.2,0.7-1.8,1.5-1.8,2.6c0,1.2,0.7,2.1,2,2.5
				c1.3,0.5,3.4,0.9,6.2,1.4c3.2,0.5,5.8,1.1,7.8,1.7c2,0.6,3.8,1.7,5.3,3.3c1.5,1.6,2.2,3.8,2.2,6.7c0,2.4-0.7,4.6-2.2,6.5
				c-1.5,1.9-3.6,3.4-6.3,4.4c-2.8,1-6.1,1.6-9.9,1.6C355.1,90.8,351.9,90.4,348.8,89.6z"/>
			<path fill="#004B82" d="M239,57.6c-0.2-0.7-0.6-1-1.2-1c-6.5,0-13-0.2-19.4-0.2h0c-6.5,0-13,0.2-19.4,0.2c-0.6,0-1,0.2-1.2,0.9
				c-1.9,5-2.2,10.3-1.1,15.5c1.1,5.4,3.6,9.9,8.1,13.2c3,2.2,6.3,3.9,10,4.5c1.2,0.2,2.5,0.7,3.7,0.7h0c1.2,0,2.5-0.5,3.7-0.7
				c3.7-0.6,7-2.1,10-4.3c4.5-3.3,7-7.9,8.1-13.3C241.2,67.9,240.9,62.7,239,57.6z M237.1,71.9c-0.9,4.8-3,8.8-6.9,11.8
				c-1.2,0.9-2.5,1.6-3.8,2.4c0-0.1-0.1-0.2-0.1-0.3c0.9-0.6,1.8-1.1,2.7-1.8c3.5-2.7,5.6-6.2,6.4-10.5c0.9-4.5,0.6-8.9-1-13.2
				c-0.5-1.3,0.7-0.8,1.1-1.1c0.5-0.4,0.7,0,0.9,0.5C237.7,63.8,237.9,67.8,237.1,71.9z"/>
			<path fill="#004B82" d="M226.3,43.6c-2.2,0-4.2,0-6.1,0c-6.2-0.1-12.5-0.3-18.7-0.4c-1.3,0-2.3-0.5-3.3-1.4
				c-5.8-5.8-11.8-11.4-18.5-16.1c-4.8-3.4-9.9-6.5-15.4-8.7c-3-1.2-6.2-2-9.5-2.2c-0.7,0-0.9,0.2-0.9,0.9c0.1,1.4,0.1,2.7,0.1,4.1
				c0,0.8,0.5,1.2,1.2,1.4c4.8,1,9.4,2.5,13.9,4.4c5.1,2.2,10,4.9,14.4,8.3c3.8,2.9,7.3,6.2,10.7,9.7c3,3.1,6.4,5.6,10.5,7.1
				c3.2,1.1,6.5,1.4,9.8,1c5-0.5,8.5-3.4,11.6-7C226,44.4,226.1,44.1,226.3,43.6z"/>
			<g>
				<path fill="#004B82" d="M122.7,17.5h-1.8c-0.3,0-0.6-0.3-0.6-0.6v-1.5c0-0.3,0.3-0.6,0.6-0.6h8.4c0.3,0,0.6,0.3,0.6,0.6v1.5
					c0,0.3-0.3,0.6-0.6,0.6h-1.8c-0.3,0-0.6,0.3-0.6,0.6v6.5c0,0.3-0.3,0.6-0.6,0.6h-2.3c-0.3,0-0.6-0.3-0.6-0.6v-6.5
					C123.3,17.7,123,17.5,122.7,17.5z"/>
				<path fill="#004B82" d="M141,15.4v9.2c0,0.3-0.3,0.6-0.6,0.6h-2.3c-0.3,0-0.6-0.3-0.6-0.6v-2.6c0-0.3-0.3-0.6-0.6-0.6h-2
					c-0.3,0-0.6,0.3-0.6,0.6v2.6c0,0.3-0.3,0.6-0.6,0.6h-2.3c-0.3,0-0.6-0.3-0.6-0.6v-9.2c0-0.3,0.3-0.6,0.6-0.6h2.3
					c0.3,0,0.6,0.3,0.6,0.6v2.5c0,0.3,0.3,0.6,0.6,0.6h2c0.3,0,0.6-0.3,0.6-0.6v-2.5c0-0.3,0.3-0.6,0.6-0.6h2.3
					C140.8,14.7,141,15,141,15.4z"/>
				<path fill="#004B82" d="M151.4,23.1v1.4c0,0.3-0.3,0.6-0.6,0.6h-7.4c-0.3,0-0.6-0.3-0.6-0.6v-9.2c0-0.3,0.3-0.6,0.6-0.6h7.2
					c0.3,0,0.6,0.3,0.6,0.6v1.4c0,0.3-0.3,0.6-0.6,0.6h-3.8c-0.3,0-0.6,0.3-0.6,0.6v0c0,0.3,0.3,0.6,0.6,0.6h3.2
					c0.3,0,0.6,0.3,0.6,0.6v1.3c0,0.3-0.3,0.6-0.6,0.6h-3.2c-0.3,0-0.6,0.3-0.6,0.6v0.1c0,0.3,0.3,0.6,0.6,0.6h4
					C151.1,22.5,151.4,22.8,151.4,23.1z"/>
			</g>
		</g>
	</g>
	<g>
		<path fill="#A40032" d="M3.2,33.1c-0.1-5.6,1.5-10.5,6.1-14c1.9-1.4,4-2.2,6.2-2.9c3.1-1,6.2-2,9.4-3c4.3-1.3,8.7-2.6,13.1-3.7
			c3.2-0.8,6.4-1.6,9.6-2.3C52.3,6,57,5.1,61.8,4.3c3.5-0.6,7-1.3,10.5-1.8c2.6-0.4,5.3-0.9,8-1.1c6.3-0.4,11,2.3,14.2,7.6
			c2.1,3.4,3.1,7.3,4.5,11c1.1,3,2.1,6.1,3,9.1c1.4,4.6,2.6,9.2,3.7,13.8c0.9,3.8,1.7,7.6,2.4,11.3c0.7,3.8,1.3,7.6,1.8,11.4
			c0.6,4.1,1,8.1,1.5,12.2c0.7,6.1-3,12.7-8.6,15.3c-5.1,2.4-10.4,4.2-15.7,6c-4,1.4-8.1,2.6-12.2,3.7c-4.2,1.1-8.3,2.1-12.6,2.9
			c-3.1,0.6-6.1,1.2-9.2,1.6c-4.1,0.6-8.2,1.2-12.3,1.5c-1.5,0.1-3,0.3-4.5,0.5c-7.8,1-14.9-2.9-17.6-10.7
			c-1.6-4.6-3.4-9.1-4.9-13.7c-1.8-5.5-3.4-11.1-4.8-16.7c-1.2-4.6-2.2-9.2-3-13.9C4.9,50.2,4.4,46,3.9,41.8
			C3.6,38.9,3.5,36,3.2,33.1z"/>
		<g>
			<path fill="#FFFFFF" d="M105.6,34.4c0,0,4.7-0.4,4.4-5.6c-0.1-2.3-1.3-4.5-3-6.1c-2.1-2-4.6-3.6-7.3-4.8
				c-1.4-0.6-2.6-1.2-4.1-1.5c-1.8-0.4-3.5-0.7-5.3-1c-7.1-1.2-14.4-1.7-21.6-1.4C56,14.5,42.5,16.5,32.3,24.9
				c-2.4,1.9-4.5,4.2-6.2,6.7c-1.7,2.5-3.1,5.4-3.6,8.4c-1.3,7.4,3,14.2,9.7,17.1c4.2,1.8,8.9,2.2,13.5,2.2c-0.2,0-0.8,2.5-0.8,2.7
				c-0.7,2.3-1.3,4.6-1.8,6.9c-1.4,5.7-2.8,11.8-2.7,17.7c0,0.1,0,0.1,0,0.2c0.1,2.6,0.5,5.3,1.8,7.5c1.6,2.6,3.9,3.4,6.6,3.9
				c1.9,0.4,4.3,0.2,6.1-0.8c0,0-5.9-4.4-1.9-19.7s5.7-19.9,5.7-19.9s14.7-3.4,18.1,3.8c0,0,3.9-8.5,0.7-11.8
				c-3.2-3.3-10.9-4-22.9-0.1c-4.7,1.5-10,2.2-14.8,0.9c-1.9-0.5-3.6-1.4-5.1-2.7c-1.7-1.5-1.6-4.8-1.2-6.9c0.2-0.7,0.4-1.4,0.7-2.1
				c1.3-2.8,3.5-5.1,6.1-6.7c3.1-2,6.5-3.4,10-4.5c0.7-0.2,8.7-2.1,8.7-2.5c0,0.6-0.4,1.4-0.7,1.9c-0.4,1.1-0.9,2.2-1.3,3.3
				c-1.2,2.9-2.3,5.9-3.5,8.8c-1.2,3.1-2.5,6.2-3.7,9.3L63,45.8l8.9-20.8C71.9,25.1,102.3,24.5,105.6,34.4z"/>
			<path fill="#BABCBE" d="M64.5,42.2L63,45.8l-13.4,2.8c0.5-1.3,1-2.6,1.5-3.9L64.5,42.2z"/>
		</g>
	</g>
	<g>
		<g>
			<path fill="#004B82" d="M311.4,21.6l-4.2-6c-0.5,0-0.9,0.1-1.2,0.1h-4.8v5.9h-2.8V2.1h7.6c2.5,0,4.5,0.6,6,1.8
				c1.4,1.2,2.2,2.9,2.2,5c0,1.5-0.4,2.8-1.1,3.8c-0.7,1.1-1.8,1.8-3.2,2.3l4.6,6.5H311.4z M309.9,12.2c0.9-0.8,1.4-1.8,1.4-3.3
				c0-1.4-0.5-2.5-1.4-3.2s-2.3-1.1-4-1.1h-4.7v8.8h4.7C307.7,13.3,309,12.9,309.9,12.2z"/>
			<path fill="#004B82" d="M331.5,15.1h-12c0.2,1.3,0.7,2.3,1.7,3.1c1,0.8,2.2,1.2,3.6,1.2c1.8,0,3.2-0.6,4.3-1.8l1.5,1.7
				c-0.7,0.8-1.5,1.4-2.5,1.8c-1,0.4-2.1,0.6-3.3,0.6c-1.6,0-2.9-0.3-4.1-1c-1.2-0.6-2.1-1.5-2.8-2.7c-0.7-1.1-1-2.4-1-3.9
				c0-1.4,0.3-2.7,1-3.9s1.5-2,2.6-2.7c1.1-0.6,2.4-1,3.8-1c1.4,0,2.7,0.3,3.8,1c1.1,0.6,2,1.5,2.6,2.7s0.9,2.5,0.9,3.9
				C331.5,14.5,331.5,14.8,331.5,15.1z M321,10.2c-0.9,0.8-1.4,1.8-1.5,3.1h9.5c-0.1-1.2-0.7-2.3-1.5-3c-0.9-0.8-1.9-1.2-3.2-1.2
				C323,9,321.9,9.4,321,10.2z"/>
			<path fill="#004B82" d="M343.5,20.7c-0.4,0.3-0.9,0.6-1.4,0.8c-0.6,0.2-1.2,0.3-1.8,0.3c-1.5,0-2.6-0.4-3.4-1.2
				c-0.8-0.8-1.2-1.9-1.2-3.4V9.1h-2.5V6.9h2.5V3.6h2.7v3.2h4.2v2.2h-4.2v8c0,0.8,0.2,1.4,0.6,1.8c0.4,0.4,1,0.6,1.7,0.6
				c0.8,0,1.5-0.2,2.1-0.7L343.5,20.7z"/>
			<path fill="#004B82" d="M356.8,8.2c1.1,1,1.6,2.5,1.6,4.5v8.9h-2.5v-1.9c-0.4,0.7-1.1,1.2-1.9,1.6s-1.8,0.5-2.9,0.5
				c-1.7,0-3-0.4-4-1.2c-1-0.8-1.5-1.8-1.5-3.1s0.5-2.3,1.4-3.1c0.9-0.8,2.4-1.2,4.5-1.2h4.2v-0.5c0-1.1-0.3-2-1-2.6
				c-0.7-0.6-1.7-0.9-2.9-0.9c-0.9,0-1.7,0.1-2.6,0.4c-0.8,0.3-1.5,0.7-2.1,1.2l-1.1-2c0.8-0.6,1.7-1.1,2.7-1.4
				c1.1-0.3,2.2-0.5,3.4-0.5C354.2,6.7,355.7,7.2,356.8,8.2z M354.2,19c0.7-0.5,1.3-1.1,1.6-1.9V15h-4.1c-2.3,0-3.4,0.8-3.4,2.3
				c0,0.7,0.3,1.3,0.9,1.8c0.6,0.4,1.4,0.6,2.4,0.6C352.5,19.7,353.4,19.5,354.2,19z"/>
			<path fill="#004B82" d="M363.4,3.5c-0.3-0.3-0.5-0.7-0.5-1.2c0-0.5,0.2-0.9,0.5-1.2c0.3-0.3,0.8-0.5,1.3-0.5c0.5,0,1,0.2,1.3,0.5
				c0.3,0.3,0.5,0.7,0.5,1.2c0,0.5-0.2,0.9-0.5,1.3c-0.3,0.3-0.8,0.5-1.3,0.5C364.2,4,363.8,3.9,363.4,3.5z M363.4,6.9h2.7v14.7
				h-2.7V6.9z"/>
			<path fill="#004B82" d="M371.1,1h2.7v20.6h-2.7V1z"/>
		</g>
	</g>
	<g>
		<g>
			<defs>
				<path id="SVGID_3_" d="M290.6,35c0.6,1.2,4.2-0.2,6.2-0.9c1.1-0.3,2.2-0.6,3.2-1c24.4-9,57.6-7.5,73-5.5
					c4.9,0.6,4.9,0.3,0.1-0.7c-15.3-3.2-48.4-7.2-74.8,1.7c-0.8,0.3-1.6,0.5-2.3,0.7C292.6,30.4,289.6,33,290.6,35"/>
			</defs>
			<clipPath id="SVGID_1_">
				<use xlink:href="#SVGID_3_"  overflow="visible"/>
			</clipPath>
		</g>
		<g>
			<defs>
				<path id="SVGID_5_" d="M290.6,35c0.6,1.2,4.2-0.2,6.2-0.9c1.1-0.3,2.2-0.6,3.2-1c24.4-9,57.6-7.5,73-5.5
					c4.9,0.6,4.9,0.3,0.1-0.7c-15.3-3.2-48.4-7.2-74.8,1.7c-0.8,0.3-1.6,0.5-2.3,0.7C292.6,30.4,289.6,33,290.6,35"/>
			</defs>
			<use xlink:href="#SVGID_5_"  overflow="visible" fill-rule="evenodd" clip-rule="evenodd" fill="#A40032"/>
			<clipPath id="SVGID_2_">
				<use xlink:href="#SVGID_5_"  overflow="visible"/>
			</clipPath>
			<path clip-path="url(#SVGID_2_)" fill="#A40032" d="M375.8,20.3c0.3-0.5,0.6-1,0.9-1.5l-1-6.5l-87.2,13.7l3.6,22.9l81.2-12.8
				C369.6,31.6,370.6,23.5,375.8,20.3z"/>
		</g>
		<g>
			<defs>
				<path id="SVGID_7_" d="M290.6,35c0.6,1.2,4.2-0.2,6.2-0.9c1.1-0.3,2.2-0.6,3.2-1c24.4-9,57.6-7.5,73-5.5
					c4.9,0.6,4.9,0.3,0.1-0.7c-15.3-3.2-48.4-7.2-74.8,1.7c-0.8,0.3-1.6,0.5-2.3,0.7C292.6,30.4,289.6,33,290.6,35"/>
			</defs>
			<clipPath id="SVGID_4_">
				<use xlink:href="#SVGID_7_"  overflow="visible"/>
			</clipPath>
		</g>
	</g>
	<line fill="none" x1="376.2" y1="23.5" x2="376.2" y2="35.5"/>
</g>
</svg>
