<?xml version="1.0" encoding="utf-8"?>
<!-- Generator: Adobe Illustrator 18.0.0, SVG Export Plug-In . SVG Version: 6.00 Build 0)  -->
<!DOCTYPE svg PUBLIC "-//W3C//DTD SVG 1.1//EN" "http://www.w3.org/Graphics/SVG/1.1/DTD/svg11.dtd">
<svg version="1.1" id="Layer_1" xmlns="http://www.w3.org/2000/svg" xmlns:xlink="http://www.w3.org/1999/xlink" x="0px" y="0px"
	 viewBox="0 0 275 275" enable-background="new 0 0 275 275" xml:space="preserve">
<g>
	<g>
		<g>
			<g>
				<g>
					<path fill="#F9867D" d="M136.6,86.4c-4.7-1.6-5.7-2.8-8.7-6.7l-7.5,11.3c4.2,4.1,8,6.8,13.4,9.4
						C133,95.3,133.8,89.7,136.6,86.4z"/>
				</g>
				<g>
					<path fill="#14345A" d="M133.7,93.5c0.4-2.8,1.3-5.3,2.8-7.2c-4.2-1.4-5.4-2.6-7.9-5.6C127.6,86.1,129.9,90.5,133.7,93.5z"/>
				</g>
			</g>
			<g>
				<g>
					<path fill="#F9867D" d="M145.1,73.2c-0.1-1.8-1.4-3.3-2.9-4.2c-1.5-0.9-3.3-1.3-5.1-1.6c-2.3-0.3-4.8-0.5-6.7,0.9
						c-1.2,0.9-2,2.2-2.6,3.7c-1.5,4.1-1,8.8,1.2,12.6c2.2,3.8,5.1,6.8,9.3,7.6c1.5-2.7,2.7-4.3,3.8-7.5c0.2-0.7-0.1-1.5,0-1.8
						c0.2-0.5,1-0.9,1.1-1.4c0.7-2.1,0.9-3.4,1.4-5.5C145,75,145.2,74.1,145.1,73.2z"/>
				</g>
				<g>
					<path fill="#14345A" d="M134.5,78.6c0.2-0.6,0.9-1.2,1.5-1c0.6,0.2,1.1,0.9,1.1,1.6c-0.1,0.9-0.2,1.6,0.1,2
						c0.8-1.7,1.8-3.4,3.1-4.9c-3.5-1.7-7-3.3-10.4-5c-0.3-0.1-0.5-0.3-0.8-0.3c-0.3,0-0.5,0.1-0.7,0.2c-1,0.6-1.6,1.8-1.8,3
						c-0.2,1.2-0.1,2.4-0.1,3.6c0,1.2-0.1,2.4-0.7,3.5c2.1,0.2,4.2-0.2,6-1c0.8-0.4,1.7-0.8,2.5-0.5
						C134.3,79.3,134.4,78.9,134.5,78.6z"/>
				</g>
				<path fill="#14345A" d="M132.3,66.7c1.8-0.5,3.8-0.2,5.7,0.2c2.1,0.5,4.2,1.2,6,2.5c0.6,0.4,1.1,1,1.4,1.7
					c0.2,0.5,0.1,1.1,0.1,1.6c-0.1,0.9-0.1,1.7-0.2,2.6c0,0.5-0.1,1.1-0.5,1.4c-0.4,0.4-1,0.3-1.6,0.3c-2.9-0.2-5.9-0.5-8.6-1.7
					c-1.7-0.8-3.3-1.9-5.2-2.4c-0.4-0.1-0.9-0.2-1.2-0.5c-0.5-0.5-0.4-1.3-0.1-1.9C128.7,68.7,130.3,67.2,132.3,66.7z"/>
			</g>
			<g>
				<g>
					<path fill="#A40032" d="M138.6,66.4c2,0.7,3.9,1.6,5.7,2.6c0.7,0.4,1.4,0.8,1.7,1.6c0.2,0.6,0.1,1.3,0,1.9
						c-0.4,2-1,3.9-1.7,5.7c-5.1-0.2-10.2-1.6-14.6-4.1c-1.1-0.6-2.2-1.5-2.2-2.7c0-0.6,0.3-1.1,0.6-1.7c0.6-1.1,1.2-2.2,2.2-3
						c1.1-0.9,2.6-1.3,4.1-1.3C135.8,65.6,137.2,66,138.6,66.4z"/>
				</g>
				<g>
					<path fill="#F2D525" d="M145.2,74c0.3-0.9,0.5-1.9,0.2-2.8c-0.3-0.9-1-1.6-1.9-2.1c-0.8-0.5-1.8-0.7-2.7-1.1
						c0.4,0.6,0.6,1.3,0.6,2c0,0.7-0.2,1.4-0.4,2.1c-0.6,1.9-1.4,3.7-2.4,5.4c0.8,0.2,1.6,0.4,2.4,0.4c0.8,0,1.6-0.2,2.3-0.6
						C144.5,76.6,144.9,75.3,145.2,74z"/>
				</g>
				<g>
					<path fill="#A40032" d="M144.6,76.9c1.1,0,1.2,0.8,5,2.1c-2.1,1.3-4.1,1.8-6.4,1c-2.3-0.8-4.5-1.8-6.7-2.9
						C139.1,77.7,141.9,76.8,144.6,76.9z"/>
				</g>
				<g>
					<path fill="#14345A" d="M129.8,69.6c0-0.2-0.2-0.3-0.3-0.4c-0.1-0.1-0.3-0.2-0.5-0.2c-0.2,0-0.3,0.2-0.4,0.3
						c-0.2,0.4-0.4,0.7-0.5,1.2c0,0.4,0.2,0.9,0.6,1c0.3-0.5,0.6-1,0.9-1.6C129.8,69.8,129.8,69.7,129.8,69.6z"/>
				</g>
			</g>
			<g>
				<g>
					<path fill="#FFFFFF" d="M142.8,85.4c-0.1-0.4-0.1-1.1-0.5-1.3c-0.3-0.2-0.7-0.2-1.1-0.2c-1.9,0-2.1,0.2-4,0.2
						c-0.7,1.8-2.5,2.8-3.4,4.5c0.6,0.7,0.8,2.3,1.7,2.7c0.9,0.4,1.8,0.6,2.8,0.9c0.3,0.1,0.6,0.2,0.9,0c0.2-0.1,0.3-0.2,0.4-0.3
						c0.4-0.5,0.7-0.9,1.1-1.3c0.7-0.7,1.5-1.6,2-2.4C143,87.3,143,86.4,142.8,85.4z"/>
				</g>
				<g>
					<path fill="#FFFFFF" d="M134.7,89.5C134.7,89.5,134.6,89.5,134.7,89.5c-0.7-0.2-1.1-0.8-1.4-1.8c-0.6-2.9-0.4-5.9,0.6-8.7
						c0.1-0.2,0.3-0.3,0.4-0.2c0.2,0.1,0.3,0.3,0.2,0.4c-1,2.7-1.2,5.6-0.6,8.4c0.2,0.8,0.4,1.2,0.8,1.3c0.2,0,0.3,0.2,0.2,0.4
						C135,89.4,134.9,89.5,134.7,89.5z"/>
				</g>
				<g>
					<path fill="#FFFFFF" d="M137.9,85.5c-0.1,0-0.2-0.1-0.3-0.2c-0.9-1.6-1.1-3.6-0.5-5.3c0.1-0.2,0.3-0.3,0.4-0.2
						c0.2,0.1,0.3,0.3,0.2,0.4c-0.6,1.5-0.4,3.3,0.4,4.8c0.1,0.2,0,0.4-0.1,0.5C138,85.5,137.9,85.5,137.9,85.5z"/>
				</g>
			</g>
		</g>
		<g>
			<path fill="#14345A" d="M174.6,143.4c-1.1-1.1-2-2.3-2.9-3.6c-0.2-0.3-0.3-0.6-0.4-0.9c-0.1-0.3,0-0.7,0.2-0.9
				c0.3-0.3,0.8-0.4,1.2-0.5c0.4-0.1,0.9-0.4,1.1-0.8c0.2-0.4,0.3-1-0.1-1.3c-1.6,0.8-3.5,0.1-5.2,0.5c-0.8,0.2-1.5,0.7-2.3,1
				c-1.3-0.4-2.6-1-3.7-1.7c0,0,0,0,0,0.1c-13.7-8.7-28.3-29.1-34.4-38.2c-7.1-3.6-11.5-1.2-10.7,5.6c4.2,24.8,26.6,36.4,41.9,39.7
				c-0.1,0.1-0.1,0.2-0.2,0.3c1.3,0.3,2.6,0.7,3.8,1.1c1.1,1.1,2.5,2.1,3.9,2.8c0.5,0.3,1.2,0.5,1.8,0.3c0.5-0.2,1-0.6,1.5-0.7
				c0.4-0.1,0.9,0.1,1.3,0c0.7-0.1,1.1-0.9,1.8-1.1c0.3-0.1,0.7-0.1,1.1-0.1c0.4-0.1,0.7-0.2,0.8-0.6
				C175.2,144.1,174.9,143.7,174.6,143.4z"/>
		</g>
		<g>
			<g>
				<path fill="#14345A" d="M106.2,211.3c6.2-3.2,13.5-4.2,20.4-1.5c0.4-19.6,1.4-39.1,2.9-58.6c-6.9,0.4-14-1-20.4-4.1l-5.5-0.3
					c-5.1,19.6-2.4,40.6,1.7,60.5C105.7,208.7,105.9,210,106.2,211.3z"/>
			</g>
		</g>
		<g>
			<g>
				<g>
					<path fill="#A40032" d="M115.1,252.6c-3.2-1.3-2.7,0.2,1,0.4C115.8,252.9,115.5,252.8,115.1,252.6z"/>
					<path fill="#A40032" d="M103.6,212.8c5.3-3.4,11.5-5.2,17.8-4.3c1.7-19.1,4-38.1,5.4-57.2c-6.9,0.4-14-1-20.4-4.1l-5.5-0.3
						c-5.1,19.6-2.4,40.6,1.7,60.5C103.1,209.2,103.4,211,103.6,212.8z"/>
				</g>
				<g>
					<path fill="#56001D" d="M121.4,208.5c1.7-19.1,4-38.1,5.4-57.2c-3.1,0.2-6.2,0-9.3-0.5c-1.5,19.1-3.1,38.5-3.6,58
						C116.4,208.2,118.9,208.1,121.4,208.5z"/>
				</g>
				<g>
					<rect x="100.2" y="154.1" fill="#14345A" width="28.3" height="3.3"/>
				</g>
				<g>
					<rect x="107.9" y="153.6" fill="#A40032" width="1.4" height="4.4"/>
				</g>
				<g>
					<rect x="122.1" y="153.6" fill="#A40032" width="1.4" height="4.4"/>
				</g>
			</g>
		</g>
		<g>
			<g>
				<path fill="#A40032" d="M119.8,90c-9.6,9.1-14,17.2-17.6,30c-3.2,11.2-4.6,20.6-5.8,31.6c-0.3,2.4,1.8,4.4,4.2,4.1
					c9.4-1.1,17-1.5,26.3,0.3c1.9,0.4,3.6-1.1,3.6-3c0-13.2,7.3-27.9,7.1-34.2c-0.2-5.7-1.3-8.2-2.3-13.9c-0.2-1.3-0.5-2.8-0.7-4.4
					c-5.4-2.6-10.3-6.8-14.5-10.8L119.8,90z"/>
			</g>
			<g>
				<path fill="#56001D" d="M135.3,104.9c-0.2-1.3-0.5-2.8-0.7-4.4c-4.4-2.2-8.6-5.4-12.2-8.7c-8.7,9.2,0.8,21.8-1.9,32.6
					c-1.9,8.4-7.5,14.9-5.6,23.3c0,0.9,0.9,3.7,0.9,4.7c-0.9,0.9-1.9,1.7-2.9,2.4c4.5-0.1,9,0.3,13.9,1.2c1.9,0.4,3.6-1.1,3.6-3
					c0-13.2,7.3-27.9,7.1-34.2C137.4,113.1,136.3,110.6,135.3,104.9z"/>
			</g>
			<g>
				<path fill="#14345A" d="M115.4,108.2c1.5,10.8,7.7,20.8,16.7,26.9c0.8-2.7,1.7-5.3,2.5-8c-9-6.7-15-17.4-16.1-28.6
					c-1.6,0.9-2.6,2.5-3,4.3C115,104.6,115.1,106.5,115.4,108.2z"/>
			</g>
			<g>
				<path fill="#FFFFFF" d="M121.4,88.3c-1,0.9-1.9,1.7-2.9,2.6c5,3.9,9.7,8.2,14.1,12.7c0.2-1.4,0.4-2.6,1.6-3.4
					c0.3,0.5,0.4,2.3,0.7,2.8c0.7-1.3,1.2-4.3,0.3-5.5c-0.9-1.2-2.2-2-3.5-2.8C128.3,92.6,124.8,90.4,121.4,88.3z"/>
			</g>
			<g>
				<path fill="#F2D525" d="M112.4,101.4c-0.1-0.4-0.5-0.6-0.8-0.4c-0.3,0.2-0.6,0.5-0.9,0.9c-3,3.9-5.4,9.2-6.8,14.9
					c-0.1,0.5-0.2,0.9-0.2,1.4c0,0.4,0.2,0.9,0.4,0.9c0.3,0,0.5-0.3,0.7-0.7c2.9-4.3,5.4-9.5,7.3-15.2
					C112.3,102.6,112.5,101.9,112.4,101.4z"/>
			</g>
		</g>
		<g>
			<g>
				<path fill="#A40032" d="M126.8,98.2c-7.1-3.6-11.5-1.2-10.7,5.6c4.7,27.2,31.2,38.5,46.1,40.4c2.6-0.1,3.7-3.6,4.2-5.1
					C151.3,133,133.6,108.4,126.8,98.2z"/>
			</g>
			<g>
				<path fill="#FFFFFF" d="M173.2,144.4c-1.1-1.1-2-2.3-2.9-3.6c-0.2-0.3-0.3-0.6-0.4-0.9c-0.1-0.3,0-0.7,0.2-0.9
					c0.3-0.3,0.8-0.4,1.2-0.5c0.4-0.1,0.9-0.4,1.1-0.8c0.2-0.4,0.3-1-0.1-1.3c-1.6,0.8-3.5,0.1-5.2,0.5c-0.8,0.2-1.5,0.7-2.3,1
					c-1.3-0.4-2.6-1-3.7-1.7c-1.1,2.5-2.3,5-3.4,7.5c1.3,0.3,2.6,0.7,3.8,1.1c1.1,1.1,2.5,2.1,3.9,2.8c0.5,0.3,1.2,0.5,1.8,0.3
					c0.5-0.2,1-0.6,1.5-0.7c0.4-0.1,0.9,0.1,1.3,0c0.7-0.1,1.1-0.9,1.8-1.1c0.3-0.1,0.7-0.1,1.1-0.1c0.4-0.1,0.7-0.2,0.8-0.6
					C173.9,145.1,173.5,144.7,173.2,144.4z"/>
			</g>
			<g>
				<path fill="#F2D525" d="M119.5,106.4c-0.2,0.8-0.1,1.6,0.1,2.4c0.7,1.9,2.6,3.2,4.6,3c1.8-0.2,3.4-1.6,3.9-3.3
					c0.5-1.7,0-3.7-1.4-4.9c-0.9-0.8-2.2-1.3-3.4-1C121.4,102.9,119.9,104.5,119.5,106.4z"/>
			</g>
		</g>
	</g>
	<g>
		<g>
			<ellipse fill="#DED7DB" cx="132.8" cy="241.4" rx="94.1" ry="4"/>
		</g>
		<g>
			<ellipse fill="#DED7DB" cx="234.6" cy="255.3" rx="27.2" ry="3.4"/>
		</g>
	</g>
	<g>
		<g>
			<path fill="#3C7AA5" d="M272.5,61.8c0-26.1-22-47.1-48.5-45.5c-23.4,1.5-42.2,21.1-42.6,44.5c-0.2,11.9,4.1,22.8,11.4,31.1
				c9.2,10.4,18,21.1,25.7,32.7l8.5,12.9l6.1-9.2c8.3-12.4,17.1-24.5,27.3-35.5C267.9,84.7,272.5,73.8,272.5,61.8z"/>
		</g>
		<g>
			<circle fill="#FFFFFF" cx="226.9" cy="61.8" r="24.5"/>
		</g>
	</g>
	<g>
		<g>
			<path fill="#A40032" d="M60.3,218.2c-21.1,0-40.8,0.1-57.2,0.2c0,0.7,0.1,1.5,0.1,2.2c16.4,0.1,36.1,0.2,57.1,0.2
				c2.8,0,5.5,0,8.3,0v-2.6C65.8,218.2,63.1,218.2,60.3,218.2z"/>
		</g>
		<g>
			<path fill="#A40032" d="M73.2,210.1c-1,0-2,0-3,0c-21.1,0-38.1,0.5-38.1,1c0,0.6,17.1,1,38.1,1c1,0,2,0,3,0V210.1z"/>
		</g>
		<g>
			<path fill="#A40032" d="M69.5,187.2c-1.4,0-2.9,0-4.4,0c-30.6,0-55.4,0.4-55.4,0.8s24.8,0.8,55.4,0.8c1.5,0,2.9,0,4.4,0V187.2z"
				/>
		</g>
		<g>
			<g>
				<g>
					<circle fill="#14345A" cx="85.9" cy="219.8" r="22.6"/>
				</g>
				<g>
					<circle fill="#3AC1B0" cx="85.9" cy="219.8" r="14.6"/>
				</g>
			</g>
			<g>
				<path fill="#14345A" d="M165.5,219c2.6-2.8,3.4-6.9,4.8-10.5c2.6-7.2,7.6-13.3,13.7-17.1c1.6-1,3.4-1.9,4.9-3.1
					c1.5-1.3,2.8-3,3-5.1c0.2-1.6-0.3-3.2-0.7-4.7c-3-10-6-20-9.6-29.8c-0.9-2.5-2.2-5.3-4.6-6c-1.6-0.4-3.3,0.3-4.8,1
					c-4.7,2.1-9.7,4.7-12.3,9.5c-1.8,3.4-2.2,7.6-2.1,11.6c0.3,8.7,2.5,17.2,3.5,25.9c1,8.7,0.6,18-3.9,25.2c-1,1.6-2.2,3-3.2,4.6
					C157.5,222.8,162.5,222.2,165.5,219z"/>
			</g>
			<g>
				<path fill="#A40032" d="M120.7,173.8c3.8,0.4,8.1,1.6,9.5,4.5c1.1,2.4-0.2,4.9-1.1,7.4c-1.9,4.9-2.2,10.1-0.8,15.1
					c1,3.6,3,7.2,7,9.2c3.5,1.7,7.9,1.7,12.1,1.7c6,0,12.4-0.2,17-3.2c2,4.6-1.8,9.7-7.1,12.2c-5.3,2.5-11.7,3-17.8,3.4
					c-22.5,1.3-45.1,1.4-67.6,0.6c-3.7-0.1-7.7-0.4-10.4-2.3c-3.3-2.4-3.5-6.4-3.4-9.9c0.2-8.1,0.6-16.7,6.3-23.5
					c3.5-4.2,8.8-7.4,14.5-9.5c5.8-2.2,12-3.5,18.3-4.4C104.9,173.7,112.9,172.9,120.7,173.8z"/>
			</g>
			<g>
				<path fill="#14345A" d="M140.7,221.6c4.6-0.3,9.3-0.5,13.5-2.3c4.3-1.7,8.1-5.2,9-9.7c0.2-0.8,0.1-2-0.8-2.2
					c-1.5,3.8-5.5,6.1-9.5,6.9c-4,0.8-8.1,0.5-12.2,0.6c-4.1,0.1-8.3,0.8-11.6,3.2c-0.6,0.4-1.1,0.9-1.4,1.6c-0.3,0.7-0.2,1.5,0.3,2
					c0.6,0.5,1.4,0.5,2.2,0.5C133.7,222,137.2,221.8,140.7,221.6z"/>
			</g>
			<g>
				<path fill="#56001D" d="M84.3,182c10.6-3.9,22.1-5,33.4-4.1c2.4,0.2,5.3,0.8,6.3,3c0.7,1.5,0.3,3.2-0.1,4.8
					c-1.6,7.7-0.8,16,2.3,23.3c0.8,1.8,1.7,3.6,2,5.6c0.3,2-0.1,4.2-1.6,5.5c-1.5,1.3-3.8,1.4-5.8,1.4c-12.9-0.1-25.9-0.2-38.6-2.4
					c-3.9-0.7-8-1.7-10.4-4.9c-2.3-3.1-2.3-7.2-2-11.1c0.4-5.3,1.1-10.9,4.6-15C76.9,185.1,80.6,183.4,84.3,182z"/>
			</g>
			<g>
				<g>
					<path fill="#FFFFFF" d="M184,126.3c1.3,3.1,1.3,6.5,1.3,9.9c-0.6,0.1-1.3,0.1-1.9,0.2c-0.9-4.3-2.2-8.6-3.8-12.7
						c0.8-0.5,2-0.3,2.8,0.3C183.1,124.5,183.7,125.4,184,126.3z"/>
				</g>
				<g>
					<path fill="#A40032" d="M184.8,138.3c0-4.2-0.9-8.4-2.6-12.2c-0.9-2-2.4-4.1-4.5-4.2c-1.1-0.1-2.2,0.4-3.3,1
						c-2,1-4,2.2-5.5,3.8c-2.6,2.8-3.6,6.6-4.5,10.3c-0.2,0.7-0.3,1.5,0,2.1c0.4,0.8,1.4,1.1,2.4,1.1c0.4,1.3,0.8,2.5,1.2,3.8
						c0.1,0.2,0.1,0.4,0.3,0.5c0.2,0.1,0.4,0.1,0.6,0c1.5-0.4,3-0.8,4.6-1.2c0.7-0.2,1.5-0.4,2-0.9c0.4-0.4,0.7-1.1,0.9-1.6
						c0.3-0.6,0.5-1.1,0.9-1.6C179.8,138.9,182.3,138.6,184.8,138.3z"/>
				</g>
				<g>
					<path fill="#14345A" d="M172.6,130c-1.6-0.3-3.3,0.1-4.5,1.1c-1.2,1.1-1.7,3-0.8,4.3c0.8,1.3,2.6,1.8,4.1,1.3
						c1.5-0.5,2.6-1.7,3.2-3.1c0.3-0.7,0.5-1.6,0.2-2.3C174.4,130.5,173.4,130.1,172.6,130z"/>
				</g>
			</g>
			<g>
				<g>
					<g>
						<circle fill="#14345A" cx="196.7" cy="219.8" r="22.6"/>
					</g>
					<g>
						<circle fill="#3AC1B0" cx="196.7" cy="219.8" r="14.6"/>
					</g>
				</g>
				<g>
					<path fill="#14345A" d="M188.2,226.4c2.7,2.4,6.9,1.7,10.2,0.3c1.9-0.9,3.9-2.1,4.6-4.2c0.6-1.8,0.1-3.7-0.4-5.6
						c-2.4-7.9-5.2-15.6-8.7-23c-0.7-1.6-1.7-3.3-3.3-3.7c-0.6-0.1-1.2-0.1-1.7-0.3c-0.5-0.2-1-0.8-0.7-1.4
						c-2.9,0.9-5.7,2.1-8.3,3.8c-0.9,0.6-1.9,1.3-2.2,2.3c-0.4,1,0,2.2,0.3,3.2c2.4,7.7,4.9,15.5,7.3,23.3
						C186,223,186.7,225.1,188.2,226.4z"/>
				</g>
				<g>
					<path fill="#FFFFFF" d="M194.5,225.3c-2.5,0-4.5-2-4.5-4.5s2-4.5,4.5-4.5c2.5,0,4.5,2,4.5,4.5S197,225.3,194.5,225.3z
						 M194.5,217c-2.1,0-3.9,1.7-3.9,3.9c0,2.1,1.7,3.9,3.9,3.9c2.1,0,3.9-1.7,3.9-3.9C198.3,218.7,196.6,217,194.5,217z"/>
				</g>
			</g>
			<g>
				<path fill="#14345A" d="M93.2,182.3c-6.2-1.2-12.7,0.6-17.8,4.1s-9.1,8.7-12,14.2c-2.9,5.6-4.7,11.6-6.3,17.7
					c-0.3,1-0.5,2.1-0.1,3.1c0.4,0.8,1.2,1.2,2,1.6c5.6,2.7,11.8,3.6,17.9,4c12.7,0.9,25.6,0.1,38.1-2.4c1.4-0.3,2.8-0.6,3.9-1.4
					c0.9-0.6,1.7-1.5,2.3-2.5c2.8-4.2,3.4-9.7,2.2-14.6c-1.1-4.9-3.8-9.4-7.2-13.2c-3.3-3.8-7.3-7.1-11.9-9c-4.6-2-9.9-2.6-14.7-1.2
					"/>
			</g>
			<g>
				<path fill="#14345A" d="M95.3,181.4c0,0.5-0.4,0.9-0.9,0.9H48.5c-0.5,0-0.9-0.4-0.9-0.9l0,0c0-0.5,0.4-0.9,0.9-0.9h45.8
					C94.9,180.5,95.3,180.9,95.3,181.4L95.3,181.4z"/>
			</g>
			<g>
				<g>
					<path fill="#A40032" d="M224.9,219.7c-0.8-6.8-2.8-12-7.2-17.2c-1.5-1.8-3.3-3.9-6.5-6c-8.2-5.4-19-6.4-27.4-1.4
						c-8.3,5-13.5,14.7-14,24.6H224.9z"/>
				</g>
				<g>
					<path fill="#56001D" d="M172.6,218.3c0.6-6.6,4.7-12.8,10.6-15.9c5.9-3.1,13.3-3,19.1,0.2s9.8,9.5,10.3,16.1L172.6,218.3z"/>
				</g>
				<g>
					<path fill="#FFFFFF" d="M215.6,211c-0.1,0-0.2-0.1-0.3-0.2c-4-7.4-11-12.5-18.7-13.8c-8.2-1.4-16.7,2-21.1,8.4
						c-0.1,0.2-0.3,0.2-0.5,0.1c-0.2-0.1-0.2-0.3-0.1-0.5c4.6-6.6,13.3-10.1,21.8-8.7c7.9,1.3,15,6.6,19.1,14.2
						c0.1,0.2,0,0.4-0.1,0.5C215.7,210.9,215.6,211,215.6,211z"/>
				</g>
			</g>
			<g>
				<g>
					<path fill="#14345A" d="M130.8,177.5c0.8-0.8,0.3-2.3-0.4-3.2c-2.5-3.5-6.4-5.9-10.5-7.3c-4.1-1.4-8.5-1.8-12.8-2.2
						c-2-0.2-4.2-0.3-6,0.8c-2.5,1.5-3.1,4.8-3.6,7.6c-0.3,2-0.3,4.6,1.5,5.5c0.7,0.4,1.6,0.4,2.5,0.3c9.1-0.3,18.2-0.6,27.3-0.9
						C129.5,178.1,130.3,178,130.8,177.5z"/>
				</g>
				<g>
					<path fill="#FFFFFF" d="M122.3,176.2c-0.1,0-0.2-0.1-0.3-0.1c-4.4-6.6-13.2-10-20.9-8c-0.2,0-0.4-0.1-0.4-0.2
						c0-0.2,0.1-0.4,0.2-0.4c8-2,17.1,1.5,21.7,8.3c0.1,0.2,0.1,0.4-0.1,0.5C122.5,176.1,122.4,176.2,122.3,176.2z"/>
				</g>
			</g>
			<g>
				<g>
					<g>
						<path fill="#FFFFFF" d="M163.7,169.5c-0.7-0.8-1.9-0.6-2.9-0.3c-1.6,0.4-3.3,1-3.9,2.5c-0.2,0.7-0.2,1.4-0.1,2.1
							c0.4,4,0.8,8,1.2,12c0.1,1.4,1.4,2.4,2.8,2.2l2.9-0.4c0.6-0.1,1.3-0.2,1.8-0.7c0.6-0.6,0.5-1.7,0.4-2.6
							c-0.6-4.5-1.2-8.9-1.8-13.4C164.1,170.4,164.1,169.9,163.7,169.5z"/>
					</g>
					<g>
						<polygon fill="#FFFFFF" points="158.4,167.6 158.8,170.4 161.7,169.8 160.7,167 						"/>
					</g>
					<g>
						<path fill="#A40032" d="M156.9,168.4c1.6-0.4,3.2-0.6,4.9-0.7c-0.1-1-0.2-2-0.3-3c-1.7,0.2-3.4,0.4-5.1,0.7
							C156.4,166.4,156.6,167.4,156.9,168.4z"/>
					</g>
					<g>
						<path fill="#A40032" d="M154.3,167.9c-0.1,0.3-0.1,0.6,0.1,0.9c0.2,0.2,0.6,0.3,0.8,0c-0.1-0.4,0.2-0.9,0.5-1.2
							c0.4-0.3,0.8-0.3,1.3-0.4c0.4,0,0.9,0,1.3-0.1c-0.2-0.3-0.3-0.7-0.3-1.1c-0.7,0.3-1.5,0.3-2.2,0.5
							C155.2,166.8,154.5,167.2,154.3,167.9z"/>
					</g>
				</g>
				<g>
					<path fill="#14345A" d="M167.2,179.4c-0.1-2.7-0.5-5.4-1-8c-1.6,3.9-5.4,6.7-9.5,7c0.1,0.8,0.2,1.6,0.2,2.5
						C160.3,180.2,163.7,179.7,167.2,179.4z"/>
				</g>
			</g>
			<g>
				<g>
					<path fill="#A40032" d="M49.5,136.4c-2.3,1.5-4.5,3.2-5.7,5.6c-1.4,2.8-1.1,6-0.8,9.1c0.7,7,1.7,13.9,2.9,20.9
						c0.5,2.8,1.2,5.9,3.5,7.5c1.9,1.4,4.6,1.5,7,1.5c11.2,0,22.5,0,33.7-0.1c2,0,4.2-0.1,5.5-1.7c1-1.2,1-2.8,1.1-4.3
						c0.3-14.6,0.6-29.2,0.8-43.7c0-1.8,0-3.6-0.9-5.1c-0.9-1.4-2.4-2.2-3.9-2.7c-5.6-1.9-11.8-0.8-17.5,0.9
						C66.1,127,57.4,131.1,49.5,136.4z"/>
				</g>
				<g>
					<path fill="#F2D525" d="M93.1,152.2c-15.4,0-30.8,1.7-45.9,5c-0.1-4.4-0.2-8.9-0.3-13.3c14.3-7.6,30.2-12.3,46.4-13.7
						C93.3,137.6,93.2,144.9,93.1,152.2z"/>
				</g>
				<g>
					<circle fill="#F2D525" cx="71.2" cy="165.6" r="8.5"/>
				</g>
				<g>
					<path fill="#FFFFFF" d="M81,125.5c-8.3,1.5-16.2,4.5-23.9,7.8c-4.3,1.8-8.8,4-11.2,7.9c2.5-2.7,6.4-4.8,9.8-6.1
						c5.9-2.4,10.6-4.2,16.6-6.2c6-2,13.3-3.5,19.4-2.2C88.7,124.6,84.7,124.9,81,125.5z"/>
				</g>
			</g>
			<g>
				<g>
					<path fill="#A40032" d="M90.2,186c-6.2-1.2-12.7,0.6-17.8,4.1c-5.2,3.5-9.1,8.7-12,14.2c-2.9,5.6-4.7,11.6-6.3,17.7
						c-0.3,1-0.5,2.1-0.1,3.1c0.4,0.8,1.2,1.2,2,1.6c5.6,2.7,11.8,3.6,17.9,4c12.7,0.9,25.6,0.1,38.1-2.4c1.4-0.3,2.8-0.6,3.9-1.4
						c0.9-0.6,1.7-1.5,2.3-2.5c2.8-4.2,3.4-9.7,2.2-14.6c-1.1-4.9-3.8-9.4-7.2-13.2c-3.3-3.8-7.3-7.1-11.9-9
						c-4.6-2-9.9-2.6-14.7-1.2"/>
				</g>
				<g>
					<path fill="#F2D525" d="M109.9,194.6c-0.3,0-0.7,0-1,0c0.1,1.5-1.7,2.4-3.1,2.9c-15.4,4.9-31.1,9.1-46.8,13.3
						c-1.2,4.2-2.3,8.4-3.5,12.5c19.7-0.7,38.9-6.1,57.9-11.4c1.7-0.5,3.7-1.2,4.2-2.9c0.4-1.4-0.4-2.8-1.2-4.1
						C114.2,201.6,112.1,198.1,109.9,194.6z"/>
				</g>
				<g>
					<path fill="#FFFFFF" d="M61.1,205.9c0,0-0.1,0-0.1,0c-0.2-0.1-0.3-0.3-0.2-0.4c3-7.5,9.4-13.7,17-16.6
						c7.6-2.8,16.5-2.3,23.7,1.4c0.2,0.1,0.2,0.3,0.1,0.5c-0.1,0.2-0.3,0.2-0.5,0.1c-7.1-3.6-15.7-4.1-23.2-1.3
						c-7.4,2.8-13.7,8.8-16.6,16.2C61.4,205.8,61.3,205.9,61.1,205.9z"/>
				</g>
				<g>
					<g>
						<g>
							<path fill="#14345A" d="M111.2,225.2c0,0.3-0.4,0.7-0.7,0.7c-4,0.9-6,1.1-9.8,1c-0.3,0-0.5-0.3-0.4-0.6l0,0
								c0.1-0.3,0.5-0.6,0.8-0.6c3.7,0,5.6-0.2,9.5-1C111,224.7,111.2,224.9,111.2,225.2L111.2,225.2z"/>
						</g>
					</g>
					<g>
						<g>
							<path fill="#14345A" d="M111.6,222.5c0,0.3-0.4,0.7-0.7,0.7c-4,0.9-6,1.1-9.8,1c-0.3,0-0.5-0.3-0.4-0.6l0,0
								c0.1-0.3,0.5-0.6,0.8-0.6c3.7,0,5.6-0.2,9.5-1C111.5,222,111.7,222.2,111.6,222.5L111.6,222.5z"/>
						</g>
					</g>
					<g>
						<g>
							<path fill="#14345A" d="M112.1,219.9c0,0.3-0.4,0.7-0.7,0.7c-4,0.9-6,1.1-9.8,1c-0.3,0-0.5-0.3-0.4-0.6l0,0
								c0.1-0.3,0.5-0.6,0.8-0.6c3.7,0,5.6-0.2,9.5-1C111.9,219.4,112.1,219.6,112.1,219.9L112.1,219.9z"/>
						</g>
					</g>
				</g>
			</g>
			<g>
				<g>
					<path fill="#A40032" d="M171.1,207.3c2.9-5.6,7.2-10.5,12.2-14.3c3.5-2.7,7.7-5.1,9.5-9.2c2.2-4.9,0.4-10.6-1.4-15.6
						c-2-5.4-4-10.9-5.9-16.3c-0.8-2.2-1.9-4.3-3.2-6.2c-1.1-1.6-3.4-3.6-5.6-3c0,3.4-3.9,6.5-5.8,9.3c-3.2,4.8-2.8,11.1-2.4,16.9
						c0.5,8,0.7,16-0.6,23.9c-1.3,7.9-4.3,15.6-9.6,21.6c-1,1.1-2.1,2.5-1.6,3.9c0.5,1.6,2.6,1.9,4.2,1.5c2.7-0.7,4.8-2.8,6.4-5.1
						C168.8,212.4,169.8,209.8,171.1,207.3z"/>
				</g>
				<g>
					<path fill="#FFFFFF" d="M173.7,166.2c1.2,0.2,2.1-1.1,2.5-2.2c0.9-2.4,0.8-5.2,2-7.5c0.4-0.8,0.9-1.5,1.1-2.3
						c0.3-0.8,0.2-1.8-0.4-2.4c-0.6-0.6-1.5-0.6-2.3-0.3c-0.8,0.3-1.4,0.9-1.9,1.5c-2.5,3-3.9,7.1-3,10.9
						C172,164.9,172.6,166.1,173.7,166.2z"/>
				</g>
				<g>
					<path fill="#FFFFFF" d="M159.4,215.2c-0.1,0-0.2,0-0.2-0.1c-0.1-0.1-0.2-0.3,0-0.5c9.5-11.2,10.7-25.3,10.2-35.2
						c-0.1-2.4-0.1-4.9-0.1-7.3c0-2,0-4-0.1-6l0-0.9c-0.2-4.1-0.4-8.4,2-11.9c0.7-1.1,1.5-2,2.3-2.9c1.7-2,3.2-3.9,4.1-7.2
						c0-0.2,0.2-0.3,0.4-0.2c0.2,0,0.3,0.2,0.2,0.4c-0.9,3.5-2.5,5.4-4.2,7.5c-0.7,0.9-1.5,1.8-2.2,2.9c-2.3,3.3-2.1,7.5-1.9,11.5
						l0,0.9c0.1,2,0.1,4.1,0.1,6.1c0,2.4,0,4.9,0.1,7.3c0.6,10-0.7,24.3-10.3,35.7C159.6,215.1,159.5,215.2,159.4,215.2z"/>
				</g>
			</g>
		</g>
	</g>
</g>
</svg>
