<?xml version="1.0" encoding="utf-8"?>
<!-- Generator: Adobe Illustrator 18.0.0, SVG Export Plug-In . SVG Version: 6.00 Build 0)  -->
<!DOCTYPE svg PUBLIC "-//W3C//DTD SVG 1.1//EN" "http://www.w3.org/Graphics/SVG/1.1/DTD/svg11.dtd">
<svg version="1.1" id="Layer_1" xmlns="http://www.w3.org/2000/svg" xmlns:xlink="http://www.w3.org/1999/xlink" x="0px" y="0px"
	 viewBox="0 0 685 536" enable-background="new 0 0 685 536" xml:space="preserve">
<g>
	<g>
		<path fill="#004B82" d="M194,177l-22.6,68.3H158l-16.9-50.5l-17.2,50.5h-13.6L87.8,177h13.2l17,51.9l17.6-51.9h11.7l17.3,52.2
			L182,177H194z"/>
		<path fill="#004B82" d="M257,234.6v10.6h-51.2V177h49.8v10.6h-37.1v17.7h33v10.4h-33v18.8H257z"/>
		<path fill="#004B82" d="M271.2,177h12.7v57.5h35.7v10.7h-48.4V177z"/>
		<path fill="#004B82" d="M342.5,241.7c-5.6-3-9.9-7.2-13.1-12.5c-3.2-5.3-4.7-11.3-4.7-18c0-6.7,1.6-12.7,4.8-18
			c3.2-5.3,7.6-9.5,13.1-12.5c5.6-3,11.8-4.5,18.7-4.5c5.6,0,10.7,1,15.3,2.9c4.6,2,8.5,4.8,11.7,8.5l-8.2,7.7c-4.9-5.3-11-8-18.2-8
			c-4.7,0-8.9,1-12.6,3.1s-6.6,4.9-8.7,8.5c-2.1,3.6-3.1,7.8-3.1,12.4c0,4.6,1,8.7,3.1,12.4c2.1,3.6,5,6.5,8.7,8.5s7.9,3.1,12.6,3.1
			c7.2,0,13.3-2.7,18.2-8.1l8.2,7.8c-3.2,3.7-7.1,6.5-11.7,8.5c-4.6,2-9.8,2.9-15.4,2.9C354.3,246.2,348,244.7,342.5,241.7z"/>
		<path fill="#004B82" d="M413.5,241.7c-5.6-3-10-7.2-13.2-12.6c-3.2-5.4-4.8-11.4-4.8-18c0-6.6,1.6-12.6,4.8-18
			c3.2-5.4,7.6-9.6,13.2-12.6c5.6-3,11.9-4.5,18.8-4.5c7,0,13.2,1.5,18.8,4.5c5.6,3,10,7.2,13.2,12.5c3.2,5.3,4.8,11.3,4.8,18
			c0,6.7-1.6,12.7-4.8,18c-3.2,5.3-7.6,9.5-13.2,12.5c-5.6,3-11.9,4.5-18.8,4.5C425.4,246.2,419.1,244.7,413.5,241.7z M444.6,232.1
			c3.6-2,6.5-4.9,8.6-8.6c2.1-3.7,3.1-7.8,3.1-12.3s-1-8.7-3.1-12.3c-2.1-3.7-4.9-6.5-8.6-8.6c-3.6-2-7.7-3.1-12.3-3.1
			c-4.6,0-8.6,1-12.3,3.1c-3.6,2-6.5,4.9-8.6,8.6c-2.1,3.7-3.1,7.8-3.1,12.3s1,8.7,3.1,12.3c2.1,3.7,4.9,6.5,8.6,8.6
			c3.6,2,7.7,3.1,12.3,3.1C436.9,235.1,441,234.1,444.6,232.1z"/>
		<path fill="#004B82" d="M545.2,245.3l-0.1-45.2l-22.4,37.4h-5.7l-22.4-36.9v44.7h-12.1V177H493l27.1,45.2l26.6-45.2h10.4l0.1,68.3
			H545.2z"/>
		<path fill="#004B82" d="M626.9,234.6v10.6h-51.2V177h49.8v10.6h-37.1v17.7h33v10.4h-33v18.8H626.9z"/>
	</g>
	<g>
		<path fill="#DED7DB" d="M334.2,0.4c-2.8-0.6-5.9-0.1-8.6,0.9c-1.3,0.5-2.6,1.1-3.8,1.9c-0.3,0.2-3,2.5-3,2.6
			c-3.4-1.9-7.3-2.5-10.8-0.7c-1.5,0.8-2.8,1.8-3.8,3.2c-0.2,0.3-2.5,4.1-2,4.3c-7.3-2.4-16,3.3-16.8,10.9
			c23.6,0.4,47.3,0.6,70.9,0.5c0.5-2.7-0.5-5.6-2.6-7.4s-5.2-2.3-7.7-1.3C347.3,8.3,341.1,1.7,334.2,0.4z"/>
		<path fill="#DED7DB" d="M74.6,84.2c-0.2,0.7-0.3,1.5-0.2,2.2c-1.9-0.5-4-0.7-5.9,0c-2.6,0.9-4.9,4.3-4.9,7
			c19,0.3,38.1,0.1,57.1,0.3c-1.7-5.1-7.5-8.5-12.8-7.4c-0.7-7.1-9.6-11.8-16-9.2c-2.3,0.9-4.2,2.6-5.8,4.5
			c0.5-0.6-6.6-4.1-10.3,0.3C75.2,82.6,74.8,83.3,74.6,84.2z"/>
		<g>
			<path fill="#DED7DB" d="M592.3,63.9c-0.3,0.4-0.7,0.9-1.2,1c-0.5,0.1-1-0.2-1.4-0.4c-2.8-1.5-6.2-2.1-9.1-1
				c-3,1.1-5.4,3.9-5.4,7.1c-5.1-1.8-11.3,2.9-11,8.4c21.1-0.1,42.2-0.3,63.3-0.4c-1.3-5.4-8-8.8-13.1-6.7c0-5.1-3.4-10.1-8.2-11.8
				C601.3,58.2,595.5,59.9,592.3,63.9z"/>
			<path fill="#DED7DB" d="M537.2,82.4c-0.2,0.5-0.2,1.1-0.2,1.7c-1.4-0.4-3-0.5-4.4,0c-1.9,0.7-3.6,3.2-3.6,5.2
				c14.2,0.2,28.3,0,42.5,0.2c-1.3-3.8-5.6-6.3-9.6-5.5c-0.5-5.3-7.2-8.8-11.9-6.8c-1.7,0.7-3.1,1.9-4.3,3.3c0.4-0.5-4.9-3-7.7,0.2
				C537.7,81.2,537.3,81.8,537.2,82.4z"/>
		</g>
	</g>
	<g>
		<g>
			<path fill="#A7D9CE" d="M600.4,307.1c-3.6-3.9-7.4-7.6-11.3-11.1c-10.8-9.5-26.3-23.2-41.8-22.9c0.9,1.3,2.3,2.3,3.2,3.6
				c0.9,1.3,1.4,3.1,0.4,4.2c6.8,1.7,18.3,5.9,19.2,14c-2.7,1-5.6,1.4-8.5,1.1c2.3,8,9,14.7,17,17c0.9,1.9-1,4.2-3.2,4.5
				c-2.1,0.3-4.1-0.9-5.9-2c0.7,2.3,1.3,4.6,2,6.8c4.9-0.2,10,0.4,14,3.2c4,2.7,6.6,8,5.1,12.6c-3.6,1.1-6.4,2.5-10.4,2
				c-4.4-0.2-6.9-3.2-10-5.8c-5.1,5.5-5.3,14-3.6,21.3c0.4,1.7,1,3.6,2.5,4.6c0.8,0.5,1.9,0.7,2.8,1c3,0.8,5.8,2.3,8.5,3.8
				c3.9,2.2,10.2,4.2,11.1,9c0.8,3.9-1.4,8.4-4.8,10.5c-5.8,3.5-9.9-0.3-14.5-3c-3.4,4-3.5,12.4-1.4,17c1.5,3.2,4.3,5.8,7.4,7.5
				c7.1,4,17.6,2.5,23.3,8.7c3.4,3.8,3.2,10.3-0.4,13.9c-3.6,3.6-9.9,4-14,0.9c-2,8.5,0,17.8,5.4,24.7c3.3-1.8,7.3-2.4,10.8-1
				c3.5,1.4,6.2,4.9,6,8.6c-0.2,3.7-3.6,7.2-7.3,6.9c0.1,10.2,10.1,22.3,15.5,30.7c6.5,10,13.5,19.6,21.2,28.7
				c-7-37.1,4.5-75,4.1-112.7C642.6,376,627.2,336.3,600.4,307.1z"/>
			<g>
				<path fill="#73B7B4" d="M639,233.8c-4.5,0.6-7.6,4.8-9,9.1c-2.4,7-1.8,15,1.7,21.6c3.5,6.6,9.8,11.6,16.9,13.6
					c4-12.3,7.8-26.4,1.3-37.5C647.6,236.7,643.5,233.2,639,233.8z"/>
				<path fill="#73B7B4" d="M663.4,272.2c0.8-2.4,2.3-4.8,4.6-6c3.1-1.5,7-0.5,9.4,1.9c2.4,2.4,3.4,6,3.4,9.4
					c-0.1,3.4-1.1,6.7-2.4,9.9c-0.5,1.3-1.1,2.7-1.8,3.9c-1.2,2-3,3.7-5.2,4.3c-2.2,0.7-4.9,0.1-6.3-1.7c-0.9-1.1-1.2-2.5-1.5-3.9
					C662.4,284.2,661.4,277.9,663.4,272.2z"/>
				<path fill="#73B7B4" d="M621.1,304.5c-0.8,0.5-1.4,1.3-1.9,2.1c-1.5,2.3-1.9,5.2-1.4,7.9c0.5,2.7,1.8,5.2,3.6,7.3
					c1.7,2,3.7,3.6,5.9,4.8c2.1,1.1,4.6,1.9,7,1.5c2.9-4.9,3-11.2,1.1-16.5C632,301.2,623.3,303,621.1,304.5z"/>
				<path fill="#73B7B4" d="M680.7,353.5c-1.2,5-4.3,9.3-7.8,12.9c-1.6,1.6-3.3,3.2-5,4.6c-3.3-7.3-3.8-15.8-1.2-23.3
					c0.6-1.7,1.3-3.4,2.6-4.7c1.7-1.6,4.1-2.3,6.4-1.8c2.3,0.5,4.2,2.2,5,4.4c0.5,1.4,0.6,3,0.5,4.5
					C681.2,351.3,681,352.4,680.7,353.5z"/>
				<path fill="#73B7B4" d="M625.9,333.2c-2-1.9-5-2.6-7.7-2.1c-2.7,0.6-5.1,2.4-6.4,4.7c-0.9,1.6-1.4,3.4-1.6,5.2
					c-1.3,9.8,5.2,20,14.6,23c3.5-7.1,7.2-15,5.3-22.7c-0.4-1.5-0.9-3-1.7-4.5C627.8,335.6,627,334.3,625.9,333.2z"/>
				<path fill="#73B7B4" d="M665.3,307.6c1.4-0.9,3-1.5,4.7-1.5c3.5,0.1,6.1,3.4,6.8,6.8c0.6,3.4-0.8,8.9-2.7,11.7
					c-5.5,8.3-11.3,4.6-12,4.2c-0.6-0.3-1-0.8-1.3-1.4c-2-3.2-2.7-7.2-1.9-10.9C659.7,313,662.1,309.7,665.3,307.6z"/>
				<path fill="#73B7B4" d="M643.1,293.5c0-2.6-0.3-5.3-1.2-7.8c-0.9-2.5-2.6-4.7-4.9-6c-2.3-1.3-5.3-1.4-7.5,0
					c-1.4,0.8-2.4,2.2-2.8,3.8c-0.6,2.1,0,4.5,1.2,6.3c1.2,1.9,2.8,3.4,4.5,4.8c2.4,1.9,5,3.8,8.1,3.9c0.4,0,0.8,0,1.1-0.2
					c0.6-0.3,1-0.9,1.2-1.6C643.1,295.8,643.1,294.6,643.1,293.5z"/>
				<path fill="#73B7B4" d="M670.7,391.7c2.1-0.7,4.5-1,6.6-0.4c4.5,1.3,7,6.5,6.7,11.2s-3.9,11.5-7.4,14.6
					c-10,9.2-16.4,2.4-17.2,1.7c-0.7-0.6-1-1.4-1.3-2.2c-1.6-4.9-1.3-10.4,1.1-15C661.6,396.9,665.8,393.3,670.7,391.7z"/>
				<path fill="#73B7B4" d="M637.9,421c1.8-3.6,3.2-7.3,3.7-11.3c0.5-4-0.2-8.1-2.4-11.4c-2.2-3.3-6.1-5.6-10.1-5.3
					c-2.4,0.2-4.7,1.3-6.4,3.1c-2.2,2.5-3,6-2.8,9.4c0.2,3.3,1.4,6.5,2.7,9.6c1.8,4.2,4.2,8.6,8.2,10.9c0.5,0.3,1,0.5,1.6,0.6
					c1,0.1,2-0.6,2.7-1.3C636.3,424,637.1,422.5,637.9,421z"/>
				<g>
					
						<path fill="none" stroke="#95C3B0" stroke-width="1.6706" stroke-linecap="round" stroke-linejoin="round" stroke-miterlimit="10" d="
						M644.9,260.8c14.3,68.4,10.7,140.4-10.4,207.1"/>
					
						<path fill="none" stroke="#95C3B0" stroke-width="1.6706" stroke-linecap="round" stroke-linejoin="round" stroke-miterlimit="10" d="
						M652.1,310c5.5-2.7,9.4-7.8,12.2-13.3c2.8-5.5,4.3-11.6,5.3-17.7"/>
					
						<path fill="none" stroke="#95C3B0" stroke-width="1.6706" stroke-linecap="round" stroke-linejoin="round" stroke-miterlimit="10" d="
						M653.4,352.6c-11.4-9-15.1-16.8-23-33.5"/>
					
						<path fill="none" stroke="#95C3B0" stroke-width="1.6706" stroke-linecap="round" stroke-linejoin="round" stroke-miterlimit="10" d="
						M649.7,400.3c6.5-5,10.8-11.5,14.4-19c3.5-7.4,5.8-15.4,7.8-23.4"/>
					
						<path fill="none" stroke="#95C3B0" stroke-width="1.6706" stroke-linecap="round" stroke-linejoin="round" stroke-miterlimit="10" d="
						M650.6,393.4c-12.1-10.3-23.5-19.5-28.4-36.9"/>
					
						<path fill="none" stroke="#95C3B0" stroke-width="1.6706" stroke-linecap="round" stroke-linejoin="round" stroke-miterlimit="10" d="
						M653.4,338c7.1-4.3,11.9-12.7,13.1-20.9"/>
					
						<path fill="none" stroke="#95C3B0" stroke-width="1.6706" stroke-linecap="round" stroke-linejoin="round" stroke-miterlimit="10" d="
						M645.2,427.9c10.8-3.3,19.8-12.9,24-23.3"/>
					
						<path fill="none" stroke="#95C3B0" stroke-width="1.6706" stroke-linecap="round" stroke-linejoin="round" stroke-miterlimit="10" d="
						M651.3,303.3c-2.3-0.6-4.5-1.7-6.4-3.1c-4.7-3.5-7.6-8.9-10.3-14.1"/>
					
						<path fill="none" stroke="#95C3B0" stroke-width="1.6706" stroke-linecap="round" stroke-linejoin="round" stroke-miterlimit="10" d="
						M642.2,439.8c-2.7-2.4-4.9-5.3-6.5-8.5c-4-7.9-4.1-17.2-4.1-26"/>
				</g>
			</g>
			<g>
				<path fill="#E8D6BE" d="M639,334.5c2.3-1.4,4.9-2.5,7.5-2.3c2.2,0.1,4.3,1,6.1,2.1c6.9,4.3,11.1,12,13.1,20
					c3.7,14.6,3.6,31.1,2.3,46c-1.4,15.2-5.1,30.2-9.8,44.8c-4.5,14-8.7,27-11.6,41.4c-2.8,14.1-3.9,29.7-6.1,43.9
					c-1.2,0.4-2.6-0.2-3.4-1.1c-0.8-1-1.2-2.2-1.5-3.4c-9.7-33.4-14.3-68-16.7-102.7c-1.2-17.1-1.6-34.4,1.1-51.3
					c2.2-13.2,5.6-27.9,17.1-36.1C637.8,335.2,638.4,334.9,639,334.5z"/>
				
					<path fill="none" stroke="#F2E2CE" stroke-width="1.8132" stroke-linecap="round" stroke-linejoin="round" stroke-miterlimit="10" d="
					M639.5,531.3c-7.9-68.5,0.7-164,6.4-192.1"/>
				
					<path fill="none" stroke="#F2E2CE" stroke-width="1.8132" stroke-linecap="round" stroke-linejoin="round" stroke-miterlimit="10" d="
					M637.7,417.3c9.4-6.6,14.9-18.1,21.9-28.7"/>
				
					<path fill="none" stroke="#F2E2CE" stroke-width="1.8132" stroke-linecap="round" stroke-linejoin="round" stroke-miterlimit="10" d="
					M636.9,435.6c-7.8-16.5-11.9-31.2-13.6-49.4"/>
				
					<path fill="none" stroke="#F2E2CE" stroke-width="1.8132" stroke-linecap="round" stroke-linejoin="round" stroke-miterlimit="10" d="
					M630.1,356.3c1.4,10.6,5.2,21.4,9.8,31.1"/>
				
					<path fill="none" stroke="#F2E2CE" stroke-width="1.8132" stroke-linecap="round" stroke-linejoin="round" stroke-miterlimit="10" d="
					M640.9,375.8c5.8-1.7,13.6-8.1,17.5-14.5"/>
				
					<path fill="none" stroke="#F2E2CE" stroke-width="1.8132" stroke-linecap="round" stroke-linejoin="round" stroke-miterlimit="10" d="
					M636.3,474.9c8.2-8.7,12.4-24.2,16.1-36.2"/>
				
					<path fill="none" stroke="#F2E2CE" stroke-width="1.8132" stroke-linecap="round" stroke-linejoin="round" stroke-miterlimit="10" d="
					M636.6,490.2c-5.7-13.7-7.1-22.4-10.1-39"/>
			</g>
		</g>
		<g>
			<g>
				<path fill="#F2E2CE" d="M257.9,445.6c-1.4,2.6-2.6,5.2-3.7,7.9c-0.4,0.9-0.8,1.8-1.1,2.7c-0.3-4.4-0.6-8.9,0.3-13.2
					c0.5-2.9,1.6-5.7,3-8.2c2.4-4.2,5.9-7.7,8.8-11.6c2.9-3.9,5.3-8.5,5-13.4c3.4,5.8,1.9,13.2-1.2,19.1
					C265.8,434.7,261.1,439.7,257.9,445.6z"/>
				<path fill="#73B7B4" d="M238.2,442.8c1.6,0.6,3,1.5,4.3,2.4c4.2,3,8.1,6.9,9.5,11.9c-5-2.5-10.3-4.3-15.8-5.5
					c-4.6-1-9.5-1.6-13.3-4.5c-3.8-2.9-5.6-7.7-7.2-12.2c4.7,3.4,10.2,5.6,15.9,6.6C233.9,441.9,236.2,442.1,238.2,442.8z"/>
				<path fill="#73B7B4" d="M244,465.1c6.5,4.8,10.1,12.5,13.3,19.9c-2.3-13.5-4.9-27-7.9-40.2c-3.5-6.4-8.2-12.7-15.1-15.1
					c-1.4-0.5-2.9-0.8-4.2-1.3c-3.7-1.4-6.5-4.6-8.2-8.1c-1.7-3.5-2.4-7.5-2.8-11.4c1,3.2,3.6,5.5,6.3,7.5c4.1,3,8.6,5.5,12.4,8.9
					c5.1,4.4,8.9,10.2,11,16.5c-0.9-4.1-1.9-8.2-2.9-12.2c-1.5-2.4-2.5-5.1-3-7.9c-0.4-2.4-0.4-4.8-0.8-7.2c-0.6-3.1-2-6.1-4.1-8.5
					c-1.8-2.1-4.2-3.8-5.8-6.1c-3.9-5.5-3.1-13.3-7.3-18.6c2.3,2.2,4.6,4.3,6.9,6.5c4.6,4.3,9.2,8.7,12.3,14.1c2.6,4.7,4,10,4,15.4
					c0,4.7-1.1,9.4-0.6,14c0.2,0.7,0.4,1.4,0.6,2.3c0.1-2.7,0.7-5.4,1.7-7.9c1-2.3,2.3-4.4,3.1-6.8c2.8-7.4,0.6-15.9-3.1-22.9
					c4.2,4.7,8.4,9.7,10.4,15.8c2,6,1.2,13.4-3.4,17.7c-2.5,2.3-5.7,3.6-8.4,5.7c1.7,6.9,4.1,17.8,6.4,28.7c1.4-4.6,6-7.7,9.5-11.2
					c5.3-5.3,8.6-12.4,9.3-19.9c0.9,5.9,0.8,12-1.2,17.5c-2,5.6-6.2,10.5-11.8,12.5c-1.8,0.7-3.8,1-5.5,1.9
					c1.4,6.5,2.8,12.9,3.9,18.4c0.7-7.7,5-15,11.5-19.4c6.8-4.6,15.8-6,21.6-11.8c-2,6.4-6.3,12-11.9,15.6c-1.7,1.1-3.4,2-5.2,3
					c-5.9,3.4-11.3,7.7-15.9,12.8c1.7,8,2.9,13.9,3.1,15c4.5,28.7,4.9,33.3,1.3,33c-1.3-15.3-3.3-30.7-5.8-46
					c-6-3.2-11.4-7.4-16.9-11.5c-2.7-2.1-5.4-4.1-8.1-6.2c-5.7-4.3-11.5-8.9-15.1-15.1C225.1,458.7,236.1,459.2,244,465.1z"/>
			</g>
			<g>
				<path fill="#E8D6BE" d="M254.8,359.6c3.6,4.4,6.8,9.2,9.9,14c1,1.6,2.1,3.2,3.1,4.8c-1-8.6-2-17.4-5.1-25.5
					c-2-5.4-5-10.4-8.6-14.9c-6.1-7.4-14-12.9-21-19.4s-13.2-14.6-14.2-24.1c-4.6,12.3,0.8,26.2,8.9,36.5
					C235.9,341.4,246.5,349.4,254.8,359.6z"/>
				<path fill="#E8D6BE" d="M291.8,347.5c-2.8,1.7-5.3,3.9-7.5,6.2c-7.1,7.2-13.2,16.1-14.2,26.2c8.8-6.5,18.4-11.9,28.6-16.1
					c8.5-3.5,17.9-6.4,24-13.2c6.3-7,8.1-16.8,9.7-26.1c-8,8.1-17.8,14.4-28.5,18.3C299.8,344.2,295.5,345.3,291.8,347.5z"/>
				<path fill="#E8D6BE" d="M288.4,392.5c-10.9,11.5-15.1,27.6-18.8,43c-0.3-26.9,0.2-53.8,1.3-80.4c4.6-13.6,11.4-27.4,23.9-34.3
					c2.5-1.4,5.2-2.5,7.7-4c6.6-4.1,11-11.1,13.1-18.5c2.1-7.4,2.1-15.3,1.4-23c-0.8,6.5-5.1,11.9-9.6,16.7
					c-6.9,7.2-14.6,13.7-20.9,21.4c-8.2,10.2-13.6,22.7-15.5,35.7c0.4-8.2,0.8-16.4,1.4-24.6c2.1-5.1,3.1-10.7,3-16.2
					c-0.1-4.7-0.9-9.4-0.9-14.1c0.1-6.2,1.9-12.4,5-17.7c2.8-4.7,6.8-8.8,9.1-13.8c5.6-11.9,1.4-26.8,7.6-38.5
					c-3.7,5-7.3,9.9-11,14.9c-7.3,9.9-14.7,19.9-18.8,31.5c-3.5,9.9-4.3,20.7-2.4,31.1c1.6,9,5.3,17.7,6,26.8
					c-0.1,1.4-0.2,2.9-0.3,4.6c-1.1-5.2-3.2-10.2-6.1-14.6c-2.6-4.1-5.9-7.8-8.4-12c-7.9-13.4-6.6-30.4-1.9-45.3
					c-6.6,10.6-12.9,21.7-14.6,34.1c-1.7,12.3,2.3,26.2,12.7,33c5.6,3.6,12.3,4.9,18.1,8.1c-0.8,13.9-1.7,35.9-2.4,57.6
					c-4.3-8.4-14.2-12.8-22.2-18.3c-12-8.3-21-21-24.8-35.1c0.3,11.6,2.6,23.4,8.5,33.4c5.9,10,15.7,18.1,27.2,20.1
					c3.8,0.6,7.7,0.7,11.3,1.8c-0.5,13.1-0.9,25.9-1.2,36.9c-4.1-14.7-14.9-27.3-28.9-33.4c-14.8-6.5-32.5-6.1-45.7-15.4
					c6.1,11.6,16.4,20.9,28.5,26c3.6,1.5,7.3,2.6,11,3.9c12.6,4.5,24.5,11,35.1,19.1c-0.5,15.9-0.7,27.8-0.7,30
					c1.2,57,2.1,66,9,64.1c-2.8-30-4.3-60.4-4.7-90.7c10.4-8.3,19.5-18.2,28.5-28.1c4.5-4.9,9-9.8,13.5-14.7
					c9.5-10.4,19.2-21.1,23.9-34.4C322.7,373.6,301.7,378.4,288.4,392.5z"/>
			</g>
		</g>
		<g>
			<g>
				<path fill="#73B7B4" d="M484.9,430.3c1.6,0,3.2,0.2,4.6,1c1.1,0.7,1.9,1.8,2.5,2.9c2.3,4.3,2.1,9.5,0.8,14.1
					c-1,3.7-2.2,6.4-5.9,8c0.7,0,1.5,0,2.2,0c0.8,0-2.2,5.8-2.4,6.2c-2.1,3.7-4.4,9.7-8.9,10.7c-2.4,0.5-4.7,1.5-6.8,2.8
					c2.3-0.2,4.7-0.3,7-0.2c0.2,0-2.6,3.2-2.9,3.4c-1.5,1.5-3.3,1.2-5.3,1.3c1,0.5,2,1.1,3,1.6c-0.6-0.3-9.8,9.6-10.7,10.5
					c-6.5,5.9-12.4,11.3-18.2,17.8c-5.6,6.4-15,21.1-16.1,20.7c-0.7-0.1-1.3-0.8-1.4-1.6c-0.1-0.7,0-1.5,0.2-2.2
					c2.7-11,6.3-21.8,10.5-32.3c1-2.6,12.3-28.6,12.6-28.4c0.3,0.1,0.3,0.5,0.2,0.7c0,1,0.3,2.1,0.9,2.9c1.2-5.1,1.9-9.6,4.7-14.1
					c2.6-4.3,5.4-8.6,8.6-12.5c0.9-1.1,1.7-2.3,2.8-3.1c0.3,1.3,0.1,2.9,0.1,4.3c0,0.1,0,0.3,0.1,0.4c0.3,0.3,0.7-0.1,0.9-0.6
					c0.7-2,0.9-4.2,1.7-6.1c0.8-1.9,1.3-2.2,3.1-3.5c3.4-2.5,6.4-4.5,10.8-4.9C484,430.3,484.5,430.3,484.9,430.3z"/>
				
					<path fill="none" stroke="#97D8D6" stroke-width="1.0739" stroke-linecap="round" stroke-linejoin="round" stroke-miterlimit="10" d="
					M427.6,530.4c16.2-37.5,48.1-82.9,59.4-95.6"/>
				
					<path fill="none" stroke="#97D8D6" stroke-width="1.0739" stroke-linecap="round" stroke-linejoin="round" stroke-miterlimit="10" d="
					M459.7,472.4c6.8-0.6,13-4.9,19.7-8.3"/>
				
					<path fill="none" stroke="#97D8D6" stroke-width="1.0739" stroke-linecap="round" stroke-linejoin="round" stroke-miterlimit="10" d="
					M453.9,481.6c0.9-10.8,3.1-19.5,7.6-29.3"/>
				
					<path fill="none" stroke="#97D8D6" stroke-width="1.0739" stroke-linecap="round" stroke-linejoin="round" stroke-miterlimit="10" d="
					M473.8,438.8c-2.4,5.8-3.7,12.5-4.1,18.8"/>
				
					<path fill="none" stroke="#97D8D6" stroke-width="1.0739" stroke-linecap="round" stroke-linejoin="round" stroke-miterlimit="10" d="
					M473.7,452.1c3.4,0.9,9.3-0.1,13.3-2.3"/>
				
					<path fill="none" stroke="#97D8D6" stroke-width="1.0739" stroke-linecap="round" stroke-linejoin="round" stroke-miterlimit="10" d="
					M442,501.6c6.8-2.1,13.5-8.8,19-13.8"/>
				
					<path fill="none" stroke="#97D8D6" stroke-width="1.0739" stroke-linecap="round" stroke-linejoin="round" stroke-miterlimit="10" d="
					M437.6,509.5c1.1-8.7,2.9-13.6,6.3-23"/>
			</g>
			<g>
				<path fill="#95C3B0" d="M473.1,261.8c3.5-1.4,7.2-2.2,10.8-1.3c2.9,0.7,5.5,2.4,7.8,4.4c5.5,4.9,13.6,14.8,6.3,21.2
					c-2.2,1.9-4.8,3.7-5.5,6.5c3.7-1.4,7.7-2.9,11.6-2.2c3.2,9.8,0.8,23.9-0.5,34c-1.5,11.5-4,22.8-7.1,34
					c-2.3,8.3-3.9,14.1-12.3,17.9c-3.8,1.7-8,3.2-11,6.1c2.1-2.1,11.8-2.2,14.6-2c-0.9,12.3-9.9,25.7-15.5,36.4
					c-4.2,7.8-8.3,15.7-12.3,23.6c-2,4-4,8-5.8,12.1c-1.7,3.6-2.7,7.5-6.1,9.7c-2.3,1.6-4.3,3.6-5.7,5.9c1.7-0.6,3.5-1.3,5.3-1.8
					c0.6,2.2-1,3.8-1.8,5.7c-1.2,2.5-2,5.3-2.8,8c-1.9,5.5-3.6,11.1-5.2,16.8c-1.7,5.7-3.2,11.3-4.9,17c-1.5,5.1-2.5,11.6-5.1,16.3
					c-1.1,2-3,1.5-3.8,0c-0.9-1.5-1.7-7.3-1.9-9c-5.1-47.7-3-95.9,2.3-143.7c1.4-13,3.1-26,5.7-38.9c1.3-6.6,2.9-13.1,4.7-19.5
					c0.8-2.7,4-16.6,6.5-7.8c0.5,1.7,1,3.3,1.4,5c-0.3-5.9-0.4-11.8-0.3-17.6c0-0.8,0-1.6,0.3-2.4c0.2-0.6,0.5-1.1,0.8-1.6
					c3.7-6.2,6.1-12.7,10.7-18.5c2.2-2.7,4.6-5.2,7.2-7.4c2.6-2.1,6.6-3.4,8.9-5.6C471.3,262.5,472.2,262.1,473.1,261.8z"/>
				
					<path fill="none" stroke="#A7D9CE" stroke-width="2.5035" stroke-linecap="round" stroke-linejoin="round" stroke-miterlimit="10" d="
					M425.9,529.4c5.9-95,40.9-222.7,55.5-259.5"/>
				
					<path fill="none" stroke="#A7D9CE" stroke-width="2.5035" stroke-linecap="round" stroke-linejoin="round" stroke-miterlimit="10" d="
					M451.2,374c14.4-6.6,24.6-20.9,36.8-33.7"/>
				
					<path fill="none" stroke="#A7D9CE" stroke-width="2.5035" stroke-linecap="round" stroke-linejoin="round" stroke-miterlimit="10" d="
					M445.7,398.7c-6.6-24.3-8.6-45.3-6.5-70.4"/>
				
					<path fill="none" stroke="#A7D9CE" stroke-width="2.5035" stroke-linecap="round" stroke-linejoin="round" stroke-miterlimit="10" d="
					M455.7,289.2c-0.7,14.7,1.9,30.4,5.8,44.6"/>
				
					<path fill="none" stroke="#A7D9CE" stroke-width="2.5035" stroke-linecap="round" stroke-linejoin="round" stroke-miterlimit="10" d="
					M465.7,318.3c8.2-0.9,20.4-7.7,27.3-15.5"/>
				
					<path fill="none" stroke="#A7D9CE" stroke-width="2.5035" stroke-linecap="round" stroke-linejoin="round" stroke-miterlimit="10" d="
					M435.3,452c13.2-9.9,22.8-29.9,30.7-45.3"/>
				
					<path fill="none" stroke="#A7D9CE" stroke-width="2.5035" stroke-linecap="round" stroke-linejoin="round" stroke-miterlimit="10" d="
					M432,472.8c-4.5-20-4.3-32.1-4.3-55.5"/>
			</g>
			<g>
				<path fill="#73B7B4" d="M399.5,300.2c-2.9-1.4-6-2.3-9.2-1.8c-2.6,0.4-4.9,1.7-6.9,3.3c-7.6,6-11.5,15.6-12.9,25.2
					c-0.5,3.2-0.7,6.5-0.9,9.8c-0.1,1.6-1.5,7.3-1,8.5c0.9,2.4,10.9,4.8,13.8,7.2c-3.9-1.4-8.1-3.9-12-2.5c-0.3,0.1-0.5,0.2-0.7,0.4
					c-0.2,0.3-0.2,0.6-0.2,1c0.1,9.9,2.3,20.4,4.3,30.1c1.1,5.3,3.2,10.7,3.9,16c1.9,1.1,3.8,2.3,5.7,3.4c1.5,0.9,3,1.9,3.8,3.4
					c-1-2-6.1-3-8-2.9c-0.4,4.4,3.2,10.1,4.7,14.1c2.2,5.9,4.7,11.7,7.2,17.4c2.5,5.6,4.4,13.3,8,18.2c2.8,3.8,7.7,4.6,9.4,9.9
					c-2.5-1.6-5-3.2-7.5-4.7c2.2,1.4,3.4,7.8,4.2,10.1c1.7,4.6,3.4,9.2,4.8,13.8c5.2,16.3,10.5,50.8,12.9,50.9
					c1.4,0.4,3-0.5,3.8-1.8c0.8-1.2,1.1-2.8,1.4-4.2c3.6-20.4,5.6-41.1,6.5-61.9c0.5-10.5,0.6-21.1,0.6-31.6
					c0-5.1-0.1-10.2-0.3-15.4c0-1.1-2-10.4-1.4-11c-2.5,2.3-4.8,4.8-6.8,7.5c1-4.9,2.7-9.7,5.2-14c4.3-7.5,1.1-19.1,0.1-27.5
					c-1.2-10-3-20-5.7-29.7c-0.6-2.2-1.5-4.2-2-6.3c-0.4-0.9-1.7-0.1-2.3,0.7c-1.8,2.7-3.2,5.7-4,8.9c0.2-5,1.2-10.1,3-14.8
					c0.4-1.1,0.8-2.2,0.7-3.3c-1.6-9.6-12.1-20.9-20.2-25.5C400.9,301,400.2,300.6,399.5,300.2z"/>
				
					<path fill="none" stroke="#97D8D6" stroke-width="2.1495" stroke-linecap="round" stroke-linejoin="round" stroke-miterlimit="10" d="
					M424.1,529.7c0.4-81.7-21.8-190.6-32.2-223"/>
				
					<path fill="none" stroke="#97D8D6" stroke-width="2.1495" stroke-linecap="round" stroke-linejoin="round" stroke-miterlimit="10" d="
					M411.7,397.7c-11.9-6.5-19.9-19.3-29.5-31"/>
				
					<path fill="none" stroke="#97D8D6" stroke-width="2.1495" stroke-linecap="round" stroke-linejoin="round" stroke-miterlimit="10" d="
					M415.1,419.1c7-20.4,10-38.3,9.6-59.9"/>
				
					<path fill="none" stroke="#97D8D6" stroke-width="2.1495" stroke-linecap="round" stroke-linejoin="round" stroke-miterlimit="10" d="
					M412.8,324.8c-0.3,12.6-3.4,25.9-7.5,37.9"/>
				
					<path fill="none" stroke="#97D8D6" stroke-width="2.1495" stroke-linecap="round" stroke-linejoin="round" stroke-miterlimit="10" d="
					M402.5,349.1c-7-1.2-17-7.8-22.5-14.8"/>
				
					<path fill="none" stroke="#97D8D6" stroke-width="2.1495" stroke-linecap="round" stroke-linejoin="round" stroke-miterlimit="10" d="
					M420.9,465.4c-10.7-9.2-17.8-26.9-23.7-40.6"/>
				
					<path fill="none" stroke="#97D8D6" stroke-width="2.1495" stroke-linecap="round" stroke-linejoin="round" stroke-miterlimit="10" d="
					M422.5,483.4c5-16.8,5.5-27.3,6.8-47.3"/>
			</g>
		</g>
		<g>
			<g>
				<path fill="#A7D9CE" d="M94.7,434.6c-2.4,2.2-4.5,4.7-6.6,7.2c-0.7,0.8-1.4,1.7-2.1,2.5c1.2-4.8,2.4-9.7,4.8-14
					c1.5-2.9,3.6-5.5,6-7.8c4-3.7,8.9-6.3,13.3-9.5c4.4-3.2,8.5-7.3,9.8-12.6c1.7,7.3-2.4,14.8-7.7,20
					C106.8,425.7,100.1,429.5,94.7,434.6z"/>
				<path fill="#A7D9CE" d="M74.6,425.1c1.5,1.1,2.7,2.6,3.8,4.1c3.5,4.6,6.3,10.1,6.1,15.9c-4.5-4.3-9.6-8.1-15-11.2
					c-4.6-2.6-9.6-4.9-12.6-9.3c-3.1-4.4-3.4-10.1-3.6-15.5c3.9,5.2,9,9.5,14.8,12.4C70.3,422.6,72.7,423.6,74.6,425.1z"/>
				<path fill="#A7D9CE" d="M73.3,450.8c5.3,7.3,6.5,16.7,7.5,25.7c2.2-15.2,3.9-30.5,5.2-45.6c-1.6-8-4.5-16.3-11-21.2
					c-1.3-1-2.8-1.8-4.1-2.8c-3.4-2.8-5.4-7.1-6.1-11.4c-0.6-4.4-0.1-8.8,0.9-13.1c0,3.7,2,7.1,4.2,10.1c3.3,4.6,7.3,8.8,10.2,13.7
					c3.9,6.4,6,13.9,6.1,21.4c0.4-4.7,0.7-9.4,1-14c-0.8-3.1-1-6.3-0.5-9.4c0.4-2.7,1.2-5.3,1.5-7.9c0.4-3.5-0.1-7.2-1.6-10.4
					c-1.3-2.9-3.2-5.5-4.2-8.5c-2.3-7.2,1.2-15.3-1.4-22.4c1.7,3.1,3.4,6.1,5.1,9.2c3.4,6.1,6.9,12.4,8.3,19.2
					c1.2,5.9,0.9,12.1-0.9,17.8c-1.6,5-4.3,9.6-5.4,14.8c0,0.8-0.1,1.7-0.2,2.6c1-2.9,2.6-5.5,4.5-7.8c1.8-2.1,3.9-4,5.6-6.2
					c5.5-7,6-16.7,4.4-25.5c2.9,6.5,5.7,13.3,5.8,20.4c0.1,7.1-3.2,14.7-9.6,17.8c-3.4,1.6-7.3,1.9-10.8,3.3
					c-0.6,8-1.7,20.4-2.8,32.8c3.1-4.4,9-6.2,13.9-8.8c7.4-3.8,13.4-10.4,16.6-18.1c-1,6.6-3.2,13.1-7.2,18.3
					c-4.1,5.2-10.2,9.1-16.8,9.4c-2.2,0.1-4.4-0.2-6.5,0.2c-0.7,7.4-1.4,14.8-2,21c3.4-8,10.5-14.3,18.8-16.8
					c8.9-2.6,18.8-1.1,27-5.4c-4.3,6.1-10.8,10.7-18,12.6c-2.1,0.6-4.3,1-6.5,1.4c-7.5,1.6-14.7,4.4-21.3,8.3
					c-0.9,9.1-1.6,15.8-1.8,17c-4.9,32.2-6,37.2-9.8,35.6c3.8-16.8,6.9-33.9,9.3-51c-5.3-5.5-9.7-11.8-14.1-18
					c-2.2-3.1-4.4-6.2-6.5-9.3c-4.6-6.6-9.3-13.4-11-21.2C55.2,437.6,66.8,441.9,73.3,450.8z"/>
			</g>
			<path fill="#E8D6BE" d="M15,367.4c2.6,1,5.4,0.7,8,1.5c6,1.8,10.6,10.3,9.8,18.1c-3.9,2.8-9.1,2.4-13-1.1
				c-0.3,9.8,0.7,19.7,2.9,29.2c4.9-4.7,12.6-4.7,17.4,0.7c4.9,5.5,5.9,16.1,1.6,21.8c-4.3,5.7-13.1,4.1-16-3.4
				c4,38.1,21.1,74.4,45.7,97c4.2-40.9,3.3-83.7-7.8-123.4C52.7,368.2,30.6,332,1,314.5c6.8,7,11.8,17.2,13.7,28.1
				c-3.7,2.1-8.9-1.3-9.9-6.6C4.4,348.1,6,363.9,15,367.4z"/>
			<g>
				<path fill="#73B7B4" d="M64.6,221.3c5.8,0.7,9.9,6.3,11.8,11.9c3.1,9.2,2.3,19.6-2.2,28.2c-4.5,8.6-12.7,15.1-22.1,17.7
					c-5.2-16-10.2-34.4-1.7-48.9C53.4,225,58.8,220.5,64.6,221.3z"/>
				<path fill="#73B7B4" d="M32.8,271.4c-1.1-3.2-3-6.3-6-7.8c-4-2-9.1-0.7-12.3,2.5c-3.1,3.2-4.5,7.8-4.4,12.3
					c0.1,4.5,1.5,8.8,3.1,13c0.7,1.7,1.4,3.5,2.4,5.1c1.6,2.6,3.9,4.8,6.8,5.6c2.9,0.9,6.3,0.1,8.2-2.3c1.1-1.5,1.5-3.3,1.9-5.1
					C34.1,286.9,35.4,278.8,32.8,271.4z"/>
				<path fill="#73B7B4" d="M87.9,313.5c1,0.7,1.8,1.7,2.5,2.7c1.9,3,2.4,6.8,1.8,10.3c-0.6,3.5-2.4,6.7-4.7,9.5
					c-2.2,2.6-4.8,4.7-7.7,6.3c-2.8,1.5-6,2.5-9.1,2c-3.8-6.4-3.9-14.5-1.5-21.6C73.8,309.2,85.1,311.5,87.9,313.5z"/>
				<path fill="#73B7B4" d="M10.2,377.4c1.5,6.5,5.6,12.1,10.2,16.9c2.1,2.1,4.2,4.1,6.5,6c4.3-9.5,4.9-20.6,1.6-30.4
					c-0.8-2.2-1.7-4.5-3.4-6.1c-2.2-2.1-5.4-3-8.4-2.4s-5.5,2.9-6.5,5.7c-0.7,1.8-0.8,3.9-0.6,5.8C9.6,374.4,9.8,375.9,10.2,377.4z"
					/>
				<path fill="#73B7B4" d="M81.7,350.9c2.6-2.4,6.5-3.4,10-2.7c3.5,0.7,6.6,3.1,8.4,6.2c1.2,2.1,1.8,4.4,2.1,6.8
					c1.7,12.8-6.8,26.1-19.1,30c-4.6-9.3-9.3-19.5-7-29.6c0.5-2,1.2-4,2.2-5.8C79.2,354,80.2,352.3,81.7,350.9z"/>
				<path fill="#73B7B4" d="M30.3,317.6c-1.8-1.1-3.9-2-6.1-1.9c-4.5,0.2-8,4.4-8.8,8.9c-0.8,4.4,1,11.6,3.5,15.3
					c7.2,10.8,14.7,6,15.6,5.5c0.8-0.4,1.3-1.1,1.7-1.8c2.7-4.2,3.6-9.4,2.4-14.2C37.6,324.5,34.5,320.2,30.3,317.6z"/>
				<path fill="#73B7B4" d="M59.3,299.1c0.1-3.4,0.4-6.9,1.6-10.1c1.2-3.2,3.4-6.2,6.4-7.8c3-1.7,6.9-1.9,9.8-0.1
					c1.8,1.1,3.1,2.9,3.6,4.9c0.7,2.8,0,5.8-1.5,8.3c-1.5,2.5-3.7,4.4-5.9,6.3c-3.1,2.5-6.6,5-10.6,5.1c-0.5,0-1,0-1.5-0.2
					c-0.8-0.4-1.3-1.2-1.5-2.1C59.3,302,59.3,300.6,59.3,299.1z"/>
				<path fill="#73B7B4" d="M23.3,427.2c-2.8-0.9-5.8-1.4-8.7-0.5c-5.9,1.7-9.1,8.4-8.8,14.6c0.4,6.1,5.1,14.9,9.6,19.1
					c13,11.9,21.3,3.1,22.4,2.2c0.9-0.7,1.3-1.8,1.7-2.9c2.2-6.4,1.6-13.6-1.4-19.6S29.7,429.3,23.3,427.2z"/>
				<path fill="#73B7B4" d="M66.1,465.3c-2.3-4.7-4.2-9.6-4.8-14.7c-0.6-5.2,0.3-10.6,3.2-14.9c2.9-4.3,8-7.3,13.2-6.9
					c3.2,0.3,6.2,1.8,8.3,4.1c2.9,3.2,4,7.8,3.7,12.2c-0.3,4.3-1.9,8.5-3.6,12.5c-2.4,5.5-5.4,11.2-10.7,14.2
					c-0.7,0.4-1.4,0.7-2.1,0.8c-1.3,0.1-2.6-0.8-3.5-1.7C68.1,469.3,67.1,467.3,66.1,465.3z"/>
				<g>
					
						<path fill="none" stroke="#95C3B0" stroke-width="2.1786" stroke-linecap="round" stroke-linejoin="round" stroke-miterlimit="10" d="
						M56.9,256.4c-18.6,89.2-13.9,183.1,13.5,270"/>
					
						<path fill="none" stroke="#95C3B0" stroke-width="2.1786" stroke-linecap="round" stroke-linejoin="round" stroke-miterlimit="10" d="
						M47.6,320.6c-7.2-3.6-12.2-10.1-15.9-17.3c-3.7-7.2-5.6-15.1-6.9-23.1"/>
					
						<path fill="none" stroke="#95C3B0" stroke-width="2.1786" stroke-linecap="round" stroke-linejoin="round" stroke-miterlimit="10" d="
						M45.8,376.1c14.8-11.7,19.8-21.9,30-43.7"/>
					
						<path fill="none" stroke="#95C3B0" stroke-width="2.1786" stroke-linecap="round" stroke-linejoin="round" stroke-miterlimit="10" d="
						M50.7,438.4c-8.5-6.6-14.1-15-18.7-24.7c-4.6-9.7-7.6-20.1-10.2-30.5"/>
					
						<path fill="none" stroke="#95C3B0" stroke-width="2.1786" stroke-linecap="round" stroke-linejoin="round" stroke-miterlimit="10" d="
						M49.5,429.3c15.7-13.4,30.6-25.4,37-48.1"/>
					
						<path fill="none" stroke="#95C3B0" stroke-width="2.1786" stroke-linecap="round" stroke-linejoin="round" stroke-miterlimit="10" d="
						M45.8,357.1c-9.3-5.5-15.5-16.5-17-27.3"/>
					
						<path fill="none" stroke="#95C3B0" stroke-width="2.1786" stroke-linecap="round" stroke-linejoin="round" stroke-miterlimit="10" d="
						M56.6,474.3c-14.1-4.3-25.8-16.8-31.3-30.4"/>
					
						<path fill="none" stroke="#95C3B0" stroke-width="2.1786" stroke-linecap="round" stroke-linejoin="round" stroke-miterlimit="10" d="
						M48.6,311.9c3-0.8,5.8-2.2,8.3-4c6.2-4.5,9.9-11.6,13.4-18.4"/>
					
						<path fill="none" stroke="#95C3B0" stroke-width="2.1786" stroke-linecap="round" stroke-linejoin="round" stroke-miterlimit="10" d="
						M60.5,489.9c3.5-3.1,6.4-6.9,8.5-11.1c5.2-10.3,5.3-22.4,5.3-34"/>
				</g>
			</g>
		</g>
	</g>
	<g>
		<g>
			<path fill="#20315B" d="M196.1,517.2c-5.3,0.2-10,5-15.3,4.4c-1.6-0.2-3.1-0.9-4.6-1.5c-0.4,2-0.5,4.1-0.4,6.1
				c0,0.3,0,0.5,0.1,0.7c0.2,0.4,0.7,0.6,1.1,0.7c1.8,0.5,3.7,0.5,5.5,0.6c1.4,0,3,0,3.9-1.3c5.2,3.9,11.9,4.7,18.2,4.6
				c2.5,0,5.1-0.2,7.3-1.4c1.3-0.7,2.6-2.2,2.3-3.8c-0.2-1-0.9-1.8-1.7-2.3c-0.8-0.5-1.7-0.7-2.6-0.9c-4-1.1-7.7-2.8-11.2-5.2
				c-0.3-0.2-0.7-0.5-1.1-0.6C197.2,517.2,196.6,517.2,196.1,517.2z"/>
			<path fill="#20315B" d="M129.7,518.9c5,0,10,0,15-0.1c0.2,4.9,4.8,8.9,4.4,13.8c0,0.3-0.1,0.7-0.2,0.9c-0.4,0.7-1.3,0.9-2.1,1
				c-3.5,0.2-7,0-10.5-0.7c-2.4-0.5-5-1.4-6.2-3.7c-0.4-0.8-0.6-1.8-0.8-2.8C129.1,524.5,129.2,521.7,129.7,518.9z"/>
			<g>
				<path fill="#BCBAB1" d="M129,508.7c0.1,0.6,0.2,1.2,0.4,1.9c0.2,1.2,0.5,2.3,0.4,3.5c0,1.5-0.6,3-0.3,4.5c0,0.1,0.1,0.3,0.2,0.4
					c0.1,0.2,0.4,0.2,0.6,0.2c3.2,0,6.3,0.2,9.4,0.3c1.8,0,3.5-0.2,5.3-0.2c0-1.2,0-2.4,0.4-3.5c0.2-0.8,0.6-1.5,0.8-2.2
					c0.9-2.8,0.4-5.8,0.5-8.7c0.1-3.2,1.1-6.4,1.2-9.6c0.1-3-1.2-6.1-1.3-9.2c-0.1-2.4,0.2-4.7,0.5-7c1.6-10.4,2.5-21.3,5.5-31.4
					c1-3.4,2.3-6.7,3.6-10c2.4-6.3,4.9-12.7,7.3-19c0.3-0.8,0.7-0.8,1.1-0.5c1.2,1,2.7,5,3,5.7c1.3,3,2.5,6.2,3.4,9.4
					c1.9,6.4,3,13.1,3.2,19.8c0.2,6.7-0.3,13.4,0.3,20c0.4,4.3,1.3,8.4,1.8,12.7c0.5,4.2,0.7,8.4,0.7,12.6c0,1.9,0.1,3.7-0.3,5.5
					c-0.4,1.9-1,3.8-0.9,5.8c0.2,2,1,3.6,0.6,5.6c-0.3,1.5-1,3.6-0.5,5.1c0.2,0.8,1.1,1,1.9,1.2c1.4,0.3,2.8,0.6,4.1,0.6
					c2.9,0,5.6-1.3,8.2-2.5c2.8-1.3,5.1-2,8.2-1.9c-0.9,0-2.3-5.4-2.5-6.3c-0.6-2.3-0.7-4.5-0.5-6.8c0.4-5.4,0.3-10.9,0.5-16.3
					c0.7-25.3,1.4-50.6,1.1-75.9c0-1.7,0.5-7-1-8.1c-0.4-0.3-1-0.4-1.5-0.4c-8.1-0.3-16.3,0-24.5-0.3c-1.3,0-2.6-0.1-3.9-0.2
					c-4.8-0.3-9.6-0.9-14.3-1.9c-2.2-0.5-4.7-0.9-6.7-2c-2-1.1-3.9-2.9-5.8-4.3c-0.4-0.3-0.7-0.5-1.1-0.8c-1.7,2.1-1.3,5-2.4,7.3
					c-0.4,0.8-1,1.5-1.3,2.3c-0.8,2.1,0.2,4.4,0.9,6.6c0.9,3,1.1,6.2,0.5,9.3c-0.3,1.5-0.7,2.9-1,4.4c-0.3,1.9-0.2,3.9-0.2,5.9
					c0.1,5.3-0.5,10.6-1.6,15.7c-1,4.8-1.1,10.1-1.7,15c-0.2,0-1.6,11.6-1.8,12.6c-0.6,4.2-1.1,8.4-1.4,12.7
					C127.6,493.7,127.6,501.1,129,508.7z"/>
				<path fill="#D0CEC2" d="M129,508.7c0.1,0.6,0.2,1.2,0.4,1.9c0.2,1.2,0.5,2.3,0.4,3.5c0,1.5-0.6,3-0.3,4.5c0,0.1,0.1,0.3,0.2,0.4
					c0.1,0.2,0.4,0.2,0.6,0.2c3.2,0,6.3,0.2,9.4,0.3c1.8,0,3.5-0.2,5.3-0.2c0-1.2,0-2.4,0.4-3.5c0.2-0.8,0.6-1.5,0.8-2.2
					c0.9-2.8,0.4-5.8,0.5-8.7c0.1-3.2,1.1-6.4,1.2-9.6c0.1-3-1.2-6.1-1.3-9.2c-0.1-2.4,0.2-4.7,0.5-7c1.6-10.4,2.5-21.3,5.5-31.4
					c1-3.4,2.3-6.7,3.6-10c2-5.2,4-10.4,6-15.5c0.4-1.1,0.7-2.5,1.3-3.5c0.5-0.9,1.5-1.7,2.1-2.6c1.3-1.8,2.4-3.8,3.1-6
					c0.6-1.6,1-3.3,1.2-5c0.2-1.2,0.3-1.5-0.9-1.6c-0.9,0-1.9-0.1-2.8-0.2c-4.8-0.3-9.6-0.9-14.3-1.9c-2.2-0.5-4.7-0.9-6.7-2
					c-2-1.1-3.9-2.9-5.8-4.3c-0.4-0.3-0.7-0.5-1.1-0.8c-1.7,2.1-1.3,5-2.4,7.3c-0.4,0.8-1,1.5-1.3,2.3c-0.8,2.1,0.2,4.4,0.9,6.6
					c0.9,3,1.1,6.2,0.5,9.3c-0.3,1.5-0.7,2.9-1,4.4c-0.3,1.9-0.2,3.9-0.2,5.9c0.1,5.3-0.5,10.6-1.6,15.7c-1,4.8-1.1,10.1-1.7,15
					c-0.2,0-1.6,11.6-1.8,12.6c-0.6,4.2-1.1,8.4-1.4,12.7C127.6,493.7,127.6,501.1,129,508.7z"/>
			</g>
		</g>
		<g>
			<path fill="#BA6F4D" d="M137.9,393c-0.1-0.4-0.1-0.9-0.2-1.4c-0.1-1.3-0.2-2.5-0.6-3.7c-0.7,0.9-1.6,1.6-2.6,2.2
				c-0.7,0.5-1.4,0.9-2.1,1.4c0.1,0.7,0.4,1.4,0.9,1.8c0.8,0.6,1.6,1.2,2.3,1.8c0.2,0.2,1.6,1.1,1.5,1.5c0.3-0.7,0.7-1.4,1.2-2
				c0,0,0.1-0.1,0.1-0.1c0-0.1,0-0.1-0.1-0.2C138.1,393.9,138,393.4,137.9,393z"/>
			<path fill="#BA6F4D" d="M236.2,287.1c-2.3-3.2-4.8-6.3-7-9.6c-0.1-0.2-0.2-0.3-0.3-0.5c-0.3-0.6-0.2-1.6,0.6-1.7
				c0.7-0.1,1.4,0.3,1.9,0.7c1.4,1.1,2.7,2.3,3.9,3.8c0.2,0.3,0.5,0.6,0.9,0.7c0.3,0.1,0.6-0.1,0.8-0.2c2.7-1.5,3.9-5,4.1-8.2
				c0.3-3.3-0.1-6.6,0.7-9.7c0.1-0.5,0.3-1.1,0.7-1.4s1.1-0.4,1.4,0c0.1,0.2,0.2,0.3,0.2,0.5c0.4,2.4,0.1,8-0.2,12.1
				c0,0.6,0.2,1.4,0.7,1.2c0.4-4.3,1.1-8.5,2.1-12.7c0.2-0.8,0.7-1.9,1.4-1.8c0.9,0.1,1.1,1.4,1,2.4c-0.4,4.3-1.1,8.6-1.8,12.9
				c0.7-0.2,1-1,1.2-1.7c0.7-2.2,1.2-4.5,1.7-6.8c0.1-0.7,0.3-1.5,0.6-2.1c0.7-1.5,1.2-1.4,1.7-1.1c0.9,0.5,0.2,4.9-0.4,7.2
				c-0.7,2.3-1.6,4.6-2.1,6.9c0.9-0.2,1.3-1.1,1.7-2c0.7-1.7,1.5-3.4,2.2-5.1c0.2-0.5,0.6-1.2,1.2-1c0.5,0.1,0.6,0.9,0.6,1.4
				c-0.1,1.7-0.5,3.4-1.2,4.9c-0.4,1-0.9,1.9-1.3,2.9c-1.7,4.1-2.1,9.1-5.1,12.3c-0.4,0.5-1,0.9-1.2,1.5c-0.5,1-0.2,2.4-0.8,3.4
				c-0.5,1-1.6,1.4-2.6,1.3c-1-0.1-2-0.6-2.9-1.1c-0.7-0.4-1.5-0.8-2-1.6c-0.7-1.2-0.3-2.7-0.5-4.1
				C237.8,289.2,237,288.1,236.2,287.1z"/>
			<path fill="#3C7AA5" d="M123.1,352.9c0.7,6.8,2.6,13.6,2.8,20.4c0,1.8,5,19.6,6,19.2c2.3-1,5.2-1.4,5.2-4.8
				c0,1.1,0.1,2.2,0.1,3.3c0.1,0.9,0.1,1.9,0.6,2.6c0.1,0.2,0.2,0.3,0.4,0.4c0.3,0.3,0.7,0.6,1,0.8c2.6,1.9,6.9,5,6.9,5
				c6.7,4.4,15,3.9,22.8,4.1c8.6,0.2,17.2,0.4,25.9,0.6c0.7,0,1.4,0,2.1-0.4c0.5-0.3,0.9-0.9,1.2-1.5c2.4-4.8,1.9-10.7,1-16
				c-0.1-0.4-0.1-0.8-0.2-1.3c0.1-0.5,0.1-1.1,0.1-1.6c0.2-2.9-0.6-5.8-0.6-8.8c0-6.3,1-12.6,2-18.8c1.1-6.9,2.2-13.8,3.3-20.8
				c0.9-5.6,1.5-8.1,7.5-6.5c7.5,2,15.2,1.8,22.9,1.6c2.9-0.1,4.8-0.3,6.8-2.5c4.6-5,5.2-13.3,6.3-19.9c0.4-2.4,0.8-4.8,0.9-7.2
				c0.1-1.8,0.4-4.7-0.8-6.1c-1.3,1.5-1.6,2.1-3.5,1.3c-2.2-1-4.4-2.1-6.5-3.3c0.3,0.2-1.3,3.5-1.5,3.8c-0.7,1.4-1.5,2.7-2.3,4
				c-0.3,0.5-0.7,1-0.9,1.6c-0.4,1-0.4,2.1-0.5,3.2c-0.1,1.5-0.2,3.6-1.2,4.8c-0.9,1.2-2.7,0.2-3.9,0c-3.5-0.8-6.9-1.6-10.4-2.4
				c-0.8-0.2-1.6-0.4-2.1-1c-0.5-0.5-0.7-1.2-1-1.8c-1.1-2.1-3.4-3.5-5-5.2c-1-1.1-1.3-2.2-2-3.4c-0.8-1.2-2.2-2-3.4-2.7
				c-3-1.6-6-2.5-9.3-3.3c-2.7-0.6-5.9-1.5-8-3.6c2.3,2.4,0.6,10,0.3,12.9c-0.5,5-1.3,10.1-3.4,14.7c-0.1,0.2-0.2,0.4-0.3,0.6
				c-1.9,4-4.7,7.7-5.2,12.2c-0.5-2.6-1.2-5.1-1.9-7.7c-1.8-6.2-4.2-12.2-6-18.5c-0.4-1.5-0.8-3.1-1.2-4.5c-0.4-1.4-0.4-2.8-0.5-4.3
				c-0.1-3.3-0.6-7-0.1-10.2c-2.2,0.1-3.6,1.8-5.5,2.6c-2.4,1-4.9,1.4-7.4,1.9c-4.8,1-9.8,1.8-13.7,5c-1.6,1.3-3,3-4.3,4.7
				c-3,3.7-5.2,7.5-7.3,11.9c-1.5,3.1-2.4,6.4-3.3,9.7c-0.8,2.8-1.5,5.5-1.8,8.4c-0.3,3,0,6.1-0.3,9.2c-0.3,2.8-1.4,5.2-1.4,8.1
				c0,1.4,0.1,2.9,0.2,4.3C122.8,349.2,122.9,351.1,123.1,352.9z M140.7,379.6c0.4-0.4,0.7-0.9,0.8-1.5c0,0.4-0.1,0.8-0.2,1.2
				C141.1,379.4,140.9,379.5,140.7,379.6z M139.1,381c0.3-0.4,0.6-0.8,1-1C139.7,380.3,139.4,380.6,139.1,381z M137.1,386.8
				c0-1.4,0-3,0.8-3.9c-0.2,0.4-0.3,0.9-0.5,1.4C137.2,385.1,137.1,386,137.1,386.8z M137.1,355.5c0.4-3.1,1.9-6,2.5-9
				c1.3-7.2-0.3-15,2.6-21.6c-0.5,1.2,0.4,4.8,0.5,6.2c0.1,2.2,0,4.4-0.1,6.7c-0.3,4.4-0.9,8.8-2,13.1c-1,3.9-1.7,7.1-1.1,11.2
				c0.6,4.2,1.9,8.3,2.2,12.6c0-0.2,0-0.3-0.1-0.5c-0.5-4.2-1.4-6.8-2.8-10.7C137.7,361,136.7,358.4,137.1,355.5z"/>
			<g>
				<path fill="#D0CEC2" d="M175.3,285.7c-1.2-0.8-2.1-1.8-3.3-2.5c-1.5-0.9-3.3-1.2-5-1c-2.3,2.3-3.2,5.7-3,9
					c0.2,3.3,1.2,6.4,2.3,9.5c2.4,7.1,4.8,14.2,7.2,21.2c0.9,2.6,1.8,5.3,3.5,7.4c5.4-10,10.6-20.5,11.8-31.8
					c0.4-3.8,0.1-8.3-2.9-10.7c-0.2-0.2-0.4-0.3-0.7-0.4c-0.4-0.1-0.8,0.1-1.2,0.2C181.2,287.7,177.8,287.4,175.3,285.7z"/>
				<g>
					<path fill="#BA6F4D" d="M165.6,272.5c0.4,1,1.4,2.1,2.2,1.5c-0.1,2.1-0.3,4.2-0.5,6.2c-0.1,1.2-0.1,2.4,0.4,3.4
						c0.4,0.8,1.1,1.3,1.8,1.8c2.7,2.2,4.9,5,6.4,8.2c2.3-1.1,4.6-2.2,6.8-3.5c0.9-0.5,1.8-1,2.5-1.9c0.7-0.8,1-2,0.7-3.1
						c1.5-0.5,2.7-1.7,3.2-3.2c0.2-0.8,0.3-1.6,0.7-2.4c0.3-0.6,0.7-1,1.2-1.4c1.5-1,1.5-3.5,1.8-5c0.1-0.7,0.3-1.3,0.2-2
						c-0.1-0.4-0.2-0.8-0.3-1.3c0-0.4,0-0.8,0.1-1.1c0.2-0.7,0.6-1.4,0.9-2c1.7-3.5,2-7.7,0.9-11.4c-0.7-2.3-1.9-4.6-1.9-7
						c-0.4,0.1-0.9,0.1-1.3,0.2c-0.2-1.3-0.8-2.4-1.7-3.3c-1.6-1.6-4.4-2.2-4.8-4.5c-0.4,0.7-0.9,1.4-1.5,1.8
						c-0.7,0.4-1.6,0.5-2.2,0c-0.2-0.1-0.3-0.3-0.5-0.4c-0.2,0-0.3,0-0.5,0c-1.4,0.4-2.7,1.2-3.7,2.2c-0.4-0.4-0.8-0.7-1.2-1.1
						c-1.8,0.6-2.4,3.1-3.7,4.6c-1,1.2-2.4,1.8-3.4,2.9c-1.3,1.5-1.7,3.7-2,5.8c-0.3,2.4-0.7,4.7-1,7.1c-0.1,0.6-0.2,1.2-0.2,1.8
						C164.9,267.9,164.8,270.3,165.6,272.5z"/>
					<path fill="#1D3257" d="M165.2,265.6c0.4-0.1,0.7-0.4,1-0.5c0.9-0.4,2.1,0.1,2.7,0.9c0.7,0.8,0.9,1.9,1.2,3
						c0.9-3.6,2.2-7.1,3.9-10.4c1-1.8,2.2-3.7,3.9-4.7c2.5-1.4,5.7-0.7,8.4,0c1.1,0.3,2.2,0.6,3.3,0.9c0.9,0.2,1.8,0.5,2.4,1.3
						c0.6,0.8,0.6,1.9,0.6,2.9c0,3.3,0.1,6.5,0.1,9.8c0,0,0,0,0.1,0c0.2-0.7,0.6-1.4,0.9-2c1.7-3.5,2-7.7,0.9-11.4
						c-0.7-2.3-1.9-4.6-1.9-7c-0.4,0.1-0.9,0.1-1.3,0.2c-0.2-1.3-0.8-2.4-1.7-3.3c-1.6-1.6-4.4-2.2-4.8-4.5
						c-0.4,0.7-0.9,1.4-1.5,1.8c-0.7,0.4-1.6,0.5-2.2,0c-0.2-0.1-0.3-0.3-0.5-0.4c-0.2,0-0.3,0-0.5,0c-1.4,0.4-2.7,1.2-3.7,2.2
						c-0.4-0.4-0.8-0.7-1.2-1.1c-1.8,0.6-2.4,3.1-3.7,4.6c-1,1.2-2.4,1.8-3.4,2.9c-1.3,1.5-1.7,3.7-2,5.8c-0.3,2.4-0.7,4.7-1,7.1
						C165.3,264.4,165.3,265,165.2,265.6z"/>
				</g>
			</g>
		</g>
	</g>
	<g>
		<path fill="#3C7AA5" d="M535.7,299.6c-2.7,5.9-11,8.2-16.3,4.7c-1-0.6-1.8-1.4-2.9-1.7c-0.9-0.3-1.9-0.2-2.8-0.2
			c-9.7,0-16.9-8.9-21.8-17.3c-7.5-12.8-13.4-26.4-17.6-40.6c-2.5,3.4-7.7,4.2-11.2,1.8c0.1,4.5,1.5,8.8,3,13.1
			c2,5.8,3.9,11.6,5.9,17.4c3.6,10.7,7.2,21.4,13.1,31c2.7,4.3,5.8,8.4,7.3,13.2c1.2,3.7,1.4,7.7,1.5,11.6
			c0.7,16.9,1.5,33.9,2.2,50.8c14.3-1.5,28.6-2.4,42.9-2.8c5.3-0.1,10.8-0.2,15.6,2.1c-2.1-6.5,0.9-13.4,1.9-20.1
			c0.5-3.1,0.5-6.3,0.6-9.4c0.3-14.7,1.2-30.1,9-42.5c5.1-8.1,12.7-14.3,17.9-22.3c7.1-11.1,8.9-25,15.9-36.1
			c-3.7-0.3-8.2-1.7-8.8-5.3c-4.2,2.8-7.5,7-9.3,11.8c-0.5,1.4-0.9,2.8-1.9,4c-1,1.2-2.5,1.8-3.7,2.8c-3,2.4-4.1,6.4-5.8,9.9
			c-1.7,3.4-4.2,6.3-6.8,9c-7.5,7.8-16.5,14.1-26.3,18.5C536.8,301.7,536.2,300.7,535.7,299.6z"/>
		<path fill="#F1B488" d="M460.6,224.1c-0.1-1.9-0.2-3.8-0.2-5.6c0-0.2,0-0.5,0.1-0.6c0.2-0.4,0.8-0.3,1.1,0
			c0.3,0.3,0.4,0.8,0.4,1.2c0.2,1.4,0.5,2.8,0.8,4.1c0.1,0.5,0.2,1.2,0.5,1.6c0.1,0.1,1.2,1,1.2,0.6c0.9-4.1-0.5-8.7-1.4-12.7
			c0-0.6,0.4-1.2,1.1-1c0.7,0.2,0.9,1.3,1.1,1.9c0.5,2.1,1.4,4.9,1.4,7.1c0.2,1.1,0.4,2.3,0.3,3.4c0,0.4-0.1,1,0.3,1.1
			c0.4-2.5,0.2-4.9,0.3-7.4c0.1-2.6,0.1-4.4,0.4-7c0.2-1.7,2-2.6,2.3-0.7c0.6,3.4,1.1,10.1,0.5,14.6c0.5-0.3,0.6-1,0.6-1.6
			c0.3-3.3,0.7-6.7,1.8-9.8c0.1-0.4,0.3-0.8,0.7-1c2.3-1.5,1.2,5,0.9,6.7c-0.5,3-1.3,6.7-0.6,9.6c0.9-0.7,1.6-1.7,2.3-2.6
			c0.8-0.9,2-2,3.2-2.2c1.2-0.1,2.7,1.2,2.1,2.2c-2.1-0.2-3.6,2-4.2,4c-0.6,2-1,4.3-2.7,5.6c-0.7,0.5-1.6,0.9-2,1.6
			c-0.3,0.5-0.4,1.2-0.4,1.8c-0.1,2.4-0.1,4.7-0.1,7.1c-2.5,1.4-5.5,1.8-8.3,1.2c0.6,0.1-0.2-4.4-0.2-4.7c-0.2-1.6,0.1-3-0.5-4.6
			c-0.6-1.5-1.9-2.7-2.3-4.3c-0.1-0.5-0.2-1.1-0.2-1.6C460.8,229.3,460.7,226.7,460.6,224.1z"/>
		<path fill="#F1B488" d="M586.1,234.4c-0.5-0.7-1.1-1.3-1.6-2c-0.3-0.5-1-1.7-0.4-2.3c0.2-0.2,0.5-0.2,0.8-0.2
			c0.3,0,0.6,0.1,0.8,0.3c0.7,0.3,1.3,0.6,1.9,1c1.2,0.9,1.5,2.4,2.4,3.6c0.5,0.6,1.3,1,1.9,0.7c0.7-0.3,0.9-1.1,1-1.8
			c0.9-4.1,1.2-8.3,2.6-12.3c0.2-0.5,2-5.8,2.9-3.3c0.1,0.4,0.1,0.8,0,1.2c-0.5,3.1-1.8,6-1.6,9.1c0,0.2,0,0.5,0.1,0.7
			c0.3,0.7,1.3,0.8,2,0.4c1.3-0.7,1.7-2.8,2.3-4c0.7-1.7,1.5-3.3,2.5-4.9c0.3-0.5,0.7-1,1.2-1.2c1.8-0.6,1.2,2.3,0.9,3
			c-0.5,1.5-1,2.9-1.6,4.3c-0.5,1.3-1.4,2.6-1.4,4c0.6,0.1,1.1-0.5,1.4-1c1.1-1.8,2.1-3.6,3.2-5.3c0.4-0.6,0.8-1.3,1.5-1.7
			c0.7-0.3,1.7-0.1,1.9,0.6c0.2,0.6-0.2,1.2-0.6,1.7c-1.6,2.2-3.2,4.5-4.9,6.7c-0.3,0.4-0.5,0.7-0.6,1.2c-0.4,1.6,1.3,1.3,2.2,0.8
			c1.4-0.9,2.7-2.1,4-3.1c0.9-0.7,2.2-1.2,2.1,0.4c-0.1,1.3-0.9,2.5-1.8,3.3c-1.2,1.1-2.6,2-3.6,3.3c-2.5,3.2-2,8.4-5.4,10.5
			c-0.6,0.4-1.3,0.7-1.8,1.3c-0.3,0.4-0.4,0.9-0.6,1.3c-0.9,1.5-3.1,1.5-4.7,0.6c-1.5-0.8-2.8-2.2-4.4-2.9c0.2-0.8,0.4-1.6,0.6-2.4
			c-2.2-0.6-3.2-3.1-3.6-5.3C587.5,238.7,587.4,236.3,586.1,234.4z"/>
		<path fill="#BCBAB1" d="M496.8,382.5c21.3-2.8,42.7-4.5,55.5-0.9c5.1,9.4,2,21.1,3.2,31.7c0.7,6,2.8,11.7,3.5,17.7
			c0.6,5.2,0.2,10.5,0.6,15.7c0.6,7.7,2.9,15.3,2.8,23.1c-0.1,6.6-1.9,13.2-0.4,19.6c0.8,3.4,2.5,6.5,3,10
			c1.1,7.9-4.2,16.3-1.1,23.6c-6.2-0.4-12.5,0.5-18.3,2.7c-3.8-15.1-6-30.5-6.8-46.1c-0.2-3.7-0.3-7.5-0.9-11.2
			c-0.9-5.4-2.8-10.6-4.6-15.8c-3.3-9.9-5.8-20.1-7.5-30.5c-3.8,6.9-4.2,15.1-3.9,23c0.4,12,1.8,23.9,4.3,35.6
			c1.8,8.5,4.1,17.3,5.1,26.1c0.3,3,1.7,11.1,1.7,11.1c-1.8,1.4-7.2,1.9-9.4,2.5c-3.1,0.9-5.8,0.7-9,0.4c-1.2-0.1-2.5-0.3-3.4-1.1
			c-0.9-0.9-1.1-2.2-1.2-3.5c-0.9-8.1-1.9-16.2-2.8-24.3c-0.4-3.2-0.7-6.3-1.5-9.4c-0.8-2.9-1.9-5.7-2.9-8.6
			c-5.2-16.2-2.8-33.6-3.8-50.6C498.2,409.8,495.1,396.1,496.8,382.5z"/>
		<path fill="#20315B" d="M545.7,533.4c-1-1.2-0.3-3,0.4-4.5c0.4-0.8,0.8-1.6,1.1-2.4c0.2-0.4,0.4-0.9,0.7-1.3
			c0.6-0.8,1.5-1.2,2.4-1.6c3.6-1.5,7.7-2,11.6-1.5c0.3,0,0.6,0.1,0.8,0.2c0.4,0.2,0.5,0.7,0.7,1.1c0.6,2.2,0.6,4.6,0.6,6.9
			c0,0.4,0,0.9-0.2,1.3c-0.2,0.6-0.7,1-1.2,1.4c-1.2,1-2.4,2.1-3.9,2.5c-2.8,0.8-5.7-1-8.6-1.2C548.6,534.4,546.7,534.7,545.7,533.4
			z"/>
		<path fill="#20315B" d="M502.8,530.8c-2,0-4.1,0-5.7-1.1c-0.7-0.5-1.2-1.3-1.3-2.1c0-1,0.6-1.9,1.4-2.4c0.8-0.5,1.8-0.8,2.7-1.1
			c3.1-0.9,6.1-2.4,8.7-4.2c0.4-0.3,0.8-0.5,1.2-0.6c0.6-0.1,1.1,0.1,1.6,0.3c6.4,2.1,13.5,1.8,19.7-0.9c0.6,2.6,1.3,5.4,0.7,8
			c-0.1,0.3-0.2,0.6-0.4,0.8c-0.2,0.2-0.6,0.2-0.9,0.2c-2.5,0.1-5.1,0.2-7.6,0.4c-0.9,0-1.8,0.1-2.6-0.2c-0.5-0.1-0.9-0.3-1.4-0.3
			c-0.6,0-1.1,0.3-1.6,0.6C513.1,530.6,507.9,530.7,502.8,530.8z"/>
		<path fill="#F1B488" d="M513.6,278c0.1,2.1,0.8,4.1,1,6.1c0,0.1,0,0.2,0,0.3c0.1,1.8,0,3.7,0.9,5.2c0.5,0.8,1.2,1.4,1.6,2.3
			c0.2,0.5,0.3,1.1,0.3,1.7c0.1,2.2,0.3,4.4,0.4,6.6c0.1,1,0.1,2,0.7,2.9c0.7,1.2,2.1,1.8,3.5,2.1c2.9,0.8,6.2,0.7,9-0.4
			s5.2-3.5,6-6.5c0.4-1.5,0.4-3,0.4-4.5c0-0.6,0-1.2,0.1-1.7c0.1-0.6,0.5-1,0.8-1.5c1.2-2,1.7-4.2,2-6.5c0.2-1.9,0.2-3.9,0.2-5.9
			c0-1.6,0-3.3-0.5-4.9c-0.6-2.1-2.1-3.9-3.9-5.3c-1.1-0.9-2.4-1.6-3.7-2.1c-4.1-1.7-9-1.4-12.8,0.9
			C515.7,269.1,513.3,273.6,513.6,278z"/>
		<path fill="#20315B" d="M513.6,278c0.1,2.1,0.8,4.1,1,6.1c0,0.1,0,0.2,0,0.3c0,0,0.1,0,0.1,0c0.9-0.3,2.1,0.4,2.2,1.4
			c0.7-1.5-0.1-3.4,0.5-5c0.3-0.7,0.8-1.3,1.1-2.1c0.5-1.2,0.3-2.7,0.3-4c0-1.3,0.6-2.9,1.9-3.3c0.8-0.2,1.6,0,2.4,0.3
			c0.7,0.2,1.4,0.5,2.1,0.7c1.3-1.6,3.7-1.6,5.7-1.3c1.6,0.2,3.5,0.6,4.2,2.2c0.3,0.7,0.2,1.6,0.2,2.4c0.1,3.4,2.4,6.4,2.2,9.8
			c0.2-0.6,0.5-1.3,1.1-1.7c0.5-0.3,1.3-0.2,1.6,0.2c0.2-1.9,0.2-3.9,0.2-5.9c0-1.6,0-3.3-0.5-4.9c-0.6-2.1-2.1-3.9-3.9-5.3
			c-1.1-0.9-2.4-1.6-3.7-2.1c-4.1-1.7-9-1.4-12.8,0.9C515.7,269.1,513.3,273.6,513.6,278z"/>
	</g>
	<g>
		<path fill="#4077A0" d="M386.8,415.3c-0.2,2.3-1.3,4.4-2.4,6.4c-1,1.8-2.7,3.8-4.8,3.3c-2.5-0.6-2.7-4.1-3.9-6.4
			c-0.4-0.8-1-1.5-1.9-1.9c-0.5-0.2-1.1-0.2-1.6-0.2c-1.6,0.3-3,1.7-4.1,3c-10.6,12.9-19,28.6-33.8,36.2c2.5,5,2.5,10.8,2.5,16.4
			c0,5.3,0,10.6,0,15.9c0,6.4,0.5,13.8,5.7,17.6c-4.4,4.1-11.1,5.5-16.7,3.3c-0.3-12.9-5.1-25.4-5.4-38.4c-0.1-5,0.5-10-0.1-14.9
			c-0.4-3.2-1.2-6.3-2-9.4c-2.3-9.3-4.3-18.6-5.9-28c-1.7-10-2.9-20.2-0.9-30.1c0.6-2.7,1.4-5.4,1.9-8.1c0.7-3.2,1-6.5,0.9-9.8
			c13.9,3.8,28.5-3.7,42.8-2.5c2.1,6.9,4.3,14,3.6,21.2c-0.5,5.2-2.3,10.1-4.1,14.9c-2,5.3-4,10.6-6.1,15.9c2.2-3.2,5-5.9,8.2-8.1
			c2.8-1.9,6.1-3.5,8-6.2c0.1-0.2,0.3-0.4,0.4-0.6c0.6-1,1.1-2.1,1.6-3.1c1-2.1,2.1-4,4.2-4.2c2.2-0.2,4.1,1.8,5.1,3.8
			c1,2,1.7,4.3,3.5,5.7c0.9,0.7,1.9,1.1,2.8,1.8C386.3,410.5,387,413,386.8,415.3z"/>
		<path fill="#ECB69B" d="M343.9,511.1c-0.5,1.7-1.8,3.1-3.2,4.3c-1.4,1.2-2.8,2.3-3.8,3.8c-1.6,2.5-1.6,5.6-2.8,8.2
			c-1.8,4-6,6.2-10.1,7.9c-1.6,0.6-3.7,1-4.6-0.4c-0.7-1.2,0-2.6,0.9-3.7c1.7-2,4-3.7,5.1-5.9c0.2-0.3,0.3-0.6,0.4-0.9
			c0.4-1.3,0.4-2.7,0.4-4.1c0-3.2,0-6.5,0-9.7c0-0.3,0-0.6,0.2-0.9c0.3-0.6,1.2-0.6,1.9-0.5c2.8,0.3,5.7,0.1,8.5-0.6
			c1.9-0.5,3.7-1.2,5.4-2.1C343.7,507.2,344.4,509.4,343.9,511.1z"/>
		<path fill="#1D3257" d="M343.9,511.1c-0.5,1.7-1.8,3.1-3.2,4.3c-1.4,1.2-2.8,2.3-3.8,3.8c-1.6,2.5-1.6,5.6-2.8,8.2
			c-1.8,4-6,6.2-10.1,7.9c-1.6,0.6-3.7,1-4.6-0.4c-0.7-1.2,0-2.6,0.9-3.7c1.7-2,4-3.7,5.1-5.9c0.1,0,0.3,0,0.4,0
			c1.1,0.2,2.3,0.4,3.4,0.2c2.6-0.6,3.6-3.7,4-6.4c0.4-2.6,0.8-5.3,1.8-7.7c0.4-1,1-2,1.7-2.8c1.9-0.5,3.7-1.2,5.4-2.1
			C343.7,507.2,344.4,509.4,343.9,511.1z"/>
		<path fill="#A7D9CE" d="M351.6,419.4c-0.5,4.2-1.5,8.3-3.2,12.2c-1.7,4.2-4.1,8.2-5.2,12.6c0.1-1.3,0.5-2.6,0.9-3.8
			c1.6-5.3,3.3-10.7,4.9-16C349.5,422.6,350.2,420.7,351.6,419.4z"/>
		<path fill="#A7D9CE" d="M324.4,425.7c0.5-3,1.4-5.9,2.3-8.8c2.1-7.1,3.5-14.4,4.2-21.7c-1.2,0.3-2.4,0.6-3.5,0.9
			c-0.1,16-5.3,26.8-4.8,42.8c0.1,3.1,0.5,6.3,1,9.4c0.5,3.1,0.4,5.3,3.7,6.7c1.9,0.9,5.5,1.8,7.1,0.7c-0.8,0.4-2.3,0.2-3.1-0.1
			c-0.7-0.2-1.3-0.5-2-0.7c-1.2-0.4-2.8-0.5-3.3-1.7C321.1,442.4,323.9,428.5,324.4,425.7z"/>
		<path fill="#ECB69B" d="M355.8,282.9c-0.8,0.6-1.9,0.6-2.5,1.1c-0.2,0.2-0.3,0.4-0.5,0.6c-0.3,0.5-0.6,1.2-0.9,1.6
			c-0.3,0.4-0.7,0.8-1,1.1c-1.1,1.1-2.3,2-3.5,3c-1.4,1.1-3,2.2-4.7,1.8c-0.9-0.2-1.6-0.8-2.3-1.4c-1.1-0.9-2.1-1.8-3.2-2.7
			c-0.1,0-0.1-0.1-0.1-0.1c-0.6-0.5-1.2-1-1.7-1.6c-0.5-0.6-1-1.3-1.3-2c-0.3-1-0.3-2-0.3-3.1c0-1.6,0.1-3.3,0.2-4.9
			c0.4-3.5,1.4-7.2,4.2-9.4c2-1.5,4.7-2,7.1-1.6c2.5,0.4,4.7,1.8,6.5,3.5c0.8,0.8,1.6,1.7,2,2.8c1,2.2,0.6,4.7,0.5,7.1
			c0.1-0.4,0.3-0.9,0.6-1.2c0.3-0.3,0.8-0.4,1.1-0.2c0.2,0.1,0.3,0.3,0.4,0.5C357.2,279.5,356.9,281.5,355.8,282.9z"/>
		<path fill="#84211A" d="M371.5,283.9c-0.7,1.8-2.5,3-4.4,3.5c-1.9,0.5-3.8,0.4-5.8,0.3c0.9,0.6,2,1.1,3.1,1.3
			c-3.8,1.7-8.5,1.4-12.1-0.7c-0.5-0.3-0.9-0.6-1.4-0.8c0.3-0.4,0.7-0.7,1-1.1c0.3-0.4,0.6-1.1,0.9-1.6c0.1-0.2,0.3-0.5,0.5-0.6
			c0.7-0.6,1.8-0.6,2.5-1.1c1.1-1.4,1.4-3.4,0.7-5c-0.1-0.2-0.2-0.4-0.4-0.5c-0.3-0.2-0.8-0.1-1.1,0.2c-0.3,0.3-0.5,0.8-0.6,1.2
			c0.1-2.3,0.5-4.8-0.5-7.1c-0.5-1.1-1.2-2-2-2.8c-1.8-1.7-4.1-3.1-6.5-3.5c-2.5-0.4-5.1,0.1-7.1,1.6c-2.8,2.1-3.8,5.9-4.2,9.4
			c-0.2,1.6-0.2,3.3-0.2,4.9c0,1,0,2.1,0.3,3.1c0.3,0.8,0.7,1.4,1.3,2c-0.6,0.1-1.1,0.4-1.7,0.6c-2.7,1-5.7,0.4-8.5-0.3
			c-0.8-0.2-1.9-0.7-1.7-1.5c0.7-0.2,1.4-0.6,1.7-1.3c-1.9,0.4-4-1-4.4-3c2-0.5,3.5-2.1,4.5-3.8c3.1-4.9,3.7-11.3,7.6-15.5
			c1.6-1.8,3.8-3,6-3.9c1.7-0.6,3.4-1,5.2-0.7c0.9,0.1,1.8,0.5,2.7,0.7c0.9,0.2,1.7,0.4,2.6,0.7c4.3,1.2,8.1,3.8,10.6,7.4
			c3.6,5.1,4.9,12,9.9,15.7c-1.5,0.7-3.3,0.8-4.8,0.2C366.9,283.1,369.2,283.9,371.5,283.9z"/>
		<path fill="#ECB69B" d="M386.8,415.3c-0.2,2.3-1.3,4.4-2.4,6.4c-1,1.8-2.7,3.8-4.8,3.3c-2.5-0.6-2.7-4.1-3.9-6.4
			c-0.4-0.8-1-1.5-1.9-1.9c-0.5-0.2-1.1-0.2-1.6-0.2c-0.2-0.8-0.5-1.6-0.7-2.4c-0.9-3.2-2.1-6.7-4.6-8.6c0.1-0.2,0.3-0.4,0.4-0.6
			c0.6-1,1.1-2.1,1.6-3.1c1-2.1,2.1-4,4.2-4.2c2.2-0.2,4.1,1.8,5.1,3.8c1,2,1.7,4.3,3.5,5.7c0.9,0.7,1.9,1.1,2.8,1.8
			C386.3,410.5,387,413,386.8,415.3z"/>
		<path fill="#1D3257" d="M386.8,415.3c-0.2,2.3-1.3,4.4-2.4,6.4c-1,1.8-2.7,3.8-4.8,3.3c-2.5-0.6-2.7-4.1-3.9-6.4
			c2-0.6,4.9,0.2,6.5-1.3c1.2-1.1,1.3-2.9,0.7-4.4c-0.6-1.5-1.8-2.6-2.9-3.7c-1.5-1.5-3.1-2.9-4.6-4.4c-1.8-1.7-4.2-3.4-6.4-3
			c1-2.1,2.1-4,4.2-4.2c2.2-0.2,4.1,1.8,5.1,3.8c1,2,1.7,4.3,3.5,5.7c0.9,0.7,1.9,1.1,2.8,1.8C386.3,410.5,387,413,386.8,415.3z"/>
		<path fill="#ECB69B" d="M328.6,294.3c-0.3-1.2-1.8-1.6-2.9-2c-3-1-5.2-3.5-7.1-6c-10.1-13.1-15.2-30-13.9-46.5
			c0.1-0.9,0.2-1.8,0.7-2.6c0.8-1.2,2.2-1.5,3.7-2l0,0c0.9-0.2,1.9-0.5,2.8-0.8c1-0.3,1.3-1,2-1.7c1-0.9,2.5-0.9,3.8-1.5
			c0.4-0.2,0.8-0.5,1.1-0.9c0.2-0.4,0.2-1-0.1-1.3c-0.2-0.3-0.6-0.4-1-0.4c-1.6-0.1-2.9,1.1-4.5,1.2c-0.5,0-1-0.1-1.2-0.6
			c-0.3-0.5,0-1.8,0.2-2.4c0.3-0.9,0.8-1.8,1.2-2.7c0.7-1.4,2-4.5,0.7-4.5c-1.2,1.7-2.3,3.4-3.5,5.1c-0.3,0.5-0.8,1.1-1.4,1
			c0.3-3.4,4.7-8.4,3-9.4c-0.9-0.2-1.6,0.7-2,1.5c-0.9,1.8-1.9,3.6-2.8,5.3c-0.3,0.6-1,1.2-1.5,0.8c1.5-2.1,3.6-7.1,2.7-7.3
			c-0.7-0.4-1.9,1.6-2.4,2.7c-0.9,1.8-1.9,3.6-3.1,5.3c-0.3,0.4-0.8,0.8-1.1,0.5c0.8-1.6,1.6-5.2,0.8-5.3c-0.6,0-0.9,0.7-1.1,1.2
			c-0.9,2.5-2.2,6.5-3,9l0,0c-0.3,0.8-0.5,1.6-0.6,2.3c-2.1,10.4-1.8,21.1-1.5,31.8c0.1,4.2,0.3,8.5,1.7,12.4c0.9,2.5,2.3,4.8,3.6,7
			c3.5,5.8,7.1,11.6,10.6,17.5c0.7,1.1,1.4,2.2,2.6,2.8c1.2,0.5,2.7,0.2,3.9-0.2c3.8-1.3,7-3.9,9.2-7.2
			C328.4,295.9,328.8,295,328.6,294.3z"/>
		<path fill="#ECB69B" d="M397.5,222.3c-0.9-0.2-1.4,0.9-1.5,1.8c-0.2,1.2-0.3,2.3-0.5,3.5c-0.1,0.9-0.7,2.1-1.6,1.7
			c-0.2-2.5-0.5-6.5-0.7-9c-0.1-1-1-1.7-1.6-0.7c-0.3,2.7-0.3,5.5-0.2,8.2c-0.3,0.2-0.6,0.3-1,0.3c-0.7-3.1-1.5-6.1-2.5-9
			c-0.3-0.8-1.1-1.9-1.8-1.3c-0.2,0.2,0,2.1,0.1,2.5c0.1,0.9,0.2,1.9,0.3,2.8c0.1,0.6,1.4,4.6,0.2,4.4c-0.3-0.1-0.6-0.3-0.8-0.6
			c-1-1.2-2-2.4-3-3.6c-0.5-0.5-1.6-2.3-2.5-1.8c-1.2,0.6,0.4,2.7,0.8,3.3c0.8,1.2,1.9,2.4,2.5,3.6c0.5,1.1,0.5,2.8,0.6,4
			c-1.1,0.3-2.7-0.2-3.7-0.7c-1.3-0.6-2.6-1-3.9-1.6c-0.4-0.2-1-0.4-1.4-0.1c-0.2,0.2-0.3,0.4-0.3,0.7c-0.1,0.6,0.2,1.3,0.6,1.8
			c0.4,0.5,1,0.8,1.5,1.2c1,0.6,1.9,1.3,2.9,1.9c0.8,0.5,1.3,0.6,2.1,0.8c0.2,0,0.4,0.1,0.5,0.2c1.2,1.3,3,2.6,3.6,3.2
			c0,0,0,0.1,0.1,0.1l0,0c0,0.1,0.1,0.1,0.1,0.2c1.6,2.2,1.1,5.2,0.6,7.9c-0.5,2.7-1,5.4-1.5,8.1c-1.1,5.9-2.2,11.9-4.8,17.4
			c-4.4,9.5-12.7,16.6-18.9,25c-2.2,3-4.3,6.4-4,10.1c0.3,3.7,4,7.2,7.5,6c1.4-0.5,2.5-1.7,3.5-2.8c5.4-5.9,10.7-11.9,15.4-18.3
			c1.9-2.7,3.8-5.4,5-8.5c0.9-2.4,1.5-4.9,2-7.4c2-10.2,3.1-20.6,4.1-31c0.1-0.9,0.2-1.8,0.3-2.7c0.3-3,0.6-6.1,0.7-9.2
			c0-0.2,0-0.3,0-0.5l0.1,0C396.8,230.2,398.2,222.6,397.5,222.3z"/>
		<path fill="#D0CEC2" d="M321.6,296.5c0.7-0.9,1.2-2,1.7-3c0.3-0.8,0.8-1.8,1.7-1.8c0.4,0,0.7,0.2,1,0.3c6.3,3.4,13.1,7.3,20.5,5.7
			c2.7-0.6,5.3-1.6,8.1-2c2-0.3,3.8,0.2,5.7,0.3c2.1,0.1,3.5-1.4,5.3-2.2c0.7,0.8,1,2.2,1.6,3.2c0.7,1,1.5,2,2.4,2.9
			c1.8,1.7,4.1,3,6.6,3.6c-6,9.6-15.9,18.4-17,30.3c-0.6,6.4-0.1,13-0.5,19.4c-0.1,2.1,1.3,17.5-0.1,18.1
			c-10.2,4.2-22.7,6.7-33.7,6.2c-3.4-0.2-6.8-0.6-9.8-2.2c-0.4-0.2-0.8-0.5-1.1-0.9c-0.3-0.5-0.4-1.1-0.4-1.7
			c-0.5-11.6,6.4-22.5,6.1-34.2c-0.1-4.8-1.3-9.6-1.9-14.4c-0.5-4.2-0.3-8.3-1.9-12.3c-1.2-2.9-3.1-6-3.2-9.2
			C316.3,301.7,319.5,299.5,321.6,296.5z"/>
		<path fill="#E0AD96" d="M351.6,289.1c-0.1,1.1-0.6,7.4-0.6,7.4c-0.4,0.3-2.1,0.6-3.1,1.3c-1.7,1.2-3.3,2.7-4.8,4.2
			c-2.2,2.4-3.6,5.6-6.1,7.7c-1.5,1.2-2.9,3-4.5,4c-0.3-0.5,0.4-1.9,0.6-2.5c0.3-0.9,0.7-1.7,1.1-2.5c0.9-1.9,1.3-3.9,2-5.8
			c0.8-2,1.2-4.3,1.5-6.5c0.3-2.5,0.4-5.1-0.2-7.5c0-0.1-0.2-1-0.2-1c1.1,0.9,2.1,1.8,3.2,2.7c0.7,0.6,1.4,1.2,2.3,1.4
			c1.7,0.4,3.3-0.7,4.7-1.8c1.6-1.2,3.2-2.5,4.5-4.1c0.3-0.4,0.6-1.1,0.9-1.6C352.5,285.6,351.8,287.4,351.6,289.1z"/>
	</g>
</g>
</svg>
