<?xml version="1.0" encoding="utf-8"?>
<!-- Generator: Adobe Illustrator 18.0.0, SVG Export Plug-In . SVG Version: 6.00 Build 0)  -->
<!DOCTYPE svg PUBLIC "-//W3C//DTD SVG 1.1//EN" "http://www.w3.org/Graphics/SVG/1.1/DTD/svg11.dtd">
<svg version="1.1" id="Layer_1" xmlns="http://www.w3.org/2000/svg" xmlns:xlink="http://www.w3.org/1999/xlink" x="0px" y="0px"
	 viewBox="0 0 350 350" enable-background="new 0 0 350 350" xml:space="preserve">
<g>
	<linearGradient id="SVGID_1_" gradientUnits="userSpaceOnUse" x1="175" y1="238.2016" x2="175" y2="448.758">
		<stop  offset="0" style="stop-color:#FFFFFF"/>
		<stop  offset="1" style="stop-color:#B3B3B3"/>
	</linearGradient>
	<path fill="url(#SVGID_1_)" d="M264.9,350H85.1C38.1,350,0,311.9,0,264.9V85.1C0,38.1,38.1,0,85.1,0h179.9
		c47,0,85.1,38.1,85.1,85.1v179.9C350,311.9,311.9,350,264.9,350z"/>
	<linearGradient id="SVGID_2_" gradientUnits="userSpaceOnUse" x1="175" y1="235.6305" x2="175" y2="437.621">
		<stop  offset="0" style="stop-color:#FFFFFF"/>
		<stop  offset="1" style="stop-color:#B3B3B3"/>
	</linearGradient>
	<path fill="url(#SVGID_2_)" stroke="#6D6D6D" stroke-width="0.3508" stroke-miterlimit="10" d="M257.8,342.9H92.2
		c-47,0-85.1-38.1-85.1-85.1V92.2c0-47,38.1-85.1,85.1-85.1h165.7c47,0,85.1,38.1,85.1,85.1v165.7
		C342.9,304.8,304.8,342.9,257.8,342.9z"/>
	<g>
		<g>
			<g>
				<g>
					<g>
						<path fill="#A40032" d="M55.5,266.6h10.8v9.4H55.8v31.6H43.7v-31.6h-6.5v-9.4h6.5v-1.9c0-4.8,1.4-8.6,4.2-11.4
							c2.8-2.8,6.8-4.2,12-4.2c1.8,0,3.5,0.2,5.2,0.6c1.6,0.4,3,0.9,4.1,1.7l-3.2,8.8c-1.4-1-3-1.5-4.9-1.5c-3.7,0-5.5,2-5.5,6.1
							V266.6z"/>
						<path fill="#A40032" d="M79.9,305.4c-3.5-1.8-6.2-4.4-8.2-7.7c-2-3.3-3-7-3-11.1c0-4.2,1-7.9,3-11.1c2-3.3,4.7-5.8,8.2-7.7
							c3.5-1.8,7.5-2.8,11.9-2.8c4.4,0,8.4,0.9,11.8,2.8c3.5,1.8,6.2,4.4,8.2,7.7c2,3.3,3,7,3,11.1c0,4.2-1,7.9-3,11.1
							c-2,3.3-4.7,5.8-8.2,7.7c-3.5,1.8-7.4,2.8-11.8,2.8C87.4,308.2,83.4,307.3,79.9,305.4z M99.4,295.1c2-2.1,3-4.9,3-8.5
							c0-3.5-1-6.4-3-8.5c-2-2.1-4.6-3.2-7.7-3.2c-3.1,0-5.7,1.1-7.7,3.2c-2,2.1-3,4.9-3,8.5c0,3.5,1,6.4,3,8.5
							c2,2.1,4.6,3.2,7.7,3.2C94.9,298.2,97.4,297.2,99.4,295.1z"/>
						<path fill="#A40032" d="M182,305.4c-3.5-1.8-6.2-4.4-8.2-7.7c-2-3.3-3-7-3-11.1c0-4.2,1-7.9,3-11.1c2-3.3,4.7-5.8,8.2-7.7
							c3.5-1.8,7.5-2.8,11.9-2.8c4.4,0,8.4,0.9,11.8,2.8c3.5,1.8,6.2,4.4,8.2,7.7c2,3.3,3,7,3,11.1c0,4.2-1,7.9-3,11.1
							c-2,3.3-4.7,5.8-8.2,7.7c-3.5,1.8-7.4,2.8-11.8,2.8C189.4,308.2,185.5,307.3,182,305.4z M201.5,295.1c2-2.1,3-4.9,3-8.5
							c0-3.5-1-6.4-3-8.5c-2-2.1-4.6-3.2-7.7-3.2c-3.1,0-5.7,1.1-7.7,3.2c-2,2.1-3,4.9-3,8.5c0,3.5,1,6.4,3,8.5
							c2,2.1,4.6,3.2,7.7,3.2C197,298.2,199.5,297.2,201.5,295.1z"/>
						<path fill="#A40032" d="M267.7,249.7v57.8h-11.6v-4.8c-3,3.6-7.4,5.5-13.1,5.5c-3.9,0-7.5-0.9-10.7-2.6
							c-3.2-1.8-5.7-4.3-7.5-7.6c-1.8-3.3-2.7-7.1-2.7-11.4c0-4.3,0.9-8.1,2.7-11.4c1.8-3.3,4.3-5.8,7.5-7.6
							c3.2-1.8,6.8-2.6,10.7-2.6c5.4,0,9.5,1.7,12.5,5.1v-20.3H267.7z M252.7,295.1c2-2.1,3-4.9,3-8.5c0-3.5-1-6.4-3-8.5
							c-2-2.1-4.6-3.2-7.6-3.2c-3.1,0-5.7,1.1-7.7,3.2c-2,2.1-3,4.9-3,8.5c0,3.5,1,6.4,3,8.5c2,2.1,4.6,3.2,7.7,3.2
							C248.1,298.2,250.7,297.2,252.7,295.1z"/>
						<path fill="#A40032" d="M282.8,306.9c-3.3-0.9-6-1.9-7.9-3.2l4.1-8.7c1.9,1.2,4.1,2.2,6.8,2.9c2.7,0.8,5.2,1.1,7.8,1.1
							c5.1,0,7.7-1.3,7.7-3.8c0-1.2-0.7-2.1-2.1-2.6c-1.4-0.5-3.6-1-6.5-1.3c-3.4-0.5-6.3-1.1-8.5-1.8c-2.2-0.7-4.2-1.9-5.8-3.6
							c-1.6-1.7-2.5-4.2-2.5-7.3c0-2.6,0.8-5,2.3-7.1c1.5-2.1,3.8-3.6,6.7-4.8c2.9-1.1,6.4-1.7,10.4-1.7c3,0,5.9,0.3,8.8,1
							c2.9,0.7,5.4,1.5,7.3,2.7l-4.1,8.7c-3.7-2.1-7.7-3.1-12.1-3.1c-2.6,0-4.5,0.4-5.8,1.1c-1.3,0.7-1.9,1.7-1.9,2.8
							c0,1.3,0.7,2.2,2.1,2.7c1.4,0.5,3.6,1,6.7,1.5c3.4,0.6,6.2,1.2,8.4,1.8c2.2,0.7,4.1,1.8,5.7,3.5c1.6,1.7,2.4,4.1,2.4,7.2
							c0,2.6-0.8,4.9-2.3,6.9c-1.6,2-3.8,3.6-6.8,4.7c-3,1.1-6.5,1.7-10.6,1.7C289.5,308.2,286.1,307.8,282.8,306.9z"/>
						<path fill="#A40032" d="M164.9,272.6c-0.3-0.7-0.7-0.8-1.3-0.8c-7,0-13.9,0-20.9,0h0c-7,0-13.9,0-20.9,0c-0.7,0-1,0.1-1.3,0.8
							c-2,5.4-2.3,11-1.2,16.6c1.1,5.8,3.9,10.6,8.7,14.2c3.2,2.4,6.8,3.8,10.8,4.4c1.3,0.2,2.7,0.3,4,0.4h0c1.3,0,2.7-0.1,4-0.4
							c4-0.6,7.6-2,10.8-4.4c4.8-3.6,7.5-8.4,8.7-14.2C167.2,283.6,166.9,278,164.9,272.6z M162.8,288c-1,5.2-3.3,9.5-7.4,12.7
							c-1.3,1-2.7,1.7-4,2.5c-0.1-0.1-0.1-0.2-0.2-0.3c1-0.6,2-1.2,2.9-2c3.7-2.9,6-6.7,6.9-11.3c1-4.8,0.7-9.6-1-14.2
							c-0.5-1.4,0.8-0.9,1.2-1.2c0.5-0.4,0.7,0,0.9,0.6C163.4,279.2,163.6,283.5,162.8,288z"/>
						<path fill="#A40032" d="M151.1,257.5c-2.3,0-4.5,0-6.6,0c-6.7-0.1-13.4-0.3-20.1-0.5c-1.4,0-2.5-0.5-3.5-1.5
							c-6.2-6.3-12.7-12.2-19.9-17.3c-5.2-3.7-10.6-7-16.5-9.3c-3.3-1.3-6.6-2.2-10.2-2.4c-0.7,0-1,0.2-1,0.9
							c0.1,1.5,0.1,2.9,0.1,4.4c0,0.8,0.5,1.3,1.3,1.5c5.1,1.1,10.1,2.7,14.9,4.7c5.5,2.3,10.7,5.3,15.5,8.9
							c4.1,3.1,7.9,6.7,11.5,10.4c3.2,3.3,6.8,6,11.3,7.6c3.4,1.2,6.9,1.5,10.5,1.1c5.3-0.6,9.1-3.6,12.4-7.5
							C150.9,258.3,150.9,258.1,151.1,257.5z"/>
						<g>
							<path fill="#A40032" d="M39.9,229.5h-2c-0.4,0-0.7-0.3-0.7-0.7v-1.6c0-0.4,0.3-0.7,0.7-0.7h9c0.4,0,0.7,0.3,0.7,0.7v1.6
								c0,0.4-0.3,0.7-0.7,0.7h-2c-0.4,0-0.7,0.3-0.7,0.7v7c0,0.4-0.3,0.7-0.7,0.7h-2.5c-0.4,0-0.7-0.3-0.7-0.7v-7
								C40.6,229.7,40.3,229.5,39.9,229.5z"/>
							<path fill="#A40032" d="M59.6,227.2v9.9c0,0.4-0.3,0.7-0.7,0.7h-2.5c-0.4,0-0.7-0.3-0.7-0.7v-2.8c0-0.4-0.3-0.7-0.7-0.7H53
								c-0.4,0-0.7,0.3-0.7,0.7v2.8c0,0.4-0.3,0.7-0.7,0.7h-2.5c-0.4,0-0.7-0.3-0.7-0.7v-9.9c0-0.4,0.3-0.7,0.7-0.7h2.5
								c0.4,0,0.7,0.3,0.7,0.7v2.7c0,0.4,0.3,0.7,0.7,0.7h2.2c0.4,0,0.7-0.3,0.7-0.7v-2.7c0-0.4,0.3-0.7,0.7-0.7H59
								C59.3,226.5,59.6,226.8,59.6,227.2z"/>
							<path fill="#A40032" d="M70.7,235.5v1.5c0,0.4-0.3,0.7-0.7,0.7h-8c-0.4,0-0.7-0.3-0.7-0.7v-9.9c0-0.4,0.3-0.7,0.7-0.7h7.8
								c0.4,0,0.7,0.3,0.7,0.7v1.5c0,0.4-0.3,0.7-0.7,0.7h-4.1c-0.4,0-0.7,0.3-0.7,0.7l0,0c0,0.4,0.3,0.7,0.7,0.7h3.4
								c0.4,0,0.7,0.3,0.7,0.7v1.4c0,0.4-0.3,0.7-0.7,0.7h-3.4c-0.4,0-0.7,0.3-0.7,0.7v0.2c0,0.4,0.3,0.7,0.7,0.7h4.3
								C70.4,234.9,70.7,235.2,70.7,235.5z"/>
						</g>
					</g>
				</g>
			</g>
		</g>
		<g>
			<path fill="#A40032" d="M74.8,100c-0.1-10.4,2.8-19.5,11.3-26c3.4-2.7,7.5-4,11.5-5.4c5.8-1.9,11.6-3.8,17.4-5.5
				c8.1-2.5,16.2-4.7,24.4-6.8c5.9-1.5,11.8-3,17.8-4.3c8.7-2,17.4-3.8,26.2-5.3c6.5-1.1,12.9-2.3,19.4-3.4c4.9-0.8,9.8-1.6,14.8-2
				c11.7-0.8,20.4,4.2,26.4,14.1c3.8,6.3,5.8,13.5,8.3,20.4c2,5.6,3.8,11.3,5.5,16.9c2.6,8.5,4.8,17,6.8,25.6c1.6,7,3.1,14,4.4,21
				c1.3,7,2.4,14,3.3,21.1c1,7.5,1.9,15.1,2.7,22.6c1.3,11.3-5.5,23.5-16,28.4c-9.4,4.4-19.3,7.8-29.1,11.1
				c-7.5,2.5-15,4.8-22.7,6.8c-7.7,2-15.5,3.9-23.3,5.3c-5.7,1-11.3,2.2-17,3.1c-7.6,1.1-15.1,2.2-22.8,2.9
				c-2.8,0.2-5.6,0.5-8.4,0.8c-14.5,1.8-27.6-5.4-32.7-19.8c-3-8.5-6.3-16.9-9.1-25.5c-3.4-10.2-6.3-20.6-9-31
				c-2.2-8.5-4-17.1-5.6-25.7c-1.4-7.7-2.4-15.4-3.3-23.1C75.4,110.8,75.3,105.4,74.8,100z"/>
			<g>
				<path fill="#FFFFFF" d="M264.6,102.5c0,0,8.7-0.8,8.1-10.4c-0.3-4.3-2.3-8.3-5.5-11.3c-4-3.7-8.5-6.7-13.5-8.8
					c-2.6-1.1-4.8-2.1-7.6-2.8c-3.3-0.7-6.6-1.4-9.9-1.9c-13.2-2.2-26.6-3.1-40-2.6c-23.6,0.8-48.7,4.6-67.6,20
					c-4.4,3.6-8.3,7.8-11.6,12.5c-3.2,4.7-5.7,9.9-6.7,15.5c-2.5,13.8,5.6,26.4,18.1,31.7c7.8,3.3,16.6,4.1,25,4
					c-0.3,0-1.4,4.7-1.5,5c-1.2,4.3-2.3,8.6-3.4,12.9c-2.5,10.6-5.2,21.9-5,32.9c0,0.1,0,0.2,0,0.3c0.1,4.8,0.9,9.8,3.4,13.9
					c2.9,4.7,7.2,6.2,12.3,7.3c3.6,0.7,8,0.3,11.2-1.5c0,0-11-8.1-3.6-36.5c7.4-28.4,10.6-36.9,10.6-36.9s27.2-6.3,33.5,7
					c0,0,7.2-15.8,1.4-21.8c-5.9-6.1-20.3-7.4-42.6-0.2c-8.6,2.8-18.5,4-27.4,1.7c-3.6-0.9-6.8-2.5-9.5-5c-3.2-2.9-3.1-8.8-2.2-12.8
					c0.3-1.4,0.7-2.7,1.3-3.9c2.3-5.2,6.6-9.4,11.4-12.5c5.7-3.7,12-6.3,18.5-8.4c1.3-0.4,16.2-4,16.2-4.6c0,1.1-0.8,2.5-1.2,3.6
					c-0.8,2.1-1.7,4.1-2.5,6.2c-2.2,5.5-4.4,10.9-6.5,16.4c-2.3,5.8-4.6,11.5-6.9,17.3l24.8-5.2L202,85.1
					C202,85.1,258.5,84,264.6,102.5z"/>
				<path fill="#BABCBE" d="M188.4,116.9l-2.9,6.7l-24.8,5.2c1-2.4,1.9-4.8,2.9-7.2L188.4,116.9z"/>
			</g>
		</g>
	</g>
</g>
</svg>
