<?xml version="1.0" encoding="utf-8"?>
<!-- Generator: Adobe Illustrator 18.0.0, SVG Export Plug-In . SVG Version: 6.00 Build 0)  -->
<!DOCTYPE svg PUBLIC "-//W3C//DTD SVG 1.1//EN" "http://www.w3.org/Graphics/SVG/1.1/DTD/svg11.dtd">
<svg version="1.1" id="Layer_1" xmlns="http://www.w3.org/2000/svg" xmlns:xlink="http://www.w3.org/1999/xlink" x="0px" y="0px"
	 viewBox="0 0 73 53" enable-background="new 0 0 73 53" xml:space="preserve">
<g>
	<path fill="#004B82" d="M69.9,29.5H3.1c-1.7,0-3-1.4-3-3c0-1.7,1.4-3,3-3h66.8c1.7,0,3,1.4,3,3C72.9,28.2,71.6,29.5,69.9,29.5z"/>
	<path fill="#004B82" d="M69.9,6.3H3.1c-1.7,0-3-1.4-3-3s1.4-3,3-3h66.8c1.7,0,3,1.4,3,3S71.6,6.3,69.9,6.3z"/>
	<path fill="#004B82" d="M69.9,52.8H3.1c-1.7,0-3-1.4-3-3s1.4-3,3-3h66.8c1.7,0,3,1.4,3,3S71.6,52.8,69.9,52.8z"/>
</g>
</svg>
