<?xml version="1.0" encoding="utf-8"?>
<!-- Generator: Adobe Illustrator 18.0.0, SVG Export Plug-In . SVG Version: 6.00 Build 0)  -->
<!DOCTYPE svg PUBLIC "-//W3C//DTD SVG 1.1//EN" "http://www.w3.org/Graphics/SVG/1.1/DTD/svg11.dtd">
<svg version="1.1" id="Layer_1" xmlns="http://www.w3.org/2000/svg" xmlns:xlink="http://www.w3.org/1999/xlink" x="0px" y="0px"
	 viewBox="0 0 900 470" enable-background="new 0 0 900 470" xml:space="preserve">
<g>
	<g>
		<path fill="#599DAD" d="M764.9,144.9c0,0-12.7-24,6.4-33.2c0,0,13.5-4.5,23-1.8c0,0-18.8,19.9-14.9,23.1
			c3.9,3.3,19.4-23.7,19.4-23.7s27.5,3.5,35.3,9.6c0,0-27.3,13.7-22.7,15.9c4.6,2.2,33.7-10.7,33.7-10.7s24.1,9.9,19.3,24.9
			c-4.8,15-14.5,17.8-18.2,16.5s-24-14.7-25.2-11.7c-1.2,3,9.9,16.2,19.2,18.8c0,0-22.1,15.5-32.6,7.3c-10.5-8.3-9.5-17.4-16.1-22.4
			c-6.6-5-12.8-6.4-10.6-2.3c2.3,4.1,14.8,10.4,17.3,18.8c2.5,8.4,5.2,14.2-6.6,9.6c-11.7-4.6-29.5-17.9-28.1-28.3
			C764.9,144.9,764.9,144.9,764.9,144.9z"/>
		<g>
			<path fill="#599DAD" d="M851.9,146.8c0,0-67.5-18-87-1.9c0,0-5.6,9.2-17.9,16l-2.6,4c0,0,14.6-9.8,19-9.6
				C763.5,155.3,762.3,129.7,851.9,146.8z"/>
			<path fill="#599DAD" d="M747.1,160.9c0,0-17.1,7.5-22.4,26.6l2.6,0.8c0,0,9.2-18.9,19.4-24.8
				C756.8,157.6,747.1,160.9,747.1,160.9z"/>
		</g>
	</g>
	<g>
		<path fill="#86D1CD" d="M681,101.5c0,0-37.7-19.7-21.3-48.4c0,0,13.3-17.7,28.1-22.6c0,0-6.7,42.3,1.3,43.1c8,0.8,4-47.7,4-47.7
			s38.5-20,53.9-18.9c0,0-23,41.8-15.1,40.6c7.9-1.2,33.9-43.6,33.9-43.6s39.9-8.6,47,15c7.1,23.6-2.9,35.8-8.8,37.4
			c-5.9,1.7-44,2.3-42.9,7.2c1.1,4.9,27.1,12.1,41.3,7.2c0,0-14.7,39.6-35.5,38.2c-20.8-1.4-27.7-14-40.6-14.6
			c-12.9-0.6-22.2,3.1-15.7,6.4s28.3,0.3,38.9,8.8c10.7,8.5,19.2,13.7,0,18.3c-19.2,4.5-53.9,3.1-61.3-11.6
			C681,101.5,681,101.5,681,101.5z"/>
		<g>
			<path fill="#6BB7BF" d="M794.7,26.8c0,0-103,36.8-113.7,74.7c0,0,1,16.8-8.8,36.4l0.2,7.4c0,0,10.1-25.6,16-29.2
				C688.4,116.2,664.1,84.2,794.7,26.8z"/>
			<path fill="#6BB7BF" d="M672.2,138c0,0-15.3,24.8-5.3,54.2l4.1-1.2c0,0-5-32.5,2.9-49.2C681.8,125.1,672.2,138,672.2,138z"/>
		</g>
	</g>
	<path fill="#FCECDB" d="M119.7,465.7c0,0-64.6,15.3-96.4-54.1c-41.2-90,16.6-175.5,116.5-181.7c144-8.9,64.2-238.8,291.5-176.4
		c63.9,17.5,202.9-73,284.7,80.4c13.9,26.1,55.5,24.8,110.9,69.3c97.7,78.5,62.6,263.3-19.8,264.1
		C724.7,468.2,119.7,465.7,119.7,465.7z"/>
	<path fill="#1C468A" d="M898.7,467.7H1.3c-0.5,0-0.9-0.4-0.9-0.9v-0.2c0-0.5,0.4-0.9,0.9-0.9h897.4c0.5,0,0.9,0.4,0.9,0.9v0.2
		C899.6,467.3,899.2,467.7,898.7,467.7z"/>
	<g>
		<g>
			<g>
				<g>
					<g>
						<g>
							<rect x="513.7" y="304.3" fill="#E1E1E1" width="44" height="5.9"/>
						</g>
					</g>
				</g>
				<g>
					<g>
						<g>
							<g>
								<ellipse fill="#FAFAFA" cx="519.7" cy="307.3" rx="0.3" ry="2.8"/>
							</g>
						</g>
					</g>
				</g>
				<g>
					<g>
						<g>
							<g>
								<ellipse fill="#FAFAFA" cx="518.8" cy="307.2" rx="0.3" ry="2.8"/>
							</g>
						</g>
					</g>
				</g>
				<g>
					<g>
						<g>
							<g>
								<ellipse fill="#FAFAFA" cx="554.3" cy="307.3" rx="0.3" ry="2.8"/>
							</g>
						</g>
					</g>
				</g>
				<g>
					<g>
						<g>
							<g>
								<ellipse fill="#FAFAFA" cx="553.4" cy="307.2" rx="0.3" ry="2.8"/>
							</g>
						</g>
					</g>
				</g>
				<g>
					<g>
						<g>
							<g>
								<ellipse fill="#FAFAFA" cx="536.4" cy="307.5" rx="11.3" ry="0.3"/>
							</g>
						</g>
					</g>
				</g>
			</g>
			<g>
				<g>
					<g>
						<g>
							<rect x="513.5" y="330.8" fill="#E1E1E1" width="44" height="11.8"/>
						</g>
					</g>
				</g>
				<g>
					<g>
						<g>
							<g>
								<path fill="#FAFAFA" d="M558.1,339.3c0,0-0.1,0.1-0.2,0.1c-0.2,0.1-0.4,0.2-0.7,0.3c-0.7,0.3-1.6,0.6-3,0.9
									c-1.3,0.2-3.1,0.2-4.8-0.7c-0.9-0.5-1.7-1.2-2.3-2.1c-0.6-0.9-1-2.1-0.8-3.4c0.1-0.6,0.4-1.2,0.8-1.8
									c0.4-0.5,1.1-0.9,1.9-0.8c0.7,0,1.4,0.5,1.9,1c0.5,0.6,0.8,1.3,0.9,2c0.2,1.5-0.5,3-1.5,4.2c-1,1.2-2.6,1.9-4.2,2.1
									c-1.6,0.2-3.3-0.1-4.9-0.6c-1.6-0.6-3.2-1.4-4.3-2.9c-0.5-0.7-0.9-1.6-1-2.5c-0.1-0.9,0.2-1.9,0.9-2.6
									c0.4-0.3,0.9-0.6,1.4-0.6c0.5,0,1,0.1,1.4,0.4c0.8,0.5,1.4,1.4,1.6,2.4c0.4,1.9-0.3,3.9-1.7,5.2c-1.4,1.3-3.2,1.8-5,2
									c-1.8,0.2-3.5,0-5.1-0.5c-1.6-0.5-3.1-1.6-3.9-3c-0.9-1.4-1.1-3.2-0.5-4.7c0.3-0.7,1-1.4,1.8-1.5c0.8-0.1,1.6,0.1,2.2,0.5
									c1.2,1,1.4,2.7,1,4c-0.4,1.3-1.3,2.3-2.2,3.1c-1.9,1.6-4.1,2.3-6,2.3c-1.9,0.1-3.6-0.5-4.8-1.1c-1.2-0.6-2-1.3-2.5-1.8
									c-0.2-0.3-0.4-0.5-0.5-0.6c-0.1-0.1-0.2-0.2-0.2-0.2c0.1-0.1,0.9,1.3,3.3,2.5c1.2,0.6,2.8,1.1,4.7,1c1.9-0.1,4-0.8,5.8-2.3
									c0.9-0.8,1.7-1.7,2.1-2.9c0.4-1.2,0.1-2.7-0.9-3.5c-0.5-0.4-1.2-0.6-1.8-0.4c-0.7,0.1-1.2,0.6-1.4,1.2
									c-0.6,1.3-0.3,2.9,0.5,4.2c0.8,1.3,2.1,2.3,3.6,2.8c1.5,0.5,3.2,0.6,4.9,0.5c1.7-0.2,3.4-0.7,4.6-1.9c1.3-1.1,1.9-3,1.6-4.6
									c-0.2-0.8-0.7-1.6-1.4-2c-0.7-0.5-1.6-0.4-2.1,0.1c-0.6,0.5-0.8,1.4-0.8,2.2c0,0.8,0.4,1.6,0.9,2.2c1,1.3,2.5,2.2,4,2.7
									c1.5,0.5,3.1,0.8,4.7,0.6c1.5-0.2,3-0.8,3.9-1.9c1-1,1.6-2.5,1.4-3.8c-0.1-1.3-1.1-2.6-2.3-2.6c-0.6,0-1.1,0.2-1.5,0.7
									c-0.4,0.4-0.6,1-0.7,1.5c-0.2,1.1,0.1,2.3,0.7,3.1c0.6,0.9,1.3,1.6,2.2,2c1.6,0.9,3.4,0.9,4.7,0.7c1.3-0.2,2.3-0.5,3-0.7
									C557.8,339.4,558.1,339.2,558.1,339.3z"/>
							</g>
						</g>
					</g>
				</g>
			</g>
			<g>
				<g>
					<g>
						<g>
							<rect x="517.5" y="310.4" fill="#ECECEC" width="40.1" height="20.4"/>
						</g>
					</g>
				</g>
				<g>
					<g>
						<g>
							<g>
								<ellipse fill="#E1E1E1" cx="524.1" cy="321" rx="0.3" ry="9.9"/>
							</g>
						</g>
					</g>
				</g>
				<g>
					<g>
						<g>
							<g>
								<ellipse fill="#E1E1E1" cx="527.2" cy="320.6" rx="0.3" ry="9.7"/>
							</g>
						</g>
					</g>
				</g>
				<g>
					<g>
						<g>
							<g>
								<ellipse fill="#E1E1E1" cx="553" cy="320.4" rx="0.3" ry="10.3"/>
							</g>
						</g>
					</g>
				</g>
				<g>
					<g>
						<g>
							<g>
								<ellipse fill="#E1E1E1" cx="549.4" cy="320.5" rx="0.3" ry="10"/>
							</g>
						</g>
					</g>
				</g>
			</g>
		</g>
		<rect x="278.9" y="78.2" fill="#E1E1E1" width="270.1" height="179.2"/>
		<g>
			<g>
				<g>
					<path fill="#F5F5F5" d="M282.1,460c-1.2-1-3.8-4.2-1.8-7.9c0.7-1.4,2.3-2,3.7-2.6c1.4-0.6,2.9-1.1,4.1-2.1
						c2.2-1.9,2.8-5,4.3-7.6c1.7-2.9,4.9-5.1,8.2-4.9c3.8,0.2,7,3.3,8.5,6.9c1.4,3.6,1.5,7.5,1.5,11.4c0,2.1-0.1,4.5-1.6,6
						c-1.4,1.3-3.6,1.3-5.6,1.3c-7-0.2-14-0.4-20.9-0.6"/>
				</g>
			</g>
			<g>
				<g>
					<g>
						<path fill="#E1E1E1" d="M322.2,402.5h-55l9.9,59.1c0.4,2.6,2.3,4.6,4.7,5.3c0.1,0,0.1,0,0.2,0.1c0.2,0,0.3,0.1,0.5,0.1
							c0.4,0.1,0.7,0.1,1.1,0.1c0,0,0,0,0,0.1l0.3,0c0,0,0,0,0,0h24.5c0.5,0,0.9,0,1.3-0.1c2.9-0.4,5.2-2.8,5.6-5.8l4.8-40.7
							l0.2-1.6h0l1.9-16.1L322.2,402.5z M311.8,440.2h-5.6l0.6-17.2h6.5L311.8,440.2z M313.8,423h5.4l-2,17.2h-4.9L313.8,423z
							 M297.6,459.2l-0.3-14.9h8.1l-0.5,14.9H297.6z M288.9,444.3h7.9l0.3,14.9H290L288.9,444.3z M289.5,459.2h-6.6
							c-0.6-4-1.4-9.3-2.3-14.9h7.8L289.5,459.2z M288.5,440.2l-1.3-17.2h9.1l0.4,17.2H288.5z M297.2,440.2l-0.4-17.2h9.3l-0.6,17.2
							H297.2z M296.7,418.9l-0.4-15.9h10.5l-0.5,15.9H296.7z M296.2,418.9h-9.3l-1.2-15.9h10.2L296.2,418.9z M286.3,418.9h-9.8
							c-0.3-2.2-0.7-4.3-1-6.1c-1-6.4-1.4-8.8-1.6-9.7h11.2L286.3,418.9z M286.7,423l1.3,17.2h-8.1c-0.3-1.7-0.6-3.5-0.8-5.3
							c-0.6-4-1.3-8.1-1.9-11.9H286.7z M279.3,440.2H274l-2.9-17.2h5.5C277.4,428.3,278.4,434.2,279.3,440.2z M280,444.3
							c0.8,5.2,1.6,10.2,2.3,14.9h-5.1l-2.5-14.9H280z M305.5,459.2l0.5-14.9h5.4l-1.3,14.9H305.5z M306.8,418.9l0.5-15.9h7.6
							l-1.4,15.9H306.8z M273.4,403c0.2,1.1,1.2,7.4,2.6,15.9h-5.5l-2.7-15.9H273.4z M314.9,459.2h-4.3l1.3-14.9h4.7L314.9,459.2z
							 M319.7,418.9h-5.5l1.4-15.9h6L319.7,418.9z"/>
					</g>
				</g>
			</g>
		</g>
		<g>
			<rect x="708.6" y="106.1" fill="#E1E1E1" width="11.9" height="47.3"/>
			<rect x="726" y="116.4" fill="#E1E1E1" width="11.9" height="37"/>
			<rect x="743.7" y="124.9" fill="#E1E1E1" width="11.9" height="28.6"/>
			<rect x="760.1" y="136.5" fill="#E1E1E1" width="11.9" height="17"/>
		</g>
		<g>
			<g>
				<path fill="#F5F5F5" d="M752.9,212.3c-16.4-15.3-42.3-14.4-57.7,2c-15.4,16.3-14.5,42,2,57.3s42.3,14.4,57.7-2
					C770.2,253.3,769.3,227.6,752.9,212.3z M739.3,255.2c-7.3,7.8-19.7,8.2-27.6,0.9c-7.9-7.3-8.3-19.6-0.9-27.4
					c7.3-7.8,19.7-8.2,27.6-0.9C746.2,235.1,746.6,247.4,739.3,255.2z"/>
				<g>
					<path fill="#ECECEC" d="M695.2,214.3c15.4-16.3,41.2-17.2,57.7-2l-14.5,15.5c-7.9-7.3-20.2-6.9-27.6,0.9
						c-7.3,7.8-6.9,20.1,0.9,27.4l-14.5,15.5C680.7,256.3,679.9,230.6,695.2,214.3z"/>
				</g>
				<g>
					<path fill="#FAFAFA" d="M751.2,205.7c20.1,18.7,22.5,49.1,3.7,69.1l-20.4-17.7c9-9.6,10.9-22.3,1.3-31.3L751.2,205.7z"/>
				</g>
			</g>
		</g>
		<g>
			<g>
				<g>
					<g>
						<polygon fill="#F5F5F5" points="667.8,303.4 665.7,467.7 760.2,467.7 760.2,305.6 						"/>
					</g>
					<g>
						<polygon fill="#E1E1E1" points="718.8,304.6 717.9,467.7 760.2,467.7 760.2,305.6 						"/>
					</g>
					<g>
						<g>
							<polygon fill="#E1E1E1" points="670.8,306.3 670.8,339.9 715.6,339.9 715.6,307.9 							"/>
						</g>
						<g>
							<g>
								<polygon fill="#F5F5F5" points="686.2,315.6 686.2,320.5 699.9,320.5 699.9,315.1 								"/>
							</g>
							<g>
								<rect x="686.2" y="324.7" fill="#F5F5F5" width="14.1" height="2"/>
							</g>
						</g>
					</g>
					<g>
						<g>
							<polygon fill="#E1E1E1" points="670.8,424.1 670.8,457.7 715.6,457.7 715.6,425.7 							"/>
						</g>
						<g>
							<g>
								<polygon fill="#F5F5F5" points="686.2,433.3 686.2,438.3 699.9,438.3 699.9,432.9 								"/>
							</g>
							<g>
								<rect x="686.2" y="442.5" fill="#F5F5F5" width="14.1" height="2"/>
							</g>
						</g>
					</g>
					<g>
						<g>
							<polygon fill="#E1E1E1" points="670.8,344.2 670.8,377.8 715.6,377.8 715.6,345.8 							"/>
						</g>
						<g>
							<g>
								<polygon fill="#F5F5F5" points="686.2,353.4 686.2,358.4 699.9,358.4 699.9,353 								"/>
							</g>
							<g>
								<rect x="686.2" y="362.6" fill="#F5F5F5" width="14.1" height="2"/>
							</g>
						</g>
					</g>
				</g>
				<g>
					<g>
						<g>
							<rect x="670.2" y="384.4" fill="#E1E1E1" width="44.8" height="33.6"/>
						</g>
						<g>
							<polygon fill="#F5F5F5" points="686,399.6 686,404.2 698.8,404.2 698.8,399.2 							"/>
						</g>
						<g>
							<rect x="686" y="408.2" fill="#F5F5F5" width="13.3" height="1.9"/>
						</g>
					</g>
				</g>
			</g>
		</g>
		<g>
			<g>
				<g>
					<path fill="#1A2E35" d="M763.8,466.2c0,0.2-155,0.3-346.1,0.3c-191.2,0-346.1-0.1-346.1-0.3c0-0.2,154.9-0.3,346.1-0.3
						C608.8,466,763.8,466.1,763.8,466.2z"/>
				</g>
			</g>
		</g>
		<g>
			<g>
				<g>
					<g>
						<rect x="262.7" y="82.7" fill="#FAFAFA" width="279.7" height="183.5"/>
					</g>
				</g>
				<g>
					<g>
						<g>
							<path fill="#1A2E35" d="M542.5,266.2c0-1.8-0.1-71.6-0.2-183.5l0.2,0.2c-76.8,0-174.1,0-279.7,0.1h0l0.3-0.3
								c0,65.2,0,127.3,0,183.5l-0.3-0.3C427.3,266.1,540.2,266.2,542.5,266.2c-2.2,0-115.1,0.1-279.7,0.3l-0.3,0v-0.3
								c0-56.1,0-118.2,0-183.5v-0.3h0.3h0c105.6,0,202.9,0,279.7,0.1h0.2l0,0.2C542.5,194.6,542.5,264.4,542.5,266.2z"/>
						</g>
					</g>
				</g>
			</g>
			<g>
				<g>
					<g>
						<g>
							<path fill="#375A64" d="M348.2,184l27.5,0.4c-0.2,14.7-12.6,26.6-27.5,26.6c-0.1,0-0.1,0-0.2,0L348.2,184z"/>
						</g>
					</g>
					<g>
						<g>
							<g>
								<path fill="#1A2E35" d="M393.7,221.3c0,0-0.2,0-0.6,0c-0.4,0-1,0-1.7,0c-1.5,0-3.6,0-6.1,0.1l-0.1,0l0-0.1
									c-2.5-3.1-5.6-7.1-9.1-11.4c-2.7-3.4-5.2-6.6-7.3-9.3l0.1,0.1c-3.3,0-6.1-0.1-8.1-0.1c-0.9,0-1.7,0-2.3,0
									c-0.5,0-0.8,0-0.8-0.1s0.3,0,0.8-0.1c0.6,0,1.3,0,2.3,0c2,0,4.8,0,8.1-0.1l0.1,0l0.1,0.1c2.1,2.7,4.7,5.9,7.4,9.3
									c3.4,4.4,6.6,8.4,9,11.5l-0.1-0.1c2.5,0,4.6,0.1,6.1,0.1c0.7,0,1.2,0,1.7,0C393.5,221.2,393.7,221.2,393.7,221.3z"/>
							</g>
						</g>
					</g>
					<g>
						<g>
							<g>
								<ellipse fill="#1A2E35" cx="394.7" cy="224.4" rx="8.9" ry="0.2"/>
							</g>
						</g>
					</g>
					<g>
						<g>
							<g>
								<ellipse fill="#1A2E35" cx="394.7" cy="227.7" rx="8.9" ry="0.2"/>
							</g>
						</g>
					</g>
				</g>
				<g>
					<g>
						<g>
							<path fill="#3C7AA5" d="M343.9,180.1l-0.4,27c-14.9-0.2-27.1-12.3-27.1-27c0-14.8,12.4-27,27.5-27c15.1,0,27.5,12.2,27.5,27
								H343.9z"/>
						</g>
					</g>
					<g>
						<g>
							<g>
								<path fill="#1A2E35" d="M333.1,171.3c0,0-0.2,0.1-0.5,0.1c-0.4,0.1-0.8,0.1-1.4,0.2c-1.3,0.2-2.9,0.4-4.9,0.7l-0.1,0
									l-0.1-0.1c-1.9-1.8-4.1-4-6.6-6.4c-3.2-3.1-6-5.9-8.1-8c-1-1-1.8-1.8-2.4-2.5c-0.6-0.6-0.9-0.9-0.8-0.9c0,0,0.4,0.3,1,0.8
									c0.6,0.6,1.5,1.4,2.5,2.4c2.1,2,5,4.8,8.2,7.9c2.4,2.4,4.7,4.6,6.5,6.5l-0.1,0c2-0.2,3.7-0.4,5-0.5c0.5,0,1-0.1,1.4-0.1
									C333,171.3,333.1,171.2,333.1,171.3z"/>
							</g>
						</g>
					</g>
					<g>
						<g>
							<g>
								<ellipse fill="#1A2E35" cx="292.4" cy="153.2" rx="8.9" ry="0.2"/>
							</g>
						</g>
					</g>
					<g>
						<g>
							<g>
								<ellipse fill="#1A2E35" cx="292.4" cy="156.5" rx="8.9" ry="0.2"/>
							</g>
						</g>
					</g>
				</g>
			</g>
			<g>
				<g>
					<g>
						<g>
							<g>
								<path fill="#3C7AA5" d="M440.1,126.8L440,110c-4.9,0-10,2-13.8,5.4c-4.5,4-7.5,10.1-6.7,17.4c0.1,0.8,0.2,1.6,0.4,2.4
									c0,0,0,0,0,0.1l0,0l20.2-4.5V126.8z"/>
							</g>
						</g>
						<g opacity="0.3">
							<g>
								<path fill="#FFFFFF" d="M440.1,126.8L440,110c-4.9,0-10,2-13.8,5.4c-4.5,4-7.5,10.1-6.7,17.4c0.1,0.8,0.2,1.6,0.4,2.4
									c0,0,0,0,0,0.1l0,0l20.2-4.5V126.8z"/>
							</g>
						</g>
						<g>
							<g>
								<path fill="#3C7AA5" d="M461,121.6c-2.8-5.9-8.4-10.6-16.3-11.4c-0.2,0-0.4,0-0.6-0.1c-0.1,0-0.3,0-0.4,0
									c-0.4,0-0.8,0-1.2,0c0,0,0,0-0.1,0c0,0,0,0,0,0c0,0,0,0-0.1,0v0v0l0.1,16.8l0,3.9l20.2,4.4l0,0v0c0.3-1.4,0.5-2.9,0.4-4.3
									C463.1,127.7,462.3,124.5,461,121.6z"/>
							</g>
						</g>
						<g opacity="0.3">
							<g>
								<path d="M461,121.6c-2.8-5.9-8.4-10.6-16.3-11.4c-0.2,0-0.4,0-0.6-0.1c-0.1,0-0.3,0-0.4,0c-0.4,0-0.8,0-1.2,0c0,0,0,0-0.1,0
									c0,0,0,0,0,0c0,0,0,0-0.1,0v0v0l0.1,16.8l0,3.9l20.2,4.4l0,0v0c0.3-1.4,0.5-2.9,0.4-4.3C463.1,127.7,462.3,124.5,461,121.6z
									"/>
							</g>
						</g>
					</g>
					<g>
						<g>
							<path fill="#3C7AA5" d="M441.2,132.8l-20.2,4.5c2.1,9.3,10.3,16.2,20.2,16.2c9.9,0,18.2-7,20.2-16.3L441.2,132.8"/>
						</g>
					</g>
				</g>
				<g>
					<g>
						<g>
							<ellipse fill="#1A2E35" cx="496.5" cy="129.8" rx="23.3" ry="0.3"/>
						</g>
					</g>
				</g>
				<g>
					<g>
						<g>
							<ellipse fill="#1A2E35" cx="496.5" cy="124.5" rx="23.3" ry="0.3"/>
						</g>
					</g>
				</g>
				<g>
					<g>
						<g>
							<ellipse fill="#1A2E35" cx="496.5" cy="119.1" rx="23.3" ry="0.3"/>
						</g>
					</g>
				</g>
				<g>
					<g>
						<g>
							<ellipse fill="#1A2E35" cx="496.5" cy="134.7" rx="23.3" ry="0.3"/>
						</g>
					</g>
				</g>
				<g>
					<g>
						<g>
							<ellipse fill="#1A2E35" cx="489.4" cy="140.1" rx="16" ry="0.3"/>
						</g>
					</g>
				</g>
			</g>
			<g>
				<g>
					<g>
						<g>
							<rect x="424.3" y="178.6" fill="#3C7AA5" width="4.8" height="53.7"/>
						</g>
					</g>
				</g>
				<g>
					<g>
						<g>
							<rect x="433.5" y="196.9" fill="#3C7AA5" width="4.8" height="35.5"/>
						</g>
					</g>
				</g>
				<g>
					<g>
						<g>
							<rect x="442.8" y="185.3" fill="#3C7AA5" width="4.8" height="47.3"/>
						</g>
					</g>
				</g>
				<g>
					<g>
						<g>
							<rect x="452.1" y="180.7" fill="#3C7AA5" width="4.8" height="51.6"/>
						</g>
					</g>
				</g>
				<g>
					<g>
						<g>
							<rect x="461.4" y="198" fill="#3C7AA5" width="4.8" height="34.4"/>
						</g>
					</g>
				</g>
				<g>
					<g>
						<g>
							<rect x="470.7" y="204.7" fill="#3C7AA5" width="4.8" height="27.6"/>
						</g>
					</g>
				</g>
				<g>
					<g>
						<g>
							<rect x="479.9" y="184.1" fill="#3C7AA5" width="4.8" height="48.2"/>
						</g>
					</g>
				</g>
				<g>
					<g>
						<g>
							<rect x="489.2" y="192.8" fill="#3C7AA5" width="4.8" height="39.5"/>
						</g>
					</g>
				</g>
				<g>
					<g>
						<g>
							<rect x="498.5" y="185.9" fill="#3C7AA5" width="4.8" height="46.4"/>
						</g>
					</g>
				</g>
				<g>
					<g>
						<g>
							<rect x="507.8" y="200.7" fill="#3C7AA5" width="4.8" height="31.6"/>
						</g>
					</g>
				</g>
				<g>
					<g>
						<g>
							<rect x="517.1" y="194.7" fill="#3C7AA5" width="4.8" height="37.7"/>
						</g>
					</g>
				</g>
				<g>
					<g>
						<g>
							<g>
								<path fill="#1A2E35" d="M523.8,236.1c0,0.1-22.8,0.2-50.9,0.2c-28.1,0-50.9-0.1-50.9-0.2c0-0.1,22.8-0.2,50.9-0.2
									C501,235.9,523.8,236,523.8,236.1z"/>
							</g>
						</g>
					</g>
				</g>
				<g>
					<g>
						<g>
							<g>
								<ellipse fill="#1A2E35" cx="427.5" cy="240.3" rx="3.6" ry="0.2"/>
							</g>
						</g>
					</g>
				</g>
				<g>
					<g>
						<g>
							<g>
								<ellipse fill="#1A2E35" cx="438.7" cy="240.5" rx="4.3" ry="0.2"/>
							</g>
						</g>
					</g>
				</g>
				<g>
					<g>
						<g>
							<g>
								<ellipse fill="#1A2E35" cx="448.8" cy="240.5" rx="4.3" ry="0.2"/>
							</g>
						</g>
					</g>
				</g>
				<g>
					<g>
						<g>
							<g>
								<ellipse fill="#1A2E35" cx="458.9" cy="240.5" rx="4.3" ry="0.2"/>
							</g>
						</g>
					</g>
				</g>
				<g>
					<g>
						<g>
							<g>
								<ellipse fill="#1A2E35" cx="469" cy="240.5" rx="4.3" ry="0.2"/>
							</g>
						</g>
					</g>
				</g>
				<g>
					<g>
						<g>
							<g>
								<ellipse fill="#1A2E35" cx="479.1" cy="240.5" rx="4.3" ry="0.2"/>
							</g>
						</g>
					</g>
				</g>
				<g>
					<g>
						<g>
							<g>
								<ellipse fill="#1A2E35" cx="489.2" cy="240.5" rx="4.3" ry="0.2"/>
							</g>
						</g>
					</g>
				</g>
				<g>
					<g>
						<g>
							<g>
								<ellipse fill="#1A2E35" cx="499.2" cy="240.5" rx="4.3" ry="0.2"/>
							</g>
						</g>
					</g>
				</g>
				<g>
					<g>
						<g>
							<g>
								<ellipse fill="#1A2E35" cx="509.3" cy="240.5" rx="4.3" ry="0.2"/>
							</g>
						</g>
					</g>
				</g>
				<g>
					<g>
						<g>
							<g>
								<ellipse fill="#1A2E35" cx="519.4" cy="240.5" rx="4.3" ry="0.2"/>
							</g>
						</g>
					</g>
				</g>
				<g opacity="0.3">
					<g>
						<g>
							<rect x="433.5" y="196.9" fill="#FFFFFF" width="4.8" height="35.5"/>
						</g>
					</g>
				</g>
				<g opacity="0.3">
					<g>
						<g>
							<rect x="452.1" y="180.7" fill="#FFFFFF" width="4.8" height="51.6"/>
						</g>
					</g>
				</g>
				<g opacity="0.3">
					<g>
						<g>
							<rect x="470.7" y="204.7" fill="#FFFFFF" width="4.8" height="27.6"/>
						</g>
					</g>
				</g>
				<g opacity="0.3">
					<g>
						<g>
							<rect x="489.2" y="192.8" fill="#FFFFFF" width="4.8" height="39.5"/>
						</g>
					</g>
				</g>
				<g opacity="0.3">
					<g>
						<g>
							<rect x="507.8" y="200.7" fill="#FFFFFF" width="4.8" height="31.6"/>
						</g>
					</g>
				</g>
			</g>
			<g>
				<g>
					<circle fill="#3C7AA5" cx="292.1" cy="117.2" r="4.6"/>
				</g>
			</g>
			<g>
				<g>
					<g>
						<path fill="#3C7AA5" d="M376.3,113.5c0,0.2-15.6,0.3-34.8,0.3c-19.2,0-34.8-0.1-34.8-0.3c0-0.2,15.6-0.3,34.8-0.3
							C360.7,113.3,376.3,113.4,376.3,113.5z"/>
					</g>
				</g>
			</g>
			<g>
				<g>
					<g>
						<path fill="#3C7AA5" d="M334.6,119.1c0,0-0.4,0.1-1.1,0.1c-0.7,0-1.7,0.1-2.9,0.1c-2.5,0-5.9,0.1-9.7,0.1
							c-3.8,0-7.2,0-9.7-0.1c-1.2,0-2.2-0.1-2.9-0.1c-0.7,0-1.1-0.1-1.1-0.1c0,0,0.4-0.1,1.1-0.1c0.7,0,1.7-0.1,2.9-0.1
							c2.5,0,5.9-0.1,9.7-0.1c3.8,0,7.2,0,9.7,0.1c1.2,0,2.2,0.1,2.9,0.1C334.2,119,334.6,119.1,334.6,119.1z"/>
					</g>
				</g>
			</g>
		</g>
		<g>
			<g>
				<g>
					<g>
						<rect x="556.2" y="69.3" fill="#FAFAFA" width="160.8" height="183.5"/>
					</g>
				</g>
				<g>
					<g>
						<g>
							<path fill="#1A2E35" d="M716.9,252.8c0,0,0-0.3,0-0.9c0-0.6,0-1.4,0-2.5c0-2.2,0-5.6,0-9.9c0-8.7,0-21.3-0.1-37.4
								c0-32.2-0.1-78-0.1-132.7l0.2,0.2c-47.3,0-102.3,0-160.7,0h0l0.3-0.3c0,67.6,0,130.7,0,183.5l-0.2-0.2
								c48.4,0,88.5,0.1,116.6,0.1c14.1,0,25.1,0,32.6,0.1c3.8,0,6.6,0,8.6,0C715.9,252.8,716.9,252.8,716.9,252.8s-1,0-2.9,0
								c-1.9,0-4.8,0-8.5,0c-7.5,0-18.5,0-32.5,0.1c-28.1,0-68.3,0.1-116.8,0.1l-0.2,0v-0.2c0-52.8,0-115.8,0-183.5V69h0.3h0
								c58.4,0,113.4,0,160.7,0h0.2l0,0.2c0,54.8-0.1,100.7-0.1,132.9c0,16.1,0,28.7-0.1,37.4c0,4.3,0,7.6,0,9.9c0,1.1,0,1.9,0,2.5
								C717,252.5,716.9,252.8,716.9,252.8z"/>
						</g>
					</g>
				</g>
			</g>
			<g>
				<g>
					<g>
						<rect x="569" y="84" fill="#E1E1E1" width="130.2" height="104.5"/>
					</g>
				</g>
				<g>
					<g>
						<g>
							<g>
								<rect x="578.1" y="169.9" fill="#1A2E35" width="4.3" height="1.2"/>
							</g>
						</g>
						<g>
							<g>
								<rect x="587.8" y="176.5" fill="#1A2E35" width="5.5" height="1.2"/>
							</g>
						</g>
						<g>
							<g>
								<rect x="606.8" y="176.5" fill="#1A2E35" width="5.5" height="1.2"/>
							</g>
						</g>
						<g>
							<g>
								<rect x="625.9" y="176.5" fill="#1A2E35" width="5.5" height="1.2"/>
							</g>
						</g>
						<g>
							<g>
								<rect x="644.9" y="176.5" fill="#1A2E35" width="5.5" height="1.2"/>
							</g>
						</g>
						<g>
							<g>
								<rect x="663.9" y="176.5" fill="#1A2E35" width="5.5" height="1.2"/>
							</g>
						</g>
						<g>
							<g>
								<rect x="683" y="176.5" fill="#1A2E35" width="5.5" height="1.2"/>
							</g>
						</g>
						<g>
							<g>
								<rect x="578.1" y="153.4" fill="#1A2E35" width="4.3" height="1.2"/>
							</g>
						</g>
						<g>
							<g>
								<rect x="578.1" y="122.5" fill="#1A2E35" width="4.3" height="1.2"/>
							</g>
						</g>
						<g>
							<g>
								<rect x="578.1" y="106.9" fill="#1A2E35" width="4.3" height="1.2"/>
							</g>
						</g>
						<g>
							<g>
								<rect x="578.4" y="137.9" fill="#1A2E35" width="4.3" height="1.2"/>
							</g>
						</g>
						<g>
							<g>
								<g>
									<path fill="#1A2E35" d="M688.3,171.1c0,0-0.2,0-0.5,0c-0.3,0-0.8,0-1.3,0c-1.2,0-2.9,0-5.2,0.1c-4.5,0-11,0.1-19,0.1
										c-16.1,0-38.3,0-62.8,0.1c-5.1,0-10.1,0-14.9,0h-0.3l0-0.3c0-21,0.1-39.4,0.1-52.7c0-6.6,0.1-11.9,0.1-15.6
										c0-1.8,0-3.2,0-4.2c0-0.5,0-0.8,0-1.1c0-0.2,0-0.4,0-0.4s0,0.1,0,0.4c0,0.3,0,0.6,0,1.1c0,1,0,2.4,0,4.2
										c0,3.7,0,9,0.1,15.6c0,13.2,0.1,31.7,0.1,52.7l-0.3-0.3c4.8,0,9.8,0,14.9,0c24.5,0,46.7,0.1,62.8,0.1c8,0,14.5,0.1,19,0.1
										c2.2,0,4,0,5.2,0.1c0.6,0,1,0,1.3,0C688.1,171.1,688.3,171.1,688.3,171.1z"/>
								</g>
							</g>
						</g>
						<g>
							<g>
								<g>
									<path fill="#1A2E35" d="M689.5,138.6c0,0.2-22.5,0.3-50.3,0.3c-27.8,0-50.3-0.1-50.3-0.3c0-0.2,22.5-0.3,50.3-0.3
										C666.9,138.3,689.5,138.4,689.5,138.6z"/>
								</g>
							</g>
						</g>
						<g>
							<g>
								<g>
									<path fill="#1A2E35" d="M689.5,123.1c0,0.2-22.5,0.3-50.3,0.3c-27.8,0-50.3-0.1-50.3-0.3s22.5-0.3,50.3-0.3
										C666.9,122.8,689.5,122.9,689.5,123.1z"/>
								</g>
							</g>
						</g>
						<g>
							<g>
								<g>
									<path fill="#1A2E35" d="M689.5,107.5c0,0.2-22.5,0.3-50.3,0.3c-27.8,0-50.3-0.1-50.3-0.3c0-0.2,22.5-0.3,50.3-0.3
										C666.9,107.2,689.5,107.4,689.5,107.5z"/>
								</g>
							</g>
						</g>
						<g>
							<g>
								<g>
									<path fill="#1A2E35" d="M689.5,154c0,0.2-22.5,0.3-50.3,0.3c-27.8,0-50.3-0.1-50.3-0.3s22.5-0.3,50.3-0.3
										C666.9,153.8,689.5,153.9,689.5,154z"/>
								</g>
							</g>
						</g>
						<g>
							<g>
								<path fill="#375A64" d="M589.8,167.8c0-2.6,0-13.7,0-13.7l8.6-13.3l5.8,4.5l11.9-18.5l7,5l9.8-17.1l7.9,6.5l11.9-22.7
									l12.8,25.3L676,111l12.2-3.5v60.3H589.8z"/>
							</g>
						</g>
					</g>
					<g>
						<g>
							<g>
								<path fill="#3C7AA5" d="M689.5,102.6c0,0-0.1,0-0.2,0c-0.2,0-0.4,0-0.6,0c-0.6,0-1.4,0-2.5,0c-2.2,0-5.4,0-9.4,0.1l0.1-0.1
									c-2.7,3.6-6.1,8-10,13.2l-0.1,0.1l-0.1,0c-7.3,0-15.9,0-25.2,0l0.2-0.1c-3.3,5.5-6.9,11.5-10.6,17.6
									c-3.6,6-7.1,11.8-10.4,17.3l-0.2,0.3l-0.2-0.3c-5-6.8-9.6-13.2-13.6-18.8l0.4,0c-5.2,8.1-9.5,14.7-12.5,19.4
									c-1.5,2.3-2.7,4.1-3.5,5.4c-0.4,0.6-0.7,1.1-0.9,1.4c-0.2,0.3-0.3,0.5-0.3,0.5s0.1-0.2,0.3-0.5c0.2-0.3,0.5-0.8,0.9-1.4
									c0.8-1.3,1.9-3.1,3.4-5.4c3-4.7,7.2-11.4,12.3-19.5l0.2-0.3l0.2,0.3c4.1,5.6,8.7,11.9,13.7,18.7l-0.4,0
									c3.3-5.5,6.8-11.3,10.4-17.3c3.7-6.2,7.3-12.1,10.6-17.6l0.1-0.1l0.1,0c9.3,0,17.9,0,25.2,0l-0.2,0.1
									c3.9-5.1,7.4-9.5,10.1-13.1l0-0.1l0.1,0c4,0,7.2,0.1,9.4,0.1c1.1,0,1.9,0,2.5,0c0.3,0,0.5,0,0.6,0
									C689.4,102.6,689.5,102.6,689.5,102.6z"/>
							</g>
						</g>
					</g>
					<g>
						<g>
							<ellipse fill="#3C7AA5" cx="610" cy="136.3" rx="1" ry="0.9"/>
						</g>
					</g>
					<g>
						<g>
							<ellipse fill="#3C7AA5" cx="639" cy="119.8" rx="1" ry="0.9"/>
						</g>
					</g>
					<g>
						<g>
							<ellipse fill="#3C7AA5" cx="661.6" cy="115.8" rx="1" ry="0.9"/>
						</g>
					</g>
				</g>
			</g>
			<g>
				<g>
					<g>
						<path fill="#1A2E35" d="M693.4,204c0,0.2-27.5,0.3-61.4,0.3c-33.9,0-61.4-0.1-61.4-0.3c0-0.2,27.5-0.3,61.4-0.3
							C665.9,203.7,693.4,203.8,693.4,204z"/>
					</g>
				</g>
			</g>
			<g>
				<g>
					<g>
						<path fill="#1A2E35" d="M693.4,210.6c0,0.2-27.5,0.3-61.4,0.3c-33.9,0-61.4-0.1-61.4-0.3s27.5-0.3,61.4-0.3
							C665.9,210.3,693.4,210.5,693.4,210.6z"/>
					</g>
				</g>
			</g>
			<g>
				<g>
					<g>
						<path fill="#1A2E35" d="M693.4,217.3c0,0.2-27.5,0.3-61.4,0.3c-33.9,0-61.4-0.1-61.4-0.3s27.5-0.3,61.4-0.3
							C665.9,217,693.4,217.1,693.4,217.3z"/>
					</g>
				</g>
			</g>
			<g>
				<g>
					<g>
						<path fill="#1A2E35" d="M693.4,223.9c0,0.2-27.5,0.3-61.4,0.3c-33.9,0-61.4-0.1-61.4-0.3s27.5-0.3,61.4-0.3
							C665.9,223.6,693.4,223.7,693.4,223.9z"/>
					</g>
				</g>
			</g>
		</g>
		<g>
			<g>
				<g>
					<g>
						<g>
							<path fill="#84211A" d="M644.9,221.3c3.4-5.6,4.3-13.2,5.2-19.7c0.4-3.1,1.1-7.4-1-9.3c-2.3-2.1-2.5-5.2-5.2-6.8
								c-2.6-1.6-6.2-1.7-8.7,0.1"/>
						</g>
					</g>
					<g>
						<g>
							<g>
								<g>
									<g>
										<g>
											<g>
												<g>
													<g>
														<path fill="#FFBF9D" d="M635.6,241.3L635.6,241.3c-5.1,0.4-9.6-3.6-9.7-8.7c-0.2-4.9-0.4-9.9-0.4-9.9s-7.5-0.7-8-8.1
															c-0.5-7.4-0.3-24.5-0.3-24.5l0,0c8.3-4.2,18.3-3.6,26.1,1.7l-0.5,26v14C642.7,236.5,640.3,240.9,635.6,241.3z"/>
													</g>
												</g>
											</g>
										</g>
									</g>
								</g>
							</g>
							<g>
								<g>
									<path fill="#84211A" d="M624.9,205.5c1.3-1.6,3.4-2.2,5.1-1.1c1.7,1.1,2.4,3.6,1.4,5.4c-0.7,1.3-2.1,2.4-3.6,2.7
										c-1.4,0.3-2.4,1.6-2.2,3.1c0.2,1.9,3.3,2.6,4.7,4.1c2.2,2.4,6.9,3.4,10.1,3.8c3.2,0.4,2.8,0.4,4.6-2.2
										c1.3-1.9,1.8-3.7,1.8-6c0.1-5.5,0.2-10.9,0.3-16.4c0-2,0.1-4-0.4-5.9c-0.5-1.9-1.5-3.8-3.1-4.9c-1.8-1.2-4.1-1.3-6.1-1.9
										c-2.6-0.8-4.7-2.5-7.1-3.8c-2.4-1.2-5.3-2-7.7-0.8c-1.7,0.9-2.9,2.6-4.6,3.5c-2.4,1.4-5.6,1.1-6.8,4.6
										c-0.4,1.2-0.4,2.5,0,3.8c1.6,4.8,7.5,6.7,11.8,4.6c0.1,0.8-0.7,2.6,0.1,5.2C623.5,204.3,623.6,205.5,624.9,205.5"/>
								</g>
							</g>
						</g>
						<g>
							<g>
								<g>
									<path fill="#FF9A6C" d="M626.2,210.1c0.1,0,0.3,0.4,0.9,0.4c0.6,0,1.4-0.7,1.4-1.7c0.1-1-0.7-1.6-1.3-1.8
										c-0.6-0.2-1-0.1-1.1-0.2c0-0.1,0.4-0.3,1.2-0.2c0.4,0.1,0.8,0.3,1.2,0.7c0.4,0.4,0.6,1,0.5,1.6c0,1.2-1.1,2.1-1.9,2
										c-0.4,0-0.7-0.2-0.8-0.4C626.2,210.3,626.2,210.2,626.2,210.1z"/>
								</g>
							</g>
						</g>
						<g opacity="0.2">
							<g>
								<g>
									<path d="M633.9,187.8c0,0,0.2-0.3,0.6-0.6c0.5-0.3,1.2-0.7,2.2-0.9c1-0.1,2.3,0,3.5,0.5c1.3,0.6,2.4,1.6,3.3,2.9
										c1.7,2.6,2.1,5.5,2.3,7.5c0.2,2,0.3,3.2,0.2,3.2c-0.1,0-0.3-1.2-0.6-3.2c-0.3-1.9-0.7-4.7-2.4-7.2c-0.8-1.2-1.9-2.2-3-2.8
										c-1.1-0.6-2.3-0.7-3.3-0.6C634.8,186.9,633.9,187.9,633.9,187.8z"/>
								</g>
							</g>
						</g>
						<g opacity="0.2">
							<g>
								<g>
									<path d="M613.1,195.4c0,0-0.1,0-0.3,0c-0.2,0-0.4-0.1-0.7-0.3c-0.3-0.2-0.6-0.5-0.9-1c-0.2-0.4-0.4-1.1-0.2-1.7
										c0.1-0.6,0.5-1.3,1.2-1.7c0.7-0.5,1.6-0.5,2.3-0.5c0.8,0,1.6,0,2.2-0.6c0.7-0.5,1.2-1.3,1.8-2c1.3-1.4,3-2.3,4.6-2.7
										c1.6-0.4,3.1-0.4,4.3-0.1c1.2,0.3,2.1,0.7,2.7,1c0.6,0.4,0.9,0.6,0.8,0.7c-0.1,0.1-1.3-0.9-3.6-1.3
										c-1.2-0.2-2.6-0.2-4.1,0.2c-1.5,0.4-3.1,1.2-4.3,2.5c-0.6,0.7-1.1,1.4-1.9,2c-0.4,0.3-0.8,0.5-1.3,0.6
										c-0.5,0.1-0.9,0.1-1.3,0.1c-0.8,0-1.5,0-2.1,0.3c-0.6,0.3-0.9,0.9-1.1,1.4c-0.3,1.1,0.4,2,0.8,2.4
										C612.7,195.3,613.1,195.4,613.1,195.4z"/>
								</g>
							</g>
						</g>
						<g opacity="0.2">
							<g>
								<g>
									<path d="M632.9,216c0,0,0.4-0.2,1-0.6c0.6-0.4,1.4-1.1,2-2.2c0.6-1.1,0.9-2.7,0.3-4.3c-0.3-0.8-0.7-1.6-1.3-2.2
										c-0.6-0.7-1.4-1.2-2.3-1.7c-0.9-0.5-1.7-1-2.5-1.5c-0.8-0.5-1.5-1.2-2-1.9c-1.1-1.4-1.6-3-1.7-4.4c-0.2-1.3,0-2.4,0.2-3.2
										c0.1-0.4,0.2-0.6,0.3-0.8c0.1-0.2,0.1-0.3,0.2-0.3c0.1,0-0.7,1.6-0.3,4.2c0.2,1.3,0.7,2.8,1.7,4.1c0.5,0.7,1.2,1.3,1.9,1.8
										c0.8,0.5,1.6,1,2.5,1.5c0.9,0.5,1.7,1.1,2.4,1.8c0.7,0.7,1.2,1.6,1.4,2.4c0.5,1.8,0.2,3.5-0.5,4.7
										c-0.7,1.2-1.6,1.9-2.2,2.2C633.3,215.9,632.9,216,632.9,216z"/>
								</g>
							</g>
						</g>
						<g opacity="0.2">
							<g>
								<g>
									<path d="M645.7,205.1c0,0-0.3,0.1-1,0.2c-0.6,0.1-1.5,0.2-2.7,0.1c-2.2-0.1-5.4-0.9-8.3-2.8c-2.9-1.9-4.8-4.6-5.4-6.8
										c-0.3-1.1-0.3-2.1-0.1-2.7c0.2-0.6,0.3-0.9,0.4-0.9c0.1,0-0.6,1.4,0.1,3.5c0.6,2.1,2.6,4.6,5.3,6.5c2.8,1.9,5.8,2.7,8,2.9
										C644.3,205.3,645.7,205,645.7,205.1z"/>
								</g>
							</g>
						</g>
					</g>
					<g>
						<g>
							<path fill="#84211A" d="M646.9,200.1c2.6-2.9,6.3-4.8,10.2-4.6c3.9,0.2,7.6,2.9,8.6,6.6c0.7,2.8-0.2,5.8-0.5,8.6
								c-0.4,2.9,0,6.3,2.3,8c1.4,1,3.3,1.2,5,1.6c1.7,0.4,3.5,1.3,4.1,2.9c0.7,1.9-0.7,4-2.5,4.8s-4,0.6-5.9,0.1
								c0.9,2.1-0.2,4.8-2.2,5.9c-2,1.2-4.6,0.9-6.6-0.3c-2-1.2-3.3-3.2-4-5.4c-1.3,2.2-4.6,2.7-6.7,1.3c-2.1-1.4-3.1-4.2-2.7-6.8
								c0.3-2.5,1.7-4.8,3.4-6.8c0.8-1,1.8-1.9,2.4-3c0.6-1.1,0.8-2.6,0.1-3.7c-0.7-1.1-2.4-1.6-3.3-0.7"/>
						</g>
					</g>
				</g>
				<g opacity="0.3">
					<g>
						<g>
							<path d="M651.3,207.8c0,0-0.9,0.5-2.2,0c-1.3-0.5-2.9-2-3.2-4.2c-0.2-1.1,0-2.1,0.4-3c0.4-0.9,0.9-1.5,1.4-2
								c1.1-0.9,1.9-1.1,1.9-1.1c0,0.1-0.8,0.4-1.7,1.4c-0.9,0.9-1.8,2.7-1.5,4.7c0.3,2,1.7,3.4,2.8,3.9
								C650.4,208,651.3,207.7,651.3,207.8z"/>
						</g>
					</g>
				</g>
				<g>
					<g>
						<g>
							<path fill="#FF9A6C" d="M625.3,222.5c0,0.1-0.7,0.1-1.7-0.2c-1-0.3-2.4-0.9-3.6-2c-1.2-1.1-2-2.4-2.4-3.3
								c-0.4-1-0.4-1.6-0.4-1.7c0.1,0,0.3,0.6,0.7,1.5c0.5,0.9,1.2,2.1,2.4,3.1c1.2,1,2.4,1.7,3.4,2
								C624.6,222.3,625.3,222.4,625.3,222.5z"/>
						</g>
					</g>
				</g>
				<g opacity="0.3">
					<g>
						<g>
							<path d="M653.7,228.6c0,0-0.1,0-0.4-0.1c-0.2-0.1-0.6-0.2-1-0.4c-0.8-0.5-1.7-1.6-2.1-3.2c-0.2-0.8-0.3-1.7-0.1-2.7
								c0.2-1,0.5-1.9,1-2.9c0.9-2,2.4-3.8,3.5-6c0.5-1.1,0.9-2.2,1.1-3.3c0.1-1.1,0-2.2-0.4-3.1c-0.7-1.9-2.3-3.2-3.8-3.7
								c-1.5-0.5-2.8-0.4-3.7-0.2c-0.9,0.2-1.3,0.4-1.3,0.4c0,0,0.1-0.1,0.3-0.2c0.2-0.1,0.5-0.3,1-0.4c0.9-0.2,2.2-0.4,3.8,0.1
								c1.6,0.5,3.3,1.8,4.1,3.9c0.4,1,0.6,2.2,0.4,3.4c-0.2,1.2-0.6,2.4-1.1,3.5c-1.1,2.2-2.6,4.1-3.5,5.9c-1,1.9-1.3,3.8-1,5.3
								c0.3,1.5,1.2,2.6,1.8,3.1C653.3,228.5,653.8,228.5,653.7,228.6z"/>
						</g>
					</g>
				</g>
				<g opacity="0.3">
					<g>
						<g>
							<path d="M664.9,234c0,0-0.2,0-0.5,0c-0.3,0-0.8-0.1-1.3-0.2c-1.1-0.3-2.7-1.3-3.9-3c-1.2-1.7-1.8-4.3-1.7-7.1
								c0.1-2.8,0.9-5.7,1.4-8.8c0.3-1.5,0.4-3.1,0.3-4.5c-0.1-1.4-0.4-2.8-0.9-4c-0.5-1.2-1.3-2.2-2.3-2.9c-0.9-0.7-2-1.1-2.9-1.4
								c-2-0.5-3.7-0.2-4.8,0c-1.1,0.2-1.7,0.5-1.7,0.4c0,0,0.1-0.1,0.4-0.2c0.3-0.1,0.7-0.3,1.3-0.4c1.1-0.3,2.8-0.6,4.9-0.2
								c1,0.2,2.1,0.6,3.1,1.4c1,0.7,1.9,1.8,2.4,3.1c0.6,1.3,0.9,2.7,1,4.2c0.1,1.5-0.1,3.1-0.3,4.6c-0.5,3.1-1.3,6-1.5,8.7
								c-0.2,2.7,0.4,5.1,1.5,6.8c1.1,1.7,2.5,2.6,3.6,3C664.3,234,664.9,233.9,664.9,234z"/>
						</g>
					</g>
				</g>
			</g>
			<polygon fill="#FFBF9D" points="667.1,267.7 651.4,280 658,290.8 677,276.9 			"/>
			<path fill="#FFBF9D" d="M625,226.4c0,0,0.1-1.3-3.4-1.5c-3.4-0.2-3.8-0.1-3.8-0.1s-1.5-2-1.6-3.2c-0.1-1.2,0.7-3.2,0.7-3.2
				l3.5-0.3l-0.9-2.4l-2.5,0.2l-6.9,0.8l-2.8,12.1l-18.9,35.3c-3.1,4.6-1.4,10.8,3.6,13.3l0,0c4.9,2.4,11.4-2.7,13.2-7.8l10.5-39.2
				l3.7-2.9l5.3-1"/>
			<path fill="#FFBF9D" d="M581.9,461.1l25.7-148l0,0c0.1-0.2,0.1-0.4,0.2-0.6l0,0l0,0c4.4-17.4,11.1-22.9,11.1-22.9l39.4,2.5
				c3.3,6,3.8,20.5,3.8,20.5c0.5,1.8-8.3,145.1-8.3,145.1l-13.2-0.4l-7.1-135.7l-38.3,140.1L581.9,461.1z"/>
			<g>
				<g>
					<g>
						<g>
							<g>
								<path fill="#3C7AA5" d="M581.6,462.4l0.1-1.3l13.5,0.4l-0.1,4.4l-0.8,0c-3.7,0.1-19,0.2-21.4-0.5
									C570.1,464.5,581.6,462.4,581.6,462.4z"/>
							</g>
						</g>
						<g opacity="0.6">
							<g>
								<path fill="#FFFFFF" d="M590.2,465.7c0.2-1,0.9-2,1.8-2.6c0.9-0.6,2-0.9,3.2-0.8l-0.1,3.5L590.2,465.7z"/>
							</g>
						</g>
					</g>
					<g opacity="0.6">
						<g>
							<path fill="#FFFFFF" d="M576,463.7c0,0-4,1-3.6,1.6c0.5,0.6,15.9,1,22.7,0.7l0-0.3l-18-0.3
								C577.1,465.3,576.8,463.7,576,463.7z"/>
						</g>
					</g>
					<g>
						<g>
							<g>
								<path fill="#3C7AA5" d="M595.3,465.6c0,0-0.1,0-0.2,0c-0.2,0-0.4,0-0.7,0c-0.7,0-1.5,0-2.5,0c-2.1,0-4.9,0-8.1-0.1
									c-3.2-0.1-6-0.2-8.1-0.3c-1-0.1-1.8-0.1-2.4-0.2c-0.2,0-0.5,0-0.7-0.1c-0.2,0-0.2,0-0.2,0c0,0,0.1,0,0.2,0
									c0.2,0,0.4,0,0.7,0c0.7,0,1.5,0.1,2.4,0.1c2.1,0.1,4.9,0.2,8.1,0.3c3.2,0.1,6,0.1,8.1,0.1c1,0,1.8,0,2.5,0
									c0.2,0,0.5,0,0.7,0C595.2,465.6,595.3,465.6,595.3,465.6z"/>
							</g>
						</g>
					</g>
					<g>
						<g>
							<g>
								<path fill="#3C7AA5" d="M577.1,465.5c0,0-0.1-0.5-0.4-1.1c-0.3-0.6-0.8-0.9-0.8-0.9c0,0,0.6,0.2,1,0.8
									C577.2,464.9,577.2,465.5,577.1,465.5z"/>
							</g>
						</g>
					</g>
					<g>
						<g>
							<g>
								<path fill="#3C7AA5" d="M581.2,463.7c0,0-0.2-0.2-0.4-0.5c-0.2-0.3-0.3-0.5-0.3-0.6c0,0,0.2,0.2,0.4,0.5
									C581.1,463.4,581.2,463.7,581.2,463.7z"/>
							</g>
						</g>
					</g>
					<g>
						<g>
							<g>
								<path fill="#3C7AA5" d="M582.3,463.2c0,0-0.2-0.1-0.5-0.3c-0.2-0.2-0.4-0.4-0.4-0.4c0,0,0.2,0.1,0.5,0.3
									C582.1,463,582.3,463.2,582.3,463.2z"/>
							</g>
						</g>
					</g>
					<g>
						<g>
							<g>
								
									<ellipse transform="matrix(0.9999 1.581798e-002 -1.581798e-002 0.9999 7.3814 -9.1527)" fill="#3C7AA5" cx="582.3" cy="462" rx="0.7" ry="0.1"/>
							</g>
						</g>
					</g>
					<g>
						<g>
							<g>
								<path fill="#3C7AA5" d="M583.3,461.2c0,0-0.3,0.2-0.8,0.2c-0.5,0-0.8-0.1-0.8-0.1c0,0,0.4,0,0.8,0
									C582.9,461.2,583.2,461.2,583.3,461.2z"/>
							</g>
						</g>
					</g>
					<g>
						<g>
							<g>
								<path fill="#3C7AA5" d="M580.7,462.6c0,0-0.3,0-0.9,0c-0.3,0-0.6-0.1-0.9-0.2c-0.2-0.1-0.3-0.1-0.5-0.2
									c-0.1-0.1-0.2-0.1-0.2-0.3c0-0.1,0-0.3,0.1-0.3c0.8-0.4,1.7,0.1,2,0.5c0.2,0.2,0.2,0.4,0.3,0.5c0,0.1,0,0.2,0,0.2
									c0,0,0-0.3-0.4-0.7c-0.2-0.2-0.4-0.4-0.7-0.5c-0.3-0.1-0.7-0.1-1,0c-0.1,0.1-0.1,0.2,0.1,0.3c0.1,0.1,0.3,0.1,0.5,0.2
									c0.3,0.1,0.6,0.2,0.9,0.2C580.4,462.6,580.7,462.6,580.7,462.6z"/>
							</g>
						</g>
					</g>
					<g>
						<g>
							<g>
								<path fill="#3C7AA5" d="M580.5,462.7c0,0-0.1-0.2-0.1-0.6c0-0.2,0.1-0.4,0.3-0.6c0.2-0.2,0.4-0.4,0.7-0.4
									c0.2,0,0.3,0.2,0.3,0.4c0,0.1-0.1,0.3-0.2,0.4c-0.1,0.2-0.3,0.4-0.4,0.5C580.8,462.6,580.6,462.7,580.5,462.7
									c0.1,0,0.3-0.2,0.5-0.4c0.1-0.1,0.3-0.3,0.4-0.5c0.1-0.2,0.2-0.5,0-0.5c-0.2,0-0.4,0.2-0.6,0.3c-0.1,0.2-0.2,0.4-0.3,0.5
									C580.5,462.4,580.5,462.6,580.5,462.7z"/>
							</g>
						</g>
					</g>
					<g>
						<g>
							<g>
								<path fill="#3C7AA5" d="M595.1,462.2c0,0-0.4,0-1,0c-0.6,0-1.5,0.3-2.2,0.8c-0.7,0.5-1.2,1.2-1.4,1.7
									c-0.2,0.5-0.3,0.9-0.3,0.9c0,0,0-0.1,0-0.3c0-0.2,0.1-0.4,0.2-0.7c0.2-0.6,0.6-1.3,1.4-1.8c0.8-0.5,1.7-0.7,2.3-0.8
									c0.3,0,0.6,0,0.7,0C595,462.2,595.1,462.2,595.1,462.2z"/>
							</g>
						</g>
					</g>
					<g>
						<g>
							<g>
								<path fill="#3C7AA5" d="M588.5,464.4c0,0-0.9,0.2-2,0.1c-1.1,0-2-0.2-2-0.2c0,0,0.9,0,2,0
									C587.7,464.4,588.5,464.4,588.5,464.4z"/>
							</g>
						</g>
					</g>
					<g>
						<g>
							<g>
								<path fill="#3C7AA5" d="M591.2,464.5c0,0-0.1,0.2-0.2,0.4c-0.1,0.2-0.1,0.4-0.2,0.3c0,0-0.1-0.2,0-0.4
									C591,464.6,591.2,464.4,591.2,464.5z"/>
							</g>
						</g>
					</g>
					<g>
						<g>
							<g>
								<path fill="#3C7AA5" d="M592.2,463.4c0,0-0.1,0.2-0.2,0.3c-0.1,0.1-0.3,0.2-0.3,0.2c0,0,0.1-0.2,0.2-0.3
									C592,463.4,592.2,463.3,592.2,463.4z"/>
							</g>
						</g>
					</g>
					<g>
						<g>
							<g>
								<path fill="#3C7AA5" d="M593.7,462.9c0,0-0.2,0-0.4,0.1c-0.2,0.1-0.3,0.2-0.4,0.1c0,0,0.1-0.2,0.3-0.3
									C593.5,462.7,593.7,462.8,593.7,462.9z"/>
							</g>
						</g>
					</g>
					<g>
						<g>
							<g>
								<path fill="#3C7AA5" d="M594.7,462.6c0,0-0.1,0.1-0.2,0.1c-0.1,0-0.2,0-0.2,0c0,0,0.1-0.1,0.2-0.1
									C594.6,462.6,594.7,462.6,594.7,462.6z"/>
							</g>
						</g>
					</g>
				</g>
			</g>
			<g>
				<g>
					<g>
						<path fill="#3C7AA5" d="M647.7,230.6c0,0,4.8,0.5,10.4,4.1c12.4,8.1,33.3,25.1,31.5,33c-1.5,6.7-17.7,14.9-17.7,14.9
							l-10.5-12.7l6.5-3.7L652,255.6L647.7,230.6z"/>
					</g>
				</g>
				<g>
					<g>
						<g>
							<path fill="#3C7AA5" d="M654.8,256.3l-0.5,1.9l-1.8,8.7l-0.5,12.8c9.4,12.2,9.6,22.4,9.6,22.4l-47.7,5.6
								c0-9.4,3.4-21.3,3.4-21.3c2.8-4.7,2.6-18.7,2.1-19.2c-3-3-3.7-5.1-1.3-8.9c0,0-14.8,15.5-16.3,16.9
								c-5.2,4.8-10.2,3.5-12.6,1.4c-6.5-5.8,0.2-13.3,0.2-13.3l24.9-28.5c1.7-1.9,4-3.4,6.5-3.9c2.7-0.6,5.3-0.9,5.3-0.9l16.6,0.1
								c0,0,3.2,0.1,5,0.6c0,0,5.8,1.9,7.3,9C656.5,246.7,654.8,256.3,654.8,256.3z"/>
						</g>
					</g>
				</g>
				<g>
					<g>
						<g>
							<path fill="#375A64" d="M655.4,244.8c0,0,0.1,0.5,0.1,1.4c0,0.9,0,2.2-0.1,3.8c-0.2,3.2-0.7,7.6-1.6,12.3
								c-0.3,1.6-0.6,3.2-1,4.6l0-0.1c-0.1,3.7-0.3,6.9-0.4,9.2c-0.1,1.1-0.1,1.9-0.2,2.7c0,0.6-0.1,1-0.1,1c0,0,0-0.3-0.1-1
								c0-0.7,0-1.6,0-2.7c0-2.3,0.1-5.5,0.2-9.2l0,0l0,0c0.3-1.4,0.6-3,1-4.6c0.9-4.8,1.5-9.1,1.8-12.3c0.1-1.6,0.2-2.9,0.3-3.7
								C655.3,245.3,655.3,244.8,655.4,244.8z"/>
						</g>
					</g>
				</g>
				<g>
					<g>
						<g>
							
								<ellipse transform="matrix(-0.8223 -0.569 0.569 -0.8223 1060.1986 858.157)" fill="#375A64" cx="664.1" cy="263.6" rx="10.4" ry="0.3"/>
						</g>
					</g>
				</g>
				<g>
					<g>
						<g>
							<path fill="#375A64" d="M624.7,239c0,0,0.1,0,0.2,0.2c0.2,0.1,0.4,0.3,0.6,0.6c0.5,0.6,1,1.6,1.3,3c0.3,1.3,0.3,3-0.3,4.8
								c-0.6,1.7-1.5,3.5-2.7,5.2c-0.6,0.8-1.3,1.6-2,2.3c-0.7,0.7-1.4,1.3-2.1,1.9c-1.3,1.2-2.5,2.3-3.4,3.3
								c-0.9,1-1.7,1.8-2.2,2.3c-0.5,0.5-0.8,0.8-0.8,0.8c0,0,0.2-0.4,0.7-1c0.5-0.6,1.2-1.4,2.1-2.4c0.9-1,2-2.2,3.3-3.4
								c0.7-0.6,1.4-1.2,2-1.9c0.7-0.7,1.3-1.4,1.9-2.3c1.2-1.6,2.1-3.4,2.6-5c0.5-1.7,0.6-3.3,0.4-4.6
								C626,240.2,624.6,239,624.7,239z"/>
						</g>
					</g>
				</g>
				<g>
					<g>
						<polygon fill="#375A64" points="619.1,281.1 619.7,274.7 652.2,274.7 652,279.7 						"/>
					</g>
				</g>
				<g>
					<g>
						<g>
							<path fill="none" stroke="#7A9198" stroke-width="5.231873e-002" stroke-miterlimit="10" d="M592.5,262.8"/>
						</g>
					</g>
				</g>
				<g>
					<g>
						<g>
							<path fill="#375A64" d="M591.4,262c0.1,0.1-0.8,0.6-1.8,1.9c-1,1.2-2,3.3-1.9,5.8c0.1,2.4,1.3,4.4,2.4,5.6
								c1.1,1.2,2,1.6,1.9,1.7c0,0-0.3-0.1-0.7-0.3c-0.4-0.2-1-0.6-1.6-1.2c-1.2-1.1-2.5-3.2-2.6-5.8c-0.1-2.6,1-4.8,2.1-6
								c0.5-0.6,1.1-1.1,1.5-1.3C591.2,262.1,591.4,262,591.4,262z"/>
						</g>
					</g>
				</g>
			</g>
			<g>
				<polygon fill="#3C7AA5" points="653.7,457.6 657.4,466.2 640.9,466 640.6,457.3 				"/>
				<g>
					<path fill="#3C7AA5" d="M640.8,464.5c0,0,0.9,0.1,2.3,0.1c1.4,0,3.4,0,5.6,0c2.1,0,4-0.1,5.6-0.1c1.4,0,2.3-0.1,2.3-0.1
						c0,0-0.9-0.1-2.3-0.1c-1.4,0-3.4,0-5.6,0c-2.1,0-4,0.1-5.6,0.1C641.7,464.4,640.8,464.5,640.8,464.5z"/>
				</g>
				<g>
					
						<ellipse transform="matrix(-5.531900e-002 -0.9985 0.9985 -5.531900e-002 223.5033 1133.2568)" fill="#3C7AA5" cx="647.9" cy="460.9" rx="3.5" ry="0.3"/>
				</g>
				<polyline opacity="0.6" fill="#FFFFFF" points="657.4,466.4 640.9,465.8 640.8,464.3 656.6,464.4 657.4,466.2 				"/>
			</g>
			<g>
				<g>
					<g>
						<g>
							<path fill="#BCBAB1" d="M660.6,293.8c12.4,39.2-3.6,86.8,0.2,132.4c0.4,4.5,2.2,9.9-2,12.4c-1.1,0.7-2.5,1-3.8,0.9
								c-3.4-0.1-6.2-1.8-9.1-3c-5.7-2.3-12.2-2.5-18-0.7c-4,1.2-7.9,3.4-12,2.8c-5.4-0.8-9-6.2-14-8.5c-4.7-2.1-10.1-1.3-15.3-1.5
								c-0.1,0-0.1,0-0.2,0c-7.4-0.2-12.6-7.5-10.7-14.7c7.5-27.5,32.4-116.6,43.4-132.9l32.9-1.4
								C655.1,283.4,659,288.8,660.6,293.8z"/>
						</g>
					</g>
				</g>
				<g opacity="0.1">
					<g>
						<g>
							<path d="M634.5,327.1c-10.4,26.5-12.3,56.2-5.5,83.9c0.6,2.4,1.2,5.1-0.2,7.2c-1.8,2.7-6,2.5-8.5,0.4c-2.4-2.1-3.4-5.4-4-8.5
								c-4.5-23.4,3.7-46.9,12.5-69"/>
						</g>
					</g>
				</g>
			</g>
		</g>
		<g>
			<g>
				<g>
					<g>
						<g>
							<g>
								<g>
									<g>
										<g>
											<rect x="385.6" y="340.3" fill="#1A2E35" width="62.3" height="3"/>
										</g>
									</g>
								</g>
							</g>
							<g>
								<g>
									<g>
										<g>
											<polygon fill="#1A2E35" points="375.9,343.3 364.2,299.5 412.9,299.5 423.5,343.3 											"/>
										</g>
									</g>
								</g>
							</g>
						</g>
						<g>
							<g>
								<g>
									<g>
										<polygon fill="#F5F5F5" points="420.6,340 377.1,340 367,301.5 410.7,301.5 										"/>
									</g>
								</g>
							</g>
						</g>
					</g>
					<g>
						<g>
							<g>
								<path fill="#ECECEC" d="M367.7,304.3c14.7,0,29,0,43.7,0l-0.7-2.8H367L367.7,304.3z"/>
							</g>
						</g>
					</g>
					<g>
						<g>
							<g>
								<g>
									<circle fill="#FAFAFA" cx="372.9" cy="302.9" r="0.5"/>
								</g>
							</g>
						</g>
						<g>
							<g>
								<g>
									<circle fill="#FAFAFA" cx="371.3" cy="302.9" r="0.5"/>
								</g>
							</g>
						</g>
						<g>
							<g>
								<g>
									<circle fill="#FAFAFA" cx="369.6" cy="302.9" r="0.5"/>
								</g>
							</g>
						</g>
					</g>
				</g>
				<g>
					<g>
						<g>
							<path fill="#3C7AA5" d="M400.6,321.1l4.8,5.5c1.9-1.3,2.9-3.4,2.9-5.5c0-3.8-3.5-7-7.8-7c-4.2,0-7.7,3.2-7.7,7L400.6,321.1z"
								/>
						</g>
					</g>
					<g>
						<g>
							<g>
								<path fill="#1A2E35" d="M399.9,322c0,0,0.5,0.5,1.4,1.4c0.9,0.9,2.1,2.3,3.5,3.9l0.2,0.2l-0.2,0.2c-1.9,1.5-5.2,2.1-8.1,0.8
									c-1.4-0.6-2.5-1.6-3.3-2.7c-0.8-1.1-1.2-2.4-1.2-3.6l0-0.2l0.2,0c2.3,0,4.2,0,5.5,0C399.2,321.9,400,322,399.9,322
									c0,0-0.8,0.1-2.1,0.2c-1.3,0.1-3.2,0.1-5.4,0.2l0.2-0.2c0.1,1.1,0.5,2.3,1.2,3.3c0.8,1,1.8,1.9,3.1,2.5
									c2.7,1.2,5.7,0.7,7.6-0.7l0,0.3c-1.4-1.6-2.5-3-3.3-4C400.4,322.6,399.9,322.1,399.9,322z"/>
							</g>
						</g>
					</g>
					<g>
						<g>
							<circle fill="#1A2E35" cx="397.3" cy="317" r="0.4"/>
						</g>
					</g>
					<g>
						<g>
							<g>
								<path fill="#1A2E35" d="M388.2,313.9c0-0.2,2.3-0.3,5.2-0.3c0.2,0,0.5,0,0.7,0h0.1l0.1,0.1c1.8,1.8,3.1,3.3,3,3.3
									c-0.1,0.1-1.6-1.2-3.4-3l0.2,0.1c-0.2,0-0.5,0-0.7,0C390.5,314.1,388.2,314,388.2,313.9z"/>
							</g>
						</g>
					</g>
					<g>
						<g>
							<g>
								<path fill="#1A2E35" d="M378.4,319.3c0,0-0.2-0.7-0.5-2c-0.3-1.3-0.7-3.3-1.2-5.6l-0.1-0.3l0.3,0c3.1,0,6.8-0.1,10.8-0.1
									c-0.1,0,0.5,0.4,0.3,0.2l0,0l0,0l0,0l0,0l0,0l0,0.1l0,0.1l0,0.3l0.1,0.5c0.1,0.3,0.1,0.7,0.2,1c0.1,0.7,0.2,1.3,0.4,2
									c0.2,1.3,0.5,2.5,0.7,3.7l0.1,0.3l-0.3,0c-3.3,0-6,0-7.9-0.1c-0.9,0-1.6,0-2.2-0.1C378.7,319.4,378.4,319.4,378.4,319.3
									c0,0,0.3,0,0.8-0.1c0.6,0,1.4,0,2.2-0.1c1.9-0.1,4.6-0.1,7.7-0.1l-0.2,0.3c-0.2-1.2-0.5-2.4-0.7-3.7c-0.1-0.6-0.3-1.3-0.4-2
									c-0.1-0.3-0.1-0.7-0.2-1l-0.1-0.5l0-0.3l0-0.1l0-0.1l0,0l0,0l0,0l0,0l0,0c-0.2-0.2,0.3,0.3,0.3,0.2c-4,0-7.7,0-10.8,0
									l0.2-0.3c0.4,2.3,0.7,4.2,0.9,5.6C378.3,318.5,378.4,319.3,378.4,319.3z"/>
							</g>
						</g>
					</g>
					<g>
						<g>
							<g>
								<circle fill="#1A2E35" cx="396.6" cy="325.7" r="0.4"/>
							</g>
						</g>
						<g>
							<g>
								<g>
									
										<ellipse transform="matrix(-1 3.940008e-003 -3.940008e-003 -1 786.6372 649.9087)" fill="#1A2E35" cx="392.7" cy="325.7" rx="3.9" ry="0.3"/>
								</g>
							</g>
						</g>
					</g>
					<g>
						<g>
							<g>
								<path fill="#1A2E35" d="M378.5,329.2c0,0-0.2-0.5-0.5-1.4c-0.3-1-0.7-2.4-1.2-4.2l-0.1-0.3l0.3,0c2.9-0.1,6.9-0.1,11.2-0.1
									c-0.2-0.2,0.3,0.2,0.3,0.2l0,0l0,0l0,0l0,0l0,0l0,0l0,0.1l0,0.2l0.1,0.4l0.2,0.7c0.1,0.5,0.2,1,0.4,1.4
									c0.2,0.9,0.5,1.9,0.7,2.7l0.1,0.3l-0.3,0c-3.3,0-6.1,0-8.1-0.1c-0.9,0-1.7,0-2.3-0.1C378.7,329.2,378.4,329.2,378.5,329.2
									c0,0,0.3,0,0.9-0.1c0.6,0,1.4,0,2.3-0.1c2-0.1,4.7-0.1,8-0.1l-0.2,0.3c-0.2-0.9-0.5-1.8-0.7-2.7c-0.1-0.5-0.2-1-0.4-1.4
									l-0.2-0.7l-0.1-0.4l0-0.2l0-0.1l0,0l0,0l0,0l0,0l0,0l0,0c-0.1,0,0.5,0.4,0.3,0.2c-4.3,0-8.2,0-11.2,0l0.2-0.3
									c0.4,1.7,0.7,3.1,0.9,4.1C378.4,328.6,378.5,329.1,378.5,329.2z"/>
							</g>
						</g>
					</g>
					<g>
						<g>
							<g>
								
									<ellipse transform="matrix(-1 3.943346e-003 -3.943346e-003 -1 767.1851 626.4594)" fill="#1A2E35" cx="383" cy="314" rx="3.7" ry="0.3"/>
							</g>
						</g>
					</g>
					<g>
						<g>
							<g>
								
									<ellipse transform="matrix(-1 3.948352e-003 -3.948352e-003 -1 767.4172 628.8809)" fill="#1A2E35" cx="383.1" cy="315.2" rx="3.7" ry="0.3"/>
							</g>
						</g>
					</g>
					<g>
						<g>
							<g>
								
									<ellipse transform="matrix(-1 3.945491e-003 -3.945491e-003 -1 767.6033 631.219)" fill="#1A2E35" cx="383.2" cy="316.4" rx="3.6" ry="0.3"/>
							</g>
						</g>
					</g>
					<g>
						<g>
							<g>
								
									<ellipse transform="matrix(-1 3.944061e-003 -3.944061e-003 -1 767.3228 649.7518)" fill="#1A2E35" cx="383" cy="325.6" rx="3.5" ry="0.3"/>
							</g>
						</g>
					</g>
					<g>
						<g>
							<g>
								
									<ellipse transform="matrix(-1 3.946922e-003 -3.946922e-003 -1 767.1666 652.4361)" fill="#1A2E35" cx="382.9" cy="327" rx="3" ry="0.3"/>
							</g>
						</g>
					</g>
				</g>
			</g>
			<g>
				<g>
					<polygon fill="#1A2E35" points="311.7,343.2 311.7,348.9 315.5,348.9 315.5,465.3 323.2,465.3 323.2,348.9 364.2,348.9 
						364.2,465.3 371.9,465.3 371.9,348.9 549.8,348.9 549.8,465.3 557.5,465.3 557.5,348.9 560.8,348.9 560.8,343.2 					"/>
				</g>
			</g>
			<g>
				<g>
					<g>
						<g>
							<ellipse fill="#1A2E35" cx="484.2" cy="386.5" rx="5" ry="0.2"/>
						</g>
					</g>
				</g>
			</g>
			<g>
				<g>
					<g>
						<ellipse fill="#375A64" cx="406.1" cy="387.6" rx="0.3" ry="0.1"/>
					</g>
				</g>
			</g>
			<g>
				<g>
					<g>
						<g>
							<path fill="#B78876" d="M455.3,284.1l-28.8-29.3l-0.6-3.2c-0.1-0.6-0.2-1.2-0.4-2c-0.1-0.9-0.1-1.7,0-2.6
								c0.2-1,0.5-2.4,0.9-3.1c0.5-0.8-0.3-1.9-1.1-1.5c-0.8,0.4-2.2,2.7-2.5,5.8c-0.3,3.2-3-1-4-2.5c-1-1.5-4.4-6-5-6.1
								c-1-0.1-1.3,1-0.2,2.5c1.1,1.5,3.9,6.2,3.1,6.7c0,0,0,0,0,0c-1.6-0.3-3.2,0.5-4,2c-0.7,1.4-1.5,3.4-0.9,4.3
								c1.3,1.7,4.6,4.9,4.6,4.9l1,0.8c0,0,25,36.2,30.4,37.3c3.4,0.7,55.7,5.1,55.7,5.1l3.9-14.4L455.3,284.1z"/>
						</g>
					</g>
					<g>
						<g>
							<g>
								<path fill="#B78876" d="M411.4,254.5c0.9,0.9,1.8,1.7,2.7,2.6c0.3,0.3,0.6,0.6,1,0.7c0.4,0.2,0.9,0.1,1.2-0.2
									c0.3-0.3,0.3-0.7,0.2-1.1c-0.1-0.4-0.4-0.7-0.6-0.9c-0.9-1-1.7-2.1-2.6-3.1"/>
							</g>
						</g>
						<g>
							<g>
								<g>
									<path fill="#AA6550" d="M413.2,252.5c0.1,0,0.6,0.4,1.3,1.3c0.4,0.5,0.9,1,1.3,1.5c0.2,0.3,0.5,0.6,0.7,1
										c0.2,0.4,0.3,1-0.1,1.5c-0.4,0.5-1,0.5-1.5,0.3c-0.5-0.2-0.8-0.5-1-0.7c-0.5-0.5-0.9-1-1.4-1.4c-0.8-0.8-1.2-1.4-1.2-1.4
										c0.1-0.1,0.6,0.4,1.5,1.1c0.5,0.4,1,0.9,1.5,1.3c0.3,0.2,0.6,0.5,0.9,0.6c0.3,0.1,0.7,0.1,0.9-0.2c0.2-0.2,0.2-0.6,0-0.9
										c-0.1-0.3-0.4-0.6-0.6-0.9c-0.4-0.5-0.8-1.1-1.2-1.6C413.6,253.1,413.2,252.6,413.2,252.5z"/>
								</g>
							</g>
						</g>
					</g>
					<g>
						<g>
							<g>
								<path fill="#B78876" d="M413.3,252.7c0.9,0.9,1.8,1.7,2.7,2.6c0.3,0.3,0.6,0.6,1,0.7c0.4,0.2,0.9,0.1,1.2-0.2
									c0.3-0.3,0.3-0.7,0.2-1.1c-0.1-0.4-0.4-0.7-0.6-0.9c-0.9-1-1.7-2.1-2.6-3.1"/>
							</g>
						</g>
						<g>
							<g>
								<g>
									<path fill="#AA6550" d="M415.1,250.6c0.1,0,0.6,0.4,1.3,1.3c0.4,0.5,0.9,1,1.3,1.5c0.2,0.3,0.5,0.6,0.7,1
										c0.2,0.4,0.3,1-0.1,1.5c-0.4,0.5-1,0.5-1.5,0.3c-0.5-0.2-0.8-0.5-1-0.7c-0.5-0.5-0.9-1-1.4-1.4c-0.8-0.8-1.2-1.4-1.2-1.4
										c0.1-0.1,0.6,0.4,1.5,1.1c0.5,0.4,1,0.9,1.5,1.3c0.3,0.2,0.6,0.5,0.9,0.6c0.3,0.1,0.7,0.1,0.9-0.2c0.2-0.2,0.2-0.6,0-0.9
										c-0.1-0.3-0.4-0.6-0.6-0.9c-0.4-0.5-0.8-1.1-1.2-1.6C415.5,251.3,415.1,250.7,415.1,250.6z"/>
								</g>
							</g>
						</g>
					</g>
					<g>
						<g>
							<g>
								<path fill="#B78876" d="M415.4,251.1c0.9,0.9,1.8,1.7,2.7,2.6c0.3,0.3,0.6,0.6,1,0.7c0.4,0.2,0.9,0.1,1.2-0.2
									c0.3-0.3,0.3-0.7,0.2-1.1c-0.1-0.4-0.4-0.7-0.6-0.9c-0.9-1-1.7-2.1-2.6-3.1"/>
							</g>
						</g>
						<g>
							<g>
								<g>
									<path fill="#AA6550" d="M417.2,249.1c0.1,0,0.6,0.4,1.3,1.3c0.4,0.5,0.9,1,1.3,1.5c0.2,0.3,0.5,0.6,0.7,1
										c0.2,0.4,0.3,1-0.1,1.5c-0.4,0.5-1,0.5-1.5,0.3c-0.5-0.2-0.8-0.5-1-0.7c-0.5-0.5-0.9-1-1.4-1.4c-0.8-0.8-1.2-1.4-1.2-1.4
										c0.1-0.1,0.6,0.4,1.5,1.1c0.5,0.4,1,0.9,1.5,1.3c0.3,0.2,0.6,0.5,0.9,0.6c0.3,0.1,0.7,0.1,0.9-0.2c0.2-0.2,0.2-0.6,0-0.9
										c-0.1-0.3-0.4-0.6-0.6-0.9c-0.4-0.5-0.8-1.1-1.2-1.6C417.5,249.7,417.1,249.2,417.2,249.1z"/>
								</g>
							</g>
						</g>
					</g>
					<g>
						<g>
							<g>
								<path fill="#AA6550" d="M419.6,255.6c0-0.1,0.7-0.2,1.6,0.1l-0.3,0.3c-0.1-0.5-0.2-1.2-0.1-1.8c0.2-1,0.6-1.8,1-2.2
									c0.4-0.5,0.8-0.7,0.8-0.6c0.1,0.1-1,1.2-1.3,2.9c-0.1,0.6-0.1,1.2,0,1.7l0.1,0.4l-0.4-0.2
									C420.3,255.7,419.6,255.7,419.6,255.6z"/>
							</g>
						</g>
					</g>
				</g>
				<g>
					<g>
						<g>
							<g>
								<path fill="#B78876" d="M493.1,240.2l0.1,40.1l-15.7,0.7l-0.6-9.6c0,0-7.6,1.1-9.1-4.5c-1-3.6-0.8-31.7-0.8-31.7
									L493.1,240.2z"/>
							</g>
						</g>
						<g>
							<g>
								<path fill="#1A2E35" d="M463.1,239.2c1.2,2.4,6.7,6.8,6.7,6.8l2.5,6.7c2.2-1.7,5.1-1.6,5.6,2.2c0.4,2.8-3,3.3-3,3.3
									c2,3.4,3.3,6.1,6.2,9.4c3.1,3.5,4.9,3.8,8.3,3.9h3.8c0,0,7.7-6.4,6.2-23.3s-16.7-12-20.3-16.2
									C473.1,225.1,459.2,231.2,463.1,239.2z"/>
							</g>
						</g>
					</g>
					<g>
						<g>
							<g>
								<path fill="#375A64" d="M498.5,262.3c0,0-0.7,0.1-1.9-0.1c-1.2-0.2-2.9-0.9-4.5-2.3c-1.6-1.4-3.1-3.6-4.5-6
									c-1.5-2.4-3.1-5.2-5.8-7c-2.7-1.8-5.9-2.2-8.7-2.8c-2.8-0.5-5.3-1.3-7-2.7c-1.7-1.3-2.6-3-2.8-4.2c-0.3-1.2-0.1-1.9-0.1-1.9
									c0,0-0.1,0.7,0.2,1.8c0.3,1.1,1.1,2.8,2.8,4.1c1.7,1.3,4.2,2.1,6.9,2.6c2.7,0.6,6,0.9,8.8,2.8c2.7,1.9,4.3,4.7,5.8,7.1
									c1.4,2.4,2.9,4.6,4.5,6c1.6,1.4,3.2,2.1,4.4,2.3c0.6,0.1,1,0.1,1.4,0.2C498.3,262.3,498.5,262.3,498.5,262.3z"/>
							</g>
						</g>
					</g>
					<g>
						<g>
							<g>
								<path fill="#375A64" d="M499.4,248.5c0,0-0.3-0.1-0.8-0.2c-0.5-0.2-1.3-0.4-2.4-0.5c-1-0.1-2.4,0-3.6,0.8
									c-0.6,0.4-1.1,1.1-1.3,1.9c-0.1,0.8,0,1.8,0.7,2.4c0.3,0.3,0.8,0.5,1.3,0.5c0.5,0,1-0.1,1.4-0.4c0.9-0.5,1.6-1.4,1.9-2.4
									c0.7-2.1,0.2-4.7-1.7-6.4c-0.9-0.8-2.1-1.4-3.4-1.5c-1.3-0.1-2.6,0.1-3.9,0.5c-1.3,0.4-2.6,0.8-4,1c-1.4,0.2-2.8,0.2-4.3,0
									c-1.4-0.2-2.8-0.5-4.1-1.1c-1.3-0.6-2.4-1.6-2.8-3c-0.4-1.3,0-2.9,1-3.8c1-1,2.5-1.1,3.7-0.5c0.6,0.3,1.1,0.7,1.4,1.3
									c0.3,0.6,0.4,1.2,0.3,1.8c-0.2,1.2-0.9,2.3-1.8,2.9c-1,0.6-2.1,0.8-3.1,0.9c-1,0-2-0.2-2.9-0.5c-1.8-0.6-3.3-1.6-4.3-2.7
									c-1.1-1.1-1.8-2.2-2.2-3.1c-0.5-1-0.6-1.8-0.8-2.3c-0.1-0.5-0.1-0.8-0.1-0.8s0.1,0.3,0.2,0.8c0.2,0.5,0.3,1.3,0.8,2.3
									c0.5,0.9,1.1,2,2.2,3.1c1,1,2.5,2,4.3,2.6c0.9,0.3,1.9,0.5,2.9,0.4c1,0,2.1-0.2,3-0.8c0.9-0.6,1.6-1.6,1.7-2.7
									c0.2-1.1-0.4-2.4-1.5-2.9c-1.1-0.5-2.5-0.4-3.4,0.5c-0.9,0.9-1.3,2.3-0.9,3.6c0.4,1.3,1.5,2.3,2.7,2.8
									c1.2,0.6,2.6,0.9,4.1,1.1c1.4,0.2,2.8,0.2,4.2,0c1.4-0.2,2.7-0.6,4-1c1.3-0.4,2.6-0.7,4-0.5c1.3,0.1,2.6,0.7,3.5,1.6
									c1.9,1.7,2.4,4.5,1.7,6.6c-0.3,1.1-1.1,2-2,2.5c-0.5,0.3-1,0.4-1.5,0.4c-0.5,0-1-0.2-1.4-0.5c-0.7-0.7-0.9-1.7-0.8-2.5
									c0.1-0.9,0.7-1.6,1.3-2c1.3-0.9,2.7-0.9,3.7-0.8c1.1,0.1,1.8,0.4,2.4,0.6C499.1,248.4,499.4,248.5,499.4,248.5z"/>
							</g>
						</g>
					</g>
				</g>
				<g>
					<g>
						<g>
							<g>
								<g>
									<g>
										<g>
											<g>
												<g>
													<path fill="#3C7AA5" d="M479.5,455.5l-5.1-6.6l12.2-9.7l7.6,9.5l-0.7,0.6c-3.2,2.9-16.6,14.3-19.4,15.4
														C471,466,479.5,455.5,479.5,455.5z"/>
												</g>
											</g>
										</g>
									</g>
								</g>
							</g>
							<g opacity="0.4">
								<g>
									<g>
										<g>
											<g>
												<path fill="#FFFFFF" d="M475.5,460.8c0,0-2.8,3.9-1.9,4.2c0.9,0.2,14.9-10.8,20.6-16.2l-0.2-0.3l-16.2,13
													C477.8,461.5,476.2,460.3,475.5,460.8z"/>
											</g>
										</g>
									</g>
								</g>
							</g>
							<g>
								<g>
									<g>
										<g>
											<g>
												<g>
													<path fill="#1A2E35" d="M494.2,448.4c0,0-0.1,0.1-0.2,0.2c-0.2,0.2-0.4,0.3-0.6,0.5c-0.6,0.5-1.3,1.1-2.1,1.9
														c-1.8,1.6-4.4,3.7-7.2,5.9c-2.9,2.3-5.5,4.3-7.4,5.7c-0.9,0.7-1.7,1.2-2.3,1.7c-0.2,0.2-0.4,0.3-0.6,0.4
														c-0.1,0.1-0.2,0.1-0.2,0.1c0,0,0.1-0.1,0.2-0.2c0.2-0.1,0.4-0.3,0.6-0.5c0.6-0.5,1.4-1,2.3-1.7
														c1.9-1.4,4.5-3.5,7.4-5.7c2.9-2.3,5.4-4.4,7.3-5.9c0.9-0.7,1.6-1.3,2.2-1.8c0.2-0.2,0.4-0.3,0.6-0.5
														C494.1,448.4,494.2,448.4,494.2,448.4z"/>
												</g>
											</g>
										</g>
									</g>
								</g>
							</g>
							<g>
								<g>
									<g>
										<g>
											<g>
												<g>
													<path fill="#1A2E35" d="M478,461.7c0,0-0.5-0.5-1.3-0.7c-0.8-0.3-1.4-0.2-1.4-0.3c0,0,0.7-0.2,1.5,0.1
														C477.6,461.1,478,461.7,478,461.7z"/>
												</g>
											</g>
										</g>
									</g>
								</g>
							</g>
							<g>
								<g>
									<g>
										<g>
											<g>
												<g>
													
														<ellipse transform="matrix(0.944 0.3299 -0.3299 0.944 177.5194 -132.5707)" fill="#1A2E35" cx="479.4" cy="456.8" rx="0.8" ry="0.1"/>
												</g>
											</g>
										</g>
									</g>
								</g>
							</g>
							<g>
								<g>
									<g>
										<g>
											<g>
												<g>
													
														<ellipse transform="matrix(0.998 6.281213e-002 -6.281213e-002 0.998 29.5709 -29.2522)" fill="#1A2E35" cx="480" cy="455.7" rx="0.7" ry="0.1"/>
												</g>
											</g>
										</g>
									</g>
								</g>
							</g>
							<g>
								<g>
									<g>
										<g>
											<g>
												<g>
													
														<ellipse transform="matrix(0.7774 -0.629 0.629 0.7774 -179.1475 402.9733)" fill="#1A2E35" cx="479.8" cy="454.6" rx="0.8" ry="0.1"/>
												</g>
											</g>
										</g>
									</g>
								</g>
							</g>
							<g>
								<g>
									<g>
										<g>
											<g>
												<g>
													<path fill="#1A2E35" d="M480,453.1c0,0-0.2,0.4-0.5,0.8c-0.4,0.4-0.8,0.5-0.8,0.5c0,0,0.3-0.3,0.7-0.6
														C479.7,453.4,479.9,453.1,480,453.1z"/>
												</g>
											</g>
										</g>
									</g>
								</g>
							</g>
							<g>
								<g>
									<g>
										<g>
											<g>
												<g>
													<path fill="#1A2E35" d="M478.9,456.3c0,0-0.3,0.3-0.8,0.6c-0.3,0.2-0.6,0.3-1,0.5c-0.2,0.1-0.4,0.2-0.6,0.2
														c-0.1,0-0.3,0-0.4-0.1c-0.1-0.1-0.2-0.3-0.1-0.4c0.4-1,1.5-1.2,2.1-1c0.3,0.1,0.5,0.2,0.7,0.3c0.1,0.1,0.2,0.2,0.2,0.2
														c0,0-0.3-0.3-0.9-0.4c-0.3-0.1-0.7-0.1-1,0.1c-0.3,0.1-0.8,0.4-0.9,0.8c-0.1,0.2,0.1,0.3,0.3,0.3
														c0.2,0,0.4-0.1,0.6-0.2c0.4-0.1,0.7-0.3,1-0.4C478.5,456.5,478.8,456.3,478.9,456.3z"/>
												</g>
											</g>
										</g>
									</g>
								</g>
							</g>
							<g>
								<g>
									<g>
										<g>
											<g>
												<g>
													<path fill="#1A2E35" d="M478.7,456.5c0,0-0.3-0.1-0.5-0.5c-0.1-0.2-0.2-0.4-0.2-0.7c0-0.3,0-0.7,0.3-0.9
														c0.2-0.1,0.5,0,0.5,0.2c0.1,0.1,0.1,0.3,0.1,0.5c0,0.3,0,0.6,0,0.8C478.9,456.2,478.8,456.4,478.7,456.5
														c0-0.1,0.1-0.3,0.1-0.7c0-0.2,0-0.5,0-0.7c0-0.3-0.2-0.6-0.4-0.5c-0.2,0.1-0.3,0.5-0.3,0.7c0,0.3,0.1,0.5,0.2,0.7
														C478.5,456.3,478.7,456.5,478.7,456.5z"/>
												</g>
											</g>
										</g>
									</g>
								</g>
							</g>
							<g>
								<g>
									<g>
										<g>
											<g>
												<g>
													<path fill="#1A2E35" d="M491.3,445.2c0,0-0.4,0.2-0.9,0.7c-0.5,0.5-1.1,1.3-1.3,2.4c-0.2,1.1-0.1,2.1,0.1,2.7
														c0.2,0.7,0.5,1,0.5,1.1c0,0-0.1-0.1-0.2-0.2c-0.1-0.2-0.3-0.4-0.4-0.8c-0.3-0.7-0.5-1.7-0.2-2.8
														c0.3-1.1,0.9-1.9,1.4-2.4c0.3-0.2,0.5-0.4,0.7-0.5C491.2,445.2,491.3,445.2,491.3,445.2z"/>
												</g>
											</g>
										</g>
									</g>
								</g>
							</g>
							<g>
								<g>
									<g>
										<g>
											<g>
												<g>
													
														<ellipse transform="matrix(-0.6301 -0.7765 0.7765 -0.6301 451.0399 1102.0668)" fill="#1A2E35" cx="488" cy="443.6" rx="3.2" ry="0.1"/>
												</g>
											</g>
										</g>
									</g>
								</g>
							</g>
							<g>
								<g>
									<g>
										<g>
											<g>
												<g>
													<path fill="#1A2E35" d="M487.2,452.2c0,0-0.7,0.8-1.6,1.6c-1,0.8-1.9,1.3-1.9,1.3c0,0,0.8-0.6,1.8-1.4
														C486.4,452.9,487.2,452.2,487.2,452.2z"/>
												</g>
											</g>
										</g>
									</g>
								</g>
							</g>
							<g>
								<g>
									<g>
										<g>
											<g>
												<g>
													<path fill="#1A2E35" d="M489.6,450.3c0.1,0,0.1,0.2,0.1,0.5c0.1,0.2,0.1,0.4,0.1,0.5c0,0-0.2-0.1-0.3-0.4
														C489.5,450.5,489.6,450.3,489.6,450.3z"/>
												</g>
											</g>
										</g>
									</g>
								</g>
							</g>
							<g>
								<g>
									<g>
										<g>
											<g>
												<g>
													
														<ellipse transform="matrix(0.1092 -0.994 0.994 0.1092 -10.0908 886.5101)" fill="#1A2E35" cx="489.6" cy="448.9" rx="0.4" ry="0.1"/>
												</g>
											</g>
										</g>
									</g>
								</g>
							</g>
							<g>
								<g>
									<g>
										<g>
											<g>
												<g>
													<path fill="#1A2E35" d="M490.5,446.9c0,0-0.1,0.2-0.3,0.4c-0.1,0.2-0.2,0.4-0.2,0.4c-0.1,0-0.1-0.3,0.1-0.5
														C490.2,447,490.5,446.9,490.5,446.9z"/>
												</g>
											</g>
										</g>
									</g>
								</g>
							</g>
							<g>
								<g>
									<g>
										<g>
											<g>
												<g>
													
														<ellipse transform="matrix(0.5072 -0.8619 0.8619 0.5072 -142.5031 643.1649)" fill="#1A2E35" cx="491.1" cy="446.2" rx="0.3" ry="0.1"/>
												</g>
											</g>
										</g>
									</g>
								</g>
							</g>
						</g>
					</g>
					<g opacity="0.3">
						<g>
							<g>
								<polygon points="491,444.9 478.6,454.4 477.5,452.9 490.5,444 								"/>
							</g>
						</g>
					</g>
				</g>
				<g>
					<g>
						<g>
							<g>
								<g>
									<g>
										<g>
											<g>
												<g>
													<path fill="#3C7AA5" d="M423.2,462.1l0-8.3l15.6-0.1l0.1,12.2l-1,0.1c-4.3,0.3-21.9,1-24.8,0.1
														C410,465.1,423.2,462.1,423.2,462.1z"/>
												</g>
											</g>
										</g>
									</g>
								</g>
							</g>
							<g opacity="0.4">
								<g>
									<g>
										<g>
											<g>
												<path fill="#FFFFFF" d="M416.8,463.8c0,0-4.6,1.4-4.1,2.1c0.6,0.8,18.4,0.7,26.2,0l0-0.3l-20.8,0.3
													C418.2,465.8,417.7,463.8,416.8,463.8z"/>
											</g>
										</g>
									</g>
								</g>
							</g>
							<g>
								<g>
									<g>
										<g>
											<g>
												<g>
													<path fill="#1A2E35" d="M439.2,465.5c0,0-0.1,0-0.3,0c-0.2,0-0.5,0-0.8,0c-0.8,0-1.7,0.1-2.8,0.1
														c-2.4,0.1-5.7,0.2-9.4,0.2c-3.7,0-7,0-9.4-0.1c-1.1,0-2.1-0.1-2.8-0.1c-0.3,0-0.5,0-0.8,0c-0.2,0-0.3,0-0.3,0
														c0,0,0.1,0,0.3,0c0.2,0,0.5,0,0.8,0c0.8,0,1.7,0,2.8,0c2.4,0,5.7,0.1,9.4,0.1c3.7,0,7-0.1,9.4-0.1
														c1.1,0,2.1-0.1,2.8-0.1c0.3,0,0.5,0,0.8,0C439.1,465.5,439.2,465.5,439.2,465.5z"/>
												</g>
											</g>
										</g>
									</g>
								</g>
							</g>
							<g>
								<g>
									<g>
										<g>
											<g>
												<g>
													<path fill="#1A2E35" d="M418.2,466c-0.1,0-0.1-0.7-0.5-1.4c-0.4-0.7-1-1-1-1.1c0,0,0.7,0.2,1.1,1
														C418.3,465.3,418.2,466,418.2,466z"/>
												</g>
											</g>
										</g>
									</g>
								</g>
							</g>
							<g>
								<g>
									<g>
										<g>
											<g>
												<g>
													
														<ellipse transform="matrix(0.5394 0.842 -0.842 0.5394 584.4013 -142.3694)" fill="#1A2E35" cx="422.3" cy="463" rx="0.8" ry="0.1"/>
												</g>
											</g>
										</g>
									</g>
								</g>
							</g>
							<g>
								<g>
									<g>
										<g>
											<g>
												<g>
													
														<ellipse transform="matrix(0.7468 0.6651 -0.6651 0.7468 414.891 -164.5459)" fill="#1A2E35" cx="423.5" cy="462.6" rx="0.7" ry="0.1"/>
												</g>
											</g>
										</g>
									</g>
								</g>
							</g>
							<g>
								<g>
									<g>
										<g>
											<g>
												<g>
													
														<ellipse transform="matrix(0.9999 -1.548153e-002 1.548153e-002 0.9999 -7.0945 6.6194)" fill="#1A2E35" cx="424" cy="461.5" rx="0.8" ry="0.1"/>
												</g>
											</g>
										</g>
									</g>
								</g>
							</g>
							<g>
								<g>
									<g>
										<g>
											<g>
												<g>
													<path fill="#1A2E35" d="M425.1,460.5c0,0-0.4,0.2-0.9,0.3c-0.5,0-0.9-0.1-0.9-0.1c0-0.1,0.4,0,0.9-0.1
														C424.7,460.5,425.1,460.4,425.1,460.5z"/>
												</g>
											</g>
										</g>
									</g>
								</g>
							</g>
							<g>
								<g>
									<g>
										<g>
											<g>
												<g>
													<path fill="#1A2E35" d="M422.2,462.3c0,0-0.4,0.1-1,0c-0.3,0-0.7-0.1-1.1-0.2c-0.2-0.1-0.4-0.1-0.6-0.2
														c-0.1-0.1-0.2-0.2-0.2-0.3c0-0.1,0-0.3,0.2-0.4c1-0.5,1.9,0,2.3,0.5c0.2,0.3,0.3,0.5,0.3,0.7c0,0.2,0,0.3,0,0.3
														c0,0-0.1-0.4-0.5-0.9c-0.2-0.2-0.5-0.4-0.9-0.6c-0.4-0.1-0.9-0.1-1.2,0.1c-0.2,0.1-0.1,0.3,0.1,0.4
														c0.2,0.1,0.4,0.2,0.6,0.2c0.4,0.1,0.7,0.2,1,0.3C421.8,462.3,422.2,462.3,422.2,462.3z"/>
												</g>
											</g>
										</g>
									</g>
								</g>
							</g>
							<g>
								<g>
									<g>
										<g>
											<g>
												<g>
													<path fill="#1A2E35" d="M422,462.4c0,0-0.2-0.2-0.1-0.7c0-0.2,0.1-0.5,0.3-0.7c0.2-0.2,0.4-0.5,0.8-0.5
														c0.2,0,0.3,0.3,0.3,0.5c0,0.2-0.1,0.3-0.2,0.4c-0.1,0.3-0.3,0.5-0.5,0.6C422.3,462.2,422.1,462.4,422,462.4
														c0.1,0,0.3-0.2,0.6-0.5c0.1-0.2,0.3-0.4,0.4-0.6c0.1-0.2,0.2-0.6,0-0.6c-0.3,0-0.5,0.2-0.7,0.4
														c-0.2,0.2-0.2,0.5-0.3,0.7C421.9,462.1,422,462.4,422,462.4z"/>
												</g>
											</g>
										</g>
									</g>
								</g>
							</g>
							<g>
								<g>
									<g>
										<g>
											<g>
												<g>
													<path fill="#1A2E35" d="M438.8,461.2c0,0-0.4,0-1.2,0c-0.7,0.1-1.7,0.4-2.5,1c-0.8,0.7-1.3,1.6-1.6,2.2
														c-0.2,0.7-0.3,1.1-0.3,1.1c0,0,0-0.1,0-0.3c0-0.2,0.1-0.5,0.2-0.8c0.2-0.7,0.7-1.6,1.6-2.3c0.9-0.7,1.9-1,2.6-1
														c0.4,0,0.7,0,0.9,0C438.7,461.2,438.8,461.2,438.8,461.2z"/>
												</g>
											</g>
										</g>
									</g>
								</g>
							</g>
							<g>
								<g>
									<g>
										<g>
											<g>
												<g>
													
														<ellipse transform="matrix(-1.693506e-002 -0.9999 0.9999 -1.693506e-002 -13.2533 902.9017)" fill="#1A2E35" cx="437.2" cy="458" rx="3.2" ry="0.1"/>
												</g>
											</g>
										</g>
									</g>
								</g>
							</g>
							<g>
								<g>
									<g>
										<g>
											<g>
												<g>
													<path fill="#1A2E35" d="M431.3,464.3c0,0-1,0.2-2.3,0.2c-1.3,0-2.3-0.1-2.3-0.2c0-0.1,1,0,2.3,0
														C430.3,464.3,431.3,464.2,431.3,464.3z"/>
												</g>
											</g>
										</g>
									</g>
								</g>
							</g>
							<g>
								<g>
									<g>
										<g>
											<g>
												<g>
													<path fill="#1A2E35" d="M434.4,464.2c0,0-0.1,0.2-0.2,0.5c-0.1,0.2-0.2,0.4-0.2,0.4c-0.1,0-0.1-0.2,0-0.5
														C434.1,464.3,434.4,464.2,434.4,464.2z"/>
												</g>
											</g>
										</g>
									</g>
								</g>
							</g>
							<g>
								<g>
									<g>
										<g>
											<g>
												<g>
													
														<ellipse transform="matrix(0.6993 -0.7149 0.7149 0.6993 -200.158 450.4059)" fill="#1A2E35" cx="435.2" cy="463.1" rx="0.4" ry="0.1"/>
												</g>
											</g>
										</g>
									</g>
								</g>
							</g>
							<g>
								<g>
									<g>
										<g>
											<g>
												<g>
													<path fill="#1A2E35" d="M437.2,462.1c0,0.1-0.2,0.1-0.4,0.1c-0.2,0.1-0.4,0.2-0.4,0.2c0,0,0.1-0.3,0.4-0.3
														C436.9,462,437.2,462.1,437.2,462.1z"/>
												</g>
											</g>
										</g>
									</g>
								</g>
							</g>
							<g>
								<g>
									<g>
										<g>
											<g>
												<g>
													
														<ellipse transform="matrix(0.9308 -0.3655 0.3655 0.9308 -138.5259 192.1076)" fill="#1A2E35" cx="438.1" cy="461.9" rx="0.3" ry="0.1"/>
												</g>
											</g>
										</g>
									</g>
								</g>
							</g>
						</g>
					</g>
					<g opacity="0.3">
						<g>
							<g>
								<polygon points="438.9,460.6 423.2,460.6 423.3,458.8 438.9,458.7 								"/>
							</g>
						</g>
					</g>
				</g>
				<g>
					<g>
						<g>
							<g>
								<path fill="#B78876" d="M461.7,318.4l-6.2,18.8c-1.7,5.1-6.1,5.9-11.5,5.9h-34.7v-7.8l31.7-4.5l7.6-19.3L461.7,318.4z"/>
							</g>
						</g>
					</g>
					<g>
						<g>
							<g>
								<g>
									<path fill="#B78876" d="M405.5,333.8l-2.8-1.3c0,0-3-5.7-3.7-5.5c-0.7,0.2-0.9,1.9,0.3,4.6l-3.7-1c0,0-7.9,3.7-7.6,4.2
										c0.4,0.5,1,1.7,2.7,0.8c1.7-0.9,4-1.9,4-1.9l4.3,1.2l-5.5,0.7l-5.2,4.7c0,0,1.7,1.3,3.2-0.1l13.5,2.9l4.2,0.2v-7.8
										L405.5,333.8z"/>
								</g>
							</g>
						</g>
						<g>
							<g>
								<g>
									<g>
										<path fill="#AA6550" d="M391.6,340c0.1,0,0.3-0.4,0.8-0.9c0.2-0.3,0.6-0.5,1-0.8c0.4-0.2,0.9-0.3,1.5-0.4
											c2.2-0.3,4.1-0.6,4-0.7c0-0.1-1.8,0-4.1,0.3c-0.6,0.1-1.1,0.2-1.6,0.5c-0.4,0.3-0.8,0.6-1,0.9
											C391.7,339.6,391.6,340,391.6,340z"/>
									</g>
								</g>
							</g>
						</g>
						<g>
							<g>
								<g>
									<g>
										<path fill="#AA6550" d="M393.7,340.6c0.1,0,0.1-0.3,0.5-0.4c0.4-0.1,1-0.1,1.6-0.2c1.3-0.1,2.4-0.1,2.4-0.2
											c0-0.1-1.1-0.3-2.4-0.2c-0.7,0.1-1.2,0.2-1.7,0.3c-0.2,0.1-0.4,0.3-0.4,0.4C393.6,340.5,393.7,340.6,393.7,340.6z"/>
									</g>
								</g>
							</g>
						</g>
					</g>
				</g>
				<g>
					<g>
						<g>
							<g>
								<g>
									<g>
										<g>
											<g>
												<g>
													<path fill="#3C7AA5" d="M464.7,314.3l-2.7,9l-16.9-7.7c0.6-1.9,3.4-10.3,8.8-23.7c3-7.5,9.6-12.8,17.6-14.2
														c5.5-0.9,11.6-1.6,16.2-1.6c9.5,0.1,23.5,6,25.4,15.4c1.4,7.1,0.1,19.7,0.1,34.9l-1.2,29.1l-48.7,1.7L464.7,314.3z"/>
												</g>
											</g>
										</g>
									</g>
								</g>
							</g>
						</g>
						<g opacity="0.3">
							<g>
								<g>
									<g>
										<path d="M513,319.8c-5.9,1.2-12,0-18.1-0.4c-3.7-0.2-7.7-0.6-10.6,1.6c-2.3,1.8-3.2,4.8-3.9,7.6c-2.5,10.8-3,18-3.6,29.1
											l29.3,1.8L513,319.8z"/>
									</g>
								</g>
							</g>
						</g>
					</g>
					<g>
						<g>
							<g>
								<g>
									<path fill="#1A2E35" d="M463.4,282.7c0,0,0.5,0.1,1.3,0.4c0.8,0.3,1.9,1,2.8,2.3c0.9,1.2,1.6,3,1.7,5.1
										c0.1,2-0.2,4.3-0.5,6.7c-0.8,4.7-1.9,8.9-2.7,11.9c-0.4,1.5-0.7,2.7-1,3.6c-0.2,0.8-0.3,1.3-0.3,1.3c0,0,0.2-0.4,0.5-1.3
										c0.3-0.8,0.7-2,1.1-3.6c0.9-3,2.1-7.2,2.9-12c0.4-2.4,0.7-4.7,0.5-6.8c-0.1-2.1-0.8-4-1.8-5.2c-1-1.3-2.1-2-3-2.2
										c-0.4-0.1-0.8-0.2-1-0.2C463.5,282.7,463.4,282.7,463.4,282.7z"/>
								</g>
							</g>
						</g>
					</g>
					<g>
						<g>
							<g>
								<g>
									<path fill="#1A2E35" d="M445.6,313.4c0,0.1,0.9,0.6,2.4,1.4c1.5,0.8,3.6,1.8,6,2.9c2.4,1.1,4.5,2,6.1,2.6
										c1.6,0.6,2.6,0.9,2.6,0.9c0-0.1-0.9-0.5-2.5-1.2c-1.6-0.7-3.7-1.6-6.1-2.7c-2.4-1.1-4.5-2.1-6-2.8
										C446.6,313.8,445.6,313.3,445.6,313.4z"/>
								</g>
							</g>
						</g>
					</g>
				</g>
				<g>
					<g>
						<g>
							<g>
								<path fill="#BCBAB1" d="M437.8,359.5c-8.3,4.5-11.4,14.9-7.1,23.2l42.4,72.8l19.6-11.8L459.8,378l23.9-15.6"/>
							</g>
						</g>
					</g>
					<g>
						<g>
							<g>
								<g>
									<path fill="#BCBAB1" d="M489.4,355.9l-58.2,2.1c-9.4,0.3-16.9,8.2-16.7,17.6l2.4,83.1l24.5-0.1l-0.8-78.6l48.9-1.3V355.9z"
										/>
								</g>
							</g>
						</g>
						<g>
							<g>
								<g>
									<path fill="#375A64" d="M440.6,382.9c0,0,0,0.3,0.1,0.8c0,0.6,0.1,1.3,0.1,2.2c0.1,1.9,0.1,4.7,0.2,8.1
										c0.1,6.9,0.2,16.3,0.3,26.8c0.1,10.4,0.1,19.9,0.1,26.8c0,3.4,0,6.1,0,8.1c0,0.9,0,1.6,0,2.2c0,0.5,0,0.8,0,0.8
										c0,0,0-0.3-0.1-0.8c0-0.6-0.1-1.3-0.1-2.2c-0.1-1.9-0.1-4.7-0.2-8.1c-0.1-6.9-0.2-16.3-0.3-26.8
										c-0.1-10.4-0.1-19.9-0.1-26.8c0-3.4,0-6.1,0-8.1c0-0.9,0-1.6,0-2.2C440.5,383.2,440.5,382.9,440.6,382.9z"/>
								</g>
							</g>
						</g>
					</g>
				</g>
			</g>
			<g>
				<g>
					<g>
						<path fill="#375A64" d="M514.6,303.2H497c-7.1,0-12.8,5.7-12.8,12.8v61.4H449c-4.9,0-8.9,4-8.9,8.9h80.3c0,0,0,0,0-0.1
							c3.9-0.2,7-3.4,7-7.3V316C527.5,308.9,521.7,303.2,514.6,303.2z"/>
					</g>
				</g>
				<g>
					<g>
						<g>
							<path fill="#1A2E35" d="M489.3,305.2c0.2,0,0.3,18.1,0.3,40.3c0,22.3-0.1,40.3-0.3,40.3c-0.2,0-0.3-18-0.3-40.3
								C489,323.2,489.2,305.2,489.3,305.2z"/>
						</g>
					</g>
				</g>
				<g>
					<g>
						<path fill="#375A64" d="M487.1,450.8v-64.4h-5.7v64.4c-3.5,6.9-11.7,11.5-21.7,15.4h51C500.3,461.9,491,458.7,487.1,450.8z"/>
					</g>
				</g>
			</g>
		</g>
		<g>
			<g>
				<g>
					<g>
						<path fill="#1A2E35" d="M241.5,442.4c0,0,0-0.1,0.2-0.4c0.1-0.3,0.3-0.6,0.5-1.1c0.4-1,1-2.4,1.5-4.4c1-3.9,1.3-9.8-0.1-16.9
							c-0.7-3.5-1.8-7.3-3.1-11.4c-1.3-4-2.9-8.3-4.1-12.9c-1.2-4.6-2.2-9.6-2-14.9c0.2-5.3,1.7-10.5,3.5-15.7
							c1.7-5.2,3.5-10.3,4-15.5c0.6-5.1-0.5-10.2-2.8-14.3c-2.3-4.2-5.1-7.7-7.2-11.4c-2.2-3.7-3.5-7.5-4.4-11
							c-1.6-7.1-1.1-13.1-0.3-17c0.8-4,1.8-6,1.8-6c0,0,0,0.1-0.1,0.4c-0.1,0.3-0.2,0.7-0.4,1.2c-0.3,1-0.7,2.5-1.1,4.5
							c-0.7,3.9-1.2,9.9,0.4,16.9c0.9,3.5,2.2,7.2,4.4,10.9c2.1,3.7,5,7.2,7.3,11.4c2.4,4.2,3.5,9.4,2.9,14.6
							c-0.5,5.2-2.3,10.4-4,15.6c-1.7,5.2-3.2,10.4-3.4,15.6c-0.2,5.2,0.8,10.1,2,14.7c1.2,4.6,2.8,8.9,4.1,12.9
							c1.3,4,2.4,7.9,3.1,11.4c1.4,7.1,1,13.1,0,17c-0.5,2-1.1,3.4-1.6,4.4c-0.2,0.5-0.4,0.8-0.6,1.1
							C241.6,442.3,241.5,442.4,241.5,442.4z"/>
					</g>
				</g>
				<g>
					<g>
						<path fill="#3C7AA5" d="M234.5,327.2c0,0-4.3-13.8,3.4-22c0.3-0.3,0.8-0.2,0.8,0.2C239.2,307.8,239.7,314.8,234.5,327.2z"/>
					</g>
					<g>
						<g>
							<path fill="#1A2E35" d="M237.1,309.9c0.1,0-0.1,1-0.3,2.6c-0.3,1.8-0.6,3.8-1,6.1c-0.4,2.3-0.7,4.3-1,6.1
								c-0.2,1.6-0.4,2.5-0.5,2.5c-0.1,0-0.1-1,0.1-2.6c0.1-1.6,0.4-3.8,0.8-6.1c0.4-2.4,0.8-4.5,1.1-6.1
								C236.8,310.8,237.1,309.9,237.1,309.9z"/>
						</g>
					</g>
				</g>
				<g>
					<g>
						<path fill="#3C7AA5" d="M239.6,359.9c0,0,2.6-14.3,13.3-17.8c0.4-0.1,0.7,0.2,0.6,0.6C252.8,344.9,250,351.3,239.6,359.9z"/>
					</g>
					<g>
						<g>
							<path fill="#1A2E35" d="M250,345.8c0.1,0-0.5,0.9-1.5,2.1c-1.1,1.4-2.3,3.1-3.7,4.9c-1.4,1.8-2.6,3.5-3.7,4.9
								c-0.9,1.3-1.5,2.1-1.6,2c-0.1,0,0.4-0.9,1.3-2.2c0.9-1.3,2.1-3.1,3.6-5.1c1.5-1.9,2.8-3.6,3.9-4.8
								C249.3,346.5,250,345.7,250,345.8z"/>
						</g>
					</g>
				</g>
				<g>
					<g>
						<path fill="#3C7AA5" d="M236.7,395.7c0,0-1.6-14.4,7.6-20.9c0.3-0.2,0.8,0,0.8,0.4C245,377.5,244.2,384.5,236.7,395.7z"/>
					</g>
					<g>
						<g>
							<path fill="#1A2E35" d="M242.6,379.2c0.1,0-0.2,1-0.8,2.5c-0.6,1.7-1.3,3.6-2.1,5.8c-0.8,2.2-1.5,4.1-2.1,5.8
								c-0.5,1.5-0.9,2.4-0.9,2.4c-0.1,0,0.1-1,0.6-2.5c0.4-1.5,1.1-3.6,2-5.9c0.8-2.3,1.7-4.3,2.3-5.8
								C242.1,380,242.5,379.1,242.6,379.2z"/>
						</g>
					</g>
				</g>
				<g>
					<g>
						<path fill="#3C7AA5" d="M244.8,431.7c0,0-1.1-14.5,8.3-20.6c0.3-0.2,0.8,0,0.7,0.4C253.7,413.8,252.6,420.7,244.8,431.7z"/>
					</g>
					<g>
						<g>
							<path fill="#1A2E35" d="M251.2,415.4c0.1,0-0.3,1-0.9,2.4c-0.7,1.7-1.5,3.6-2.3,5.7c-0.9,2.1-1.7,4.1-2.3,5.7
								c-0.6,1.5-0.9,2.4-1,2.4c-0.1,0,0.2-1,0.7-2.5c0.5-1.5,1.3-3.6,2.2-5.8c0.9-2.2,1.8-4.2,2.5-5.7
								C250.7,416.2,251.1,415.4,251.2,415.4z"/>
						</g>
					</g>
				</g>
				<g>
					<g>
						<path fill="#3C7AA5" d="M228.3,315.1c0,0-12.9-6.7-13.1-17.9c0-0.4,0.4-0.6,0.7-0.4C217.9,298,223.2,302.6,228.3,315.1z"/>
					</g>
					<g>
						<g>
							<path fill="#1A2E35" d="M217.9,301c0.1,0,0.7,0.7,1.6,2c1,1.4,2.3,3.1,3.6,5c1.4,1.9,2.6,3.6,3.6,5c0.9,1.3,1.5,2.1,1.5,2.1
								c-0.1,0-0.7-0.7-1.8-1.9c-1-1.2-2.4-3-3.8-4.9c-1.4-2-2.6-3.8-3.5-5.1C218.3,301.9,217.8,301,217.9,301z"/>
						</g>
					</g>
				</g>
				<g>
					<g>
						<path fill="#3C7AA5" d="M242.1,344.8c0,0-13.2-5.9-14.2-17.1c0-0.4,0.4-0.7,0.7-0.5C230.6,328.5,236.2,332.7,242.1,344.8z"/>
					</g>
					<g>
						<g>
							<path fill="#1A2E35" d="M230.8,331.4c0.1,0,0.7,0.7,1.7,1.9c1.1,1.4,2.5,3,3.9,4.8c1.5,1.8,2.8,3.4,3.9,4.8
								c1,1.2,1.6,2,1.6,2c-0.1,0-0.8-0.6-1.9-1.8c-1.1-1.2-2.5-2.8-4.1-4.7c-1.5-1.9-2.9-3.6-3.8-4.9
								C231.3,332.3,230.8,331.4,230.8,331.4z"/>
						</g>
					</g>
				</g>
				<g>
					<g>
						<path fill="#3C7AA5" d="M234.5,378c0,0-9.1-11.3-4.8-21.7c0.1-0.4,0.6-0.4,0.9-0.1C231.7,358.2,234.8,364.5,234.5,378z"/>
					</g>
					<g>
						<g>
							<path fill="#1A2E35" d="M230.6,360.9c0.1,0,0.3,0.9,0.7,2.5c0.4,1.7,0.8,3.8,1.3,6c0.5,2.3,0.9,4.3,1.3,6
								c0.4,1.5,0.6,2.5,0.5,2.5c-0.1,0-0.4-0.9-0.9-2.4c-0.4-1.5-1-3.7-1.5-6c-0.5-2.4-0.9-4.5-1.2-6.1
								C230.6,361.9,230.5,360.9,230.6,360.9z"/>
						</g>
					</g>
				</g>
				<g>
					<g>
						<path fill="#3C7AA5" d="M243.5,417c0,0-13.1-6.1-13.9-17.3c0-0.4,0.4-0.7,0.7-0.4C232.3,400.5,237.8,404.8,243.5,417z"/>
					</g>
					<g>
						<g>
							<path fill="#1A2E35" d="M232.5,403.4c0.1,0,0.7,0.7,1.7,1.9c1.1,1.4,2.4,3,3.8,4.8c1.4,1.8,2.7,3.4,3.9,4.8
								c1,1.2,1.6,2,1.6,2c-0.1,0-0.8-0.6-1.8-1.8c-1.1-1.2-2.5-2.8-4-4.7c-1.5-1.9-2.8-3.7-3.7-5
								C232.9,404.3,232.4,403.5,232.5,403.4z"/>
						</g>
					</g>
				</g>
				<g>
					<g>
						<g>
							<path fill="#1A2E35" d="M269.7,360c0,0,0,0.1,0,0.3c0,0.3,0,0.6,0,0.9c0,0.9-0.1,2-0.2,3.5c-0.2,3.1-0.4,7.4-0.7,12.6l0,0
								l0,0c-0.9,5.3-3.6,11.1-7.2,16.7c-2.6,4.2-5.4,7.9-7.8,11.5c-2.4,3.5-4.4,6.8-5.8,9.6c-1.4,2.9-2.2,5.3-2.7,7.1
								c-0.2,0.9-0.4,1.5-0.5,2c-0.1,0.5-0.2,0.7-0.2,0.7c0,0,0-0.3,0.1-0.7c0.1-0.5,0.2-1.2,0.4-2c0.4-1.8,1.2-4.3,2.6-7.2
								c1.4-2.9,3.4-6.2,5.8-9.8c2.4-3.5,5.1-7.3,7.7-11.5c3.6-5.6,6.2-11.4,7.2-16.5l0,0c0.4-5.2,0.7-9.5,0.9-12.6
								c0.1-1.5,0.2-2.6,0.3-3.5c0-0.4,0.1-0.7,0.1-0.9C269.7,360.1,269.7,360,269.7,360z"/>
						</g>
					</g>
					<g>
						<g>
							<path fill="#3C7AA5" d="M261.9,393c0,0,5.6-13.4-1.4-22.2c-0.2-0.3-0.7-0.2-0.8,0.2C259,373.2,257.8,380.1,261.9,393z"/>
						</g>
						<g>
							<g>
								<path fill="#1A2E35" d="M260.8,375.5c0.1,0,0.2,1,0.4,2.5c0.2,1.6,0.4,3.8,0.6,6.2c0.2,2.4,0.3,4.6,0.3,6.2
									c0,1.6-0.1,2.6-0.2,2.6c-0.1,0-0.1-1-0.2-2.6c-0.1-1.8-0.3-3.9-0.4-6.2c-0.2-2.3-0.3-4.4-0.4-6.2
									C260.8,376.5,260.8,375.5,260.8,375.5z"/>
							</g>
						</g>
						<g opacity="0.3">
							<path d="M261.9,393c0,0,5.6-13.4-1.4-22.2c-0.2-0.3-0.7-0.2-0.8,0.2C259,373.2,257.8,380.1,261.9,393z"/>
						</g>
					</g>
					<g>
						<g>
							<path fill="#3C7AA5" d="M244.6,425.3c0,0,4.5-13.8-3.2-22c-0.3-0.3-0.8-0.2-0.8,0.2C240.1,405.8,239.5,412.8,244.6,425.3z"/>
						</g>
						<g>
							<g>
								<path fill="#1A2E35" d="M242.2,407.9c0.1,0,0.3,0.9,0.6,2.5c0.3,1.6,0.7,3.7,1.1,6.1c0.4,2.4,0.6,4.6,0.8,6.2
									c0.1,1.6,0.1,2.6,0.1,2.6c-0.1,0-0.2-1-0.4-2.5c-0.3-1.8-0.6-3.8-0.9-6.1c-0.3-2.3-0.7-4.4-0.9-6.1
									C242.2,408.9,242.1,407.9,242.2,407.9z"/>
							</g>
						</g>
						<g opacity="0.3">
							<path d="M244.6,425.3c0,0,4.5-13.8-3.2-22c-0.3-0.3-0.8-0.2-0.8,0.2C240.1,405.8,239.5,412.8,244.6,425.3z"/>
						</g>
					</g>
					<g>
						<g>
							<path fill="#3C7AA5" d="M268.9,376.6c0,0,11.9-8.3,10.7-19.5c0-0.4-0.5-0.6-0.8-0.3C277.1,358.4,272.4,363.6,268.9,376.6z"/>
						</g>
						<g opacity="0.3">
							<path d="M268.9,376.6c0,0,11.9-8.3,10.7-19.5c0-0.4-0.5-0.6-0.8-0.3C277.1,358.4,272.4,363.6,268.9,376.6z"/>
						</g>
						<g>
							<g>
								<path fill="#1A2E35" d="M277.5,361.3c0.1,0-0.3,0.9-1,2.4c-0.7,1.4-1.7,3.4-2.8,5.5c-1.1,2.1-2.3,4-3.1,5.4
									c-0.9,1.3-1.5,2.1-1.5,2.1c-0.1,0,0.4-0.9,1.2-2.3c0.9-1.6,1.9-3.4,3-5.4c1.1-2,2.1-3.9,2.9-5.4
									C276.9,362.1,277.4,361.3,277.5,361.3z"/>
							</g>
						</g>
					</g>
					<g>
						<g>
							<path fill="#3C7AA5" d="M249.4,411.6c0,0,14.3-2.2,18.2-12.8c0.1-0.4-0.2-0.7-0.6-0.6C264.8,398.8,258.3,401.4,249.4,411.6z"
								/>
						</g>
						<g opacity="0.3">
							<path d="M249.4,411.6c0,0,14.3-2.2,18.2-12.8c0.1-0.4-0.2-0.7-0.6-0.6C264.8,398.8,258.3,401.4,249.4,411.6z"/>
						</g>
						<g>
							<g>
								<path fill="#1A2E35" d="M263.8,401.6c0,0.1-0.7,0.7-1.9,1.7c-1.2,1-3,2.3-5,3.7c-2,1.4-3.8,2.6-5.2,3.4
									c-1.4,0.8-2.2,1.3-2.3,1.2c0-0.1,0.8-0.6,2.1-1.5c1.5-1,3.2-2.2,5.1-3.6c1.9-1.3,3.6-2.6,5-3.6
									C263,402.1,263.8,401.5,263.8,401.6z"/>
							</g>
						</g>
					</g>
				</g>
			</g>
			<g>
				<polygon fill="#375A64" points="235.7,438 231.6,466.1 257.6,466.1 254.2,438 				"/>
			</g>
			<g>
				<g>
					<ellipse fill="#1A2E35" cx="244.8" cy="446.7" rx="10.5" ry="0.3"/>
				</g>
			</g>
			<g>
				<g>
					<ellipse fill="#1A2E35" cx="244.9" cy="448.9" rx="10.9" ry="0.3"/>
				</g>
			</g>
		</g>
	</g>
</g>
</svg>
